<?xml version="1.0" encoding="UTF-8"?><svg id="Layer_2" xmlns="http://www.w3.org/2000/svg" xmlns:xlink="http://www.w3.org/1999/xlink" viewBox="0 0 80.28 31.95"><defs><style>.cls-1,.cls-2{fill:none;}.cls-3{clip-path:url(#clippath);}.cls-4,.cls-5{fill:#fff;}.cls-6{fill:#36ace2;}.cls-7{fill:#57b952;}.cls-8{letter-spacing:-.02em;}.cls-2{stroke:#fff;stroke-linecap:round;stroke-linejoin:round;stroke-width:.4px;}.cls-9{letter-spacing:0em;}.cls-5{font-family:Montserrat-Bold, Montserrat;font-size:5.07px;}</style><clipPath id="clippath"><rect class="cls-1" width="80.28" height="31.95" rx="3.07" ry="3.07"/></clipPath></defs><g id="OBJECTS"><rect class="cls-7" width="80.28" height="31.95" rx="3.07" ry="3.07"/><g class="cls-3"><circle class="cls-6" cx="-26.19" cy="-20.61" r="72.79"/></g><text class="cls-5" transform="translate(6.28 14.44)"><tspan x="0" y="0">I</tspan><tspan class="cls-9" x="1.66" y="0">n</tspan><tspan x="5.19" y="0">dique uma </tspan><tspan class="cls-8" x="0" y="6.08">v</tspan><tspan class="cls-9" x="2.94" y="6.08">a</tspan><tspan x="6.09" y="6.08">ga a um amigo</tspan></text><g><path class="cls-2" d="M68.16,13.82s.01,.06,.03,.09c.08,.35,.17,.71,.26,1.06,.05,.18,.1,.35,.16,.52l1.79-3.3s-.39-.73-1.06,.06c-.14,.17-.27,.31-.39,.43-.36,.43-.47,.56-.47,.56l-.27,.51-.04,.06Z"/><path class="cls-2" d="M67.99,12.89c.05,.31,.1,.62,.17,.93,.01,.03,.01,.06,.03,.09,.08,.35,.17,.71,.26,1.06l.49-2.28,.66-3.04c-.08-.01-.16-.03-.22-.03-.32,0-.62,.17-.79,.44h0c-.05,.09-.09,.19-.12,.3l-.48,2.52Z"/><path class="cls-2" d="M67.76,9.98c0,.97,.08,1.95,.23,2.91,.05,.31,.1,.62,.17,.93,.01,.03,.01,.06,.03,.09v-.16l.4-3.67h0l.18-1.79c-.44,.06-.82,.36-1,.77v.08c-.01,.29-.01,.56-.01,.84Z"/><path class="cls-2" d="M61.22,15.64c0,.21,.06,.43,.18,.64l1,1.7c.91,1.56,2.06,2.96,3.41,4.17l.77,.69,3.62-1.65-1.19-4.55c-.14-.38-.27-.75-.4-1.13-.05-.17-.1-.34-.16-.52-.09-.35-.18-.71-.26-1.06-.01-.03-.01-.06-.03-.09-.06-.31-.12-.62-.17-.93-.16-.96-.23-1.93-.23-2.91,0-.29,0-.56,.01-.84v-.08l.09-2.1c-.8,.23-1.39,.91-1.51,1.74l-.9,6.29-.45,1.69c-.14,.54-.87,.66-1.19,.21l-1.71-2.44c-.54,.17-.88,.66-.88,1.19Z"/><polygon class="cls-2" points="66.58 22.83 67.19 26.28 72.13 24.16 70.2 21.18 66.58 22.83"/></g><path class="cls-4" d="M40.52,28.3h0c.16-.16,.16-.42,0-.59l-1.11-1.11c-.16-.16-.42-.16-.59,0h0c-.16,.16-.16,.42,0,.59l1.11,1.11c.16,.16,.42,.16,.59,0Z"/><path class="cls-4" d="M41.64,26.6h0c-.16-.16-.42-.16-.59,0l-1.11,1.11c-.16,.16-.16,.42,0,.59h0c.16,.16,.42,.16,.59,0l1.11-1.11c.16-.16,.16-.42,0-.59Z"/></g></svg>