<?xml version="1.0" encoding="utf-8"?>
<!-- Generator: Adobe Illustrator 26.3.1, SVG Export Plug-In . SVG Version: 6.00 Build 0)  -->
<svg version="1.1" id="Layer_2_00000029729891558561640440000013096487158658504082_"
	 xmlns="http://www.w3.org/2000/svg" xmlns:xlink="http://www.w3.org/1999/xlink" x="0px" y="0px" viewBox="0 0 104.9 186.6"
	 style="enable-background:new 0 0 104.9 186.6;" xml:space="preserve">
<style type="text/css">
	.st0{fill:none;}
	.st1{fill:#FFFFFF;}
	.st2{enable-background:new    ;}
	.st3{fill:#2B2B2B;}
	.st4{fill:#7F7F7F;}
	.st5{opacity:0.8;}
	.st6{fill:#149314;}
	.st7{fill:#F99E1D;}
	.st8{fill:#36ACE2;}
</style>
<g id="OBJECTS">
	<g>
		<rect class="st0" width="104.9" height="186.6"/>
	</g>
	<g>
		<path class="st1" d="M54.1,176.5c-0.2-0.2-0.4-0.2-0.6,0l-0.8,0.8l-0.8-0.8c-0.2-0.2-0.4-0.2-0.6,0c-0.2,0.2-0.2,0.4,0,0.6
			l1.1,1.1c0.1,0.1,0.2,0.1,0.3,0.1c0.1,0,0.2,0,0.3-0.1l1.1-1.1C54.2,177,54.2,176.7,54.1,176.5L54.1,176.5z"/>
	</g>
	<g>
		<path class="st1" d="M16.7,22.6H88c2.5,0,4.4,2,4.4,4.4v5c0,2.5-2,4.4-4.4,4.4H16.7c-2.5,0-4.4-2-4.4-4.4v-5
			C12.2,24.5,14.2,22.6,16.7,22.6z"/>
	</g>
	<g class="st2">
		<path class="st3" d="M20.7,30.3v0.5h-2.2v-2.8h2.1v0.5h-1.5v0.6h1.3v0.5h-1.3v0.6H20.7z"/>
	</g>
	<g class="st2">
		<path class="st3" d="M23.3,29.6v1.2h-0.6v-1.1c0-0.3-0.2-0.5-0.4-0.5c-0.3,0-0.5,0.2-0.5,0.6v1.1h-0.6v-2.1h0.6v0.3
			c0.2-0.2,0.4-0.3,0.7-0.3C23,28.7,23.3,29,23.3,29.6z"/>
	</g>
	<g class="st2">
		<path class="st3" d="M26.1,28.7v1.8c0,0.8-0.4,1.2-1.2,1.2c-0.4,0-0.8-0.1-1.1-0.3l0.2-0.4c0.2,0.1,0.5,0.2,0.8,0.2
			c0.4,0,0.6-0.2,0.6-0.6v-0.1c-0.2,0.2-0.4,0.3-0.7,0.3c-0.6,0-1.1-0.4-1.1-1c0-0.6,0.5-1,1.1-1c0.3,0,0.5,0.1,0.7,0.3v-0.3H26.1z
			 M25.5,29.7c0-0.3-0.2-0.5-0.6-0.5s-0.6,0.2-0.6,0.5c0,0.3,0.2,0.5,0.6,0.5S25.5,30,25.5,29.7z"/>
		<path class="st3" d="M28.8,29.9h-1.6c0.1,0.3,0.3,0.4,0.6,0.4c0.2,0,0.4-0.1,0.5-0.2l0.3,0.4c-0.2,0.2-0.5,0.3-0.9,0.3
			c-0.7,0-1.2-0.5-1.2-1.1c0-0.6,0.5-1.1,1.1-1.1c0.6,0,1.1,0.4,1.1,1.1C28.8,29.8,28.8,29.9,28.8,29.9z M27.2,29.6h1.1
			c0-0.3-0.2-0.4-0.5-0.4C27.4,29.1,27.2,29.3,27.2,29.6z"/>
		<path class="st3" d="M31.4,29.6v1.2h-0.6v-1.1c0-0.3-0.2-0.5-0.4-0.5c-0.3,0-0.5,0.2-0.5,0.6v1.1h-0.6v-2.1h0.6v0.3
			c0.2-0.2,0.4-0.3,0.7-0.3C31,28.7,31.4,29,31.4,29.6z"/>
		<path class="st3" d="M34.2,29.6v1.2h-0.6v-1.1c0-0.3-0.2-0.5-0.4-0.5c-0.3,0-0.5,0.2-0.5,0.6v1.1H32v-3h0.6v1
			c0.2-0.2,0.4-0.3,0.7-0.3C33.8,28.7,34.2,29,34.2,29.6z"/>
		<path class="st3" d="M36.6,29.6v1.2H36v-0.3c-0.1,0.2-0.3,0.3-0.7,0.3c-0.5,0-0.8-0.3-0.8-0.6c0-0.4,0.3-0.6,0.9-0.6H36
			c0-0.3-0.2-0.4-0.5-0.4c-0.2,0-0.5,0.1-0.6,0.2l-0.2-0.4c0.2-0.2,0.6-0.3,0.9-0.3C36.3,28.7,36.6,29,36.6,29.6z M36,30.2v-0.2
			h-0.4c-0.3,0-0.4,0.1-0.4,0.3c0,0.2,0.1,0.3,0.4,0.3C35.8,30.5,35.9,30.4,36,30.2z"/>
	</g>
	<g class="st2">
		<path class="st3" d="M38.5,28.7v0.6c-0.1,0-0.1,0-0.1,0c-0.3,0-0.6,0.2-0.6,0.6v1h-0.6v-2.1h0.6V29C38,28.8,38.2,28.7,38.5,28.7z"
			/>
	</g>
	<g class="st2">
		<path class="st3" d="M38.8,28.1c0-0.2,0.2-0.3,0.4-0.3s0.4,0.1,0.4,0.3c0,0.2-0.2,0.4-0.4,0.4S38.8,28.2,38.8,28.1z M38.9,28.7
			h0.6v2.1h-0.6V28.7z"/>
		<path class="st3" d="M42,29.6v1.2h-0.6v-0.3c-0.1,0.2-0.3,0.3-0.7,0.3c-0.5,0-0.8-0.3-0.8-0.6c0-0.4,0.3-0.6,0.9-0.6h0.5
			c0-0.3-0.2-0.4-0.5-0.4c-0.2,0-0.5,0.1-0.6,0.2L40,28.9c0.2-0.2,0.6-0.3,0.9-0.3C41.6,28.7,42,29,42,29.6z M41.4,30.2v-0.2H41
			c-0.3,0-0.4,0.1-0.4,0.3c0,0.2,0.1,0.3,0.4,0.3C41.1,30.5,41.3,30.4,41.4,30.2z"/>
	</g>
	<g>
		<path class="st1" d="M16.7,38.8H88c2.5,0,4.4,2,4.4,4.4v0.3c0,2.5-2,4.4-4.4,4.4H16.7c-2.5,0-4.4-2-4.4-4.4v-0.3
			C12.2,40.8,14.2,38.8,16.7,38.8z"/>
	</g>
	<g class="st2">
		<path class="st4" d="M19.2,42.3v1.2H21v0.4h-1.8v1.4h-0.5v-3.5h2.5v0.4H19.2z"/>
	</g>
	<g class="st2">
		<path class="st4" d="M21.5,44c0-0.8,0.6-1.4,1.4-1.4c0.8,0,1.4,0.6,1.4,1.4s-0.6,1.4-1.4,1.4C22.1,45.4,21.5,44.8,21.5,44z
			 M23.8,44c0-0.6-0.4-0.9-0.9-0.9c-0.5,0-0.9,0.4-0.9,0.9s0.4,0.9,0.9,0.9C23.4,44.9,23.8,44.6,23.8,44z"/>
	</g>
	<g class="st2">
		<path class="st4" d="M26.3,42.7v0.5c0,0-0.1,0-0.1,0c-0.5,0-0.8,0.3-0.8,0.9v1.3h-0.5v-2.7h0.5v0.4C25.5,42.8,25.9,42.7,26.3,42.7
			z"/>
	</g>
	<g class="st2">
		<path class="st4" d="M28.5,45.2c-0.1,0.1-0.4,0.2-0.6,0.2c-0.5,0-0.8-0.3-0.8-0.8v-1.5h-0.5v-0.4h0.5v-0.6h0.5v0.6h0.8v0.4h-0.8
			v1.4c0,0.3,0.2,0.4,0.4,0.4c0.1,0,0.3,0,0.4-0.1L28.5,45.2z"/>
		<path class="st4" d="M31.2,43.7v1.6h-0.5V45c-0.2,0.2-0.5,0.4-0.9,0.4c-0.6,0-1-0.3-1-0.8c0-0.4,0.3-0.8,1.1-0.8h0.8v-0.1
			c0-0.4-0.2-0.6-0.7-0.6c-0.3,0-0.6,0.1-0.8,0.3L29,43c0.3-0.2,0.7-0.3,1.1-0.3C30.8,42.7,31.2,43,31.2,43.7z M30.7,44.5v-0.4H30
			c-0.5,0-0.6,0.2-0.6,0.4c0,0.3,0.2,0.4,0.6,0.4C30.3,45,30.6,44.8,30.7,44.5z"/>
		<path class="st4" d="M32.1,41.6h0.5v3.7h-0.5V41.6z"/>
	</g>
	<g class="st2">
		<path class="st4" d="M35.9,44.2h-2.2c0.1,0.5,0.4,0.8,1,0.8c0.3,0,0.6-0.1,0.8-0.3l0.3,0.3c-0.2,0.3-0.6,0.4-1,0.4
			c-0.9,0-1.4-0.6-1.4-1.4c0-0.8,0.6-1.4,1.3-1.4s1.3,0.6,1.3,1.4C35.9,44.1,35.9,44.1,35.9,44.2z M33.7,43.8h1.7
			c-0.1-0.4-0.4-0.8-0.9-0.8C34.1,43.1,33.8,43.4,33.7,43.8z"/>
	</g>
	<g class="st2">
		<path class="st4" d="M38.5,44.9v0.4h-2.2V45l1.6-1.9h-1.5v-0.4h2.2V43l-1.6,1.9H38.5z"/>
		<path class="st4" d="M41.2,43.7v1.6h-0.5V45c-0.2,0.2-0.5,0.4-0.9,0.4c-0.6,0-1-0.3-1-0.8c0-0.4,0.3-0.8,1.1-0.8h0.8v-0.1
			c0-0.4-0.2-0.6-0.7-0.6c-0.3,0-0.6,0.1-0.8,0.3L39,43c0.3-0.2,0.7-0.3,1.1-0.3C40.8,42.7,41.2,43,41.2,43.7z M40.8,44.5v-0.4H40
			c-0.5,0-0.6,0.2-0.6,0.4c0,0.3,0.2,0.4,0.6,0.4C40.4,45,40.6,44.8,40.8,44.5z"/>
	</g>
	<g>
		<path class="st1" d="M16.7,50.4H88c2.5,0,4.4,2,4.4,4.4v0.3c0,2.5-2,4.4-4.4,4.4H16.7c-2.5,0-4.4-2-4.4-4.4v-0.3
			C12.2,52.4,14.2,50.4,16.7,50.4z"/>
	</g>
	<g class="st2">
		<path class="st4" d="M21,56.9l-0.8-1.1c-0.1,0-0.1,0-0.2,0h-0.9v1.1h-0.5v-3.5h1.4c0.9,0,1.5,0.5,1.5,1.2c0,0.5-0.3,0.9-0.8,1.1
			l0.8,1.2H21z M21,54.6c0-0.5-0.3-0.8-1-0.8h-0.9v1.6H20C20.7,55.4,21,55.1,21,54.6z"/>
		<path class="st4" d="M23.5,57v0.6h-0.3V57c-0.5,0-1-0.2-1.2-0.4l0.2-0.4c0.2,0.2,0.6,0.4,1,0.4v-1.2c-0.6-0.1-1.1-0.3-1.1-1
			c0-0.5,0.4-0.9,1.1-1v-0.6h0.3v0.6c0.4,0,0.8,0.1,1,0.3l-0.2,0.4c-0.3-0.2-0.6-0.3-0.9-0.3V55c0.6,0.1,1.2,0.3,1.2,1
			C24.7,56.5,24.3,56.9,23.5,57z M23.2,54.9v-1.1c-0.4,0.1-0.6,0.3-0.6,0.5C22.6,54.7,22.9,54.8,23.2,54.9z M24.2,56
			c0-0.3-0.3-0.4-0.7-0.5v1.1C24,56.5,24.2,56.3,24.2,56z"/>
		<path class="st4" d="M27.6,53.4v3.5h-0.5v-3.1h-0.8v-0.4H27.6z"/>
	</g>
	<g class="st2">
		<path class="st4" d="M28.3,56.6c0-0.2,0.2-0.3,0.3-0.3c0.2,0,0.3,0.1,0.3,0.3S28.9,57,28.7,57C28.5,57,28.3,56.8,28.3,56.6z"/>
	</g>
	<g class="st2">
		<path class="st4" d="M32.3,55.9c0,0.6-0.5,1-1.4,1c-0.9,0-1.4-0.4-1.4-1c0-0.4,0.2-0.7,0.6-0.8c-0.3-0.2-0.5-0.4-0.5-0.8
			c0-0.6,0.5-1,1.3-1c0.8,0,1.3,0.4,1.3,1c0,0.3-0.2,0.6-0.5,0.8C32.1,55.2,32.3,55.5,32.3,55.9z M31.8,55.9c0-0.4-0.3-0.6-0.9-0.6
			S30,55.5,30,55.9c0,0.4,0.3,0.6,0.9,0.6S31.8,56.3,31.8,55.9z M30.1,54.3c0,0.3,0.3,0.6,0.8,0.6c0.5,0,0.8-0.2,0.8-0.6
			c0-0.4-0.3-0.6-0.8-0.6C30.4,53.8,30.1,54,30.1,54.3z"/>
		<path class="st4" d="M32.8,55.2c0-1.1,0.6-1.8,1.4-1.8c0.8,0,1.4,0.7,1.4,1.8c0,1.1-0.6,1.8-1.4,1.8C33.4,57,32.8,56.3,32.8,55.2z
			 M35.1,55.2c0-0.9-0.4-1.3-0.9-1.3c-0.6,0-0.9,0.5-0.9,1.3c0,0.9,0.4,1.3,0.9,1.3C34.7,56.5,35.1,56.1,35.1,55.2z"/>
	</g>
	<g class="st2">
		<path class="st4" d="M36.1,55.2c0-1.1,0.6-1.8,1.4-1.8c0.8,0,1.4,0.7,1.4,1.8c0,1.1-0.6,1.8-1.4,1.8C36.7,57,36.1,56.3,36.1,55.2z
			 M38.4,55.2c0-0.9-0.4-1.3-0.9-1.3c-0.6,0-0.9,0.5-0.9,1.3c0,0.9,0.4,1.3,0.9,1.3C38.1,56.5,38.4,56.1,38.4,55.2z"/>
		<path class="st4" d="M40,56.6c0,0.1,0,0.2-0.1,0.4l-0.2,0.7h-0.3l0.2-0.7c-0.1,0-0.2-0.2-0.2-0.3c0-0.2,0.1-0.3,0.3-0.3
			C39.8,56.3,40,56.4,40,56.6z"/>
	</g>
	<g class="st2">
		<path class="st4" d="M40.4,55.2c0-1.1,0.6-1.8,1.4-1.8c0.8,0,1.4,0.7,1.4,1.8c0,1.1-0.6,1.8-1.4,1.8C41,57,40.4,56.3,40.4,55.2z
			 M42.8,55.2c0-0.9-0.4-1.3-0.9-1.3c-0.6,0-0.9,0.5-0.9,1.3c0,0.9,0.4,1.3,0.9,1.3C42.4,56.5,42.8,56.1,42.8,55.2z"/>
		<path class="st4" d="M43.8,55.2c0-1.1,0.6-1.8,1.4-1.8c0.8,0,1.4,0.7,1.4,1.8c0,1.1-0.6,1.8-1.4,1.8C44.4,57,43.8,56.3,43.8,55.2z
			 M46.1,55.2c0-0.9-0.4-1.3-0.9-1.3c-0.6,0-0.9,0.5-0.9,1.3c0,0.9,0.4,1.3,0.9,1.3C45.7,56.5,46.1,56.1,46.1,55.2z"/>
		<path class="st4" d="M50.8,55.3v1.6h-0.5v-0.4c-0.2,0.2-0.5,0.4-0.9,0.4c-0.6,0-1-0.3-1-0.8c0-0.4,0.3-0.8,1.1-0.8h0.8v-0.1
			c0-0.4-0.2-0.6-0.7-0.6c-0.3,0-0.6,0.1-0.8,0.3l-0.2-0.4c0.3-0.2,0.7-0.3,1.1-0.3C50.4,54.2,50.8,54.6,50.8,55.3z M50.3,56.1v-0.4
			h-0.7c-0.5,0-0.6,0.2-0.6,0.4c0,0.3,0.2,0.4,0.6,0.4C49.9,56.6,50.2,56.4,50.3,56.1z"/>
		<path class="st4" d="M55.4,56.9l-0.8-1.1c-0.1,0-0.1,0-0.2,0h-0.9v1.1h-0.5v-3.5h1.4c0.9,0,1.5,0.5,1.5,1.2c0,0.5-0.3,0.9-0.8,1.1
			l0.8,1.2H55.4z M55.4,54.6c0-0.5-0.3-0.8-1-0.8h-0.9v1.6h0.9C55.1,55.4,55.4,55.1,55.4,54.6z"/>
		<path class="st4" d="M57.9,57v0.6h-0.3V57c-0.5,0-1-0.2-1.2-0.4l0.2-0.4c0.2,0.2,0.6,0.4,1,0.4v-1.2c-0.6-0.1-1.1-0.3-1.1-1
			c0-0.5,0.4-0.9,1.1-1v-0.6h0.3v0.6c0.4,0,0.8,0.1,1,0.3l-0.2,0.4c-0.3-0.2-0.6-0.3-0.9-0.3V55c0.6,0.1,1.2,0.3,1.2,1
			C59.1,56.5,58.7,56.9,57.9,57z M57.6,54.9v-1.1c-0.4,0.1-0.6,0.3-0.6,0.5C57,54.7,57.2,54.8,57.6,54.9z M58.6,56
			c0-0.3-0.3-0.4-0.7-0.5v1.1C58.4,56.5,58.6,56.3,58.6,56z"/>
		<path class="st4" d="M63.3,55.9c0,0.6-0.4,1.1-1.3,1.1c-0.5,0-1-0.2-1.3-0.4l0.2-0.4c0.2,0.2,0.6,0.4,1.1,0.4
			c0.5,0,0.8-0.2,0.8-0.6c0-0.4-0.3-0.6-0.9-0.6h-0.3v-0.4l0.9-1.1h-1.7v-0.4h2.3v0.3l-0.9,1.1C62.9,55,63.3,55.3,63.3,55.9z"/>
	</g>
	<g class="st2">
		<path class="st4" d="M63.7,56.6c0-0.2,0.2-0.3,0.3-0.3c0.2,0,0.3,0.1,0.3,0.3S64.2,57,64.1,57C63.9,57,63.7,56.8,63.7,56.6z"/>
	</g>
	<g class="st2">
		<path class="st4" d="M67.4,56.5v0.4h-2.5v-0.3l1.4-1.4c0.4-0.4,0.4-0.6,0.4-0.8c0-0.4-0.3-0.6-0.7-0.6c-0.4,0-0.7,0.1-0.9,0.4
			l-0.3-0.3c0.3-0.3,0.7-0.5,1.3-0.5c0.7,0,1.2,0.4,1.2,1c0,0.3-0.1,0.6-0.6,1.1l-1.1,1H67.4z"/>
	</g>
	<g class="st2">
		<path class="st4" d="M67.8,55.2c0-1.1,0.6-1.8,1.4-1.8c0.8,0,1.4,0.7,1.4,1.8c0,1.1-0.6,1.8-1.4,1.8C68.4,57,67.8,56.3,67.8,55.2z
			 M70.1,55.2c0-0.9-0.4-1.3-0.9-1.3c-0.6,0-0.9,0.5-0.9,1.3c0,0.9,0.4,1.3,0.9,1.3C69.7,56.5,70.1,56.1,70.1,55.2z"/>
	</g>
	<g class="st2">
		<path class="st4" d="M71.1,55.2c0-1.1,0.6-1.8,1.4-1.8c0.8,0,1.4,0.7,1.4,1.8c0,1.1-0.6,1.8-1.4,1.8C71.7,57,71.1,56.3,71.1,55.2z
			 M73.5,55.2c0-0.9-0.4-1.3-0.9-1.3c-0.6,0-0.9,0.5-0.9,1.3c0,0.9,0.4,1.3,0.9,1.3C73.1,56.5,73.5,56.1,73.5,55.2z"/>
		<path class="st4" d="M75,56.6c0,0.1,0,0.2-0.1,0.4l-0.2,0.7h-0.3l0.2-0.7c-0.1,0-0.2-0.2-0.2-0.3c0-0.2,0.1-0.3,0.3-0.3
			C74.9,56.3,75,56.4,75,56.6z"/>
	</g>
	<g class="st2">
		<path class="st4" d="M75.5,55.2c0-1.1,0.6-1.8,1.4-1.8c0.8,0,1.4,0.7,1.4,1.8c0,1.1-0.6,1.8-1.4,1.8C76.1,57,75.5,56.3,75.5,55.2z
			 M77.8,55.2c0-0.9-0.4-1.3-0.9-1.3c-0.6,0-0.9,0.5-0.9,1.3c0,0.9,0.4,1.3,0.9,1.3C77.4,56.5,77.8,56.1,77.8,55.2z"/>
		<path class="st4" d="M78.8,55.2c0-1.1,0.6-1.8,1.4-1.8c0.8,0,1.4,0.7,1.4,1.8c0,1.1-0.6,1.8-1.4,1.8C79.4,57,78.8,56.3,78.8,55.2z
			 M81.1,55.2c0-0.9-0.4-1.3-0.9-1.3c-0.6,0-0.9,0.5-0.9,1.3c0,0.9,0.4,1.3,0.9,1.3C80.8,56.5,81.1,56.1,81.1,55.2z"/>
	</g>
	<g>
		<g class="st5">
			<g>
				<path class="st1" d="M15.3,126.7h74.5c1.5,0,2.8,1.2,2.8,2.8v8.5c0,1.5-1.2,2.8-2.8,2.8H15.3c-1.5,0-2.8-1.2-2.8-2.8v-8.5
					C12.5,127.9,13.8,126.7,15.3,126.7z"/>
			</g>
		</g>
		<g class="st2">
			<path class="st6" d="M80.6,131.2v4.2h-1V132h-0.8v-0.8H80.6z"/>
			<path class="st6" d="M82.9,131.2v4.2h-1V132h-0.8v-0.8H82.9z"/>
		</g>
		<g class="st2">
			<path class="st3" d="M20.8,134.2v0.5h-1.9v-2.4h1.8v0.5h-1.3v0.5h1.1v0.4h-1.1v0.6H20.8z"/>
		</g>
		<g class="st2">
			<path class="st3" d="M23.2,133.6v1.1h-0.5v-1c0-0.3-0.1-0.4-0.4-0.4c-0.3,0-0.5,0.2-0.5,0.5v0.9h-0.5v-1.9h0.5v0.2
				c0.1-0.2,0.4-0.2,0.6-0.2C22.8,132.8,23.2,133,23.2,133.6z"/>
		</g>
		<g class="st2">
			<path class="st3" d="M25.6,132.8v1.6c0,0.7-0.4,1-1.1,1c-0.4,0-0.7-0.1-0.9-0.3l0.2-0.4c0.2,0.1,0.4,0.2,0.7,0.2
				c0.4,0,0.6-0.2,0.6-0.5v-0.1c-0.1,0.2-0.3,0.2-0.6,0.2c-0.5,0-0.9-0.4-0.9-0.9c0-0.5,0.4-0.9,0.9-0.9c0.3,0,0.5,0.1,0.6,0.3v-0.2
				H25.6z M25.1,133.7c0-0.3-0.2-0.5-0.5-0.5s-0.5,0.2-0.5,0.5c0,0.3,0.2,0.5,0.5,0.5S25.1,133.9,25.1,133.7z"/>
			<path class="st3" d="M28,133.9h-1.4c0.1,0.2,0.3,0.4,0.5,0.4c0.2,0,0.3-0.1,0.5-0.2l0.3,0.3c-0.2,0.2-0.4,0.3-0.8,0.3
				c-0.6,0-1.1-0.4-1.1-1c0-0.6,0.4-1,1-1c0.6,0,1,0.4,1,1C28,133.8,28,133.8,28,133.9z M26.5,133.6h0.9c0-0.2-0.2-0.4-0.5-0.4
				C26.8,133.2,26.6,133.3,26.5,133.6z"/>
			<path class="st3" d="M30.3,133.6v1.1h-0.5v-1c0-0.3-0.1-0.4-0.4-0.4c-0.3,0-0.5,0.2-0.5,0.5v0.9h-0.5v-1.9h0.5v0.2
				c0.1-0.2,0.4-0.2,0.6-0.2C29.9,132.8,30.3,133,30.3,133.6z"/>
			<path class="st3" d="M32.7,133.6v1.1h-0.5v-1c0-0.3-0.1-0.4-0.4-0.4c-0.3,0-0.5,0.2-0.5,0.5v0.9h-0.5v-2.6h0.5v0.9
				c0.1-0.1,0.4-0.2,0.6-0.2C32.3,132.8,32.7,133,32.7,133.6z"/>
			<path class="st3" d="M34.8,133.6v1.1h-0.5v-0.2c-0.1,0.2-0.3,0.3-0.6,0.3c-0.4,0-0.7-0.2-0.7-0.6c0-0.3,0.2-0.6,0.8-0.6h0.4
				c0-0.2-0.1-0.4-0.4-0.4c-0.2,0-0.4,0.1-0.5,0.2l-0.2-0.4c0.2-0.1,0.5-0.2,0.8-0.2C34.5,132.8,34.8,133,34.8,133.6z M34.3,134.1
				v-0.2h-0.4c-0.3,0-0.3,0.1-0.3,0.2c0,0.1,0.1,0.2,0.3,0.2C34.1,134.3,34.2,134.2,34.3,134.1z"/>
		</g>
		<g class="st2">
			<path class="st3" d="M36.5,132.8v0.5c0,0-0.1,0-0.1,0c-0.3,0-0.5,0.2-0.5,0.5v0.9h-0.5v-1.9h0.5v0.2
				C36,132.9,36.2,132.8,36.5,132.8z"/>
		</g>
		<g class="st2">
			<path class="st3" d="M36.8,132.2c0-0.2,0.1-0.3,0.3-0.3s0.3,0.1,0.3,0.3c0,0.2-0.1,0.3-0.3,0.3S36.8,132.4,36.8,132.2z
				 M36.8,132.8h0.5v1.9h-0.5V132.8z"/>
			<path class="st3" d="M39.5,133.6v1.1H39v-0.2c-0.1,0.2-0.3,0.3-0.6,0.3c-0.4,0-0.7-0.2-0.7-0.6c0-0.3,0.2-0.6,0.8-0.6H39
				c0-0.2-0.1-0.4-0.4-0.4c-0.2,0-0.4,0.1-0.5,0.2l-0.2-0.4c0.2-0.1,0.5-0.2,0.8-0.2C39.2,132.8,39.5,133,39.5,133.6z M39,134.1
				v-0.2h-0.4c-0.3,0-0.3,0.1-0.3,0.2c0,0.1,0.1,0.2,0.3,0.2C38.8,134.3,38.9,134.2,39,134.1z"/>
			<path class="st3" d="M40.9,133.4c0-0.7,0.6-1.3,1.3-1.3c0.4,0,0.8,0.2,1,0.4l-0.4,0.3c-0.2-0.2-0.4-0.3-0.6-0.3
				c-0.5,0-0.8,0.3-0.8,0.8c0,0.5,0.3,0.8,0.8,0.8c0.2,0,0.5-0.1,0.6-0.3l0.4,0.3c-0.2,0.3-0.6,0.4-1,0.4
				C41.5,134.7,40.9,134.2,40.9,133.4z"/>
			<path class="st3" d="M43.5,132.2c0-0.2,0.1-0.3,0.3-0.3c0.2,0,0.3,0.1,0.3,0.3c0,0.2-0.1,0.3-0.3,0.3
				C43.7,132.5,43.5,132.4,43.5,132.2z M43.6,132.8h0.5v1.9h-0.5V132.8z"/>
			<path class="st3" d="M46.5,132.8l-0.8,1.9h-0.6l-0.8-1.9h0.6l0.5,1.3l0.5-1.3H46.5z"/>
			<path class="st3" d="M46.7,132.2c0-0.2,0.1-0.3,0.3-0.3c0.2,0,0.3,0.1,0.3,0.3c0,0.2-0.1,0.3-0.3,0.3
				C46.8,132.5,46.7,132.4,46.7,132.2z M46.7,132.8h0.5v1.9h-0.5V132.8z"/>
			<path class="st3" d="M47.8,132.1h0.5v2.6h-0.5V132.1z"/>
		</g>
		<g>
			<path class="st7" d="M87.4,131.3c-0.3,0.3-0.3,0.7,0,1l1.4,1.4l-1.4,1.4c-0.3,0.3-0.3,0.7,0,1c0.3,0.3,0.7,0.3,1,0l1.8-1.9
				c0.1-0.1,0.2-0.3,0.2-0.5c0-0.2-0.1-0.4-0.2-0.5l-1.8-1.9C88.2,131.1,87.7,131.1,87.4,131.3L87.4,131.3z"/>
		</g>
	</g>
	<g>
		<g class="st5">
			<g>
				<path class="st1" d="M15.3,142.5h74.5c1.5,0,2.8,1.2,2.8,2.8v8.5c0,1.5-1.2,2.8-2.8,2.8H15.3c-1.5,0-2.8-1.2-2.8-2.8v-8.5
					C12.5,143.7,13.8,142.5,15.3,142.5z"/>
			</g>
		</g>
		<g class="st2">
			<path class="st6" d="M83.2,149c0,1.5-0.9,2.3-2.1,2.3c-0.4,0-0.9-0.1-1.2-0.3l0.4-0.7c0.2,0.2,0.5,0.2,0.8,0.2
				c0.7,0,1.2-0.4,1.2-1.2c-0.2,0.2-0.6,0.4-1,0.4c-0.8,0-1.4-0.5-1.4-1.3c0-0.9,0.7-1.4,1.6-1.4C82.5,146.9,83.2,147.7,83.2,149z
				 M82.1,148.3c0-0.4-0.3-0.6-0.7-0.6c-0.4,0-0.7,0.2-0.7,0.6s0.3,0.6,0.7,0.6C81.8,148.9,82.1,148.7,82.1,148.3z"/>
		</g>
		<g class="st2">
			<path class="st3" d="M20.8,150v0.5h-1.9V148h1.8v0.5h-1.3v0.5h1.1v0.4h-1.1v0.6H20.8z"/>
		</g>
		<g class="st2">
			<path class="st3" d="M23.2,149.4v1.1h-0.5v-1c0-0.3-0.1-0.4-0.4-0.4c-0.3,0-0.5,0.2-0.5,0.5v0.9h-0.5v-1.9h0.5v0.2
				c0.1-0.2,0.4-0.2,0.6-0.2C22.8,148.6,23.2,148.8,23.2,149.4z"/>
		</g>
		<g class="st2">
			<path class="st3" d="M25.6,148.6v1.6c0,0.7-0.4,1-1.1,1c-0.4,0-0.7-0.1-0.9-0.3l0.2-0.4c0.2,0.1,0.4,0.2,0.7,0.2
				c0.4,0,0.6-0.2,0.6-0.5v-0.1c-0.1,0.2-0.3,0.2-0.6,0.2c-0.5,0-0.9-0.4-0.9-0.9s0.4-0.9,0.9-0.9c0.3,0,0.5,0.1,0.6,0.3v-0.2H25.6z
				 M25.1,149.5c0-0.3-0.2-0.5-0.5-0.5s-0.5,0.2-0.5,0.5s0.2,0.5,0.5,0.5S25.1,149.8,25.1,149.5z"/>
			<path class="st3" d="M28,149.7h-1.4c0.1,0.2,0.3,0.4,0.5,0.4c0.2,0,0.3-0.1,0.5-0.2l0.3,0.3c-0.2,0.2-0.4,0.3-0.8,0.3
				c-0.6,0-1.1-0.4-1.1-1c0-0.6,0.4-1,1-1c0.6,0,1,0.4,1,1C28,149.6,28,149.6,28,149.7z M26.5,149.4h0.9c0-0.2-0.2-0.4-0.5-0.4
				C26.8,149,26.6,149.1,26.5,149.4z"/>
			<path class="st3" d="M30.3,149.4v1.1h-0.5v-1c0-0.3-0.1-0.4-0.4-0.4c-0.3,0-0.5,0.2-0.5,0.5v0.9h-0.5v-1.9h0.5v0.2
				c0.1-0.2,0.4-0.2,0.6-0.2C29.9,148.6,30.3,148.8,30.3,149.4z"/>
			<path class="st3" d="M32.7,149.4v1.1h-0.5v-1c0-0.3-0.1-0.4-0.4-0.4c-0.3,0-0.5,0.2-0.5,0.5v0.9h-0.5v-2.6h0.5v0.9
				c0.1-0.1,0.4-0.2,0.6-0.2C32.3,148.6,32.7,148.8,32.7,149.4z"/>
			<path class="st3" d="M34.8,149.4v1.1h-0.5v-0.2c-0.1,0.2-0.3,0.3-0.6,0.3c-0.4,0-0.7-0.2-0.7-0.6c0-0.3,0.2-0.6,0.8-0.6h0.4
				c0-0.2-0.1-0.4-0.4-0.4c-0.2,0-0.4,0.1-0.5,0.2l-0.2-0.4c0.2-0.1,0.5-0.2,0.8-0.2C34.5,148.6,34.8,148.8,34.8,149.4z M34.3,149.9
				v-0.2h-0.4c-0.3,0-0.3,0.1-0.3,0.2c0,0.1,0.1,0.2,0.3,0.2C34.1,150.1,34.2,150.1,34.3,149.9z"/>
		</g>
		<g class="st2">
			<path class="st3" d="M36.5,148.6v0.5c0,0-0.1,0-0.1,0c-0.3,0-0.5,0.2-0.5,0.5v0.9h-0.5v-1.9h0.5v0.2
				C36,148.7,36.2,148.6,36.5,148.6z"/>
		</g>
		<g class="st2">
			<path class="st3" d="M36.8,148c0-0.2,0.1-0.3,0.3-0.3s0.3,0.1,0.3,0.3c0,0.2-0.1,0.3-0.3,0.3S36.8,148.2,36.8,148z M36.8,148.6
				h0.5v1.9h-0.5V148.6z"/>
			<path class="st3" d="M39.5,149.4v1.1H39v-0.2c-0.1,0.2-0.3,0.3-0.6,0.3c-0.4,0-0.7-0.2-0.7-0.6c0-0.3,0.2-0.6,0.8-0.6H39
				c0-0.2-0.1-0.4-0.4-0.4c-0.2,0-0.4,0.1-0.5,0.2l-0.2-0.4c0.2-0.1,0.5-0.2,0.8-0.2C39.2,148.6,39.5,148.8,39.5,149.4z M39,149.9
				v-0.2h-0.4c-0.3,0-0.3,0.1-0.3,0.2c0,0.1,0.1,0.2,0.3,0.2C38.8,150.1,38.9,150.1,39,149.9z"/>
			<path class="st3" d="M43,150v0.5h-1.9V148h1.8v0.5h-1.3v0.5h1.1v0.4h-1.1v0.6H43z"/>
			<path class="st3" d="M43.4,147.9h0.5v2.6h-0.5V147.9z"/>
			<path class="st3" d="M46.3,149.7h-1.4c0.1,0.2,0.3,0.4,0.5,0.4c0.2,0,0.3-0.1,0.5-0.2l0.3,0.3c-0.2,0.2-0.4,0.3-0.8,0.3
				c-0.6,0-1.1-0.4-1.1-1c0-0.6,0.4-1,1-1c0.6,0,1,0.4,1,1C46.3,149.6,46.3,149.6,46.3,149.7z M44.8,149.4h0.9
				c0-0.2-0.2-0.4-0.5-0.4C45.1,149,44.9,149.1,44.8,149.4z M45.4,148.4H45l0.5-0.5H46L45.4,148.4z"/>
			<path class="st3" d="M47.9,150.4c-0.1,0.1-0.3,0.1-0.4,0.1c-0.4,0-0.7-0.2-0.7-0.7v-0.8h-0.3v-0.4h0.3v-0.5h0.5v0.5h0.5v0.4h-0.5
				v0.8c0,0.2,0.1,0.2,0.2,0.2c0.1,0,0.2,0,0.2-0.1L47.9,150.4z"/>
		</g>
		<g class="st2">
			<path class="st3" d="M49.3,148.6v0.5c0,0-0.1,0-0.1,0c-0.3,0-0.5,0.2-0.5,0.5v0.9h-0.5v-1.9h0.5v0.2
				C48.8,148.7,49,148.6,49.3,148.6z"/>
		</g>
		<g class="st2">
			<path class="st3" d="M49.6,148c0-0.2,0.1-0.3,0.3-0.3s0.3,0.1,0.3,0.3c0,0.2-0.1,0.3-0.3,0.3S49.6,148.2,49.6,148z M49.7,148.6
				h0.5v1.9h-0.5V148.6z"/>
			<path class="st3" d="M50.6,149.5c0-0.6,0.4-1,1-1c0.4,0,0.7,0.2,0.8,0.5l-0.4,0.2c-0.1-0.2-0.3-0.3-0.4-0.3
				c-0.3,0-0.5,0.2-0.5,0.5c0,0.3,0.2,0.5,0.5,0.5c0.2,0,0.3-0.1,0.4-0.3l0.4,0.2c-0.1,0.3-0.4,0.5-0.8,0.5
				C51,150.5,50.6,150.1,50.6,149.5z"/>
			<path class="st3" d="M54.4,149.4v1.1h-0.5v-0.2c-0.1,0.2-0.3,0.3-0.6,0.3c-0.4,0-0.7-0.2-0.7-0.6c0-0.3,0.2-0.6,0.8-0.6h0.4
				c0-0.2-0.1-0.4-0.4-0.4c-0.2,0-0.4,0.1-0.5,0.2l-0.2-0.4c0.2-0.1,0.5-0.2,0.8-0.2C54.1,148.6,54.4,148.8,54.4,149.4z M53.9,149.9
				v-0.2h-0.4c-0.3,0-0.3,0.1-0.3,0.2c0,0.1,0.1,0.2,0.3,0.2C53.7,150.1,53.8,150.1,53.9,149.9z"/>
		</g>
		<g>
			<path class="st7" d="M87.4,147.1c-0.3,0.3-0.3,0.7,0,1l1.4,1.4l-1.4,1.4c-0.3,0.3-0.3,0.7,0,1c0.3,0.3,0.7,0.3,1,0l1.8-1.9
				c0.1-0.1,0.2-0.3,0.2-0.5c0-0.2-0.1-0.4-0.2-0.5l-1.8-1.9C88.2,146.9,87.7,146.9,87.4,147.1L87.4,147.1z"/>
		</g>
	</g>
	<g>
		<g class="st5">
			<g>
				<path class="st1" d="M15.3,158.3h74.5c1.5,0,2.8,1.2,2.8,2.8v8.5c0,1.5-1.2,2.8-2.8,2.8H15.3c-1.5,0-2.8-1.2-2.8-2.8V161
					C12.5,159.5,13.8,158.3,15.3,158.3z"/>
			</g>
		</g>
		<g class="st2">
			<path class="st6" d="M83.2,165.7c0,0.7-0.5,1.4-1.7,1.4c-0.6,0-1.2-0.2-1.6-0.4l0.4-0.7c0.3,0.2,0.8,0.4,1.2,0.4
				c0.5,0,0.8-0.2,0.8-0.5c0-0.3-0.2-0.5-0.8-0.5H81v-0.6l0.9-1h-1.8v-0.8H83v0.6l-0.9,1.1C82.8,164.7,83.2,165.1,83.2,165.7z"/>
		</g>
		<g class="st2">
			<path class="st3" d="M20.8,165.8v0.5h-1.9v-2.4h1.8v0.5h-1.3v0.5h1.1v0.4h-1.1v0.6H20.8z"/>
		</g>
		<g class="st2">
			<path class="st3" d="M23.2,165.2v1.1h-0.5v-1c0-0.3-0.1-0.4-0.4-0.4c-0.3,0-0.5,0.2-0.5,0.5v0.9h-0.5v-1.9h0.5v0.2
				c0.1-0.2,0.4-0.2,0.6-0.2C22.8,164.4,23.2,164.6,23.2,165.2z"/>
		</g>
		<g class="st2">
			<path class="st3" d="M25.6,164.4v1.6c0,0.7-0.4,1-1.1,1c-0.4,0-0.7-0.1-0.9-0.3l0.2-0.4c0.2,0.1,0.4,0.2,0.7,0.2
				c0.4,0,0.6-0.2,0.6-0.5V166c-0.1,0.2-0.3,0.2-0.6,0.2c-0.5,0-0.9-0.4-0.9-0.9c0-0.5,0.4-0.9,0.9-0.9c0.3,0,0.5,0.1,0.6,0.3v-0.2
				H25.6z M25.1,165.3c0-0.3-0.2-0.5-0.5-0.5s-0.5,0.2-0.5,0.5c0,0.3,0.2,0.5,0.5,0.5S25.1,165.6,25.1,165.3z"/>
			<path class="st3" d="M28,165.5h-1.4c0.1,0.2,0.3,0.4,0.5,0.4c0.2,0,0.3-0.1,0.5-0.2l0.3,0.3c-0.2,0.2-0.4,0.3-0.8,0.3
				c-0.6,0-1.1-0.4-1.1-1c0-0.6,0.4-1,1-1c0.6,0,1,0.4,1,1C28,165.4,28,165.5,28,165.5z M26.5,165.2h0.9c0-0.2-0.2-0.4-0.5-0.4
				C26.8,164.8,26.6,164.9,26.5,165.2z"/>
			<path class="st3" d="M30.3,165.2v1.1h-0.5v-1c0-0.3-0.1-0.4-0.4-0.4c-0.3,0-0.5,0.2-0.5,0.5v0.9h-0.5v-1.9h0.5v0.2
				c0.1-0.2,0.4-0.2,0.6-0.2C29.9,164.4,30.3,164.6,30.3,165.2z"/>
			<path class="st3" d="M32.7,165.2v1.1h-0.5v-1c0-0.3-0.1-0.4-0.4-0.4c-0.3,0-0.5,0.2-0.5,0.5v0.9h-0.5v-2.6h0.5v0.9
				c0.1-0.1,0.4-0.2,0.6-0.2C32.3,164.4,32.7,164.6,32.7,165.2z"/>
			<path class="st3" d="M34.8,165.2v1.1h-0.5v-0.2c-0.1,0.2-0.3,0.3-0.6,0.3c-0.4,0-0.7-0.2-0.7-0.6c0-0.3,0.2-0.6,0.8-0.6h0.4
				c0-0.2-0.1-0.4-0.4-0.4c-0.2,0-0.4,0.1-0.5,0.2l-0.2-0.4c0.2-0.1,0.5-0.2,0.8-0.2C34.5,164.4,34.8,164.6,34.8,165.2z M34.3,165.7
				v-0.2h-0.4c-0.3,0-0.3,0.1-0.3,0.2c0,0.1,0.1,0.2,0.3,0.2C34.1,166,34.2,165.9,34.3,165.7z"/>
		</g>
		<g class="st2">
			<path class="st3" d="M36.5,164.4v0.5c0,0-0.1,0-0.1,0c-0.3,0-0.5,0.2-0.5,0.5v0.9h-0.5v-1.9h0.5v0.2
				C36,164.5,36.2,164.4,36.5,164.4z"/>
		</g>
		<g class="st2">
			<path class="st3" d="M36.8,163.8c0-0.2,0.1-0.3,0.3-0.3s0.3,0.1,0.3,0.3c0,0.2-0.1,0.3-0.3,0.3S36.8,164,36.8,163.8z M36.8,164.4
				h0.5v1.9h-0.5V164.4z"/>
			<path class="st3" d="M39.5,165.2v1.1H39v-0.2c-0.1,0.2-0.3,0.3-0.6,0.3c-0.4,0-0.7-0.2-0.7-0.6c0-0.3,0.2-0.6,0.8-0.6H39
				c0-0.2-0.1-0.4-0.4-0.4c-0.2,0-0.4,0.1-0.5,0.2l-0.2-0.4c0.2-0.1,0.5-0.2,0.8-0.2C39.2,164.4,39.5,164.6,39.5,165.2z M39,165.7
				v-0.2h-0.4c-0.3,0-0.3,0.1-0.3,0.2c0,0.1,0.1,0.2,0.3,0.2C38.8,166,38.9,165.9,39,165.7z"/>
			<path class="st3" d="M42.7,165.8h-1.1l-0.2,0.5h-0.6l1.1-2.4h0.6l1.1,2.4h-0.6L42.7,165.8z M42.5,165.3l-0.4-0.9l-0.4,0.9H42.5z"
				/>
			<path class="st3" d="M46.9,165.2v1.1h-0.5v-1c0-0.3-0.1-0.4-0.4-0.4c-0.2,0-0.4,0.2-0.4,0.5v0.9H45v-1c0-0.3-0.1-0.4-0.4-0.4
				c-0.2,0-0.4,0.2-0.4,0.5v0.9h-0.5v-1.9h0.5v0.2c0.1-0.2,0.3-0.2,0.6-0.2c0.3,0,0.5,0.1,0.6,0.3c0.1-0.2,0.4-0.3,0.7-0.3
				C46.6,164.4,46.9,164.6,46.9,165.2z"/>
			<path class="st3" d="M49.4,165.3c0,0.6-0.4,1-0.9,1c-0.3,0-0.5-0.1-0.6-0.2v0.2h-0.5v-2.6h0.5v0.9c0.1-0.2,0.3-0.2,0.6-0.2
				C49,164.4,49.4,164.8,49.4,165.3z M48.9,165.3c0-0.3-0.2-0.5-0.5-0.5s-0.5,0.2-0.5,0.5c0,0.3,0.2,0.5,0.5,0.5
				S48.9,165.7,48.9,165.3z"/>
			<path class="st3" d="M49.7,163.8c0-0.2,0.1-0.3,0.3-0.3s0.3,0.1,0.3,0.3c0,0.2-0.1,0.3-0.3,0.3S49.7,164,49.7,163.8z M49.8,164.4
				h0.5v1.9h-0.5V164.4z"/>
			<path class="st3" d="M52.7,165.5h-1.4c0.1,0.2,0.3,0.4,0.5,0.4c0.2,0,0.3-0.1,0.5-0.2l0.3,0.3c-0.2,0.2-0.4,0.3-0.8,0.3
				c-0.6,0-1.1-0.4-1.1-1c0-0.6,0.4-1,1-1c0.6,0,1,0.4,1,1C52.7,165.4,52.7,165.5,52.7,165.5z M51.3,165.2h0.9
				c0-0.2-0.2-0.4-0.5-0.4C51.5,164.8,51.3,164.9,51.3,165.2z"/>
			<path class="st3" d="M55,165.2v1.1h-0.5v-1c0-0.3-0.1-0.4-0.4-0.4c-0.3,0-0.5,0.2-0.5,0.5v0.9h-0.5v-1.9h0.5v0.2
				c0.1-0.2,0.4-0.2,0.6-0.2C54.7,164.4,55,164.6,55,165.2z"/>
			<path class="st3" d="M56.7,166.2c-0.1,0.1-0.3,0.1-0.4,0.1c-0.4,0-0.7-0.2-0.7-0.7v-0.8h-0.3v-0.4h0.3V164h0.5v0.5h0.5v0.4h-0.5
				v0.8c0,0.2,0.1,0.2,0.2,0.2c0.1,0,0.2,0,0.2-0.1L56.7,166.2z"/>
			<path class="st3" d="M58.7,165.2v1.1h-0.5v-0.2c-0.1,0.2-0.3,0.3-0.6,0.3c-0.4,0-0.7-0.2-0.7-0.6c0-0.3,0.2-0.6,0.8-0.6h0.4
				c0-0.2-0.1-0.4-0.4-0.4c-0.2,0-0.4,0.1-0.5,0.2l-0.2-0.4c0.2-0.1,0.5-0.2,0.8-0.2C58.3,164.4,58.7,164.6,58.7,165.2z M58.1,165.7
				v-0.2h-0.4c-0.3,0-0.3,0.1-0.3,0.2c0,0.1,0.1,0.2,0.3,0.2C57.9,166,58.1,165.9,58.1,165.7z"/>
			<path class="st3" d="M59.2,163.7h0.5v2.6h-0.5V163.7z"/>
		</g>
		<g>
			<path class="st7" d="M87.4,162.9c-0.3,0.3-0.3,0.7,0,1l1.4,1.4l-1.4,1.4c-0.3,0.3-0.3,0.7,0,1c0.3,0.3,0.7,0.3,1,0l1.8-1.9
				c0.1-0.1,0.2-0.3,0.2-0.5c0-0.2-0.1-0.4-0.2-0.5l-1.8-1.9C88.2,162.7,87.7,162.7,87.4,162.9L87.4,162.9z"/>
		</g>
	</g>
	<g class="st2">
		<path class="st1" d="M22.7,115.9v0.7H24v0.5h-1.3v1h-0.7v-2.8h2.1v0.5H22.7z"/>
	</g>
	<g class="st2">
		<path class="st1" d="M24.4,117.2c0-0.7,0.5-1.1,1.2-1.1s1.2,0.5,1.2,1.1s-0.5,1.1-1.2,1.1S24.4,117.8,24.4,117.2z M26.1,117.2
			c0-0.4-0.2-0.6-0.6-0.6s-0.6,0.2-0.6,0.6s0.2,0.6,0.6,0.6S26.1,117.5,26.1,117.2z"/>
	</g>
	<g class="st2">
		<path class="st1" d="M28.6,116v0.6c-0.1,0-0.1,0-0.1,0c-0.3,0-0.6,0.2-0.6,0.6v1h-0.6v-2.2h0.6v0.3C28,116.1,28.2,116,28.6,116z"
			/>
	</g>
	<g class="st2">
		<path class="st1" d="M30.8,117v1.2h-0.6V118c-0.1,0.2-0.3,0.3-0.7,0.3c-0.5,0-0.8-0.3-0.8-0.7c0-0.4,0.3-0.7,0.9-0.7h0.5
			c0-0.3-0.2-0.4-0.5-0.4c-0.2,0-0.5,0.1-0.6,0.2l-0.2-0.4c0.2-0.2,0.6-0.3,0.9-0.3C30.5,116,30.8,116.3,30.8,117z M30.2,117.6v-0.2
			h-0.4c-0.3,0-0.4,0.1-0.4,0.3c0,0.2,0.1,0.3,0.4,0.3C30,117.8,30.1,117.8,30.2,117.6z"/>
		<path class="st1" d="M35.1,117v1.2h-0.6v-1.1c0-0.4-0.2-0.5-0.4-0.5c-0.3,0-0.5,0.2-0.5,0.6v1.1h-0.6v-1.1c0-0.4-0.1-0.5-0.4-0.5
			c-0.3,0-0.5,0.2-0.5,0.6v1.1h-0.6v-2.2H32v0.3c0.2-0.2,0.4-0.3,0.7-0.3c0.3,0,0.6,0.1,0.7,0.4c0.2-0.2,0.5-0.4,0.8-0.4
			C34.7,116,35.1,116.3,35.1,117z"/>
		<path class="st1" d="M38.9,117.3h-1.6c0.1,0.3,0.3,0.4,0.6,0.4c0.2,0,0.4-0.1,0.5-0.2l0.3,0.4c-0.2,0.2-0.5,0.4-0.9,0.4
			c-0.8,0-1.2-0.5-1.2-1.1c0-0.7,0.5-1.1,1.2-1.1c0.6,0,1.1,0.4,1.1,1.1C38.9,117.2,38.9,117.3,38.9,117.3z M37.3,117h1.1
			c0-0.3-0.3-0.5-0.5-0.5C37.5,116.5,37.3,116.7,37.3,117z"/>
	</g>
	<g class="st2">
		<path class="st1" d="M41.6,117v1.2H41v-1.1c0-0.4-0.2-0.5-0.4-0.5c-0.3,0-0.5,0.2-0.5,0.6v1.1h-0.6v-2.2H40v0.3
			c0.2-0.2,0.4-0.3,0.7-0.3C41.2,116,41.6,116.3,41.6,117z"/>
	</g>
	<g class="st2">
		<path class="st1" d="M42,117.2c0-0.7,0.5-1.1,1.2-1.1c0.5,0,0.8,0.2,1,0.6l-0.5,0.3c-0.1-0.2-0.3-0.3-0.5-0.3
			c-0.3,0-0.6,0.2-0.6,0.6s0.3,0.6,0.6,0.6c0.2,0,0.4-0.1,0.5-0.3l0.5,0.3c-0.2,0.3-0.5,0.5-1,0.5C42.5,118.3,42,117.8,42,117.2z"/>
	</g>
	<g class="st2">
		<path class="st1" d="M44.4,117.2c0-0.7,0.5-1.1,1.2-1.1s1.2,0.5,1.2,1.1s-0.5,1.1-1.2,1.1S44.4,117.8,44.4,117.2z M46.2,117.2
			c0-0.4-0.2-0.6-0.6-0.6s-0.6,0.2-0.6,0.6s0.2,0.6,0.6,0.6S46.2,117.5,46.2,117.2z"/>
		<path class="st1" d="M49.4,117v1.2h-0.6v-1.1c0-0.4-0.2-0.5-0.4-0.5c-0.3,0-0.5,0.2-0.5,0.6v1.1h-0.6v-2.2h0.6v0.3
			c0.2-0.2,0.4-0.3,0.7-0.3C49,116,49.4,116.3,49.4,117z"/>
		<path class="st1" d="M51.4,118.1c-0.1,0.1-0.3,0.1-0.5,0.1c-0.5,0-0.8-0.3-0.8-0.8v-0.9h-0.3v-0.5h0.3v-0.5h0.6v0.5h0.5v0.5h-0.5
			v0.9c0,0.2,0.1,0.3,0.3,0.3c0.1,0,0.2,0,0.3-0.1L51.4,118.1z"/>
	</g>
	<g class="st2">
		<path class="st1" d="M53.1,116v0.6c-0.1,0-0.1,0-0.1,0c-0.3,0-0.6,0.2-0.6,0.6v1h-0.6v-2.2h0.6v0.3C52.5,116.1,52.8,116,53.1,116z
			"/>
	</g>
	<g class="st2">
		<path class="st1" d="M55.4,117v1.2h-0.6V118c-0.1,0.2-0.3,0.3-0.7,0.3c-0.5,0-0.8-0.3-0.8-0.7c0-0.4,0.3-0.7,0.9-0.7h0.5
			c0-0.3-0.2-0.4-0.5-0.4c-0.2,0-0.5,0.1-0.6,0.2l-0.2-0.4c0.2-0.2,0.6-0.3,0.9-0.3C55,116,55.4,116.3,55.4,117z M54.8,117.6v-0.2
			h-0.4c-0.3,0-0.4,0.1-0.4,0.3c0,0.2,0.1,0.3,0.4,0.3C54.5,117.8,54.7,117.8,54.8,117.6z"/>
	</g>
	<g class="st2">
		<path class="st1" d="M58.2,115.2v3h-0.6V118c-0.2,0.2-0.4,0.3-0.7,0.3c-0.6,0-1.1-0.4-1.1-1.1s0.5-1.1,1.1-1.1
			c0.3,0,0.5,0.1,0.7,0.3v-1.1H58.2z M57.6,117.2c0-0.4-0.2-0.6-0.6-0.6c-0.3,0-0.6,0.2-0.6,0.6s0.2,0.6,0.6,0.6
			C57.4,117.8,57.6,117.5,57.6,117.2z"/>
		<path class="st1" d="M60.7,117v1.2h-0.6V118c-0.1,0.2-0.3,0.3-0.7,0.3c-0.5,0-0.8-0.3-0.8-0.7c0-0.4,0.3-0.7,0.9-0.7h0.5
			c0-0.3-0.2-0.4-0.5-0.4c-0.2,0-0.5,0.1-0.6,0.2l-0.2-0.4c0.2-0.2,0.6-0.3,0.9-0.3C60.4,116,60.7,116.3,60.7,117z M60.1,117.6v-0.2
			h-0.4c-0.3,0-0.4,0.1-0.4,0.3c0,0.2,0.1,0.3,0.4,0.3C59.9,117.8,60,117.8,60.1,117.6z"/>
		<path class="st1" d="M61.1,118l0.2-0.5c0.2,0.1,0.5,0.2,0.8,0.2c0.3,0,0.4-0.1,0.4-0.2c0-0.4-1.3,0-1.3-0.9c0-0.4,0.4-0.7,1-0.7
			c0.3,0,0.6,0.1,0.8,0.2l-0.2,0.4c-0.2-0.1-0.4-0.2-0.6-0.2c-0.3,0-0.4,0.1-0.4,0.2c0,0.4,1.3,0,1.3,0.9c0,0.4-0.4,0.7-1,0.7
			C61.7,118.3,61.3,118.2,61.1,118z"/>
		<path class="st1" d="M66.6,117.7v0.5h-2.1v-0.4l1.1-1c0.3-0.2,0.3-0.4,0.3-0.5c0-0.2-0.2-0.4-0.5-0.4c-0.2,0-0.4,0.1-0.6,0.3
			l-0.5-0.3c0.2-0.3,0.6-0.5,1.1-0.5c0.6,0,1.1,0.3,1.1,0.8c0,0.3-0.1,0.5-0.5,0.9l-0.7,0.6H66.6z"/>
		<path class="st1" d="M69,117.4c0,0.5-0.4,0.9-1.2,0.9c-0.4,0-0.8-0.1-1.1-0.3l0.3-0.5c0.2,0.2,0.5,0.3,0.8,0.3
			c0.3,0,0.5-0.1,0.5-0.4c0-0.2-0.2-0.3-0.5-0.3h-0.3v-0.4l0.6-0.7h-1.2v-0.5h2v0.4l-0.6,0.7C68.7,116.6,69,117,69,117.4z"/>
	</g>
	<g class="st2">
		<path class="st1" d="M72.7,116.1l-0.9,2.2h-0.7l-0.9-2.2h0.7l0.6,1.5l0.6-1.5H72.7z"/>
	</g>
	<g class="st2">
		<path class="st1" d="M74.8,117v1.2h-0.6V118c-0.1,0.2-0.3,0.3-0.7,0.3c-0.5,0-0.8-0.3-0.8-0.7c0-0.4,0.3-0.7,0.9-0.7h0.5
			c0-0.3-0.2-0.4-0.5-0.4c-0.2,0-0.5,0.1-0.6,0.2l-0.2-0.4c0.2-0.2,0.6-0.3,0.9-0.3C74.5,116,74.8,116.3,74.8,117z M74.2,117.6v-0.2
			h-0.4c-0.3,0-0.4,0.1-0.4,0.3c0,0.2,0.1,0.3,0.4,0.3C74,117.8,74.1,117.8,74.2,117.6z"/>
	</g>
	<g class="st2">
		<path class="st1" d="M77.7,116.1v1.8c0,0.8-0.4,1.2-1.2,1.2c-0.4,0-0.8-0.1-1.1-0.3l0.3-0.5c0.2,0.1,0.5,0.2,0.8,0.2
			c0.4,0,0.6-0.2,0.6-0.6v-0.1c-0.2,0.2-0.4,0.3-0.7,0.3c-0.6,0-1.1-0.4-1.1-1.1s0.5-1.1,1.1-1.1c0.3,0,0.6,0.1,0.7,0.3v-0.3H77.7z
			 M77.1,117.1c0-0.3-0.2-0.5-0.6-0.5c-0.3,0-0.6,0.2-0.6,0.5s0.2,0.5,0.6,0.5C76.8,117.6,77.1,117.4,77.1,117.1z"/>
		<path class="st1" d="M80.2,117v1.2h-0.6V118c-0.1,0.2-0.3,0.3-0.7,0.3c-0.5,0-0.8-0.3-0.8-0.7c0-0.4,0.3-0.7,0.9-0.7h0.5
			c0-0.3-0.2-0.4-0.5-0.4c-0.2,0-0.5,0.1-0.6,0.2l-0.2-0.4c0.2-0.2,0.6-0.3,0.9-0.3C79.8,116,80.2,116.3,80.2,117z M79.6,117.6v-0.2
			h-0.4c-0.3,0-0.4,0.1-0.4,0.3c0,0.2,0.1,0.3,0.4,0.3C79.3,117.8,79.5,117.8,79.6,117.6z"/>
		<path class="st1" d="M80.6,118l0.2-0.5c0.2,0.1,0.5,0.2,0.8,0.2c0.3,0,0.4-0.1,0.4-0.2c0-0.4-1.3,0-1.3-0.9c0-0.4,0.4-0.7,1-0.7
			c0.3,0,0.6,0.1,0.8,0.2l-0.2,0.4c-0.2-0.1-0.4-0.2-0.6-0.2c-0.3,0-0.4,0.1-0.4,0.2c0,0.4,1.3,0,1.3,0.9c0,0.4-0.4,0.7-1,0.7
			C81.1,118.3,80.8,118.2,80.6,118z"/>
		<path class="st1" d="M82.8,116.4c0-0.2,0.2-0.4,0.4-0.4c0.2,0,0.4,0.2,0.4,0.4c0,0.2-0.2,0.4-0.4,0.4
			C82.9,116.8,82.8,116.7,82.8,116.4z M82.8,117.9c0-0.2,0.2-0.4,0.4-0.4c0.2,0,0.4,0.2,0.4,0.4c0,0.2-0.2,0.4-0.4,0.4
			C82.9,118.3,82.8,118.1,82.8,117.9z"/>
	</g>
	<g>
		<g>
			<path class="st8" d="M88.1,54.7L88.1,54.7c-0.2-0.2-0.4-0.2-0.6,0l-1.1,1.1c-0.2,0.2-0.2,0.4,0,0.6l0,0c0.2,0.2,0.4,0.2,0.6,0
				l1.1-1.1C88.2,55.1,88.2,54.9,88.1,54.7z"/>
		</g>
		<g>
			<path class="st8" d="M86.4,53.6L86.4,53.6c-0.2,0.2-0.2,0.4,0,0.6l1.1,1.1c0.2,0.2,0.4,0.2,0.6,0l0,0c0.2-0.2,0.2-0.4,0-0.6
				L87,53.6C86.8,53.4,86.6,53.4,86.4,53.6z"/>
		</g>
	</g>
	<g>
		<path class="st1" d="M16.4,62h71.4c2.5,0,4.4,2,4.4,4.4v0.3c0,2.5-2,4.4-4.4,4.4H16.4c-2.5,0-4.4-2-4.4-4.4v-0.3
			C12,64,14,62,16.4,62z"/>
	</g>
	<g class="st2">
		<path class="st4" d="M20.7,67.7h-1.9l-0.4,0.9h-0.5l1.6-3.5H20l1.6,3.5h-0.5L20.7,67.7z M20.5,67.3l-0.8-1.7L19,67.3H20.5z"/>
	</g>
	<g class="st2">
		<path class="st4" d="M23.5,68.4c-0.1,0.1-0.4,0.2-0.6,0.2c-0.5,0-0.8-0.3-0.8-0.8v-1.5h-0.5v-0.4h0.5v-0.6h0.5v0.6h0.8v0.4h-0.8
			v1.4c0,0.3,0.2,0.4,0.4,0.4c0.1,0,0.3,0,0.4-0.1L23.5,68.4z"/>
	</g>
	<g class="st2">
		<path class="st4" d="M26.4,67.4h-2.2c0.1,0.5,0.4,0.8,1,0.8c0.3,0,0.6-0.1,0.8-0.3l0.3,0.3c-0.2,0.3-0.6,0.4-1,0.4
			c-0.9,0-1.4-0.6-1.4-1.4c0-0.8,0.6-1.4,1.3-1.4s1.3,0.6,1.3,1.4C26.4,67.3,26.4,67.4,26.4,67.4z M24.2,67.1h1.7
			c-0.1-0.4-0.4-0.8-0.9-0.8C24.6,66.3,24.3,66.6,24.2,67.1z M25.1,65.5h-0.5l0.7-0.7H26L25.1,65.5z"/>
		<path class="st4" d="M30.6,67.5c0,0.6-0.4,1.1-1.3,1.1c-0.5,0-1-0.2-1.3-0.4l0.2-0.4c0.2,0.2,0.6,0.4,1.1,0.4
			c0.5,0,0.8-0.2,0.8-0.6c0-0.4-0.2-0.6-1.1-0.6h-0.8l0.2-1.8h2v0.4h-1.6l-0.1,1h0.4C30.2,66.5,30.6,66.9,30.6,67.5z"/>
	</g>
	<g class="st2">
		<path class="st4" d="M32.3,67.3l-0.6,0.5v0.7h-0.5v-3.7h0.5v2.4l1.4-1.3h0.6L32.6,67l1.2,1.6h-0.6L32.3,67.3z"/>
	</g>
	<g class="st2">
		<path class="st4" d="M38.7,67v1.5h-0.5v-1.5c0-0.5-0.3-0.8-0.7-0.8c-0.5,0-0.8,0.3-0.8,0.9v1.4h-0.5v-1.5c0-0.5-0.3-0.8-0.7-0.8
			c-0.5,0-0.8,0.3-0.8,0.9v1.4h-0.5v-2.7h0.5v0.4c0.2-0.3,0.5-0.4,0.9-0.4c0.4,0,0.7,0.2,0.9,0.5c0.2-0.3,0.6-0.5,1-0.5
			C38.3,65.9,38.7,66.3,38.7,67z"/>
		<path class="st4" d="M43.4,64.9v3.7H43v-0.4c-0.2,0.3-0.6,0.5-0.9,0.5c-0.8,0-1.3-0.5-1.3-1.4s0.6-1.4,1.3-1.4
			c0.4,0,0.7,0.1,0.9,0.4v-1.5H43.4z M43,67.2c0-0.6-0.4-0.9-0.9-0.9c-0.5,0-0.9,0.4-0.9,0.9s0.4,0.9,0.9,0.9
			C42.6,68.2,43,67.8,43,67.2z"/>
		<path class="st4" d="M46.4,67v1.6H46v-0.4c-0.2,0.2-0.5,0.4-0.9,0.4c-0.6,0-1-0.3-1-0.8c0-0.4,0.3-0.8,1.1-0.8H46v-0.1
			c0-0.4-0.2-0.6-0.7-0.6c-0.3,0-0.6,0.1-0.8,0.3l-0.2-0.4c0.3-0.2,0.7-0.3,1.1-0.3C46,65.9,46.4,66.2,46.4,67z M46,67.8v-0.4h-0.7
			c-0.5,0-0.6,0.2-0.6,0.4c0,0.3,0.2,0.4,0.6,0.4C45.6,68.2,45.8,68.1,46,67.8z"/>
		<path class="st4" d="M53.1,67v1.5h-0.5v-1.5c0-0.5-0.3-0.8-0.7-0.8c-0.5,0-0.8,0.3-0.8,0.9v1.4h-0.5v-1.5c0-0.5-0.3-0.8-0.7-0.8
			c-0.5,0-0.8,0.3-0.8,0.9v1.4h-0.5v-2.7h0.5v0.4c0.2-0.3,0.5-0.4,0.9-0.4c0.4,0,0.7,0.2,0.9,0.5c0.2-0.3,0.6-0.5,1-0.5
			C52.6,65.9,53.1,66.3,53.1,67z"/>
		<path class="st4" d="M53.9,65.1c0-0.2,0.1-0.3,0.3-0.3s0.3,0.1,0.3,0.3c0,0.2-0.1,0.3-0.3,0.3C54,65.4,53.9,65.3,53.9,65.1z
			 M54,65.9h0.5v2.7H54V65.9z"/>
		<path class="st4" d="M57.9,67v1.5h-0.5v-1.5c0-0.5-0.3-0.8-0.7-0.8c-0.5,0-0.8,0.3-0.8,0.9v1.4h-0.5v-2.7h0.5v0.4
			c0.2-0.3,0.5-0.4,1-0.4C57.4,65.9,57.9,66.3,57.9,67z"/>
		<path class="st4" d="M61.3,67v1.5h-0.5v-1.5c0-0.5-0.3-0.8-0.7-0.8c-0.5,0-0.8,0.3-0.8,0.9v1.4h-0.5v-3.7h0.5v1.4
			c0.2-0.3,0.5-0.4,0.9-0.4C60.8,65.9,61.3,66.3,61.3,67z"/>
		<path class="st4" d="M64.3,67v1.6h-0.5v-0.4c-0.2,0.2-0.5,0.4-0.9,0.4c-0.6,0-1-0.3-1-0.8c0-0.4,0.3-0.8,1.1-0.8h0.8v-0.1
			c0-0.4-0.2-0.6-0.7-0.6c-0.3,0-0.6,0.1-0.8,0.3L62,66.2c0.3-0.2,0.7-0.3,1.1-0.3C63.9,65.9,64.3,66.2,64.3,67z M63.8,67.8v-0.4
			h-0.7c-0.5,0-0.6,0.2-0.6,0.4c0,0.3,0.2,0.4,0.6,0.4C63.4,68.2,63.7,68.1,63.8,67.8z"/>
		<path class="st4" d="M66.3,67.2c0-0.8,0.6-1.4,1.4-1.4c0.5,0,0.9,0.2,1.1,0.6l-0.4,0.2c-0.2-0.3-0.4-0.4-0.7-0.4
			c-0.5,0-0.9,0.4-0.9,0.9c0,0.6,0.4,0.9,0.9,0.9c0.3,0,0.6-0.1,0.7-0.4l0.4,0.2c-0.2,0.4-0.6,0.6-1.1,0.6
			C66.8,68.6,66.3,68,66.3,67.2z"/>
		<path class="st4" d="M71.5,67v1.6H71v-0.4c-0.2,0.2-0.5,0.4-0.9,0.4c-0.6,0-1-0.3-1-0.8c0-0.4,0.3-0.8,1.1-0.8H71v-0.1
			c0-0.4-0.2-0.6-0.7-0.6c-0.3,0-0.6,0.1-0.8,0.3l-0.2-0.4c0.3-0.2,0.7-0.3,1.1-0.3C71.1,65.9,71.5,66.2,71.5,67z M71,67.8v-0.4
			h-0.7c-0.5,0-0.6,0.2-0.6,0.4c0,0.3,0.2,0.4,0.6,0.4C70.6,68.2,70.9,68.1,71,67.8z"/>
		<path class="st4" d="M72,68.3l0.2-0.4c0.2,0.2,0.6,0.3,0.9,0.3c0.4,0,0.6-0.1,0.6-0.4c0-0.6-1.7-0.1-1.7-1.1
			c0-0.5,0.4-0.8,1.1-0.8c0.3,0,0.7,0.1,1,0.2L74,66.5c-0.2-0.2-0.5-0.2-0.8-0.2c-0.4,0-0.6,0.2-0.6,0.4c0,0.6,1.7,0.1,1.7,1.1
			c0,0.5-0.4,0.8-1.1,0.8C72.7,68.6,72.2,68.5,72,68.3z"/>
		<path class="st4" d="M77,67v1.6h-0.5v-0.4c-0.2,0.2-0.5,0.4-0.9,0.4c-0.6,0-1-0.3-1-0.8c0-0.4,0.3-0.8,1.1-0.8h0.8v-0.1
			c0-0.4-0.2-0.6-0.7-0.6c-0.3,0-0.6,0.1-0.8,0.3l-0.2-0.4c0.3-0.2,0.7-0.3,1.1-0.3C76.5,65.9,77,66.2,77,67z M76.5,67.8v-0.4h-0.7
			c-0.5,0-0.6,0.2-0.6,0.4c0,0.3,0.2,0.4,0.6,0.4C76.1,68.2,76.4,68.1,76.5,67.8z"/>
	</g>
	<g>
		<g>
			<path class="st8" d="M87.8,66.3L87.8,66.3c-0.2-0.2-0.4-0.2-0.6,0l-1.1,1.1c-0.2,0.2-0.2,0.4,0,0.6l0,0c0.2,0.2,0.4,0.2,0.6,0
				l1.1-1.1C88,66.8,88,66.5,87.8,66.3z"/>
		</g>
		<g>
			<path class="st8" d="M86.1,65.2L86.1,65.2c-0.2,0.2-0.2,0.4,0,0.6l1.1,1.1c0.2,0.2,0.4,0.2,0.6,0l0,0c0.2-0.2,0.2-0.4,0-0.6
				l-1.1-1.1C86.6,65.1,86.3,65.1,86.1,65.2z"/>
		</g>
	</g>
	<g>
		<path class="st1" d="M16.4,73.6h71.4c2.5,0,4.4,2,4.4,4.4v0.3c0,2.5-2,4.4-4.4,4.4H16.4c-2.5,0-4.4-2-4.4-4.4V78
			C12,75.6,14,73.6,16.4,73.6z"/>
	</g>
	<g class="st2">
		<path class="st4" d="M18.2,78.4c0-1,0.8-1.8,1.9-1.8c0.5,0,1,0.2,1.3,0.5L21,77.4c-0.3-0.3-0.6-0.4-1-0.4c-0.8,0-1.4,0.6-1.4,1.3
			c0,0.8,0.6,1.3,1.4,1.3c0.4,0,0.7-0.1,1-0.4l0.3,0.3C21,80,20.5,80.2,20,80.2C18.9,80.2,18.2,79.4,18.2,78.4z"/>
	</g>
	<g class="st2">
		<path class="st4" d="M24,78.5v1.6h-0.5v-0.4c-0.2,0.2-0.5,0.4-0.9,0.4c-0.6,0-1-0.3-1-0.8c0-0.4,0.3-0.8,1.1-0.8h0.8v-0.1
			c0-0.4-0.2-0.6-0.7-0.6c-0.3,0-0.6,0.1-0.8,0.3l-0.2-0.4c0.3-0.2,0.7-0.3,1.1-0.3C23.6,77.5,24,77.8,24,78.5z M23.6,79.3v-0.4
			h-0.7c-0.5,0-0.6,0.2-0.6,0.4c0,0.3,0.2,0.4,0.6,0.4C23.2,79.8,23.4,79.6,23.6,79.3z"/>
	</g>
	<g class="st2">
		<path class="st4" d="M26.4,77.5v0.5c0,0-0.1,0-0.1,0c-0.5,0-0.8,0.3-0.8,0.9v1.3h-0.5v-2.7h0.5v0.4C25.6,77.6,25.9,77.5,26.4,77.5
			z"/>
	</g>
	<g class="st2">
		<path class="st4" d="M28.6,80c-0.1,0.1-0.4,0.2-0.6,0.2c-0.5,0-0.8-0.3-0.8-0.8v-1.5h-0.5v-0.4h0.5v-0.6h0.5v0.6h0.8v0.4h-0.8v1.4
			c0,0.3,0.2,0.4,0.4,0.4c0.1,0,0.3,0,0.4-0.1L28.6,80z"/>
	</g>
	<g class="st2">
		<path class="st4" d="M31.4,79h-2.2c0.1,0.5,0.4,0.8,1,0.8c0.3,0,0.6-0.1,0.8-0.3l0.3,0.3c-0.2,0.3-0.6,0.4-1,0.4
			c-0.9,0-1.4-0.6-1.4-1.4c0-0.8,0.6-1.4,1.3-1.4s1.3,0.6,1.3,1.4C31.4,78.9,31.4,78.9,31.4,79z M29.3,78.6H31
			c-0.1-0.4-0.4-0.8-0.9-0.8C29.7,77.9,29.3,78.2,29.3,78.6z"/>
		<path class="st4" d="M32,76.7c0-0.2,0.1-0.3,0.3-0.3c0.2,0,0.3,0.1,0.3,0.3c0,0.2-0.1,0.3-0.3,0.3C32.2,77,32,76.8,32,76.7z
			 M32.1,77.5h0.5v2.7h-0.5V77.5z"/>
	</g>
	<g class="st2">
		<path class="st4" d="M34.9,77.5v0.5c0,0-0.1,0-0.1,0c-0.5,0-0.8,0.3-0.8,0.9v1.3h-0.5v-2.7H34v0.4C34.1,77.6,34.5,77.5,34.9,77.5z
			"/>
	</g>
	<g class="st2">
		<path class="st4" d="M37.6,78.5v1.6h-0.5v-0.4c-0.2,0.2-0.5,0.4-0.9,0.4c-0.6,0-1-0.3-1-0.8c0-0.4,0.3-0.8,1.1-0.8h0.8v-0.1
			c0-0.4-0.2-0.6-0.7-0.6c-0.3,0-0.6,0.1-0.8,0.3l-0.2-0.4c0.3-0.2,0.7-0.3,1.1-0.3C37.2,77.5,37.6,77.8,37.6,78.5z M37.1,79.3v-0.4
			h-0.7c-0.5,0-0.6,0.2-0.6,0.4c0,0.3,0.2,0.4,0.6,0.4C36.7,79.8,37,79.6,37.1,79.3z"/>
		<path class="st4" d="M41.9,78.5v1.6h-0.5v-0.4c-0.2,0.2-0.5,0.4-0.9,0.4c-0.6,0-1-0.3-1-0.8c0-0.4,0.3-0.8,1.1-0.8h0.8v-0.1
			c0-0.4-0.2-0.6-0.7-0.6c-0.3,0-0.6,0.1-0.8,0.3l-0.2-0.4c0.3-0.2,0.7-0.3,1.1-0.3C41.5,77.5,41.9,77.8,41.9,78.5z M41.5,79.3v-0.4
			h-0.7c-0.5,0-0.6,0.2-0.6,0.4c0,0.3,0.2,0.4,0.6,0.4C41.1,79.8,41.3,79.6,41.5,79.3z"/>
		<path class="st4" d="M42.5,79.8l0.2-0.4c0.2,0.2,0.6,0.3,0.9,0.3c0.4,0,0.6-0.1,0.6-0.4c0-0.6-1.7-0.1-1.7-1.1
			c0-0.5,0.4-0.8,1.1-0.8c0.3,0,0.7,0.1,1,0.2l-0.2,0.4c-0.2-0.2-0.5-0.2-0.8-0.2c-0.4,0-0.6,0.2-0.6,0.4c0,0.6,1.7,0.1,1.7,1.1
			c0,0.5-0.4,0.8-1.1,0.8C43.2,80.2,42.7,80,42.5,79.8z"/>
		<path class="st4" d="M45,79.8l0.2-0.4c0.2,0.2,0.6,0.3,0.9,0.3c0.4,0,0.6-0.1,0.6-0.4c0-0.6-1.7-0.1-1.7-1.1
			c0-0.5,0.4-0.8,1.1-0.8c0.3,0,0.7,0.1,1,0.2L47,78.1c-0.2-0.2-0.5-0.2-0.8-0.2c-0.4,0-0.6,0.2-0.6,0.4c0,0.6,1.7,0.1,1.7,1.1
			c0,0.5-0.4,0.8-1.1,0.8C45.7,80.2,45.2,80,45,79.8z"/>
		<path class="st4" d="M47.8,76.7c0-0.2,0.1-0.3,0.3-0.3s0.3,0.1,0.3,0.3c0,0.2-0.1,0.3-0.3,0.3C47.9,77,47.8,76.8,47.8,76.7z
			 M47.8,77.5h0.5v2.7h-0.5V77.5z"/>
		<path class="st4" d="M51.8,78.6v1.5h-0.5v-1.5c0-0.5-0.3-0.8-0.7-0.8c-0.5,0-0.8,0.3-0.8,0.9v1.4h-0.5v-2.7h0.5v0.4
			c0.2-0.3,0.5-0.4,1-0.4C51.3,77.5,51.8,77.8,51.8,78.6z"/>
	</g>
	<g class="st2">
		<path class="st4" d="M54.7,78.5v1.6h-0.5v-0.4c-0.2,0.2-0.5,0.4-0.9,0.4c-0.6,0-1-0.3-1-0.8c0-0.4,0.3-0.8,1.1-0.8h0.8v-0.1
			c0-0.4-0.2-0.6-0.7-0.6c-0.3,0-0.6,0.1-0.8,0.3l-0.2-0.4c0.3-0.2,0.7-0.3,1.1-0.3C54.3,77.5,54.7,77.8,54.7,78.5z M54.3,79.3v-0.4
			h-0.7c-0.5,0-0.6,0.2-0.6,0.4c0,0.3,0.2,0.4,0.6,0.4C53.9,79.8,54.1,79.6,54.3,79.3z"/>
	</g>
	<g class="st2">
		<path class="st4" d="M58.1,76.4v3.7h-0.5v-0.4c-0.2,0.3-0.6,0.5-0.9,0.5c-0.8,0-1.3-0.5-1.3-1.4s0.6-1.4,1.3-1.4
			c0.4,0,0.7,0.1,0.9,0.4v-1.5H58.1z M57.7,78.8c0-0.6-0.4-0.9-0.9-0.9c-0.5,0-0.9,0.4-0.9,0.9s0.4,0.9,0.9,0.9
			C57.3,79.7,57.7,79.4,57.7,78.8z"/>
		<path class="st4" d="M61.2,78.5v1.6h-0.5v-0.4c-0.2,0.2-0.5,0.4-0.9,0.4c-0.6,0-1-0.3-1-0.8c0-0.4,0.3-0.8,1.1-0.8h0.8v-0.1
			c0-0.4-0.2-0.6-0.7-0.6c-0.3,0-0.6,0.1-0.8,0.3l-0.2-0.4c0.3-0.2,0.7-0.3,1.1-0.3C60.7,77.5,61.2,77.8,61.2,78.5z M60.7,79.3v-0.4
			h-0.7c-0.5,0-0.6,0.2-0.6,0.4c0,0.3,0.2,0.4,0.6,0.4C60.3,79.8,60.6,79.6,60.7,79.3z"/>
	</g>
	<g>
		<g>
			<path class="st8" d="M87.8,77.9L87.8,77.9c-0.2-0.2-0.4-0.2-0.6,0L86.1,79c-0.2,0.2-0.2,0.4,0,0.6l0,0c0.2,0.2,0.4,0.2,0.6,0
				l1.1-1.1C88,78.3,88,78.1,87.8,77.9z"/>
		</g>
		<g>
			<path class="st8" d="M86.1,76.8L86.1,76.8c-0.2,0.2-0.2,0.4,0,0.6l1.1,1.1c0.2,0.2,0.4,0.2,0.6,0l0,0c0.2-0.2,0.2-0.4,0-0.6
				l-1.1-1.1C86.6,76.6,86.3,76.6,86.1,76.8z"/>
		</g>
	</g>
	<g>
		<path class="st1" d="M16.4,85.1h71.4c2.5,0,4.4,2,4.4,4.4v0.3c0,2.5-2,4.4-4.4,4.4H16.4c-2.5,0-4.4-2-4.4-4.4v-0.3
			C12,87.1,14,85.1,16.4,85.1z"/>
	</g>
	<g class="st2">
		<path class="st4" d="M19.1,88.6h-1.2v-0.4h2.9v0.4h-1.2v3.1h-0.5V88.6z"/>
	</g>
	<g class="st2">
		<path class="st4" d="M22.7,89v0.5c0,0-0.1,0-0.1,0c-0.5,0-0.8,0.3-0.8,0.9v1.3h-0.5V89h0.5v0.4C21.9,89.1,22.2,89,22.7,89z"/>
	</g>
	<g class="st2">
		<path class="st4" d="M25.3,90v1.6h-0.5v-0.4c-0.2,0.2-0.5,0.4-0.9,0.4c-0.6,0-1-0.3-1-0.8c0-0.4,0.3-0.8,1.1-0.8h0.8V90
			c0-0.4-0.2-0.6-0.7-0.6c-0.3,0-0.6,0.1-0.8,0.3l-0.2-0.4c0.3-0.2,0.7-0.3,1.1-0.3C24.9,89,25.3,89.3,25.3,90z M24.9,90.8v-0.4
			h-0.7c-0.5,0-0.6,0.2-0.6,0.4c0,0.3,0.2,0.4,0.6,0.4C24.5,91.3,24.7,91.1,24.9,90.8z"/>
	</g>
	<g class="st2">
		<path class="st4" d="M29,90.3c0,0.8-0.6,1.4-1.3,1.4c-0.4,0-0.7-0.2-0.9-0.5v0.4h-0.5v-3.7h0.5v1.5c0.2-0.3,0.6-0.4,0.9-0.4
			C28.4,89,29,89.5,29,90.3z M28.5,90.3c0-0.6-0.4-0.9-0.9-0.9c-0.5,0-0.9,0.4-0.9,0.9s0.4,0.9,0.9,0.9
			C28.1,91.2,28.5,90.9,28.5,90.3z"/>
	</g>
	<g class="st2">
		<path class="st4" d="M31.7,90v1.6h-0.5v-0.4c-0.2,0.2-0.5,0.4-0.9,0.4c-0.6,0-1-0.3-1-0.8c0-0.4,0.3-0.8,1.1-0.8h0.8V90
			c0-0.4-0.2-0.6-0.7-0.6c-0.3,0-0.6,0.1-0.8,0.3l-0.2-0.4c0.3-0.2,0.7-0.3,1.1-0.3C31.3,89,31.7,89.3,31.7,90z M31.2,90.8v-0.4
			h-0.7c-0.5,0-0.6,0.2-0.6,0.4c0,0.3,0.2,0.4,0.6,0.4C30.8,91.3,31.1,91.1,31.2,90.8z"/>
		<path class="st4" d="M32.6,87.9h0.5v3.7h-0.5V87.9z"/>
	</g>
	<g class="st2">
		<path class="st4" d="M36.5,90.1v1.5H36v-1.5c0-0.5-0.3-0.8-0.7-0.8c-0.5,0-0.8,0.3-0.8,0.9v1.4H34v-3.7h0.5v1.4
			c0.2-0.3,0.5-0.4,0.9-0.4C36.1,89,36.5,89.3,36.5,90.1z"/>
	</g>
	<g class="st2">
		<path class="st4" d="M37.2,90.3c0-0.8,0.6-1.4,1.4-1.4s1.4,0.6,1.4,1.4s-0.6,1.4-1.4,1.4S37.2,91.1,37.2,90.3z M39.5,90.3
			c0-0.6-0.4-0.9-0.9-0.9s-0.9,0.4-0.9,0.9s0.4,0.9,0.9,0.9S39.5,90.9,39.5,90.3z"/>
	</g>
	<g class="st2">
		<path class="st4" d="M43.4,89v0.5c0,0-0.1,0-0.1,0c-0.5,0-0.8,0.3-0.8,0.9v1.3h-0.5V89h0.5v0.4C42.6,89.1,42.9,89,43.4,89z"/>
	</g>
	<g class="st2">
		<path class="st4" d="M46.3,90.5h-2.2c0.1,0.5,0.4,0.8,1,0.8c0.3,0,0.6-0.1,0.8-0.3l0.3,0.3c-0.2,0.3-0.6,0.4-1,0.4
			c-0.9,0-1.4-0.6-1.4-1.4c0-0.8,0.6-1.4,1.3-1.4s1.3,0.6,1.3,1.4C46.3,90.4,46.3,90.4,46.3,90.5z M44.2,90.1h1.7
			c-0.1-0.4-0.4-0.8-0.9-0.8C44.6,89.4,44.2,89.7,44.2,90.1z"/>
	</g>
	<g class="st2">
		<path class="st4" d="M51.4,90.1v1.5h-0.5v-1.5c0-0.5-0.3-0.8-0.7-0.8c-0.5,0-0.8,0.3-0.8,0.9v1.4H49v-1.5c0-0.5-0.3-0.8-0.7-0.8
			c-0.5,0-0.8,0.3-0.8,0.9v1.4H47V89h0.5v0.4c0.2-0.3,0.5-0.4,0.9-0.4c0.4,0,0.7,0.2,0.9,0.5c0.2-0.3,0.6-0.5,1-0.5
			C51,89,51.4,89.3,51.4,90.1z"/>
	</g>
	<g class="st2">
		<path class="st4" d="M52,90.3c0-0.8,0.6-1.4,1.4-1.4s1.4,0.6,1.4,1.4s-0.6,1.4-1.4,1.4S52,91.1,52,90.3z M54.3,90.3
			c0-0.6-0.4-0.9-0.9-0.9s-0.9,0.4-0.9,0.9s0.4,0.9,0.9,0.9S54.3,90.9,54.3,90.3z"/>
	</g>
	<g class="st2">
		<path class="st4" d="M57,91.5c-0.1,0.1-0.4,0.2-0.6,0.2c-0.5,0-0.8-0.3-0.8-0.8v-1.5h-0.5V89h0.5v-0.6H56V89h0.8v0.4H56v1.4
			c0,0.3,0.2,0.4,0.4,0.4c0.1,0,0.3,0,0.4-0.1L57,91.5z"/>
	</g>
	<g class="st2">
		<path class="st4" d="M57.2,90.3c0-0.8,0.6-1.4,1.4-1.4c0.8,0,1.4,0.6,1.4,1.4s-0.6,1.4-1.4,1.4C57.8,91.7,57.2,91.1,57.2,90.3z
			 M59.5,90.3c0-0.6-0.4-0.9-0.9-0.9c-0.5,0-0.9,0.4-0.9,0.9s0.4,0.9,0.9,0.9C59.1,91.2,59.5,90.9,59.5,90.3z"/>
	</g>
	<g>
		<g>
			<path class="st8" d="M87.8,89.4L87.8,89.4c-0.2-0.2-0.4-0.2-0.6,0l-1.1,1.1c-0.2,0.2-0.2,0.4,0,0.6l0,0c0.2,0.2,0.4,0.2,0.6,0
				l1.1-1.1C88,89.8,88,89.6,87.8,89.4z"/>
		</g>
		<g>
			<path class="st8" d="M86.1,88.3L86.1,88.3c-0.2,0.2-0.2,0.4,0,0.6l1.1,1.1c0.2,0.2,0.4,0.2,0.6,0l0,0c0.2-0.2,0.2-0.4,0-0.6
				l-1.1-1.1C86.6,88.1,86.3,88.1,86.1,88.3z"/>
		</g>
	</g>
	<g>
		<path class="st1" d="M16.4,96.5h71.4c2.5,0,4.4,2,4.4,4.4v0.3c0,2.5-2,4.4-4.4,4.4H16.4c-2.5,0-4.4-2-4.4-4.4V101
			C12,98.5,14,96.5,16.4,96.5z"/>
	</g>
	<g class="st2">
		<path class="st4" d="M21.4,102.1c0,0.6-0.5,0.9-1.3,0.9h-1.7v-3.5H20c0.8,0,1.3,0.3,1.3,0.9c0,0.4-0.2,0.6-0.5,0.8
			C21.2,101.4,21.4,101.7,21.4,102.1z M18.9,100v1.1h1c0.5,0,0.8-0.2,0.8-0.6c0-0.4-0.3-0.6-0.8-0.6H18.9z M20.9,102.1
			c0-0.4-0.3-0.6-0.9-0.6h-1.2v1.2h1.2C20.6,102.7,20.9,102.5,20.9,102.1z"/>
		<path class="st4" d="M24.5,101.9h-2.2c0.1,0.5,0.4,0.8,1,0.8c0.3,0,0.6-0.1,0.8-0.3l0.3,0.3c-0.2,0.3-0.6,0.4-1,0.4
			c-0.9,0-1.4-0.6-1.4-1.4c0-0.8,0.6-1.4,1.3-1.4s1.3,0.6,1.3,1.4C24.5,101.8,24.5,101.9,24.5,101.9z M22.4,101.6h1.7
			c-0.1-0.4-0.4-0.8-0.9-0.8C22.8,100.8,22.4,101.1,22.4,101.6z"/>
	</g>
	<g class="st2">
		<path class="st4" d="M27.7,101.5v1.5h-0.5v-1.5c0-0.5-0.3-0.8-0.7-0.8c-0.5,0-0.8,0.3-0.8,0.9v1.4h-0.5v-2.7h0.5v0.4
			c0.2-0.3,0.5-0.4,1-0.4C27.3,100.4,27.7,100.8,27.7,101.5z"/>
	</g>
	<g class="st2">
		<path class="st4" d="M31,101.9h-2.2c0.1,0.5,0.4,0.8,1,0.8c0.3,0,0.6-0.1,0.8-0.3l0.3,0.3c-0.2,0.3-0.6,0.4-1,0.4
			c-0.9,0-1.4-0.6-1.4-1.4c0-0.8,0.6-1.4,1.3-1.4s1.3,0.6,1.3,1.4C31,101.8,31,101.9,31,101.9z M28.9,101.6h1.7
			c-0.1-0.4-0.4-0.8-0.9-0.8C29.3,100.8,28.9,101.1,28.9,101.6z"/>
	</g>
	<g class="st2">
		<path class="st4" d="M32.2,100.2v0.2H33v0.4h-0.8v2.3h-0.5v-2.3h-0.5v-0.4h0.5v-0.2c0-0.5,0.3-0.9,0.9-0.9c0.2,0,0.4,0.1,0.5,0.2
			L33,99.8c-0.1-0.1-0.2-0.1-0.4-0.1C32.4,99.7,32.2,99.9,32.2,100.2z"/>
	</g>
	<g class="st2">
		<path class="st4" d="M34.4,99.4H35l-0.8,0.7h-0.5L34.4,99.4z M33.9,100.4h0.5v2.7h-0.5V100.4z"/>
		<path class="st4" d="M35,101.7c0-0.8,0.6-1.4,1.4-1.4c0.5,0,0.9,0.2,1.1,0.6l-0.4,0.2c-0.2-0.3-0.4-0.4-0.7-0.4
			c-0.5,0-0.9,0.4-0.9,0.9c0,0.6,0.4,0.9,0.9,0.9c0.3,0,0.6-0.1,0.7-0.4l0.4,0.2c-0.2,0.4-0.6,0.6-1.1,0.6
			C35.6,103.1,35,102.5,35,101.7z"/>
		<path class="st4" d="M38,99.6c0-0.2,0.1-0.3,0.3-0.3s0.3,0.1,0.3,0.3c0,0.2-0.1,0.3-0.3,0.3C38.2,99.9,38,99.8,38,99.6z
			 M38.1,100.4h0.5v2.7h-0.5V100.4z"/>
		<path class="st4" d="M39.3,101.7c0-0.8,0.6-1.4,1.4-1.4c0.8,0,1.4,0.6,1.4,1.4s-0.6,1.4-1.4,1.4C39.8,103.1,39.3,102.5,39.3,101.7
			z M41.5,101.7c0-0.6-0.4-0.9-0.9-0.9c-0.5,0-0.9,0.4-0.9,0.9s0.4,0.9,0.9,0.9C41.1,102.7,41.5,102.3,41.5,101.7z"/>
		<path class="st4" d="M42.3,102.8l0.2-0.4c0.2,0.2,0.6,0.3,0.9,0.3c0.4,0,0.6-0.1,0.6-0.4c0-0.6-1.7-0.1-1.7-1.1
			c0-0.5,0.4-0.8,1.1-0.8c0.3,0,0.7,0.1,1,0.2l-0.2,0.4c-0.2-0.2-0.5-0.2-0.8-0.2c-0.4,0-0.6,0.2-0.6,0.4c0,0.6,1.7,0.1,1.7,1.1
			c0,0.5-0.4,0.8-1.1,0.8C43,103.1,42.6,103,42.3,102.8z"/>
		<path class="st4" d="M45,102.8c0-0.2,0.2-0.3,0.3-0.3c0.2,0,0.3,0.1,0.3,0.3s-0.2,0.3-0.3,0.3C45.1,103.1,45,103,45,102.8z"/>
		<path class="st4" d="M46.1,102.8c0-0.2,0.2-0.3,0.3-0.3c0.2,0,0.3,0.1,0.3,0.3s-0.1,0.3-0.3,0.3C46.2,103.1,46.1,103,46.1,102.8z"
			/>
		<path class="st4" d="M47.2,102.8c0-0.2,0.2-0.3,0.3-0.3c0.2,0,0.3,0.1,0.3,0.3s-0.1,0.3-0.3,0.3C47.4,103.1,47.2,103,47.2,102.8z"
			/>
	</g>
	<g>
		<g>
			<path class="st8" d="M87.8,100.8L87.8,100.8c-0.2-0.2-0.4-0.2-0.6,0l-1.1,1.1c-0.2,0.2-0.2,0.4,0,0.6l0,0c0.2,0.2,0.4,0.2,0.6,0
				l1.1-1.1C88,101.3,88,101,87.8,100.8z"/>
		</g>
		<g>
			<path class="st8" d="M86.1,99.7L86.1,99.7c-0.2,0.2-0.2,0.4,0,0.6l1.1,1.1c0.2,0.2,0.4,0.2,0.6,0l0,0c0.2-0.2,0.2-0.4,0-0.6
				l-1.1-1.1C86.6,99.6,86.3,99.6,86.1,99.7z"/>
		</g>
	</g>
</g>
</svg>
