<?xml version="1.0" encoding="utf-8"?>
<!-- Generator: Adobe Illustrator 26.3.1, SVG Export Plug-In . SVG Version: 6.00 Build 0)  -->
<svg version="1.1" id="Layer_2_00000050636161413319924430000016883559187398364089_"
	 xmlns="http://www.w3.org/2000/svg" xmlns:xlink="http://www.w3.org/1999/xlink" x="0px" y="0px" viewBox="0 0 105.2 186.6"
	 style="enable-background:new 0 0 105.2 186.6;" xml:space="preserve">
<style type="text/css">
	.st0{fill:none;}
	.st1{fill:#FFFFFF;}
	.st2{fill:#F99E1D;}
	.st3{enable-background:new    ;}
	.st4{fill:#2B2B2B;}
	.st5{opacity:0.8;}
	.st6{fill:#149314;}
</style>
<g id="OBJECTS">
	<g>
		<rect class="st0" width="104.9" height="186.6"/>
	</g>
	<g>
		<path class="st1" d="M54.1,155.7c-0.2-0.2-0.4-0.2-0.6,0l-0.8,0.8l-0.8-0.8c-0.2-0.2-0.4-0.2-0.6,0c-0.2,0.2-0.2,0.4,0,0.6
			l1.1,1.1c0.1,0.1,0.2,0.1,0.3,0.1c0.1,0,0.2,0,0.3-0.1l1.1-1.1C54.2,156.1,54.2,155.8,54.1,155.7L54.1,155.7z"/>
	</g>
	<g>
		<path class="st2" d="M43.9,173H16.6c-2.8,0-5-2.2-5-5l0,0c0-2.8,2.2-5,5-5h27.3c2.8,0,5,2.2,5,5l0,0C48.9,170.8,46.7,173,43.9,173
			z"/>
	</g>
	<g class="st3">
		<path class="st1" d="M19.2,168.3c0,0.5-0.4,0.9-0.8,0.9c-0.2,0-0.4-0.1-0.5-0.2v0.2h-0.5v-2.3h0.5v0.8c0.1-0.1,0.3-0.2,0.5-0.2
			C18.9,167.5,19.2,167.8,19.2,168.3z M18.7,168.3c0-0.3-0.2-0.5-0.4-0.5s-0.4,0.2-0.4,0.5s0.2,0.5,0.4,0.5S18.7,168.6,18.7,168.3z"
			/>
		<path class="st1" d="M21.2,167.5v1.7h-0.5V169c-0.1,0.1-0.3,0.2-0.5,0.2c-0.4,0-0.7-0.2-0.7-0.7v-0.9H20v0.9
			c0,0.3,0.1,0.4,0.3,0.4c0.2,0,0.4-0.1,0.4-0.4v-0.8H21.2z"/>
		<path class="st1" d="M21.5,169l0.2-0.3c0.1,0.1,0.4,0.2,0.6,0.2c0.2,0,0.3-0.1,0.3-0.2c0-0.3-1,0-1-0.7c0-0.3,0.3-0.5,0.8-0.5
			c0.2,0,0.5,0.1,0.6,0.1l-0.2,0.3c-0.2-0.1-0.3-0.1-0.5-0.1c-0.2,0-0.3,0.1-0.3,0.2c0,0.3,1,0,1,0.7c0,0.3-0.3,0.5-0.8,0.5
			C22,169.2,21.7,169.1,21.5,169z"/>
		<path class="st1" d="M23.2,168.3c0-0.5,0.4-0.9,0.9-0.9c0.4,0,0.6,0.2,0.7,0.4l-0.4,0.2c-0.1-0.2-0.2-0.2-0.4-0.2
			c-0.2,0-0.4,0.2-0.4,0.5s0.2,0.5,0.4,0.5c0.2,0,0.3-0.1,0.4-0.2l0.4,0.2c-0.1,0.3-0.4,0.4-0.7,0.4
			C23.6,169.2,23.2,168.8,23.2,168.3z"/>
		<path class="st1" d="M26.6,168.2v1h-0.5v-0.2c-0.1,0.2-0.3,0.2-0.5,0.2c-0.4,0-0.6-0.2-0.6-0.5c0-0.3,0.2-0.5,0.7-0.5h0.4
			c0-0.2-0.1-0.3-0.4-0.3c-0.2,0-0.4,0.1-0.5,0.2l-0.2-0.3c0.2-0.1,0.5-0.2,0.7-0.2C26.3,167.5,26.6,167.7,26.6,168.2z M26.2,168.6
			v-0.2h-0.3c-0.2,0-0.3,0.1-0.3,0.2c0,0.1,0.1,0.2,0.3,0.2C26,168.8,26.1,168.8,26.2,168.6z"/>
	</g>
	<g class="st3">
		<path class="st1" d="M29.4,168.2v1H29v-0.2c-0.1,0.2-0.3,0.2-0.5,0.2c-0.4,0-0.6-0.2-0.6-0.5c0-0.3,0.2-0.5,0.7-0.5H29
			c0-0.2-0.1-0.3-0.4-0.3c-0.2,0-0.4,0.1-0.5,0.2l-0.2-0.3c0.2-0.1,0.5-0.2,0.7-0.2C29.1,167.5,29.4,167.7,29.4,168.2z M29,168.6
			v-0.2h-0.3c-0.2,0-0.3,0.1-0.3,0.2c0,0.1,0.1,0.2,0.3,0.2C28.8,168.8,28.9,168.8,29,168.6z"/>
	</g>
	<g>
	</g>
	<g class="st3">
		<path class="st1" d="M31.5,167.5l-0.7,1.7h-0.5l-0.7-1.7h0.5l0.5,1.1l0.5-1.1H31.5z"/>
	</g>
	<g>
	</g>
	<g class="st3">
		<path class="st1" d="M33.1,168.2v1h-0.5v-0.2c-0.1,0.2-0.3,0.2-0.5,0.2c-0.4,0-0.6-0.2-0.6-0.5c0-0.3,0.2-0.5,0.7-0.5h0.4
			c0-0.2-0.1-0.3-0.4-0.3c-0.2,0-0.4,0.1-0.5,0.2l-0.2-0.3c0.2-0.1,0.5-0.2,0.7-0.2C32.8,167.5,33.1,167.7,33.1,168.2z M32.6,168.6
			v-0.2h-0.3c-0.2,0-0.3,0.1-0.3,0.2c0,0.1,0.1,0.2,0.3,0.2C32.4,168.8,32.6,168.8,32.6,168.6z"/>
	</g>
	<g>
	</g>
	<g class="st3">
		<path class="st1" d="M35.3,168.2v1h-0.5v-0.9c0-0.3-0.1-0.4-0.3-0.4c-0.2,0-0.4,0.1-0.4,0.4v0.8h-0.5v-1.7H34v0.2
			c0.1-0.1,0.3-0.2,0.6-0.2C35,167.5,35.3,167.7,35.3,168.2z"/>
	</g>
	<g>
	</g>
	<g class="st3">
		<path class="st1" d="M36.9,168.5l0.4,0.2c-0.1,0.3-0.4,0.4-0.7,0.4l0,0.1c0.2,0,0.3,0.1,0.3,0.3c0,0.2-0.2,0.3-0.5,0.3
			c-0.1,0-0.2,0-0.3-0.1l0.1-0.2c0.1,0,0.1,0,0.2,0c0.1,0,0.2,0,0.2-0.1c0-0.1,0-0.1-0.2-0.1h-0.1l0.1-0.3c-0.4-0.1-0.7-0.4-0.7-0.8
			c0-0.5,0.4-0.9,0.9-0.9c0.4,0,0.6,0.2,0.7,0.4l-0.4,0.2c-0.1-0.2-0.2-0.2-0.4-0.2c-0.2,0-0.4,0.2-0.4,0.5s0.2,0.5,0.4,0.5
			C36.7,168.8,36.8,168.7,36.9,168.5z"/>
	</g>
	<g>
	</g>
	<g class="st3">
		<path class="st1" d="M39,168.2v1h-0.5v-0.2c-0.1,0.2-0.3,0.2-0.5,0.2c-0.4,0-0.6-0.2-0.6-0.5c0-0.3,0.2-0.5,0.7-0.5h0.4
			c0-0.2-0.1-0.3-0.4-0.3c-0.2,0-0.4,0.1-0.5,0.2l-0.2-0.3c0.2-0.1,0.5-0.2,0.7-0.2C38.7,167.5,39,167.7,39,168.2z M38.6,168.6v-0.2
			h-0.3c-0.2,0-0.3,0.1-0.3,0.2c0,0.1,0.1,0.2,0.3,0.2C38.4,168.8,38.5,168.8,38.6,168.6z"/>
	</g>
	<g>
	</g>
	<g class="st3">
		<path class="st1" d="M41.2,166.9v2.3h-0.5V169c-0.1,0.1-0.3,0.2-0.5,0.2c-0.5,0-0.8-0.3-0.8-0.9s0.4-0.9,0.8-0.9
			c0.2,0,0.4,0.1,0.5,0.2v-0.8H41.2z M40.7,168.3c0-0.3-0.2-0.5-0.4-0.5c-0.2,0-0.4,0.2-0.4,0.5s0.2,0.5,0.4,0.5
			C40.5,168.8,40.7,168.6,40.7,168.3z"/>
		<path class="st1" d="M43.1,168.2v1h-0.5v-0.2c-0.1,0.2-0.3,0.2-0.5,0.2c-0.4,0-0.6-0.2-0.6-0.5c0-0.3,0.2-0.5,0.7-0.5h0.4
			c0-0.2-0.1-0.3-0.4-0.3c-0.2,0-0.4,0.1-0.5,0.2l-0.2-0.3c0.2-0.1,0.5-0.2,0.7-0.2C42.8,167.5,43.1,167.7,43.1,168.2z M42.6,168.6
			v-0.2h-0.3c-0.2,0-0.3,0.1-0.3,0.2c0,0.1,0.1,0.2,0.3,0.2C42.4,168.8,42.6,168.8,42.6,168.6z"/>
	</g>
	<g>
		<path class="st1" d="M87.2,173H59.9c-2.8,0-5-2.2-5-5l0,0c0-2.8,2.2-5,5-5h27.3c2.8,0,5,2.2,5,5l0,0C92.1,170.8,89.9,173,87.2,173
			z"/>
	</g>
	<g class="st3">
		<path class="st4" d="M59.6,168.7v0.4h-1.7V167h1.6v0.4h-1.1v0.5h1v0.4h-1v0.5H59.6z"/>
	</g>
	<g>
	</g>
	<g class="st3">
		<path class="st4" d="M61.6,168.2v1h-0.5v-0.9c0-0.3-0.1-0.4-0.3-0.4c-0.2,0-0.4,0.1-0.4,0.4v0.8h-0.5v-1.7h0.5v0.2
			c0.1-0.1,0.3-0.2,0.6-0.2C61.3,167.5,61.6,167.7,61.6,168.2z"/>
	</g>
	<g>
	</g>
	<g class="st3">
		<path class="st4" d="M62,168.3c0-0.5,0.4-0.9,0.9-0.9c0.4,0,0.6,0.2,0.7,0.4l-0.4,0.2c-0.1-0.2-0.2-0.2-0.4-0.2
			c-0.2,0-0.4,0.2-0.4,0.5s0.2,0.5,0.4,0.5c0.2,0,0.3-0.1,0.4-0.2l0.4,0.2c-0.1,0.3-0.4,0.4-0.7,0.4C62.4,169.2,62,168.8,62,168.3z"
			/>
	</g>
	<g>
	</g>
	<g class="st3">
		<path class="st4" d="M63.8,168.3c0-0.5,0.4-0.9,0.9-0.9c0.5,0,0.9,0.4,0.9,0.9s-0.4,0.9-0.9,0.9C64.2,169.2,63.8,168.8,63.8,168.3
			z M65.1,168.3c0-0.3-0.2-0.5-0.4-0.5c-0.2,0-0.4,0.2-0.4,0.5s0.2,0.5,0.4,0.5C64.9,168.8,65.1,168.6,65.1,168.3z"/>
		<path class="st4" d="M67.6,168.2v1h-0.5v-0.9c0-0.3-0.1-0.4-0.3-0.4c-0.2,0-0.4,0.1-0.4,0.4v0.8h-0.5v-1.7h0.5v0.2
			c0.1-0.1,0.3-0.2,0.6-0.2C67.3,167.5,67.6,167.7,67.6,168.2z"/>
		<path class="st4" d="M69.2,169.1c-0.1,0.1-0.2,0.1-0.4,0.1c-0.4,0-0.6-0.2-0.6-0.6v-0.7h-0.3v-0.4h0.3v-0.4h0.5v0.4H69v0.4h-0.4
			v0.7c0,0.1,0.1,0.2,0.2,0.2c0.1,0,0.1,0,0.2-0.1L69.2,169.1z"/>
	</g>
	<g>
	</g>
	<g class="st3">
		<path class="st4" d="M70.5,167.5v0.4c0,0-0.1,0-0.1,0c-0.3,0-0.4,0.1-0.4,0.5v0.8h-0.5v-1.7h0.5v0.2
			C70,167.5,70.2,167.5,70.5,167.5z"/>
	</g>
	<g>
	</g>
	<g class="st3">
		<path class="st4" d="M72.4,168.5h-1.3c0,0.2,0.2,0.3,0.5,0.3c0.2,0,0.3-0.1,0.4-0.2l0.3,0.3c-0.2,0.2-0.4,0.3-0.7,0.3
			c-0.6,0-1-0.4-1-0.9c0-0.5,0.4-0.9,0.9-0.9c0.5,0,0.9,0.3,0.9,0.9C72.4,168.4,72.4,168.4,72.4,168.5z M71.1,168.2h0.8
			c0-0.2-0.2-0.3-0.4-0.3C71.3,167.8,71.1,168,71.1,168.2z"/>
		<path class="st4" d="M75.3,167.5v1.7h-0.5V169c-0.1,0.1-0.3,0.2-0.5,0.2c-0.4,0-0.7-0.2-0.7-0.7v-0.9h0.5v0.9
			c0,0.3,0.1,0.4,0.3,0.4c0.2,0,0.4-0.1,0.4-0.4v-0.8H75.3z"/>
		<path class="st4" d="M78.5,168.2v1H78v-0.9c0-0.3-0.1-0.4-0.3-0.4c-0.2,0-0.4,0.1-0.4,0.4v0.8h-0.5v-0.9c0-0.3-0.1-0.4-0.3-0.4
			c-0.2,0-0.4,0.1-0.4,0.4v0.8h-0.5v-1.7h0.5v0.2c0.1-0.1,0.3-0.2,0.5-0.2c0.2,0,0.4,0.1,0.5,0.3c0.1-0.2,0.4-0.3,0.6-0.3
			C78.2,167.5,78.5,167.7,78.5,168.2z"/>
		<path class="st4" d="M80.4,168.2v1H80v-0.2c-0.1,0.2-0.3,0.2-0.5,0.2c-0.4,0-0.6-0.2-0.6-0.5c0-0.3,0.2-0.5,0.7-0.5H80
			c0-0.2-0.1-0.3-0.4-0.3c-0.2,0-0.4,0.1-0.5,0.2l-0.2-0.3c0.2-0.1,0.5-0.2,0.7-0.2C80.1,167.5,80.4,167.7,80.4,168.2z M80,168.6
			v-0.2h-0.3c-0.2,0-0.3,0.1-0.3,0.2c0,0.1,0.1,0.2,0.3,0.2C79.8,168.8,79.9,168.8,80,168.6z"/>
	</g>
	<g class="st3">
		<path class="st4" d="M83.4,167.5l-0.7,1.7h-0.5l-0.7-1.7H82l0.5,1.1l0.5-1.1H83.4z"/>
	</g>
	<g>
	</g>
	<g class="st3">
		<path class="st4" d="M85,168.2v1h-0.5v-0.2c-0.1,0.2-0.3,0.2-0.5,0.2c-0.4,0-0.6-0.2-0.6-0.5c0-0.3,0.2-0.5,0.7-0.5h0.4
			c0-0.2-0.1-0.3-0.4-0.3c-0.2,0-0.4,0.1-0.5,0.2l-0.2-0.3c0.2-0.1,0.5-0.2,0.7-0.2C84.8,167.5,85,167.7,85,168.2z M84.6,168.6v-0.2
			h-0.3c-0.2,0-0.3,0.1-0.3,0.2c0,0.1,0.1,0.2,0.3,0.2C84.4,168.8,84.5,168.8,84.6,168.6z"/>
	</g>
	<g>
	</g>
	<g class="st3">
		<path class="st4" d="M87.2,167.5v1.4c0,0.6-0.3,0.9-0.9,0.9c-0.3,0-0.6-0.1-0.8-0.2l0.2-0.3c0.1,0.1,0.4,0.2,0.6,0.2
			c0.3,0,0.5-0.2,0.5-0.5v-0.1c-0.1,0.1-0.3,0.2-0.5,0.2c-0.5,0-0.8-0.3-0.8-0.8s0.4-0.8,0.8-0.8c0.2,0,0.4,0.1,0.6,0.2v-0.2H87.2z
			 M86.8,168.3c0-0.2-0.2-0.4-0.4-0.4s-0.4,0.2-0.4,0.4c0,0.2,0.2,0.4,0.4,0.4S86.8,168.5,86.8,168.3z"/>
		<path class="st4" d="M89.2,168.2v1h-0.5v-0.2c-0.1,0.2-0.3,0.2-0.5,0.2c-0.4,0-0.6-0.2-0.6-0.5c0-0.3,0.2-0.5,0.7-0.5h0.4
			c0-0.2-0.1-0.3-0.4-0.3c-0.2,0-0.4,0.1-0.5,0.2l-0.2-0.3c0.2-0.1,0.5-0.2,0.7-0.2C88.9,167.5,89.2,167.7,89.2,168.2z M88.7,168.6
			v-0.2h-0.3c-0.2,0-0.3,0.1-0.3,0.2c0,0.1,0.1,0.2,0.3,0.2C88.5,168.8,88.6,168.8,88.7,168.6z"/>
	</g>
	<g>
		<path class="st1" d="M16.7,22.6H88c2.5,0,4.4,2,4.4,4.4v5c0,2.5-2,4.4-4.4,4.4H16.7c-2.5,0-4.4-2-4.4-4.4v-5
			C12.2,24.5,14.2,22.6,16.7,22.6z"/>
	</g>
	<g class="st3">
		<path class="st4" d="M20.7,30.3v0.5h-2.2v-2.8h2.1v0.5h-1.5v0.6h1.3v0.5h-1.3v0.6H20.7z"/>
	</g>
	<g>
	</g>
	<g class="st3">
		<path class="st4" d="M23.3,29.6v1.2h-0.6v-1.1c0-0.3-0.2-0.5-0.4-0.5c-0.3,0-0.5,0.2-0.5,0.6v1.1h-0.6v-2.1h0.6v0.3
			c0.2-0.2,0.4-0.3,0.7-0.3C23,28.7,23.3,29,23.3,29.6z"/>
	</g>
	<g>
	</g>
	<g class="st3">
		<path class="st4" d="M26.1,28.7v1.8c0,0.8-0.4,1.2-1.2,1.2c-0.4,0-0.8-0.1-1.1-0.3l0.2-0.4c0.2,0.1,0.5,0.2,0.8,0.2
			c0.4,0,0.6-0.2,0.6-0.6v-0.1c-0.2,0.2-0.4,0.3-0.7,0.3c-0.6,0-1.1-0.4-1.1-1c0-0.6,0.5-1,1.1-1c0.3,0,0.5,0.1,0.7,0.3v-0.3H26.1z
			 M25.5,29.7c0-0.3-0.2-0.5-0.6-0.5s-0.6,0.2-0.6,0.5c0,0.3,0.2,0.5,0.6,0.5S25.5,30,25.5,29.7z"/>
		<path class="st4" d="M28.8,29.9h-1.6c0.1,0.3,0.3,0.4,0.6,0.4c0.2,0,0.4-0.1,0.5-0.2l0.3,0.4c-0.2,0.2-0.5,0.3-0.9,0.3
			c-0.7,0-1.2-0.5-1.2-1.1c0-0.6,0.5-1.1,1.1-1.1c0.6,0,1.1,0.4,1.1,1.1C28.8,29.8,28.8,29.9,28.8,29.9z M27.2,29.6h1.1
			c0-0.3-0.2-0.4-0.5-0.4C27.4,29.1,27.2,29.3,27.2,29.6z"/>
		<path class="st4" d="M31.4,29.6v1.2h-0.6v-1.1c0-0.3-0.2-0.5-0.4-0.5c-0.3,0-0.5,0.2-0.5,0.6v1.1h-0.6v-2.1h0.6v0.3
			c0.2-0.2,0.4-0.3,0.7-0.3C31,28.7,31.4,29,31.4,29.6z"/>
		<path class="st4" d="M34.2,29.6v1.2h-0.6v-1.1c0-0.3-0.2-0.5-0.4-0.5c-0.3,0-0.5,0.2-0.5,0.6v1.1H32v-3h0.6v1
			c0.2-0.2,0.4-0.3,0.7-0.3C33.8,28.7,34.2,29,34.2,29.6z"/>
		<path class="st4" d="M36.6,29.6v1.2H36v-0.3c-0.1,0.2-0.3,0.3-0.7,0.3c-0.5,0-0.8-0.3-0.8-0.6c0-0.4,0.3-0.6,0.9-0.6H36
			c0-0.3-0.2-0.4-0.5-0.4c-0.2,0-0.5,0.1-0.6,0.2l-0.2-0.4c0.2-0.2,0.6-0.3,0.9-0.3C36.3,28.7,36.6,29,36.6,29.6z M36,30.2v-0.2
			h-0.4c-0.3,0-0.4,0.1-0.4,0.3c0,0.2,0.1,0.3,0.4,0.3C35.8,30.5,35.9,30.4,36,30.2z"/>
	</g>
	<g>
	</g>
	<g class="st3">
		<path class="st4" d="M38.5,28.7v0.6c-0.1,0-0.1,0-0.1,0c-0.3,0-0.6,0.2-0.6,0.6v1h-0.6v-2.1h0.6V29C38,28.8,38.2,28.7,38.5,28.7z"
			/>
	</g>
	<g>
	</g>
	<g class="st3">
		<path class="st4" d="M38.8,28.1c0-0.2,0.2-0.3,0.4-0.3s0.4,0.1,0.4,0.3c0,0.2-0.2,0.4-0.4,0.4S38.8,28.2,38.8,28.1z M38.9,28.7
			h0.6v2.1h-0.6V28.7z"/>
		<path class="st4" d="M42,29.6v1.2h-0.6v-0.3c-0.1,0.2-0.3,0.3-0.7,0.3c-0.5,0-0.8-0.3-0.8-0.6c0-0.4,0.3-0.6,0.9-0.6h0.5
			c0-0.3-0.2-0.4-0.5-0.4c-0.2,0-0.5,0.1-0.6,0.2L40,28.9c0.2-0.2,0.6-0.3,0.9-0.3C41.6,28.7,42,29,42,29.6z M41.4,30.2v-0.2H41
			c-0.3,0-0.4,0.1-0.4,0.3c0,0.2,0.1,0.3,0.4,0.3C41.1,30.5,41.3,30.4,41.4,30.2z"/>
	</g>
	<g>
		<g class="st5">
			<g>
				<path class="st1" d="M15.3,41.2h74.5c1.5,0,2.8,1.2,2.8,2.8v8.5c0,1.5-1.2,2.8-2.8,2.8H15.3c-1.5,0-2.8-1.2-2.8-2.8V44
					C12.5,42.5,13.8,41.2,15.3,41.2z"/>
			</g>
		</g>
		<g class="st3">
			<path class="st6" d="M79.7,48.6c0,0.7-0.5,1.4-1.7,1.4c-0.6,0-1.2-0.2-1.6-0.5l0.4-0.7c0.3,0.2,0.8,0.4,1.2,0.4
				c0.5,0,0.8-0.2,0.8-0.5c0-0.3-0.2-0.5-1-0.5h-1.1l0.2-2.4h2.6v0.8h-1.8l-0.1,0.8H78C79.2,47.3,79.7,47.9,79.7,48.6z"/>
		</g>
		<g>
		</g>
		<g class="st3">
			<path class="st6" d="M83.3,48.6c0,0.7-0.5,1.4-1.7,1.4c-0.6,0-1.2-0.2-1.6-0.5l0.4-0.7c0.3,0.2,0.8,0.4,1.2,0.4
				c0.5,0,0.8-0.2,0.8-0.5c0-0.3-0.2-0.5-1-0.5h-1.1l0.2-2.4H83v0.8h-1.8l-0.1,0.8h0.3C82.8,47.3,83.3,47.9,83.3,48.6z"/>
		</g>
		<g class="st3">
			<path class="st4" d="M20.8,48.8v0.5h-1.9v-2.4h1.8v0.5h-1.3v0.5h1.1v0.4h-1.1v0.6H20.8z"/>
		</g>
		<g>
		</g>
		<g class="st3">
			<path class="st4" d="M23.2,48.2v1.1h-0.5v-1c0-0.3-0.1-0.4-0.4-0.4c-0.3,0-0.5,0.2-0.5,0.5v0.9h-0.5v-1.9h0.5v0.2
				c0.1-0.2,0.4-0.2,0.6-0.2C22.8,47.3,23.2,47.6,23.2,48.2z"/>
		</g>
		<g>
		</g>
		<g class="st3">
			<path class="st4" d="M25.6,47.4v1.6c0,0.7-0.4,1-1.1,1c-0.4,0-0.7-0.1-0.9-0.3l0.2-0.4c0.2,0.1,0.4,0.2,0.7,0.2
				c0.4,0,0.6-0.2,0.6-0.5v-0.1c-0.1,0.2-0.3,0.2-0.6,0.2c-0.5,0-0.9-0.4-0.9-0.9c0-0.5,0.4-0.9,0.9-0.9c0.3,0,0.5,0.1,0.6,0.3v-0.2
				H25.6z M25.1,48.2c0-0.3-0.2-0.5-0.5-0.5s-0.5,0.2-0.5,0.5c0,0.3,0.2,0.5,0.5,0.5S25.1,48.5,25.1,48.2z"/>
			<path class="st4" d="M28,48.4h-1.4c0.1,0.2,0.3,0.4,0.5,0.4c0.2,0,0.3-0.1,0.5-0.2l0.3,0.3c-0.2,0.2-0.4,0.3-0.8,0.3
				c-0.6,0-1.1-0.4-1.1-1c0-0.6,0.4-1,1-1c0.6,0,1,0.4,1,1C28,48.3,28,48.4,28,48.4z M26.5,48.1h0.9c0-0.2-0.2-0.4-0.5-0.4
				C26.8,47.7,26.6,47.9,26.5,48.1z"/>
			<path class="st4" d="M30.3,48.2v1.1h-0.5v-1c0-0.3-0.1-0.4-0.4-0.4c-0.3,0-0.5,0.2-0.5,0.5v0.9h-0.5v-1.9h0.5v0.2
				c0.1-0.2,0.4-0.2,0.6-0.2C29.9,47.3,30.3,47.6,30.3,48.2z"/>
			<path class="st4" d="M32.7,48.2v1.1h-0.5v-1c0-0.3-0.1-0.4-0.4-0.4c-0.3,0-0.5,0.2-0.5,0.5v0.9h-0.5v-2.6h0.5v0.9
				c0.1-0.1,0.4-0.2,0.6-0.2C32.3,47.3,32.7,47.6,32.7,48.2z"/>
			<path class="st4" d="M34.8,48.2v1.1h-0.5V49c-0.1,0.2-0.3,0.3-0.6,0.3c-0.4,0-0.7-0.2-0.7-0.6c0-0.3,0.2-0.6,0.8-0.6h0.4
				c0-0.2-0.1-0.4-0.4-0.4c-0.2,0-0.4,0.1-0.5,0.2l-0.2-0.4c0.2-0.1,0.5-0.2,0.8-0.2C34.5,47.3,34.8,47.6,34.8,48.2z M34.3,48.6
				v-0.2h-0.4c-0.3,0-0.3,0.1-0.3,0.2c0,0.1,0.1,0.2,0.3,0.2C34.1,48.9,34.2,48.8,34.3,48.6z"/>
		</g>
		<g>
		</g>
		<g class="st3">
			<path class="st4" d="M36.5,47.3v0.5c0,0-0.1,0-0.1,0c-0.3,0-0.5,0.2-0.5,0.5v0.9h-0.5v-1.9h0.5v0.2C36,47.4,36.2,47.3,36.5,47.3z
				"/>
		</g>
		<g>
		</g>
		<g class="st3">
			<path class="st4" d="M36.8,46.8c0-0.2,0.1-0.3,0.3-0.3s0.3,0.1,0.3,0.3c0,0.2-0.1,0.3-0.3,0.3S36.8,47,36.8,46.8z M36.8,47.4h0.5
				v1.9h-0.5V47.4z"/>
			<path class="st4" d="M39.5,48.2v1.1H39V49c-0.1,0.2-0.3,0.3-0.6,0.3c-0.4,0-0.7-0.2-0.7-0.6c0-0.3,0.2-0.6,0.8-0.6H39
				c0-0.2-0.1-0.4-0.4-0.4c-0.2,0-0.4,0.1-0.5,0.2l-0.2-0.4c0.2-0.1,0.5-0.2,0.8-0.2C39.2,47.3,39.5,47.6,39.5,48.2z M39,48.6v-0.2
				h-0.4c-0.3,0-0.3,0.1-0.3,0.2c0,0.1,0.1,0.2,0.3,0.2C38.8,48.9,38.9,48.8,39,48.6z"/>
			<path class="st4" d="M40.9,48c0-0.7,0.6-1.3,1.3-1.3c0.4,0,0.8,0.2,1,0.4l-0.4,0.3c-0.2-0.2-0.4-0.3-0.6-0.3
				c-0.5,0-0.8,0.3-0.8,0.8c0,0.5,0.3,0.8,0.8,0.8c0.2,0,0.5-0.1,0.6-0.3l0.4,0.3c-0.2,0.3-0.6,0.4-1,0.4
				C41.5,49.3,40.9,48.7,40.9,48z"/>
			<path class="st4" d="M43.5,46.8c0-0.2,0.1-0.3,0.3-0.3c0.2,0,0.3,0.1,0.3,0.3c0,0.2-0.1,0.3-0.3,0.3C43.7,47.1,43.5,47,43.5,46.8
				z M43.6,47.4h0.5v1.9h-0.5V47.4z"/>
			<path class="st4" d="M46.5,47.4l-0.8,1.9h-0.6l-0.8-1.9h0.6l0.5,1.3l0.5-1.3H46.5z"/>
			<path class="st4" d="M46.7,46.8c0-0.2,0.1-0.3,0.3-0.3c0.2,0,0.3,0.1,0.3,0.3c0,0.2-0.1,0.3-0.3,0.3C46.8,47.1,46.7,47,46.7,46.8
				z M46.7,47.4h0.5v1.9h-0.5V47.4z"/>
			<path class="st4" d="M47.8,46.6h0.5v2.6h-0.5V46.6z"/>
		</g>
		<g>
			<path class="st2" d="M87.4,45.9c-0.3,0.3-0.3,0.7,0,1l1.4,1.4l-1.4,1.4c-0.3,0.3-0.3,0.7,0,1s0.7,0.3,1,0l1.8-1.8
				c0.1-0.1,0.2-0.3,0.2-0.5s-0.1-0.3-0.2-0.5l-1.8-1.8C88.2,45.6,87.7,45.6,87.4,45.9z"/>
		</g>
	</g>
	<g>
		<g class="st5">
			<g>
				<path class="st1" d="M15.3,57h74.5c1.5,0,2.8,1.2,2.8,2.8v8.5c0,1.5-1.2,2.8-2.8,2.8H15.3c-1.5,0-2.8-1.2-2.8-2.8v-8.5
					C12.5,58.3,13.8,57,15.3,57z"/>
			</g>
		</g>
		<g class="st3">
			<path class="st6" d="M79.9,64.9h-0.7v0.9h-0.9v-0.9H76v-0.7l2-2.7h1l-1.8,2.5h1.1v-0.8h0.9v0.8h0.7V64.9z"/>
		</g>
		<g>
		</g>
		<g class="st3">
			<path class="st6" d="M83.2,64.5c0,0.7-0.5,1.4-1.7,1.4c-0.6,0-1.2-0.2-1.6-0.5l0.4-0.7c0.3,0.2,0.8,0.4,1.2,0.4
				c0.5,0,0.8-0.2,0.8-0.5c0-0.3-0.2-0.5-0.8-0.5H81v-0.6l0.9-1h-1.8v-0.8H83v0.6l-0.9,1.1C82.8,63.4,83.2,63.9,83.2,64.5z"/>
		</g>
		<g class="st3">
			<path class="st4" d="M20.8,64.6V65h-1.9v-2.4h1.8V63h-1.3v0.5h1.1V64h-1.1v0.6H20.8z"/>
		</g>
		<g>
		</g>
		<g class="st3">
			<path class="st4" d="M23.2,64V65h-0.5v-1c0-0.3-0.1-0.4-0.4-0.4c-0.3,0-0.5,0.2-0.5,0.5V65h-0.5v-1.9h0.5v0.2
				c0.1-0.2,0.4-0.2,0.6-0.2C22.8,63.1,23.2,63.4,23.2,64z"/>
		</g>
		<g>
		</g>
		<g class="st3">
			<path class="st4" d="M25.6,63.2v1.6c0,0.7-0.4,1-1.1,1c-0.4,0-0.7-0.1-0.9-0.3l0.2-0.4c0.2,0.1,0.4,0.2,0.7,0.2
				c0.4,0,0.6-0.2,0.6-0.5v-0.1c-0.1,0.2-0.3,0.2-0.6,0.2c-0.5,0-0.9-0.4-0.9-0.9c0-0.5,0.4-0.9,0.9-0.9c0.3,0,0.5,0.1,0.6,0.3v-0.2
				H25.6z M25.1,64c0-0.3-0.2-0.5-0.5-0.5s-0.5,0.2-0.5,0.5c0,0.3,0.2,0.5,0.5,0.5S25.1,64.3,25.1,64z"/>
			<path class="st4" d="M28,64.3h-1.4c0.1,0.2,0.3,0.4,0.5,0.4c0.2,0,0.3-0.1,0.5-0.2l0.3,0.3c-0.2,0.2-0.4,0.3-0.8,0.3
				c-0.6,0-1.1-0.4-1.1-1c0-0.6,0.4-1,1-1c0.6,0,1,0.4,1,1C28,64.1,28,64.2,28,64.3z M26.5,63.9h0.9c0-0.2-0.2-0.4-0.5-0.4
				C26.8,63.5,26.6,63.7,26.5,63.9z"/>
			<path class="st4" d="M30.3,64V65h-0.5v-1c0-0.3-0.1-0.4-0.4-0.4c-0.3,0-0.5,0.2-0.5,0.5V65h-0.5v-1.9h0.5v0.2
				c0.1-0.2,0.4-0.2,0.6-0.2C29.9,63.1,30.3,63.4,30.3,64z"/>
			<path class="st4" d="M32.7,64V65h-0.5v-1c0-0.3-0.1-0.4-0.4-0.4c-0.3,0-0.5,0.2-0.5,0.5V65h-0.5v-2.6h0.5v0.9
				c0.1-0.1,0.4-0.2,0.6-0.2C32.3,63.1,32.7,63.4,32.7,64z"/>
			<path class="st4" d="M34.8,64V65h-0.5v-0.2c-0.1,0.2-0.3,0.3-0.6,0.3c-0.4,0-0.7-0.2-0.7-0.6c0-0.3,0.2-0.6,0.8-0.6h0.4
				c0-0.2-0.1-0.4-0.4-0.4c-0.2,0-0.4,0.1-0.5,0.2l-0.2-0.4c0.2-0.1,0.5-0.2,0.8-0.2C34.5,63.1,34.8,63.4,34.8,64z M34.3,64.4v-0.2
				h-0.4c-0.3,0-0.3,0.1-0.3,0.2c0,0.1,0.1,0.2,0.3,0.2C34.1,64.7,34.2,64.6,34.3,64.4z"/>
		</g>
		<g>
		</g>
		<g class="st3">
			<path class="st4" d="M36.5,63.1v0.5c0,0-0.1,0-0.1,0c-0.3,0-0.5,0.2-0.5,0.5V65h-0.5v-1.9h0.5v0.2C36,63.2,36.2,63.1,36.5,63.1z"
				/>
		</g>
		<g>
		</g>
		<g class="st3">
			<path class="st4" d="M36.8,62.6c0-0.2,0.1-0.3,0.3-0.3s0.3,0.1,0.3,0.3c0,0.2-0.1,0.3-0.3,0.3S36.8,62.8,36.8,62.6z M36.8,63.2
				h0.5V65h-0.5V63.2z"/>
			<path class="st4" d="M39.5,64V65H39v-0.2c-0.1,0.2-0.3,0.3-0.6,0.3c-0.4,0-0.7-0.2-0.7-0.6c0-0.3,0.2-0.6,0.8-0.6H39
				c0-0.2-0.1-0.4-0.4-0.4c-0.2,0-0.4,0.1-0.5,0.2l-0.2-0.4c0.2-0.1,0.5-0.2,0.8-0.2C39.2,63.1,39.5,63.4,39.5,64z M39,64.4v-0.2
				h-0.4c-0.3,0-0.3,0.1-0.3,0.2c0,0.1,0.1,0.2,0.3,0.2C38.8,64.7,38.9,64.6,39,64.4z"/>
			<path class="st4" d="M43,62.4V65h-0.5v-0.2c-0.1,0.2-0.3,0.2-0.6,0.2c-0.5,0-0.9-0.4-0.9-1c0-0.6,0.4-1,0.9-1
				c0.2,0,0.4,0.1,0.6,0.2v-0.9H43z M42.4,64.1c0-0.3-0.2-0.5-0.5-0.5c-0.3,0-0.5,0.2-0.5,0.5c0,0.3,0.2,0.5,0.5,0.5
				C42.2,64.6,42.4,64.4,42.4,64.1z"/>
			<path class="st4" d="M45.1,64V65h-0.5v-0.2c-0.1,0.2-0.3,0.3-0.6,0.3c-0.4,0-0.7-0.2-0.7-0.6c0-0.3,0.2-0.6,0.8-0.6h0.4
				c0-0.2-0.1-0.4-0.4-0.4c-0.2,0-0.4,0.1-0.5,0.2l-0.2-0.4c0.2-0.1,0.5-0.2,0.8-0.2C44.8,63.1,45.1,63.4,45.1,64z M44.6,64.4v-0.2
				h-0.4c-0.3,0-0.3,0.1-0.3,0.2c0,0.1,0.1,0.2,0.3,0.2C44.4,64.7,44.5,64.6,44.6,64.4z"/>
		</g>
		<g class="st3">
			<path class="st4" d="M46.5,63.8c0-0.7,0.6-1.3,1.3-1.3c0.4,0,0.8,0.2,1,0.4l-0.4,0.3c-0.2-0.2-0.4-0.3-0.6-0.3
				c-0.5,0-0.8,0.3-0.8,0.8c0,0.5,0.3,0.8,0.8,0.8c0.2,0,0.5-0.1,0.6-0.3l0.4,0.3c-0.2,0.3-0.6,0.4-1,0.4
				C47.1,65.1,46.5,64.6,46.5,63.8z"/>
		</g>
		<g>
		</g>
		<g class="st3">
			<path class="st4" d="M49,64.1c0-0.6,0.4-1,1-1c0.6,0,1,0.4,1,1c0,0.6-0.4,1-1,1C49.4,65.1,49,64.7,49,64.1z M50.5,64.1
				c0-0.3-0.2-0.5-0.5-0.5s-0.5,0.2-0.5,0.5c0,0.3,0.2,0.5,0.5,0.5S50.5,64.4,50.5,64.1z"/>
			<path class="st4" d="M54.6,64V65H54v-1c0-0.3-0.1-0.4-0.4-0.4c-0.2,0-0.4,0.2-0.4,0.5V65h-0.5v-1c0-0.3-0.1-0.4-0.4-0.4
				c-0.2,0-0.4,0.2-0.4,0.5V65h-0.5v-1.9h0.5v0.2c0.1-0.2,0.3-0.2,0.6-0.2c0.3,0,0.5,0.1,0.6,0.3c0.1-0.2,0.4-0.3,0.7-0.3
				C54.2,63.1,54.6,63.4,54.6,64z"/>
			<path class="st4" d="M57.1,64.1c0,0.6-0.4,1-0.9,1c-0.2,0-0.4-0.1-0.6-0.2v0.9h-0.5v-2.6h0.5v0.2c0.1-0.2,0.3-0.2,0.6-0.2
				C56.7,63.1,57.1,63.5,57.1,64.1z M56.6,64.1c0-0.3-0.2-0.5-0.5-0.5s-0.5,0.2-0.5,0.5c0,0.3,0.2,0.5,0.5,0.5S56.6,64.4,56.6,64.1z
				"/>
			<path class="st4" d="M59.4,63.2V65h-0.5v-0.2c-0.1,0.2-0.4,0.3-0.6,0.3c-0.5,0-0.8-0.3-0.8-0.8v-1.1H58v1c0,0.3,0.1,0.5,0.4,0.5
				c0.3,0,0.4-0.2,0.4-0.5v-0.9H59.4z"/>
			<path class="st4" d="M61.1,64.9c-0.1,0.1-0.3,0.1-0.4,0.1c-0.4,0-0.7-0.2-0.7-0.7v-0.8h-0.3v-0.4H60v-0.5h0.5v0.5H61v0.4h-0.5
				v0.8c0,0.2,0.1,0.2,0.2,0.2c0.1,0,0.2,0,0.2-0.1L61.1,64.9z"/>
		</g>
		<g>
		</g>
		<g class="st3">
			<path class="st4" d="M63.1,64V65h-0.5v-0.2c-0.1,0.2-0.3,0.3-0.6,0.3c-0.4,0-0.7-0.2-0.7-0.6c0-0.3,0.2-0.6,0.8-0.6h0.4
				c0-0.2-0.1-0.4-0.4-0.4c-0.2,0-0.4,0.1-0.5,0.2l-0.2-0.4c0.2-0.1,0.5-0.2,0.8-0.2C62.7,63.1,63.1,63.4,63.1,64z M62.5,64.4v-0.2
				h-0.4c-0.3,0-0.3,0.1-0.3,0.2c0,0.1,0.1,0.2,0.3,0.2C62.3,64.7,62.5,64.6,62.5,64.4z"/>
		</g>
		<g>
		</g>
		<g class="st3">
			<path class="st4" d="M64.9,64.4l0.4,0.2c-0.1,0.3-0.4,0.5-0.8,0.5l0,0.1c0.2,0,0.3,0.1,0.3,0.3c0,0.2-0.2,0.3-0.5,0.3
				c-0.1,0-0.2,0-0.3-0.1l0.1-0.2c0.1,0,0.1,0.1,0.2,0.1c0.1,0,0.2,0,0.2-0.1c0-0.1,0-0.1-0.2-0.1h-0.1l0.1-0.3
				c-0.5-0.1-0.8-0.5-0.8-0.9c0-0.6,0.4-1,1-1c0.4,0,0.7,0.2,0.8,0.5l-0.4,0.2c-0.1-0.2-0.3-0.3-0.4-0.3c-0.3,0-0.5,0.2-0.5,0.5
				c0,0.3,0.2,0.5,0.5,0.5C64.7,64.6,64.8,64.5,64.9,64.4z"/>
		</g>
		<g>
		</g>
		<g class="st3">
			<path class="st4" d="M67.3,64V65h-0.5v-0.2c-0.1,0.2-0.3,0.3-0.6,0.3c-0.4,0-0.7-0.2-0.7-0.6c0-0.3,0.2-0.6,0.8-0.6h0.4
				c0-0.2-0.1-0.4-0.4-0.4c-0.2,0-0.4,0.1-0.5,0.2l-0.2-0.4c0.2-0.1,0.5-0.2,0.8-0.2C67,63.1,67.3,63.4,67.3,64z M66.1,62.9h-0.3
				c0-0.3,0.2-0.5,0.4-0.5c0.2,0,0.4,0.2,0.5,0.2c0.1,0,0.2-0.1,0.2-0.2h0.3c0,0.3-0.2,0.5-0.4,0.5c-0.2,0-0.4-0.2-0.5-0.2
				C66.2,62.7,66.1,62.8,66.1,62.9z M66.8,64.4v-0.2h-0.4c-0.3,0-0.3,0.1-0.3,0.2c0,0.1,0.1,0.2,0.3,0.2
				C66.6,64.7,66.7,64.6,66.8,64.4z"/>
		</g>
		<g>
		</g>
		<g class="st3">
			<path class="st4" d="M67.7,64.1c0-0.6,0.4-1,1-1s1,0.4,1,1c0,0.6-0.4,1-1,1S67.7,64.7,67.7,64.1z M69.2,64.1
				c0-0.3-0.2-0.5-0.5-0.5s-0.5,0.2-0.5,0.5c0,0.3,0.2,0.5,0.5,0.5S69.2,64.4,69.2,64.1z"/>
		</g>
		<g>
			<path class="st2" d="M87.4,61.7c-0.3,0.3-0.3,0.7,0,1l1.4,1.4l-1.4,1.4c-0.3,0.3-0.3,0.7,0,1c0.3,0.3,0.7,0.3,1,0l1.8-1.8
				c0.1-0.1,0.2-0.3,0.2-0.5s-0.1-0.3-0.2-0.5l-1.8-1.8C88.2,61.4,87.7,61.4,87.4,61.7z"/>
		</g>
	</g>
	<g>
		<g class="st5">
			<g>
				<path class="st1" d="M15.3,72.8h74.5c1.5,0,2.8,1.2,2.8,2.8v8.5c0,1.5-1.2,2.8-2.8,2.8H15.3c-1.5,0-2.8-1.2-2.8-2.8v-8.5
					C12.5,74.1,13.8,72.8,15.3,72.8z"/>
			</g>
		</g>
		<g class="st3">
			<path class="st6" d="M79.4,77.4v4.2h-1v-3.4h-0.8v-0.8H79.4z"/>
			<path class="st6" d="M83.3,80.8v0.8h-3.2V81l1.6-1.5c0.4-0.4,0.4-0.6,0.4-0.8c0-0.3-0.2-0.5-0.7-0.5c-0.4,0-0.7,0.1-0.9,0.4
				l-0.7-0.5c0.3-0.5,0.9-0.8,1.7-0.8c0.9,0,1.6,0.5,1.6,1.2c0,0.4-0.1,0.8-0.7,1.3l-1,0.9H83.3z"/>
		</g>
		<g class="st3">
			<path class="st4" d="M20.8,80.4v0.5h-1.9v-2.4h1.8v0.5h-1.3v0.5h1.1v0.4h-1.1v0.6H20.8z"/>
		</g>
		<g>
		</g>
		<g class="st3">
			<path class="st4" d="M23.2,79.8v1.1h-0.5v-1c0-0.3-0.1-0.4-0.4-0.4c-0.3,0-0.5,0.2-0.5,0.5v0.9h-0.5V79h0.5v0.2
				c0.1-0.2,0.4-0.2,0.6-0.2C22.8,78.9,23.2,79.2,23.2,79.8z"/>
		</g>
		<g>
		</g>
		<g class="st3">
			<path class="st4" d="M25.6,79v1.6c0,0.7-0.4,1-1.1,1c-0.4,0-0.7-0.1-0.9-0.3l0.2-0.4c0.2,0.1,0.4,0.2,0.7,0.2
				c0.4,0,0.6-0.2,0.6-0.5v-0.1c-0.1,0.2-0.3,0.2-0.6,0.2c-0.5,0-0.9-0.4-0.9-0.9c0-0.5,0.4-0.9,0.9-0.9c0.3,0,0.5,0.1,0.6,0.3V79
				H25.6z M25.1,79.9c0-0.3-0.2-0.5-0.5-0.5s-0.5,0.2-0.5,0.5c0,0.3,0.2,0.5,0.5,0.5S25.1,80.1,25.1,79.9z"/>
			<path class="st4" d="M28,80.1h-1.4c0.1,0.2,0.3,0.4,0.5,0.4c0.2,0,0.3-0.1,0.5-0.2l0.3,0.3c-0.2,0.2-0.4,0.3-0.8,0.3
				c-0.6,0-1.1-0.4-1.1-1c0-0.6,0.4-1,1-1c0.6,0,1,0.4,1,1C28,80,28,80,28,80.1z M26.5,79.7h0.9c0-0.2-0.2-0.4-0.5-0.4
				C26.8,79.4,26.6,79.5,26.5,79.7z"/>
			<path class="st4" d="M30.3,79.8v1.1h-0.5v-1c0-0.3-0.1-0.4-0.4-0.4c-0.3,0-0.5,0.2-0.5,0.5v0.9h-0.5V79h0.5v0.2
				c0.1-0.2,0.4-0.2,0.6-0.2C29.9,78.9,30.3,79.2,30.3,79.8z"/>
			<path class="st4" d="M32.7,79.8v1.1h-0.5v-1c0-0.3-0.1-0.4-0.4-0.4c-0.3,0-0.5,0.2-0.5,0.5v0.9h-0.5v-2.6h0.5v0.9
				c0.1-0.1,0.4-0.2,0.6-0.2C32.3,78.9,32.7,79.2,32.7,79.8z"/>
			<path class="st4" d="M34.8,79.8v1.1h-0.5v-0.2c-0.1,0.2-0.3,0.3-0.6,0.3c-0.4,0-0.7-0.2-0.7-0.6c0-0.3,0.2-0.6,0.8-0.6h0.4
				c0-0.2-0.1-0.4-0.4-0.4c-0.2,0-0.4,0.1-0.5,0.2l-0.2-0.4c0.2-0.1,0.5-0.2,0.8-0.2C34.5,78.9,34.8,79.2,34.8,79.8z M34.3,80.3
				v-0.2h-0.4c-0.3,0-0.3,0.1-0.3,0.2c0,0.1,0.1,0.2,0.3,0.2C34.1,80.5,34.2,80.4,34.3,80.3z"/>
		</g>
		<g>
		</g>
		<g class="st3">
			<path class="st4" d="M36.5,78.9v0.5c0,0-0.1,0-0.1,0c-0.3,0-0.5,0.2-0.5,0.5v0.9h-0.5V79h0.5v0.2C36,79,36.2,78.9,36.5,78.9z"/>
		</g>
		<g>
		</g>
		<g class="st3">
			<path class="st4" d="M36.8,78.4c0-0.2,0.1-0.3,0.3-0.3s0.3,0.1,0.3,0.3c0,0.2-0.1,0.3-0.3,0.3S36.8,78.6,36.8,78.4z M36.8,79h0.5
				v1.9h-0.5V79z"/>
			<path class="st4" d="M39.5,79.8v1.1H39v-0.2c-0.1,0.2-0.3,0.3-0.6,0.3c-0.4,0-0.7-0.2-0.7-0.6c0-0.3,0.2-0.6,0.8-0.6H39
				c0-0.2-0.1-0.4-0.4-0.4c-0.2,0-0.4,0.1-0.5,0.2l-0.2-0.4c0.2-0.1,0.5-0.2,0.8-0.2C39.2,78.9,39.5,79.2,39.5,79.8z M39,80.3v-0.2
				h-0.4c-0.3,0-0.3,0.1-0.3,0.2c0,0.1,0.1,0.2,0.3,0.2C38.8,80.5,38.9,80.4,39,80.3z"/>
			<path class="st4" d="M43,80.4v0.5h-1.9v-2.4h1.8v0.5h-1.3v0.5h1.1v0.4h-1.1v0.6H43z"/>
			<path class="st4" d="M43.4,78.3h0.5v2.6h-0.5V78.3z"/>
			<path class="st4" d="M46.3,80.1h-1.4c0.1,0.2,0.3,0.4,0.5,0.4c0.2,0,0.3-0.1,0.5-0.2l0.3,0.3c-0.2,0.2-0.4,0.3-0.8,0.3
				c-0.6,0-1.1-0.4-1.1-1c0-0.6,0.4-1,1-1c0.6,0,1,0.4,1,1C46.3,80,46.3,80,46.3,80.1z M44.8,79.7h0.9c0-0.2-0.2-0.4-0.5-0.4
				C45.1,79.4,44.9,79.5,44.8,79.7z M45.4,78.7H45l0.5-0.5H46L45.4,78.7z"/>
			<path class="st4" d="M47.9,80.8c-0.1,0.1-0.3,0.1-0.4,0.1c-0.4,0-0.7-0.2-0.7-0.7v-0.8h-0.3V79h0.3v-0.5h0.5V79h0.5v0.4h-0.5v0.8
				c0,0.2,0.1,0.2,0.2,0.2c0.1,0,0.2,0,0.2-0.1L47.9,80.8z"/>
		</g>
		<g>
		</g>
		<g class="st3">
			<path class="st4" d="M49.3,78.9v0.5c0,0-0.1,0-0.1,0c-0.3,0-0.5,0.2-0.5,0.5v0.9h-0.5V79h0.5v0.2C48.8,79,49,78.9,49.3,78.9z"/>
		</g>
		<g>
		</g>
		<g class="st3">
			<path class="st4" d="M49.6,78.4c0-0.2,0.1-0.3,0.3-0.3s0.3,0.1,0.3,0.3c0,0.2-0.1,0.3-0.3,0.3S49.6,78.6,49.6,78.4z M49.7,79h0.5
				v1.9h-0.5V79z"/>
			<path class="st4" d="M50.6,79.9c0-0.6,0.4-1,1-1c0.4,0,0.7,0.2,0.8,0.5L52,79.6c-0.1-0.2-0.3-0.3-0.4-0.3c-0.3,0-0.5,0.2-0.5,0.5
				c0,0.3,0.2,0.5,0.5,0.5c0.2,0,0.3-0.1,0.4-0.3l0.4,0.2c-0.1,0.3-0.4,0.5-0.8,0.5C51,80.9,50.6,80.5,50.6,79.9z"/>
			<path class="st4" d="M54.4,79.8v1.1h-0.5v-0.2c-0.1,0.2-0.3,0.3-0.6,0.3c-0.4,0-0.7-0.2-0.7-0.6c0-0.3,0.2-0.6,0.8-0.6h0.4
				c0-0.2-0.1-0.4-0.4-0.4c-0.2,0-0.4,0.1-0.5,0.2l-0.2-0.4c0.2-0.1,0.5-0.2,0.8-0.2C54.1,78.9,54.4,79.2,54.4,79.8z M53.9,80.3
				v-0.2h-0.4c-0.3,0-0.3,0.1-0.3,0.2c0,0.1,0.1,0.2,0.3,0.2C53.7,80.5,53.8,80.4,53.9,80.3z"/>
		</g>
		<g>
			<path class="st2" d="M87.4,77.5c-0.3,0.3-0.3,0.7,0,1l1.4,1.4l-1.4,1.4c-0.3,0.3-0.3,0.7,0,1c0.3,0.3,0.7,0.3,1,0l1.8-1.8
				c0.1-0.1,0.2-0.3,0.2-0.5s-0.1-0.3-0.2-0.5l-1.8-1.8C88.2,77.3,87.7,77.3,87.4,77.5L87.4,77.5z"/>
		</g>
	</g>
	<g>
		<g class="st5">
			<g>
				<path class="st1" d="M15.3,88.7h74.5c1.5,0,2.8,1.2,2.8,2.8v8.5c0,1.5-1.2,2.8-2.8,2.8H15.3c-1.5,0-2.8-1.2-2.8-2.8v-8.5
					C12.5,89.9,13.8,88.7,15.3,88.7z"/>
			</g>
		</g>
		<g class="st3">
			<path class="st6" d="M79.5,93.2v0.6L78,97.4h-1.1l1.5-3.4H77v0.7h-0.9v-1.5H79.5z"/>
		</g>
		<g>
		</g>
		<g class="st3">
			<path class="st6" d="M83.3,96.1c0,0.9-0.7,1.4-1.6,1.4c-1.2,0-1.9-0.7-1.9-2.1c0-1.5,0.9-2.3,2.1-2.3c0.4,0,0.9,0.1,1.2,0.3
				l-0.4,0.7c-0.2-0.2-0.5-0.2-0.8-0.2c-0.7,0-1.2,0.4-1.2,1.2c0.2-0.2,0.6-0.4,1-0.4C82.7,94.8,83.3,95.3,83.3,96.1z M82.4,96.1
				c0-0.4-0.3-0.6-0.7-0.6c-0.4,0-0.7,0.3-0.7,0.6c0,0.4,0.3,0.6,0.7,0.6C82.1,96.7,82.4,96.5,82.4,96.1z"/>
		</g>
		<g class="st3">
			<path class="st4" d="M20.8,96.2v0.5h-1.9v-2.4h1.8v0.5h-1.3v0.5h1.1v0.4h-1.1v0.6H20.8z"/>
		</g>
		<g>
		</g>
		<g class="st3">
			<path class="st4" d="M23.2,95.6v1.1h-0.5v-1c0-0.3-0.1-0.4-0.4-0.4c-0.3,0-0.5,0.2-0.5,0.5v0.9h-0.5v-1.9h0.5V95
				c0.1-0.2,0.4-0.2,0.6-0.2C22.8,94.8,23.2,95,23.2,95.6z"/>
		</g>
		<g>
		</g>
		<g class="st3">
			<path class="st4" d="M25.6,94.8v1.6c0,0.7-0.4,1-1.1,1c-0.4,0-0.7-0.1-0.9-0.3l0.2-0.4c0.2,0.1,0.4,0.2,0.7,0.2
				c0.4,0,0.6-0.2,0.6-0.5v-0.1c-0.1,0.2-0.3,0.2-0.6,0.2c-0.5,0-0.9-0.4-0.9-0.9c0-0.5,0.4-0.9,0.9-0.9c0.3,0,0.5,0.1,0.6,0.3v-0.2
				H25.6z M25.1,95.7c0-0.3-0.2-0.5-0.5-0.5s-0.5,0.2-0.5,0.5c0,0.3,0.2,0.5,0.5,0.5S25.1,95.9,25.1,95.7z"/>
			<path class="st4" d="M28,95.9h-1.4c0.1,0.2,0.3,0.4,0.5,0.4c0.2,0,0.3-0.1,0.5-0.2l0.3,0.3c-0.2,0.2-0.4,0.3-0.8,0.3
				c-0.6,0-1.1-0.4-1.1-1c0-0.6,0.4-1,1-1c0.6,0,1,0.4,1,1C28,95.8,28,95.8,28,95.9z M26.5,95.6h0.9c0-0.2-0.2-0.4-0.5-0.4
				C26.8,95.2,26.6,95.3,26.5,95.6z"/>
			<path class="st4" d="M30.3,95.6v1.1h-0.5v-1c0-0.3-0.1-0.4-0.4-0.4c-0.3,0-0.5,0.2-0.5,0.5v0.9h-0.5v-1.9h0.5V95
				c0.1-0.2,0.4-0.2,0.6-0.2C29.9,94.8,30.3,95,30.3,95.6z"/>
			<path class="st4" d="M32.7,95.6v1.1h-0.5v-1c0-0.3-0.1-0.4-0.4-0.4c-0.3,0-0.5,0.2-0.5,0.5v0.9h-0.5v-2.6h0.5V95
				c0.1-0.1,0.4-0.2,0.6-0.2C32.3,94.8,32.7,95,32.7,95.6z"/>
			<path class="st4" d="M34.8,95.6v1.1h-0.5v-0.2c-0.1,0.2-0.3,0.3-0.6,0.3c-0.4,0-0.7-0.2-0.7-0.6c0-0.3,0.2-0.6,0.8-0.6h0.4
				c0-0.2-0.1-0.4-0.4-0.4c-0.2,0-0.4,0.1-0.5,0.2L33.1,95c0.2-0.1,0.5-0.2,0.8-0.2C34.5,94.8,34.8,95,34.8,95.6z M34.3,96.1v-0.2
				h-0.4c-0.3,0-0.3,0.1-0.3,0.2c0,0.1,0.1,0.2,0.3,0.2C34.1,96.3,34.2,96.2,34.3,96.1z"/>
		</g>
		<g>
		</g>
		<g class="st3">
			<path class="st4" d="M36.5,94.8v0.5c0,0-0.1,0-0.1,0c-0.3,0-0.5,0.2-0.5,0.5v0.9h-0.5v-1.9h0.5V95C36,94.9,36.2,94.8,36.5,94.8z"
				/>
		</g>
		<g>
		</g>
		<g class="st3">
			<path class="st4" d="M36.8,94.2c0-0.2,0.1-0.3,0.3-0.3s0.3,0.1,0.3,0.3c0,0.2-0.1,0.3-0.3,0.3S36.8,94.4,36.8,94.2z M36.8,94.8
				h0.5v1.9h-0.5V94.8z"/>
			<path class="st4" d="M39.5,95.6v1.1H39v-0.2c-0.1,0.2-0.3,0.3-0.6,0.3c-0.4,0-0.7-0.2-0.7-0.6c0-0.3,0.2-0.6,0.8-0.6H39
				c0-0.2-0.1-0.4-0.4-0.4c-0.2,0-0.4,0.1-0.5,0.2L37.8,95c0.2-0.1,0.5-0.2,0.8-0.2C39.2,94.8,39.5,95,39.5,95.6z M39,96.1v-0.2
				h-0.4c-0.3,0-0.3,0.1-0.3,0.2c0,0.1,0.1,0.2,0.3,0.2C38.8,96.3,38.9,96.2,39,96.1z"/>
			<path class="st4" d="M42.7,96.1h-1.1l-0.2,0.5h-0.6l1.1-2.4h0.6l1.1,2.4h-0.6L42.7,96.1z M42.5,95.7l-0.4-0.9l-0.4,0.9H42.5z"/>
			<path class="st4" d="M46.9,95.6v1.1h-0.5v-1c0-0.3-0.1-0.4-0.4-0.4c-0.2,0-0.4,0.2-0.4,0.5v0.9H45v-1c0-0.3-0.1-0.4-0.4-0.4
				c-0.2,0-0.4,0.2-0.4,0.5v0.9h-0.5v-1.9h0.5V95c0.1-0.2,0.3-0.2,0.6-0.2c0.3,0,0.5,0.1,0.6,0.3c0.1-0.2,0.4-0.3,0.7-0.3
				C46.6,94.8,46.9,95,46.9,95.6z"/>
			<path class="st4" d="M49.4,95.7c0,0.6-0.4,1-0.9,1c-0.3,0-0.5-0.1-0.6-0.2v0.2h-0.5v-2.6h0.5V95c0.1-0.2,0.3-0.2,0.6-0.2
				C49,94.8,49.4,95.1,49.4,95.7z M48.9,95.7c0-0.3-0.2-0.5-0.5-0.5s-0.5,0.2-0.5,0.5c0,0.3,0.2,0.5,0.5,0.5S48.9,96.1,48.9,95.7z"
				/>
			<path class="st4" d="M49.7,94.2c0-0.2,0.1-0.3,0.3-0.3s0.3,0.1,0.3,0.3c0,0.2-0.1,0.3-0.3,0.3S49.7,94.4,49.7,94.2z M49.8,94.8
				h0.5v1.9h-0.5V94.8z"/>
			<path class="st4" d="M52.7,95.9h-1.4c0.1,0.2,0.3,0.4,0.5,0.4c0.2,0,0.3-0.1,0.5-0.2l0.3,0.3c-0.2,0.2-0.4,0.3-0.8,0.3
				c-0.6,0-1.1-0.4-1.1-1c0-0.6,0.4-1,1-1c0.6,0,1,0.4,1,1C52.7,95.8,52.7,95.8,52.7,95.9z M51.3,95.6h0.9c0-0.2-0.2-0.4-0.5-0.4
				C51.5,95.2,51.3,95.3,51.3,95.6z"/>
			<path class="st4" d="M55,95.6v1.1h-0.5v-1c0-0.3-0.1-0.4-0.4-0.4c-0.3,0-0.5,0.2-0.5,0.5v0.9h-0.5v-1.9h0.5V95
				c0.1-0.2,0.4-0.2,0.6-0.2C54.7,94.8,55,95,55,95.6z"/>
			<path class="st4" d="M56.7,96.6c-0.1,0.1-0.3,0.1-0.4,0.1c-0.4,0-0.7-0.2-0.7-0.7v-0.8h-0.3v-0.4h0.3v-0.5h0.5v0.5h0.5v0.4h-0.5
				V96c0,0.2,0.1,0.2,0.2,0.2c0.1,0,0.2,0,0.2-0.1L56.7,96.6z"/>
			<path class="st4" d="M58.7,95.6v1.1h-0.5v-0.2c-0.1,0.2-0.3,0.3-0.6,0.3c-0.4,0-0.7-0.2-0.7-0.6c0-0.3,0.2-0.6,0.8-0.6h0.4
				c0-0.2-0.1-0.4-0.4-0.4c-0.2,0-0.4,0.1-0.5,0.2L57,95c0.2-0.1,0.5-0.2,0.8-0.2C58.3,94.8,58.7,95,58.7,95.6z M58.1,96.1v-0.2
				h-0.4c-0.3,0-0.3,0.1-0.3,0.2c0,0.1,0.1,0.2,0.3,0.2C57.9,96.3,58.1,96.2,58.1,96.1z"/>
			<path class="st4" d="M59.2,94.1h0.5v2.6h-0.5V94.1z"/>
		</g>
		<g>
			<path class="st2" d="M87.4,93.3c-0.3,0.3-0.3,0.7,0,1l1.4,1.4L87.4,97c-0.3,0.3-0.3,0.7,0,1c0.3,0.3,0.7,0.3,1,0l1.8-1.8
				c0.1-0.1,0.2-0.3,0.2-0.5s-0.1-0.3-0.2-0.5l-1.8-1.8C88.2,93.1,87.7,93.1,87.4,93.3L87.4,93.3z"/>
		</g>
	</g>
	<g>
		<g class="st5">
			<g>
				<path class="st1" d="M15.3,104.5h74.5c1.5,0,2.8,1.2,2.8,2.8v8.5c0,1.5-1.2,2.8-2.8,2.8H15.3c-1.5,0-2.8-1.2-2.8-2.8v-8.5
					C12.5,105.7,13.8,104.5,15.3,104.5z"/>
			</g>
		</g>
		<g class="st3">
			<path class="st6" d="M75.3,109v4.2h-1v-3.4h-0.8V109H75.3z"/>
			<path class="st6" d="M76,111.1c0-1.4,0.8-2.2,1.8-2.2c1,0,1.8,0.8,1.8,2.2c0,1.4-0.8,2.2-1.8,2.2C76.8,113.3,76,112.5,76,111.1z
				 M78.6,111.1c0-1-0.3-1.3-0.8-1.3c-0.5,0-0.8,0.4-0.8,1.3c0,1,0.3,1.3,0.8,1.3C78.3,112.5,78.6,112.1,78.6,111.1z"/>
			<path class="st6" d="M83.3,111.9c0,0.7-0.5,1.4-1.7,1.4c-0.6,0-1.2-0.2-1.6-0.5l0.4-0.7c0.3,0.2,0.8,0.4,1.2,0.4
				c0.5,0,0.8-0.2,0.8-0.5c0-0.3-0.2-0.5-1-0.5h-1.1l0.2-2.4H83v0.8h-1.8l-0.1,0.8h0.3C82.8,110.6,83.3,111.1,83.3,111.9z"/>
		</g>
		<g class="st3">
			<path class="st4" d="M20.8,112v0.5h-1.9V110h1.8v0.5h-1.3v0.5h1.1v0.4h-1.1v0.6H20.8z"/>
		</g>
		<g>
		</g>
		<g class="st3">
			<path class="st4" d="M23.2,111.4v1.1h-0.5v-1c0-0.3-0.1-0.4-0.4-0.4c-0.3,0-0.5,0.2-0.5,0.5v0.9h-0.5v-1.9h0.5v0.2
				c0.1-0.2,0.4-0.2,0.6-0.2C22.8,110.6,23.2,110.8,23.2,111.4z"/>
		</g>
		<g>
		</g>
		<g class="st3">
			<path class="st4" d="M25.6,110.6v1.6c0,0.7-0.4,1-1.1,1c-0.4,0-0.7-0.1-0.9-0.3l0.2-0.4c0.2,0.1,0.4,0.2,0.7,0.2
				c0.4,0,0.6-0.2,0.6-0.5v-0.1c-0.1,0.2-0.3,0.2-0.6,0.2c-0.5,0-0.9-0.4-0.9-0.9s0.4-0.9,0.9-0.9c0.3,0,0.5,0.1,0.6,0.3v-0.2H25.6z
				 M25.1,111.5c0-0.3-0.2-0.5-0.5-0.5s-0.5,0.2-0.5,0.5s0.2,0.5,0.5,0.5S25.1,111.8,25.1,111.5z"/>
			<path class="st4" d="M28,111.7h-1.4c0.1,0.2,0.3,0.4,0.5,0.4c0.2,0,0.3-0.1,0.5-0.2l0.3,0.3c-0.2,0.2-0.4,0.3-0.8,0.3
				c-0.6,0-1.1-0.4-1.1-1c0-0.6,0.4-1,1-1c0.6,0,1,0.4,1,1C28,111.6,28,111.6,28,111.7z M26.5,111.4h0.9c0-0.2-0.2-0.4-0.5-0.4
				C26.8,111,26.6,111.1,26.5,111.4z"/>
			<path class="st4" d="M30.3,111.4v1.1h-0.5v-1c0-0.3-0.1-0.4-0.4-0.4c-0.3,0-0.5,0.2-0.5,0.5v0.9h-0.5v-1.9h0.5v0.2
				c0.1-0.2,0.4-0.2,0.6-0.2C29.9,110.6,30.3,110.8,30.3,111.4z"/>
			<path class="st4" d="M32.7,111.4v1.1h-0.5v-1c0-0.3-0.1-0.4-0.4-0.4c-0.3,0-0.5,0.2-0.5,0.5v0.9h-0.5v-2.6h0.5v0.9
				c0.1-0.1,0.4-0.2,0.6-0.2C32.3,110.6,32.7,110.8,32.7,111.4z"/>
			<path class="st4" d="M34.8,111.4v1.1h-0.5v-0.2c-0.1,0.2-0.3,0.3-0.6,0.3c-0.4,0-0.7-0.2-0.7-0.6c0-0.3,0.2-0.6,0.8-0.6h0.4
				c0-0.2-0.1-0.4-0.4-0.4c-0.2,0-0.4,0.1-0.5,0.2l-0.2-0.4c0.2-0.1,0.5-0.2,0.8-0.2C34.5,110.6,34.8,110.8,34.8,111.4z M34.3,111.9
				v-0.2h-0.4c-0.3,0-0.3,0.1-0.3,0.2c0,0.1,0.1,0.2,0.3,0.2C34.1,112.1,34.2,112.1,34.3,111.9z"/>
		</g>
		<g>
		</g>
		<g class="st3">
			<path class="st4" d="M36.5,110.6v0.5c0,0-0.1,0-0.1,0c-0.3,0-0.5,0.2-0.5,0.5v0.9h-0.5v-1.9h0.5v0.2
				C36,110.7,36.2,110.6,36.5,110.6z"/>
		</g>
		<g>
		</g>
		<g class="st3">
			<path class="st4" d="M36.8,110c0-0.2,0.1-0.3,0.3-0.3s0.3,0.1,0.3,0.3c0,0.2-0.1,0.3-0.3,0.3S36.8,110.2,36.8,110z M36.8,110.6
				h0.5v1.9h-0.5V110.6z"/>
			<path class="st4" d="M39.5,111.4v1.1H39v-0.2c-0.1,0.2-0.3,0.3-0.6,0.3c-0.4,0-0.7-0.2-0.7-0.6c0-0.3,0.2-0.6,0.8-0.6H39
				c0-0.2-0.1-0.4-0.4-0.4c-0.2,0-0.4,0.1-0.5,0.2l-0.2-0.4c0.2-0.1,0.5-0.2,0.8-0.2C39.2,110.6,39.5,110.8,39.5,111.4z M39,111.9
				v-0.2h-0.4c-0.3,0-0.3,0.1-0.3,0.2c0,0.1,0.1,0.2,0.3,0.2C38.8,112.1,38.9,112.1,39,111.9z"/>
			<path class="st4" d="M43,109.9v2.6h-0.5v-0.2c-0.1,0.2-0.3,0.2-0.6,0.2c-0.5,0-0.9-0.4-0.9-1c0-0.6,0.4-1,0.9-1
				c0.2,0,0.4,0.1,0.6,0.2v-0.9H43z M42.4,111.5c0-0.3-0.2-0.5-0.5-0.5c-0.3,0-0.5,0.2-0.5,0.5c0,0.3,0.2,0.5,0.5,0.5
				C42.2,112.1,42.4,111.9,42.4,111.5z"/>
			<path class="st4" d="M45.3,111.7h-1.4c0.1,0.2,0.3,0.4,0.5,0.4c0.2,0,0.3-0.1,0.5-0.2l0.3,0.3c-0.2,0.2-0.4,0.3-0.8,0.3
				c-0.6,0-1.1-0.4-1.1-1c0-0.6,0.4-1,1-1c0.6,0,1,0.4,1,1C45.3,111.6,45.3,111.6,45.3,111.7z M43.9,111.4h0.9
				c0-0.2-0.2-0.4-0.5-0.4C44.1,111,43.9,111.1,43.9,111.4z"/>
			<path class="st4" d="M48.3,112.5l-0.5-0.7h0h-0.5v0.7h-0.6V110h1.1c0.7,0,1.1,0.3,1.1,0.9c0,0.4-0.2,0.6-0.5,0.8l0.5,0.8H48.3z
				 M47.7,110.5h-0.5v0.9h0.5c0.3,0,0.5-0.2,0.5-0.4C48.2,110.7,48.1,110.5,47.7,110.5z"/>
			<path class="st4" d="M51.1,111.7h-1.4c0.1,0.2,0.3,0.4,0.5,0.4c0.2,0,0.3-0.1,0.5-0.2l0.3,0.3c-0.2,0.2-0.4,0.3-0.8,0.3
				c-0.6,0-1.1-0.4-1.1-1c0-0.6,0.4-1,1-1c0.6,0,1,0.4,1,1C51.1,111.6,51.1,111.6,51.1,111.7z M49.6,111.4h0.9
				c0-0.2-0.2-0.4-0.5-0.4C49.8,111,49.7,111.1,49.6,111.4z"/>
			<path class="st4" d="M53.4,109.9v2.6h-0.5v-0.2c-0.1,0.2-0.3,0.2-0.6,0.2c-0.5,0-0.9-0.4-0.9-1c0-0.6,0.4-1,0.9-1
				c0.2,0,0.4,0.1,0.6,0.2v-0.9H53.4z M52.8,111.5c0-0.3-0.2-0.5-0.5-0.5c-0.3,0-0.5,0.2-0.5,0.5c0,0.3,0.2,0.5,0.5,0.5
				C52.6,112.1,52.8,111.9,52.8,111.5z"/>
			<path class="st4" d="M55.7,111.7h-1.4c0.1,0.2,0.3,0.4,0.5,0.4c0.2,0,0.3-0.1,0.5-0.2l0.3,0.3c-0.2,0.2-0.4,0.3-0.8,0.3
				c-0.7,0-1.1-0.4-1.1-1c0-0.6,0.4-1,1-1c0.6,0,1,0.4,1,1C55.7,111.6,55.7,111.6,55.7,111.7z M54.3,111.4h0.9
				c0-0.2-0.2-0.4-0.5-0.4C54.5,111,54.3,111.1,54.3,111.4z"/>
			<path class="st4" d="M55.9,112.3l0.2-0.4c0.2,0.1,0.4,0.2,0.7,0.2c0.3,0,0.3-0.1,0.3-0.2c0-0.3-1.1,0-1.1-0.7
				c0-0.4,0.3-0.6,0.9-0.6c0.3,0,0.5,0.1,0.7,0.2l-0.2,0.4c-0.2-0.1-0.4-0.1-0.5-0.1c-0.2,0-0.3,0.1-0.3,0.2c0,0.3,1.1,0,1.1,0.8
				c0,0.3-0.3,0.6-0.9,0.6C56.4,112.5,56.1,112.4,55.9,112.3z"/>
		</g>
		<g>
			<path class="st2" d="M87.4,109.1c-0.3,0.3-0.3,0.7,0,1l1.4,1.4l-1.4,1.4c-0.3,0.3-0.3,0.7,0,1c0.3,0.3,0.7,0.3,1,0l1.8-1.8
				c0.1-0.1,0.2-0.3,0.2-0.5s-0.1-0.3-0.2-0.5l-1.8-1.8C88.2,108.9,87.7,108.9,87.4,109.1L87.4,109.1z"/>
		</g>
	</g>
	<g>
		<g class="st5">
			<g>
				<path class="st1" d="M15.3,120.3h74.5c1.5,0,2.8,1.2,2.8,2.8v8.5c0,1.5-1.2,2.8-2.8,2.8H15.3c-1.5,0-2.8-1.2-2.8-2.8V123
					C12.5,121.5,13.8,120.3,15.3,120.3z"/>
			</g>
		</g>
		<g class="st3">
			<path class="st6" d="M83.2,127.8c0,0.8-0.7,1.3-1.8,1.3c-1.1,0-1.8-0.5-1.8-1.3c0-0.4,0.2-0.8,0.6-1c-0.3-0.2-0.5-0.5-0.5-0.9
				c0-0.7,0.7-1.2,1.6-1.2c1,0,1.6,0.5,1.6,1.2c0,0.4-0.2,0.7-0.5,0.9C83,127,83.2,127.4,83.2,127.8z M82.2,127.8
				c0-0.4-0.3-0.6-0.8-0.6c-0.5,0-0.8,0.2-0.8,0.6c0,0.4,0.3,0.6,0.8,0.6C81.9,128.4,82.2,128.1,82.2,127.8z M80.8,126
				c0,0.3,0.3,0.5,0.6,0.5c0.4,0,0.7-0.2,0.7-0.5c0-0.3-0.3-0.5-0.7-0.5C81.1,125.5,80.8,125.7,80.8,126z"/>
		</g>
		<g class="st3">
			<path class="st4" d="M20.8,125.8v0.5h-1.9v-2.4h1.8v0.5h-1.3v0.5h1.1v0.4h-1.1v0.6H20.8z"/>
		</g>
		<g>
		</g>
		<g class="st3">
			<path class="st4" d="M23.2,125.2v1.1h-0.5v-1c0-0.3-0.1-0.4-0.4-0.4c-0.3,0-0.5,0.2-0.5,0.5v0.9h-0.5v-1.9h0.5v0.2
				c0.1-0.2,0.4-0.2,0.6-0.2C22.8,124.4,23.2,124.6,23.2,125.2z"/>
		</g>
		<g>
		</g>
		<g class="st3">
			<path class="st4" d="M25.6,124.4v1.6c0,0.7-0.4,1-1.1,1c-0.4,0-0.7-0.1-0.9-0.3l0.2-0.4c0.2,0.1,0.4,0.2,0.7,0.2
				c0.4,0,0.6-0.2,0.6-0.5V126c-0.1,0.2-0.3,0.2-0.6,0.2c-0.5,0-0.9-0.4-0.9-0.9c0-0.5,0.4-0.9,0.9-0.9c0.3,0,0.5,0.1,0.6,0.3v-0.2
				H25.6z M25.1,125.3c0-0.3-0.2-0.5-0.5-0.5s-0.5,0.2-0.5,0.5c0,0.3,0.2,0.5,0.5,0.5S25.1,125.6,25.1,125.3z"/>
			<path class="st4" d="M28,125.5h-1.4c0.1,0.2,0.3,0.4,0.5,0.4c0.2,0,0.3-0.1,0.5-0.2l0.3,0.3c-0.2,0.2-0.4,0.3-0.8,0.3
				c-0.6,0-1.1-0.4-1.1-1c0-0.6,0.4-1,1-1c0.6,0,1,0.4,1,1C28,125.4,28,125.5,28,125.5z M26.5,125.2h0.9c0-0.2-0.2-0.4-0.5-0.4
				C26.8,124.8,26.6,124.9,26.5,125.2z"/>
			<path class="st4" d="M30.3,125.2v1.1h-0.5v-1c0-0.3-0.1-0.4-0.4-0.4c-0.3,0-0.5,0.2-0.5,0.5v0.9h-0.5v-1.9h0.5v0.2
				c0.1-0.2,0.4-0.2,0.6-0.2C29.9,124.4,30.3,124.6,30.3,125.2z"/>
			<path class="st4" d="M32.7,125.2v1.1h-0.5v-1c0-0.3-0.1-0.4-0.4-0.4c-0.3,0-0.5,0.2-0.5,0.5v0.9h-0.5v-2.6h0.5v0.9
				c0.1-0.1,0.4-0.2,0.6-0.2C32.3,124.4,32.7,124.6,32.7,125.2z"/>
			<path class="st4" d="M34.8,125.2v1.1h-0.5v-0.2c-0.1,0.2-0.3,0.3-0.6,0.3c-0.4,0-0.7-0.2-0.7-0.6c0-0.3,0.2-0.6,0.8-0.6h0.4
				c0-0.2-0.1-0.4-0.4-0.4c-0.2,0-0.4,0.1-0.5,0.2l-0.2-0.4c0.2-0.1,0.5-0.2,0.8-0.2C34.5,124.4,34.8,124.6,34.8,125.2z M34.3,125.7
				v-0.2h-0.4c-0.3,0-0.3,0.1-0.3,0.2c0,0.1,0.1,0.2,0.3,0.2C34.1,126,34.2,125.9,34.3,125.7z"/>
		</g>
		<g>
		</g>
		<g class="st3">
			<path class="st4" d="M36.5,124.4v0.5c0,0-0.1,0-0.1,0c-0.3,0-0.5,0.2-0.5,0.5v0.9h-0.5v-1.9h0.5v0.2
				C36,124.5,36.2,124.4,36.5,124.4z"/>
		</g>
		<g>
		</g>
		<g class="st3">
			<path class="st4" d="M36.8,123.8c0-0.2,0.1-0.3,0.3-0.3s0.3,0.1,0.3,0.3c0,0.2-0.1,0.3-0.3,0.3S36.8,124,36.8,123.8z M36.8,124.4
				h0.5v1.9h-0.5V124.4z"/>
			<path class="st4" d="M39.5,125.2v1.1H39v-0.2c-0.1,0.2-0.3,0.3-0.6,0.3c-0.4,0-0.7-0.2-0.7-0.6c0-0.3,0.2-0.6,0.8-0.6H39
				c0-0.2-0.1-0.4-0.4-0.4c-0.2,0-0.4,0.1-0.5,0.2l-0.2-0.4c0.2-0.1,0.5-0.2,0.8-0.2C39.2,124.4,39.5,124.6,39.5,125.2z M39,125.7
				v-0.2h-0.4c-0.3,0-0.3,0.1-0.3,0.2c0,0.1,0.1,0.2,0.3,0.2C38.8,126,38.9,125.9,39,125.7z"/>
			<path class="st4" d="M43,123.7v2.6h-0.5v-0.2c-0.1,0.2-0.3,0.2-0.6,0.2c-0.5,0-0.9-0.4-0.9-1c0-0.6,0.4-1,0.9-1
				c0.2,0,0.4,0.1,0.6,0.2v-0.9H43z M42.4,125.3c0-0.3-0.2-0.5-0.5-0.5c-0.3,0-0.5,0.2-0.5,0.5c0,0.3,0.2,0.5,0.5,0.5
				C42.2,125.9,42.4,125.7,42.4,125.3z"/>
			<path class="st4" d="M45.3,125.5h-1.4c0.1,0.2,0.3,0.4,0.5,0.4c0.2,0,0.3-0.1,0.5-0.2l0.3,0.3c-0.2,0.2-0.4,0.3-0.8,0.3
				c-0.6,0-1.1-0.4-1.1-1c0-0.6,0.4-1,1-1c0.6,0,1,0.4,1,1C45.3,125.4,45.3,125.5,45.3,125.5z M43.9,125.2h0.9
				c0-0.2-0.2-0.4-0.5-0.4C44.1,124.8,43.9,124.9,43.9,125.2z"/>
		</g>
		<g class="st3">
			<path class="st4" d="M48.8,124.7c0,0.5-0.4,0.9-1.1,0.9h-0.5v0.7h-0.6v-2.4h1.1C48.4,123.8,48.8,124.2,48.8,124.7z M48.2,124.7
				c0-0.3-0.2-0.4-0.5-0.4h-0.5v0.8h0.5C48.1,125.2,48.2,125,48.2,124.7z"/>
			<path class="st4" d="M50.3,124.4v0.5c0,0-0.1,0-0.1,0c-0.3,0-0.5,0.2-0.5,0.5v0.9h-0.5v-1.9h0.5v0.2
				C49.8,124.5,50,124.4,50.3,124.4z"/>
		</g>
		<g>
		</g>
		<g class="st3">
			<path class="st4" d="M50.5,125.3c0-0.6,0.4-1,1-1c0.6,0,1,0.4,1,1c0,0.6-0.4,1-1,1C51,126.3,50.5,125.9,50.5,125.3z M52,125.3
				c0-0.3-0.2-0.5-0.5-0.5s-0.5,0.2-0.5,0.5c0,0.3,0.2,0.5,0.5,0.5S52,125.7,52,125.3z"/>
			<path class="st4" d="M54.9,123.7v2.6h-0.5v-0.2c-0.1,0.2-0.3,0.2-0.6,0.2c-0.5,0-0.9-0.4-0.9-1c0-0.6,0.4-1,0.9-1
				c0.2,0,0.4,0.1,0.6,0.2v-0.9H54.9z M54.3,125.3c0-0.3-0.2-0.5-0.5-0.5c-0.3,0-0.5,0.2-0.5,0.5c0,0.3,0.2,0.5,0.5,0.5
				C54.1,125.9,54.3,125.7,54.3,125.3z"/>
			<path class="st4" d="M57.3,124.4v1.9h-0.5v-0.2c-0.1,0.2-0.4,0.3-0.6,0.3c-0.5,0-0.8-0.3-0.8-0.8v-1.1h0.5v1
				c0,0.3,0.1,0.5,0.4,0.5c0.3,0,0.4-0.2,0.4-0.5v-0.9H57.3z"/>
			<path class="st4" d="M59.1,125.6l0.4,0.2c-0.1,0.3-0.4,0.5-0.8,0.5l0,0.1c0.2,0,0.3,0.1,0.3,0.3c0,0.2-0.2,0.3-0.5,0.3
				c-0.1,0-0.2,0-0.3-0.1l0.1-0.2c0.1,0,0.1,0.1,0.2,0.1c0.1,0,0.2,0,0.2-0.1c0-0.1,0-0.1-0.2-0.1h-0.1l0.1-0.3
				c-0.5-0.1-0.8-0.5-0.8-0.9c0-0.6,0.4-1,1-1c0.4,0,0.7,0.2,0.8,0.5l-0.4,0.2c-0.1-0.2-0.3-0.3-0.4-0.3c-0.3,0-0.5,0.2-0.5,0.5
				c0,0.3,0.2,0.5,0.5,0.5C58.9,125.9,59,125.8,59.1,125.6z"/>
		</g>
		<g>
		</g>
		<g class="st3">
			<path class="st4" d="M61.5,125.2v1.1H61v-0.2c-0.1,0.2-0.3,0.3-0.6,0.3c-0.4,0-0.7-0.2-0.7-0.6c0-0.3,0.2-0.6,0.8-0.6H61
				c0-0.2-0.1-0.4-0.4-0.4c-0.2,0-0.4,0.1-0.5,0.2l-0.2-0.4c0.2-0.1,0.5-0.2,0.8-0.2C61.2,124.4,61.5,124.6,61.5,125.2z M60.3,124.2
				H60c0-0.3,0.2-0.5,0.4-0.5c0.2,0,0.4,0.2,0.5,0.2c0.1,0,0.2-0.1,0.2-0.2h0.3c0,0.3-0.2,0.5-0.4,0.5c-0.2,0-0.4-0.2-0.5-0.2
				C60.3,124,60.3,124,60.3,124.2z M61,125.7v-0.2h-0.4c-0.3,0-0.3,0.1-0.3,0.2c0,0.1,0.1,0.2,0.3,0.2C60.7,126,60.9,125.9,61,125.7
				z"/>
		</g>
		<g>
		</g>
		<g class="st3">
			<path class="st4" d="M61.9,125.3c0-0.6,0.4-1,1-1s1,0.4,1,1c0,0.6-0.4,1-1,1S61.9,125.9,61.9,125.3z M63.4,125.3
				c0-0.3-0.2-0.5-0.5-0.5s-0.5,0.2-0.5,0.5c0,0.3,0.2,0.5,0.5,0.5S63.4,125.7,63.4,125.3z"/>
		</g>
		<g>
			<path class="st2" d="M87.4,124.9c-0.3,0.3-0.3,0.7,0,1l1.4,1.4l-1.4,1.4c-0.3,0.3-0.3,0.7,0,1c0.3,0.3,0.7,0.3,1,0l1.8-1.8
				c0.1-0.1,0.2-0.3,0.2-0.5s-0.1-0.3-0.2-0.5l-1.8-1.8C88.2,124.7,87.7,124.7,87.4,124.9z"/>
		</g>
	</g>
	<g>
		<g class="st5">
			<g>
				<path class="st1" d="M15.3,136.1h74.5c1.5,0,2.8,1.2,2.8,2.8v8.5c0,1.5-1.2,2.8-2.8,2.8H15.3c-1.5,0-2.8-1.2-2.8-2.8v-8.5
					C12.5,137.3,13.8,136.1,15.3,136.1z"/>
			</g>
		</g>
		<g class="st3">
			<path class="st6" d="M78.5,143.5c0,0.7-0.5,1.4-1.7,1.4c-0.6,0-1.2-0.2-1.6-0.5l0.4-0.7c0.3,0.2,0.8,0.4,1.2,0.4
				c0.5,0,0.8-0.2,0.8-0.5c0-0.3-0.2-0.5-0.8-0.5h-0.4v-0.6l0.9-1h-1.8v-0.8h2.9v0.6l-0.9,1.1C78.1,142.5,78.5,142.9,78.5,143.5z"/>
			<path class="st6" d="M80.6,140.6v4.2h-1v-3.4h-0.8v-0.8H80.6z"/>
			<path class="st6" d="M82.9,140.6v4.2h-1v-3.4h-0.8v-0.8H82.9z"/>
		</g>
		<g class="st3">
			<path class="st4" d="M20.8,143.6v0.5h-1.9v-2.4h1.8v0.5h-1.3v0.5h1.1v0.4h-1.1v0.6H20.8z"/>
		</g>
		<g>
		</g>
		<g class="st3">
			<path class="st4" d="M23.2,143v1.1h-0.5v-1c0-0.3-0.1-0.4-0.4-0.4c-0.3,0-0.5,0.2-0.5,0.5v0.9h-0.5v-1.9h0.5v0.2
				c0.1-0.2,0.4-0.2,0.6-0.2C22.8,142.2,23.2,142.5,23.2,143z"/>
		</g>
		<g>
		</g>
		<g class="st3">
			<path class="st4" d="M25.6,142.2v1.6c0,0.7-0.4,1-1.1,1c-0.4,0-0.7-0.1-0.9-0.3l0.2-0.4c0.2,0.1,0.4,0.2,0.7,0.2
				c0.4,0,0.6-0.2,0.6-0.5v-0.1c-0.1,0.2-0.3,0.2-0.6,0.2c-0.5,0-0.9-0.4-0.9-0.9c0-0.5,0.4-0.9,0.9-0.9c0.3,0,0.5,0.1,0.6,0.3v-0.2
				H25.6z M25.1,143.1c0-0.3-0.2-0.5-0.5-0.5s-0.5,0.2-0.5,0.5c0,0.3,0.2,0.5,0.5,0.5S25.1,143.4,25.1,143.1z"/>
			<path class="st4" d="M28,143.3h-1.4c0.1,0.2,0.3,0.4,0.5,0.4c0.2,0,0.3-0.1,0.5-0.2l0.3,0.3c-0.2,0.2-0.4,0.3-0.8,0.3
				c-0.6,0-1.1-0.4-1.1-1c0-0.6,0.4-1,1-1c0.6,0,1,0.4,1,1C28,143.2,28,143.3,28,143.3z M26.5,143h0.9c0-0.2-0.2-0.4-0.5-0.4
				C26.8,142.6,26.6,142.8,26.5,143z"/>
			<path class="st4" d="M30.3,143v1.1h-0.5v-1c0-0.3-0.1-0.4-0.4-0.4c-0.3,0-0.5,0.2-0.5,0.5v0.9h-0.5v-1.9h0.5v0.2
				c0.1-0.2,0.4-0.2,0.6-0.2C29.9,142.2,30.3,142.5,30.3,143z"/>
			<path class="st4" d="M32.7,143v1.1h-0.5v-1c0-0.3-0.1-0.4-0.4-0.4c-0.3,0-0.5,0.2-0.5,0.5v0.9h-0.5v-2.6h0.5v0.9
				c0.1-0.1,0.4-0.2,0.6-0.2C32.3,142.2,32.7,142.5,32.7,143z"/>
			<path class="st4" d="M34.8,143v1.1h-0.5v-0.2c-0.1,0.2-0.3,0.3-0.6,0.3c-0.4,0-0.7-0.2-0.7-0.6c0-0.3,0.2-0.6,0.8-0.6h0.4
				c0-0.2-0.1-0.4-0.4-0.4c-0.2,0-0.4,0.1-0.5,0.2l-0.2-0.4c0.2-0.1,0.5-0.2,0.8-0.2C34.5,142.2,34.8,142.5,34.8,143z M34.3,143.5
				v-0.2h-0.4c-0.3,0-0.3,0.1-0.3,0.2c0,0.1,0.1,0.2,0.3,0.2C34.1,143.8,34.2,143.7,34.3,143.5z"/>
		</g>
		<g>
		</g>
		<g class="st3">
			<path class="st4" d="M36.5,142.2v0.5c0,0-0.1,0-0.1,0c-0.3,0-0.5,0.2-0.5,0.5v0.9h-0.5v-1.9h0.5v0.2
				C36,142.3,36.2,142.2,36.5,142.2z"/>
		</g>
		<g>
		</g>
		<g class="st3">
			<path class="st4" d="M36.8,141.7c0-0.2,0.1-0.3,0.3-0.3s0.3,0.1,0.3,0.3c0,0.2-0.1,0.3-0.3,0.3S36.8,141.8,36.8,141.7z
				 M36.8,142.2h0.5v1.9h-0.5V142.2z"/>
			<path class="st4" d="M39.5,143v1.1H39v-0.2c-0.1,0.2-0.3,0.3-0.6,0.3c-0.4,0-0.7-0.2-0.7-0.6c0-0.3,0.2-0.6,0.8-0.6H39
				c0-0.2-0.1-0.4-0.4-0.4c-0.2,0-0.4,0.1-0.5,0.2l-0.2-0.4c0.2-0.1,0.5-0.2,0.8-0.2C39.2,142.2,39.5,142.5,39.5,143z M39,143.5
				v-0.2h-0.4c-0.3,0-0.3,0.1-0.3,0.2c0,0.1,0.1,0.2,0.3,0.2C38.8,143.8,38.9,143.7,39,143.5z"/>
			<path class="st4" d="M43.3,144.1l0-1.5l-0.7,1.2h-0.3l-0.7-1.2v1.4h-0.5v-2.4h0.5l0.9,1.5l0.9-1.5h0.5l0,2.4H43.3z"/>
			<path class="st4" d="M46.2,143.3h-1.4c0.1,0.2,0.3,0.4,0.5,0.4c0.2,0,0.3-0.1,0.5-0.2l0.3,0.3c-0.2,0.2-0.4,0.3-0.8,0.3
				c-0.6,0-1.1-0.4-1.1-1c0-0.6,0.4-1,1-1c0.6,0,1,0.4,1,1C46.2,143.2,46.2,143.3,46.2,143.3z M44.8,143h0.9c0-0.2-0.2-0.4-0.5-0.4
				C45,142.6,44.8,142.8,44.8,143z"/>
			<path class="st4" d="M46.4,143.2c0-0.6,0.4-1,1-1c0.4,0,0.7,0.2,0.8,0.5l-0.4,0.2c-0.1-0.2-0.3-0.3-0.4-0.3
				c-0.3,0-0.5,0.2-0.5,0.5c0,0.3,0.2,0.5,0.5,0.5c0.2,0,0.3-0.1,0.4-0.3l0.4,0.2c-0.1,0.3-0.4,0.5-0.8,0.5
				C46.9,144.1,46.4,143.7,46.4,143.2z"/>
			<path class="st4" d="M50.3,143v1.1h-0.5v-0.2c-0.1,0.2-0.3,0.3-0.6,0.3c-0.4,0-0.7-0.2-0.7-0.6c0-0.3,0.2-0.6,0.8-0.6h0.4
				c0-0.2-0.1-0.4-0.4-0.4c-0.2,0-0.4,0.1-0.5,0.2l-0.2-0.4c0.2-0.1,0.5-0.2,0.8-0.2C50,142.2,50.3,142.5,50.3,143z M49.2,142h-0.4
				l0.5-0.5h0.5l0.5,0.5h-0.4l-0.3-0.3L49.2,142z M49.8,143.5v-0.2h-0.4c-0.3,0-0.3,0.1-0.3,0.2c0,0.1,0.1,0.2,0.3,0.2
				C49.6,143.8,49.7,143.7,49.8,143.5z"/>
			<path class="st4" d="M52.7,143v1.1h-0.5v-1c0-0.3-0.1-0.4-0.4-0.4c-0.3,0-0.5,0.2-0.5,0.5v0.9h-0.5v-1.9h0.5v0.2
				c0.1-0.2,0.4-0.2,0.6-0.2C52.4,142.2,52.7,142.5,52.7,143z"/>
			<path class="st4" d="M53.2,141.7c0-0.2,0.1-0.3,0.3-0.3c0.2,0,0.3,0.1,0.3,0.3c0,0.2-0.1,0.3-0.3,0.3
				C53.3,142,53.2,141.8,53.2,141.7z M53.2,142.2h0.5v1.9h-0.5V142.2z"/>
			<path class="st4" d="M54.1,143.2c0-0.6,0.4-1,1-1c0.4,0,0.7,0.2,0.8,0.5l-0.4,0.2c-0.1-0.2-0.3-0.3-0.4-0.3
				c-0.3,0-0.5,0.2-0.5,0.5c0,0.3,0.2,0.5,0.5,0.5c0.2,0,0.3-0.1,0.4-0.3l0.4,0.2c-0.1,0.3-0.4,0.5-0.8,0.5
				C54.6,144.1,54.1,143.7,54.1,143.2z"/>
			<path class="st4" d="M58,143v1.1h-0.5v-0.2c-0.1,0.2-0.3,0.3-0.6,0.3c-0.4,0-0.7-0.2-0.7-0.6c0-0.3,0.2-0.6,0.8-0.6h0.4
				c0-0.2-0.1-0.4-0.4-0.4c-0.2,0-0.4,0.1-0.5,0.2l-0.2-0.4c0.2-0.1,0.5-0.2,0.8-0.2C57.7,142.2,58,142.5,58,143z M57.5,143.5v-0.2
				h-0.4c-0.3,0-0.3,0.1-0.3,0.2c0,0.1,0.1,0.2,0.3,0.2C57.3,143.8,57.4,143.7,57.5,143.5z"/>
		</g>
		<g>
			<path class="st2" d="M87.4,140.8c-0.3,0.3-0.3,0.7,0,1l1.4,1.4l-1.4,1.4c-0.3,0.3-0.3,0.7,0,1c0.3,0.3,0.7,0.3,1,0l1.8-1.9
				c0.1-0.1,0.2-0.3,0.2-0.5c0-0.2-0.1-0.4-0.2-0.5l-1.8-1.9C88.2,140.5,87.7,140.5,87.4,140.8L87.4,140.8z"/>
		</g>
	</g>
</g>
</svg>
