<?xml version="1.0" encoding="UTF-8"?><svg id="Layer_2" xmlns="http://www.w3.org/2000/svg" viewBox="0 0 105.08 186.57"><defs><style>.cls-1{fill:none;}.cls-2{font-size:6.08px;}.cls-2,.cls-3{font-family:Verdana-Bold, Verdana;}.cls-2,.cls-4{fill:#fff;}.cls-3{fill:#2b2b2b;font-size:3.04px;}.cls-5{fill:#f99e1d;}.cls-6{fill:#1d5bdf;}</style></defs><g id="OBJECTS"><rect class="cls-1" width="104.95" height="186.57" rx="3.97" ry="3.97"/><text class="cls-2" transform="translate(31.43 23.6)"><tspan x="0" y="0">Minha Conta</tspan></text><rect class="cls-4" x="12.47" y="46.64" width="80.28" height="24.18" rx="3.07" ry="3.07"/><rect class="cls-6" x="14.24" y="48.3" width="20.6" height="20.88" rx="1.45" ry="1.45"/><g><path class="cls-5" d="M26.6,60.15l-6.05,2.11v-6.81l5.69-2.01c.47-.13,.92,.27,.92,.81v5.08c0,.38-.23,.72-.56,.81Z"/><path class="cls-4" d="M20.55,55.46h6.78c.46,0,.84,.37,.84,.84v5.13c0,.46-.37,.84-.84,.84h-6.78v-6.81h0Z"/><rect class="cls-5" x="26.52" y="58.14" width="2.01" height="1.58" rx=".22" ry=".22"/></g><text class="cls-3" transform="translate(43.05 58.15)"><tspan x="0" y="0">Ofertas de emprego</tspan><tspan x="0" y="3.65">em andamento</tspan></text><rect class="cls-4" x="12.47" y="75.3" width="80.28" height="24.18" rx="3.07" ry="3.07"/><rect class="cls-6" x="14.24" y="76.96" width="20.6" height="20.88" rx="1.45" ry="1.45"/><g><g><path class="cls-4" d="M27.84,88.35l-3.55,3.55-4.05-4.05c-.98-.98-.98-2.57,0-3.55h0c.98-.98,2.57-.98,3.55,0l4.05,4.05Z"/><path class="cls-4" d="M24.3,91.91l-3.55-3.55,4.06-4.06c.98-.98,2.57-.98,3.55,0h0c.98,.98,.98,2.57,0,3.55l-4.06,4.06Z"/></g><path class="cls-5" d="M22.61,88.57c-.06,0-.12-.02-.17-.07-.09-.09-.09-.24,0-.33l1.22-1.22c.09-.09,.24-.09,.33,0l.6,.6,1.18-1.18c.09-.09,.24-.09,.33,0,.09,.09,.09,.24,0,.33l-1.35,1.35c-.09,.09-.24,.09-.33,0l-.6-.6-1.05,1.05s-.11,.07-.17,.07Z"/></g><text class="cls-3" transform="translate(43.05 89.11)"><tspan x="0" y="0">Favoritos</tspan></text><rect class="cls-4" x="12.47" y="103.44" width="80.28" height="24.18" rx="3.07" ry="3.07"/><rect class="cls-6" x="14.24" y="105.09" width="20.6" height="20.88" rx="1.45" ry="1.45"/><g><path class="cls-4" d="M28.62,112.6v7.17c0,.33-.27,.59-.59,.59h-6.98c-.32,0-.59-.26-.59-.59v-9.41c0-.33,.26-.59,.59-.59h4.74l2.83,2.83Z"/><path class="cls-5" d="M25.79,112.02v-2.24l2.83,2.83h-2.24c-.32,0-.59-.26-.59-.59Z"/><path class="cls-5" d="M26.63,114.61h-4.18c-.14,0-.26-.11-.26-.26h0c0-.14,.11-.26,.26-.26h4.18c.14,0,.26,.11,.26,.26h0c0,.14-.11,.26-.26,.26Z"/><path class="cls-5" d="M26.63,115.92h-4.18c-.14,0-.26-.11-.26-.26h0c0-.14,.11-.26,.26-.26h4.18c.14,0,.26,.11,.26,.26h0c0,.14-.11,.26-.26,.26Z"/><path class="cls-5" d="M26.63,117.23h-4.18c-.14,0-.26-.11-.26-.26h0c0-.14,.11-.26,.26-.26h4.18c.14,0,.26,.11,.26,.26h0c0,.14-.11,.26-.26,.26Z"/></g><text class="cls-3" transform="translate(43.05 116.92)"><tspan x="0" y="0">Meus Documentos</tspan></text><rect class="cls-4" x="12.29" y="132.41" width="80.28" height="24.18" rx="3.07" ry="3.07"/><rect class="cls-6" x="14.24" y="134.07" width="20.6" height="20.88" rx="1.45" ry="1.45"/><text class="cls-3" transform="translate(43.05 145.9)"><tspan x="0" y="0">Configurações</tspan></text><g><path class="cls-4" d="M29.01,143l-.68-.15c-.18-.04-.32-.18-.38-.35-.03-.08-.06-.15-.09-.22-.07-.17-.07-.36,.03-.52l.38-.63c.14-.21,.11-.5-.07-.68l-.62-.62c-.18-.18-.47-.21-.68-.07l-.59,.36c-.16,.1-.36,.1-.54,.03-.07-.04-.14-.07-.22-.1-.17-.07-.3-.2-.34-.39l-.16-.72c-.05-.24-.27-.42-.53-.42h-.88c-.25,0-.48,.17-.53,.42l-.16,.69c-.04,.18-.17,.32-.35,.38-.07,.03-.15,.06-.22,.09-.17,.07-.36,.07-.52-.03l-.62-.4c-.22-.13-.5-.1-.68,.08l-.63,.62c-.17,.18-.21,.47-.07,.68l.36,.59c.1,.16,.11,.35,.03,.53-.04,.08-.07,.15-.1,.22-.06,.17-.2,.3-.38,.34l-.71,.16c-.25,.06-.43,.28-.43,.54v.88c0,.25,.17,.48,.43,.53l.68,.16c.18,.04,.32,.17,.38,.35,.03,.07,.06,.15,.09,.22,.08,.17,.07,.36-.03,.52l-.38,.62c-.14,.22-.11,.5,.07,.68l.62,.62c.18,.18,.47,.21,.68,.08l.59-.37c.16-.1,.36-.1,.54-.02,.07,.03,.14,.07,.22,.1,.17,.06,.3,.2,.34,.38l.16,.71c.05,.25,.27,.43,.53,.43h.88c.25,0,.48-.17,.54-.43l.15-.68c.04-.18,.17-.32,.35-.4,.08-.02,.15-.05,.22-.08,.17-.08,.36-.07,.52,.03l.62,.39c.22,.14,.51,.1,.68-.07l.63-.63c.17-.17,.21-.46,.07-.67l-.36-.59c-.1-.16-.11-.36-.03-.54,.04-.07,.07-.14,.1-.22,.06-.17,.2-.3,.38-.34l.71-.16c.25-.05,.43-.27,.43-.53v-.88c0-.25-.17-.48-.43-.54Zm-4.97,3.14c-1.23,0-2.22-.98-2.22-2.21s.99-2.22,2.22-2.22,2.22,.99,2.22,2.22-.99,2.21-2.22,2.21Z"/><path class="cls-5" d="M24.03,146.4c-1.36,0-2.47-1.11-2.47-2.47s1.11-2.47,2.47-2.47,2.47,1.11,2.47,2.47-1.11,2.47-2.47,2.47Zm0-4.43c-1.08,0-1.96,.88-1.96,1.96s.88,1.96,1.96,1.96,1.96-.88,1.96-1.96-.88-1.96-1.96-1.96Z"/></g></g></svg>