<?xml version="1.0" encoding="utf-8"?>
<!-- Generator: Adobe Illustrator 26.3.1, SVG Export Plug-In . SVG Version: 6.00 Build 0)  -->
<svg version="1.1" id="Layer_2_00000085216090932991462550000012801050573153720717_"
	 xmlns="http://www.w3.org/2000/svg" xmlns:xlink="http://www.w3.org/1999/xlink" x="0px" y="0px" viewBox="0 0 218.7 388.9"
	 style="enable-background:new 0 0 218.7 388.9;" xml:space="preserve">
<style type="text/css">
	.st0{fill:none;}
	.st1{fill:#F2F2F4;}
	.st2{font-family:'Verdana-Bold';}
	.st3{font-size:8px;}
	.st4{fill:#2B2B2B;}
	.st5{font-size:13.1366px;}
	.st6{fill:#F99E1D;}
	.st7{fill:#FFFFFF;}
	.st8{font-size:24px;}
	.st9{fill:#57B952;}
	.st10{fill:#36ACE2;}
</style>
<rect id="XMLID_00000137817865988741229330000006464918312684857247_" x="12.8" y="365.3" class="st0" width="89.2" height="12.7"/>
<text id="XMLID_1743_" transform="matrix(1 0 0 1 12.8439 371.3913)" class="st1 st2 st3">precisa de ajuda?</text>
<g id="XMLID_1745_">
	
		<rect id="XMLID_00000084497245057131276220000000731509314090011029_" x="81.8" y="330.6" class="st0" width="105.6" height="16.8"/>
	<text transform="matrix(1 0 0 1 141.3077 340.5964)" class="st4 st2 st5">Entrar</text>
</g>
<path id="XMLID_1712_" class="st6" d="M204,333.9l-6.3-6.3c-0.9-0.9-2.3-0.9-3.1,0c-0.9,0.9-0.9,2.3,0,3.1l4.7,4.7l-4.7,4.7
	c-0.9,0.9-0.9,2.3,0,3.1c0.9,0.9,2.3,0.9,3.1,0l6.3-6.3c0.4-0.4,0.7-1,0.6-1.6C204.6,334.9,204.4,334.3,204,333.9z"/>
<g id="XMLID_00000062886621189677703070000004467052130666539404_">
	
		<rect id="XMLID_00000062185647538868529910000016948830779902747021_" x="81.8" y="360.2" class="st0" width="105.6" height="16.8"/>
	<text transform="matrix(1 0 0 1 122.1539 370.1862)"><tspan x="0" y="0" class="st4 st2 st5">Cadast</tspan><tspan x="50" y="0" class="st4 st2 st5">r</tspan><tspan x="56.3" y="0" class="st4 st2 st5">o</tspan></text>
</g>
<path id="XMLID_00000078010403807515284340000012222664957604052112_" class="st6" d="M204,363.4l-6.3-6.3c-0.9-0.9-2.3-0.9-3.1,0
	c-0.9,0.9-0.9,2.3,0,3.1l4.7,4.7l-4.7,4.7c-0.9,0.9-0.9,2.3,0,3.1c0.9,0.9,2.3,0.9,3.1,0l6.3-6.3c0.4-0.4,0.7-1,0.6-1.6
	C204.6,364.5,204.4,363.9,204,363.4z"/>
<rect id="XMLID_00000137133639586367445620000009184551979016021127_" x="57.4" y="170.9" class="st0" width="103.8" height="25.1"/>
<text id="XMLID_1715_" transform="matrix(1 0 0 1 84.6432 189.1015)" class="st7 st2 st8">IDT</text>
<g>
	
		<image style="overflow:visible;opacity:0.25;" width="139" height="122" xlink:href="CF05B36E439AFDBF.png"  transform="matrix(1 0 0 1 56 65.9)">
	</image>
	<g>
		<g>
			<path class="st9" d="M90,102.1h-9.4c-3.9,0-7,3.1-7,7v46c0,3.9,3.1,7,7,7H90V102.1z"/>
			<path class="st10" d="M114.6,102.1H94v13.4h16.8c5.9,0,10.6,4.8,10.6,10.6v12.4c0,5.9-4.8,10.6-10.6,10.6H90v13h24.6
				c12.9,0,23.4-10.5,23.4-23.4v-13.3C138,112.6,127.5,102.1,114.6,102.1z"/>
			<circle class="st10" cx="81.8" cy="91.5" r="7.9"/>
			<circle class="st9" cx="130.1" cy="91.5" r="7.9"/>
			<g>
				<path class="st9" d="M138,125.5v0.6c0-5.9,4.8-10.6,10.6-10.6h20.8v-13.4h-24.6c-5.8,0-11,2.1-15.1,5.5
					C134.8,112,138,118.4,138,125.5z"/>
			</g>
		</g>
	</g>
</g>
</svg>
