<?xml version="1.0" encoding="utf-8"?>
<!-- Generator: Adobe Illustrator 26.3.1, SVG Export Plug-In . SVG Version: 6.00 Build 0)  -->
<svg version="1.1" id="Layer_2_00000043454704629524137550000007364288942958446512_"
	 xmlns="http://www.w3.org/2000/svg" xmlns:xlink="http://www.w3.org/1999/xlink" x="0px" y="0px" viewBox="0 0 105.4 186.6"
	 style="enable-background:new 0 0 105.4 186.6;" xml:space="preserve">
<style type="text/css">
	.st0{fill:none;}
	.st1{enable-background:new    ;}
	.st2{fill:#FFFFFF;}
	.st3{fill:#57B952;}
	.st4{clip-path:url(#SVGID_00000099632490205422526840000000429493741030617778_);}
	.st5{fill:#36ACE2;}
	.st6{fill:#F99E1D;}
	.st7{fill:#3733BF;}
	.st8{fill:#2B2B2B;}
	.st9{clip-path:url(#SVGID_00000119798831867948477130000009808045809644153535_);}
	.st10{fill:#828282;}
	.st11{fill:#AAAAAA;}
</style>
<g id="OBJECTS">
	<g>
		<rect x="0" class="st0" width="104.9" height="186.6"/>
	</g>
	<g class="st1">
		<path class="st2" d="M47.5,24l-1.8,4.3h-1L42.8,24h1.1l1.3,3l1.3-3H47.5z"/>
	</g>
	<g class="st1">
		<path class="st2" d="M50.4,26.4v1.9h-0.9v-0.4c-0.2,0.3-0.5,0.5-1,0.5c-0.8,0-1.2-0.4-1.2-1c0-0.6,0.4-1,1.4-1h0.8
			c0-0.4-0.2-0.6-0.8-0.6c-0.3,0-0.7,0.1-0.9,0.3l-0.3-0.7c0.4-0.3,0.9-0.4,1.4-0.4C49.8,24.9,50.4,25.4,50.4,26.4z M49.5,27.2v-0.3
			h-0.6c-0.4,0-0.6,0.2-0.6,0.4c0,0.2,0.2,0.4,0.5,0.4C49.1,27.7,49.4,27.5,49.5,27.2z"/>
	</g>
	<g class="st1">
		<path class="st2" d="M54.7,25v2.7c0,1.2-0.7,1.8-1.8,1.8c-0.6,0-1.2-0.2-1.6-0.4l0.4-0.7c0.3,0.2,0.7,0.4,1.2,0.4
			c0.7,0,1-0.3,1-0.9v-0.1c-0.2,0.3-0.6,0.4-1,0.4c-0.9,0-1.6-0.6-1.6-1.6c0-1,0.7-1.6,1.6-1.6c0.5,0,0.8,0.2,1.1,0.5V25H54.7z
			 M53.8,26.5c0-0.5-0.4-0.8-0.9-0.8S52,26,52,26.5c0,0.5,0.4,0.8,0.9,0.8S53.8,27,53.8,26.5z"/>
		<path class="st2" d="M58.5,26.4v1.9h-0.9v-0.4c-0.2,0.3-0.5,0.5-1,0.5c-0.8,0-1.2-0.4-1.2-1c0-0.6,0.4-1,1.4-1h0.8
			c0-0.4-0.2-0.6-0.8-0.6c-0.3,0-0.7,0.1-0.9,0.3l-0.3-0.7c0.4-0.3,0.9-0.4,1.4-0.4C57.9,24.9,58.5,25.4,58.5,26.4z M57.5,27.2v-0.3
			h-0.6c-0.4,0-0.6,0.2-0.6,0.4c0,0.2,0.2,0.4,0.5,0.4C57.1,27.7,57.4,27.5,57.5,27.2z"/>
		<path class="st2" d="M59,28l0.3-0.7c0.3,0.2,0.7,0.3,1.1,0.3c0.4,0,0.6-0.1,0.6-0.3c0-0.5-2,0-2-1.3c0-0.6,0.6-1.1,1.5-1.1
			c0.5,0,0.9,0.1,1.3,0.3l-0.3,0.7c-0.3-0.2-0.6-0.2-0.9-0.2c-0.4,0-0.6,0.1-0.6,0.3c0,0.6,2,0,2,1.3c0,0.6-0.6,1-1.5,1
			C59.9,28.3,59.3,28.2,59,28z"/>
	</g>
	<g>
		<path class="st2" d="M11.8,25L11.8,25c0.2-0.2,0.4-0.2,0.6,0l1.1,1.1c0.2,0.2,0.2,0.4,0,0.6l0,0c-0.2,0.2-0.4,0.2-0.6,0l-1.1-1.1
			C11.6,25.4,11.6,25.2,11.8,25z"/>
	</g>
	<g>
		<path class="st2" d="M13.5,23.9L13.5,23.9c0.2,0.2,0.2,0.4,0,0.6l-1.1,1.1c-0.2,0.2-0.4,0.2-0.6,0l0,0c-0.2-0.2-0.2-0.4,0-0.6
			l1.1-1.1C13,23.7,13.3,23.7,13.5,23.9z"/>
	</g>
	<g>
		<path class="st2" d="M93.5,25L93.5,25c-0.2-0.2-0.4-0.2-0.6,0l-1.1,1.1c-0.2,0.2-0.2,0.4,0,0.6l0,0c0.2,0.2,0.4,0.2,0.6,0l1.1-1.1
			C93.6,25.4,93.6,25.2,93.5,25z"/>
	</g>
	<g>
		<path class="st2" d="M91.8,23.9L91.8,23.9c-0.2,0.2-0.2,0.4,0,0.6l1.1,1.1c0.2,0.2,0.4,0.2,0.6,0l0,0c0.2-0.2,0.2-0.4,0-0.6
			l-1.1-1.1C92.2,23.7,91.9,23.7,91.8,23.9z"/>
	</g>
	<g>
		<path class="st3" d="M15.3,138.1h74.1c1.7,0,3.1,1.4,3.1,3.1v25.8c0,1.7-1.4,3.1-3.1,3.1H15.3c-1.7,0-3.1-1.4-3.1-3.1v-25.8
			C12.3,139.4,13.6,138.1,15.3,138.1z"/>
	</g>
	<g>
		<defs>
			<path id="SVGID_1_" d="M15.3,138.1h74.1c1.7,0,3.1,1.4,3.1,3.1v25.8c0,1.7-1.4,3.1-3.1,3.1H15.3c-1.7,0-3.1-1.4-3.1-3.1v-25.8
				C12.3,139.4,13.6,138.1,15.3,138.1z"/>
		</defs>
		<clipPath id="SVGID_00000068676203217008588070000010525258830899298734_">
			<use xlink:href="#SVGID_1_"  style="overflow:visible;"/>
		</clipPath>
		<g style="clip-path:url(#SVGID_00000068676203217008588070000010525258830899298734_);">
			<g>
				<circle class="st5" cx="-13.9" cy="117.5" r="72.8"/>
			</g>
		</g>
	</g>
	<g class="st1">
		<path class="st2" d="M19,149h0.8v3.5H19V149z"/>
	</g>
	<g class="st1">
		<path class="st2" d="M23.4,150.9v1.6h-0.8v-1.4c0-0.4-0.2-0.6-0.6-0.6c-0.4,0-0.7,0.2-0.7,0.7v1.3h-0.8v-2.7h0.8v0.3
			c0.2-0.2,0.5-0.4,0.9-0.4C22.9,149.7,23.4,150.1,23.4,150.9z"/>
	</g>
	<g class="st1">
		<path class="st2" d="M26.9,148.8v3.8h-0.8v-0.3c-0.2,0.2-0.5,0.4-0.9,0.4c-0.8,0-1.4-0.5-1.4-1.4c0-0.9,0.6-1.4,1.4-1.4
			c0.3,0,0.6,0.1,0.8,0.3v-1.3H26.9z M26.1,151.1c0-0.5-0.3-0.8-0.7-0.8c-0.4,0-0.7,0.3-0.7,0.8c0,0.5,0.3,0.8,0.7,0.8
			C25.8,151.9,26.1,151.6,26.1,151.1z"/>
		<path class="st2" d="M27.5,149c0-0.2,0.2-0.4,0.5-0.4c0.3,0,0.5,0.2,0.5,0.4c0,0.3-0.2,0.5-0.5,0.5
			C27.7,149.4,27.5,149.2,27.5,149z M27.6,149.8h0.8v2.7h-0.8V149.8z"/>
		<path class="st2" d="M31.9,149.8v3.7h-0.8v-1.3c-0.2,0.2-0.5,0.3-0.8,0.3c-0.8,0-1.4-0.5-1.4-1.4c0-0.9,0.6-1.4,1.4-1.4
			c0.4,0,0.7,0.1,0.9,0.4v-0.3H31.9z M31.1,151.1c0-0.5-0.3-0.8-0.7-0.8c-0.4,0-0.7,0.3-0.7,0.8c0,0.5,0.3,0.8,0.7,0.8
			C30.8,151.9,31.1,151.6,31.1,151.1z"/>
		<path class="st2" d="M35.4,149.8v2.7h-0.7v-0.3c-0.2,0.2-0.5,0.4-0.8,0.4c-0.7,0-1.2-0.4-1.2-1.2v-1.5h0.8v1.4
			c0,0.5,0.2,0.7,0.6,0.7c0.4,0,0.6-0.2,0.6-0.7v-1.3H35.4z"/>
		<path class="st2" d="M38.8,151.4h-2.1c0.1,0.3,0.4,0.5,0.8,0.5c0.3,0,0.5-0.1,0.7-0.3l0.4,0.5c-0.3,0.3-0.6,0.4-1.1,0.4
			c-0.9,0-1.6-0.6-1.6-1.4c0-0.8,0.6-1.4,1.5-1.4c0.8,0,1.4,0.5,1.4,1.4C38.8,151.2,38.8,151.3,38.8,151.4z M36.7,150.9H38
			c-0.1-0.3-0.3-0.6-0.7-0.6C37,150.3,36.8,150.6,36.7,150.9z"/>
		<path class="st2" d="M43.5,149.8v2.7h-0.8v-0.3c-0.2,0.2-0.5,0.4-0.8,0.4c-0.7,0-1.2-0.4-1.2-1.2v-1.5h0.8v1.4
			c0,0.5,0.2,0.7,0.6,0.7c0.4,0,0.6-0.2,0.6-0.7v-1.3H43.5z"/>
		<path class="st2" d="M48.8,150.9v1.6h-0.8v-1.4c0-0.4-0.2-0.6-0.5-0.6c-0.4,0-0.6,0.2-0.6,0.7v1.4h-0.8v-1.4
			c0-0.4-0.2-0.6-0.5-0.6c-0.3,0-0.6,0.2-0.6,0.7v1.4h-0.8v-2.7H45v0.3c0.2-0.2,0.5-0.4,0.9-0.4c0.4,0,0.7,0.1,0.9,0.4
			c0.2-0.3,0.6-0.4,1-0.4C48.4,149.7,48.8,150.1,48.8,150.9z"/>
		<path class="st2" d="M52,151v1.6h-0.7v-0.3c-0.1,0.2-0.4,0.4-0.8,0.4c-0.6,0-1-0.4-1-0.8c0-0.5,0.3-0.8,1.2-0.8h0.6
			c0-0.3-0.2-0.5-0.6-0.5c-0.3,0-0.6,0.1-0.8,0.3l-0.3-0.6c0.3-0.2,0.7-0.3,1.2-0.3C51.5,149.7,52,150.1,52,151z M51.2,151.6v-0.3
			h-0.5c-0.4,0-0.5,0.1-0.5,0.3c0,0.2,0.2,0.3,0.4,0.3C50.9,152,51.1,151.9,51.2,151.6z"/>
	</g>
	<g class="st1">
		<path class="st2" d="M21.6,155.9l-1.1,2.7h-0.8l-1.1-2.7h0.8l0.8,1.9l0.8-1.9H21.6z"/>
	</g>
	<g class="st1">
		<path class="st2" d="M24.3,157v1.6h-0.7v-0.3c-0.1,0.2-0.4,0.4-0.8,0.4c-0.6,0-1-0.4-1-0.8c0-0.5,0.3-0.8,1.2-0.8h0.6
			c0-0.3-0.2-0.5-0.6-0.5c-0.3,0-0.6,0.1-0.8,0.3l-0.3-0.6c0.3-0.2,0.7-0.3,1.2-0.3C23.8,155.8,24.3,156.2,24.3,157z M23.5,157.7
			v-0.3h-0.5c-0.4,0-0.5,0.1-0.5,0.3c0,0.2,0.2,0.3,0.4,0.3C23.2,158.1,23.4,158,23.5,157.7z"/>
	</g>
	<g class="st1">
		<path class="st2" d="M27.8,155.9v2.3c0,1-0.5,1.5-1.5,1.5c-0.5,0-1-0.1-1.3-0.4l0.3-0.6c0.2,0.2,0.6,0.3,1,0.3
			c0.6,0,0.8-0.3,0.8-0.7v-0.1c-0.2,0.2-0.5,0.3-0.9,0.3c-0.8,0-1.4-0.5-1.4-1.3c0-0.8,0.6-1.3,1.4-1.3c0.4,0,0.7,0.1,0.9,0.4v-0.3
			H27.8z M27,157.1c0-0.4-0.3-0.7-0.7-0.7c-0.4,0-0.7,0.3-0.7,0.7c0,0.4,0.3,0.7,0.7,0.7C26.7,157.8,27,157.5,27,157.1z"/>
		<path class="st2" d="M31,157v1.6h-0.7v-0.3c-0.1,0.2-0.4,0.4-0.8,0.4c-0.6,0-1-0.4-1-0.8c0-0.5,0.3-0.8,1.2-0.8h0.6
			c0-0.3-0.2-0.5-0.6-0.5c-0.3,0-0.6,0.1-0.8,0.3l-0.3-0.6c0.3-0.2,0.7-0.3,1.2-0.3C30.5,155.8,31,156.2,31,157z M30.2,157.7v-0.3
			h-0.5c-0.4,0-0.5,0.1-0.5,0.3c0,0.2,0.2,0.3,0.4,0.3C29.9,158.1,30.1,158,30.2,157.7z"/>
		<path class="st2" d="M35.5,157v1.6h-0.7v-0.3c-0.1,0.2-0.4,0.4-0.8,0.4c-0.6,0-1-0.4-1-0.8c0-0.5,0.3-0.8,1.2-0.8h0.6
			c0-0.3-0.2-0.5-0.6-0.5c-0.3,0-0.6,0.1-0.8,0.3l-0.3-0.6c0.3-0.2,0.7-0.3,1.2-0.3C35,155.8,35.5,156.2,35.5,157z M34.7,157.7v-0.3
			h-0.5c-0.4,0-0.5,0.1-0.5,0.3c0,0.2,0.2,0.3,0.4,0.3C34.4,158.1,34.6,158,34.7,157.7z"/>
		<path class="st2" d="M40.4,155.9v2.7h-0.7v-0.3c-0.2,0.2-0.5,0.4-0.8,0.4c-0.7,0-1.2-0.4-1.2-1.2v-1.5h0.8v1.4
			c0,0.5,0.2,0.7,0.6,0.7c0.4,0,0.6-0.2,0.6-0.7v-1.3H40.4z"/>
		<path class="st2" d="M45.8,157v1.6H45v-1.4c0-0.4-0.2-0.6-0.5-0.6c-0.4,0-0.6,0.2-0.6,0.7v1.4h-0.8v-1.4c0-0.4-0.2-0.6-0.5-0.6
			c-0.3,0-0.6,0.2-0.6,0.7v1.4h-0.8v-2.7h0.8v0.3c0.2-0.2,0.5-0.4,0.9-0.4c0.4,0,0.7,0.1,0.9,0.4c0.2-0.3,0.6-0.4,1-0.4
			C45.3,155.8,45.8,156.2,45.8,157z"/>
		<path class="st2" d="M50.3,157v1.6h-0.7v-0.3c-0.1,0.2-0.4,0.4-0.8,0.4c-0.6,0-1-0.4-1-0.8c0-0.5,0.3-0.8,1.2-0.8h0.6
			c0-0.3-0.2-0.5-0.6-0.5c-0.3,0-0.6,0.1-0.8,0.3l-0.3-0.6c0.3-0.2,0.7-0.3,1.2-0.3C49.8,155.8,50.3,156.2,50.3,157z M49.5,157.7
			v-0.3H49c-0.4,0-0.5,0.1-0.5,0.3c0,0.2,0.2,0.3,0.4,0.3C49.2,158.1,49.4,158,49.5,157.7z"/>
		<path class="st2" d="M55.6,157v1.6h-0.8v-1.4c0-0.4-0.2-0.6-0.5-0.6c-0.4,0-0.6,0.2-0.6,0.7v1.4h-0.8v-1.4c0-0.4-0.2-0.6-0.5-0.6
			c-0.3,0-0.6,0.2-0.6,0.7v1.4H51v-2.7h0.8v0.3c0.2-0.2,0.5-0.4,0.9-0.4c0.4,0,0.7,0.1,0.9,0.4c0.2-0.3,0.6-0.4,1-0.4
			C55.2,155.8,55.6,156.2,55.6,157z"/>
		<path class="st2" d="M56.3,155c0-0.2,0.2-0.4,0.5-0.4s0.5,0.2,0.5,0.4c0,0.3-0.2,0.5-0.5,0.5S56.3,155.3,56.3,155z M56.4,155.9
			h0.8v2.7h-0.8V155.9z"/>
		<path class="st2" d="M60.7,155.9v2.3c0,1-0.5,1.5-1.5,1.5c-0.5,0-1-0.1-1.3-0.4l0.3-0.6c0.2,0.2,0.6,0.3,1,0.3
			c0.6,0,0.8-0.3,0.8-0.7v-0.1c-0.2,0.2-0.5,0.3-0.9,0.3c-0.8,0-1.4-0.5-1.4-1.3c0-0.8,0.6-1.3,1.4-1.3c0.4,0,0.7,0.1,0.9,0.4v-0.3
			H60.7z M59.9,157.1c0-0.4-0.3-0.7-0.7-0.7s-0.7,0.3-0.7,0.7c0,0.4,0.3,0.7,0.7,0.7S59.9,157.5,59.9,157.1z"/>
		<path class="st2" d="M61.2,157.2c0-0.8,0.6-1.4,1.5-1.4s1.5,0.6,1.5,1.4c0,0.8-0.6,1.4-1.5,1.4S61.2,158,61.2,157.2z M63.4,157.2
			c0-0.5-0.3-0.8-0.7-0.8c-0.4,0-0.7,0.3-0.7,0.8c0,0.5,0.3,0.8,0.7,0.8C63.1,158,63.4,157.7,63.4,157.2z"/>
	</g>
	<g>
		<g>
			<path class="st2" d="M80.9,153.8C80.9,153.8,80.9,153.8,80.9,153.8c-0.1,0-0.2-0.1-0.2-0.1c-0.1-0.2-0.1-0.3-0.2-0.5
				c-0.1-0.3-0.2-0.7-0.3-1c0,0,0-0.1,0-0.1c0-0.1,0-0.1,0.1-0.2l0,0l0.3-0.5c0,0,0.1-0.2,0.5-0.6c0.1-0.1,0.3-0.3,0.4-0.4
				c0.3-0.3,0.5-0.5,0.8-0.4c0.4,0,0.6,0.4,0.6,0.4c0,0.1,0,0.1,0,0.2l-1.8,3.3C81,153.7,81,153.8,80.9,153.8z M80.7,151.9
				C80.7,151.9,80.7,151.9,80.7,151.9c0.1,0.4,0.2,0.7,0.3,1.1c0,0,0,0,0,0.1l1.5-2.8c0-0.1-0.1-0.1-0.2-0.1c-0.1,0-0.3,0.1-0.5,0.3
				c-0.1,0.2-0.3,0.3-0.4,0.4c-0.3,0.4-0.5,0.5-0.5,0.5L80.7,151.9z"/>
		</g>
		<g>
			<path class="st2" d="M80.7,153.2c-0.1,0-0.2-0.1-0.2-0.2c-0.1-0.3-0.2-0.7-0.3-1c0,0,0-0.1,0-0.1c-0.1-0.3-0.1-0.6-0.2-0.9
				c0,0,0-0.1,0-0.1v0l0.5-2.6c0-0.1,0.1-0.3,0.1-0.4c0.2-0.3,0.6-0.5,1-0.5c0,0,0.1,0,0.2,0l0.1,0c0.1,0,0.1,0,0.1,0.1s0,0.1,0,0.2
				l-1.1,5.3C80.9,153.2,80.8,153.2,80.7,153.2C80.7,153.2,80.7,153.2,80.7,153.2z M80.5,151C80.5,151,80.5,151,80.5,151
				c0.1,0.3,0.1,0.6,0.2,0.9c0,0,0,0.1,0,0.1c0,0.1,0,0.1,0.1,0.2l0.9-4.3c-0.2,0-0.5,0.1-0.6,0.3c0,0.1-0.1,0.2-0.1,0.2L80.5,151z"
				/>
		</g>
		<g>
			<path class="st2" d="M80.5,152.2c-0.1,0-0.1,0-0.2-0.1c0,0,0-0.1,0-0.1c-0.1-0.3-0.1-0.7-0.2-1c-0.2-1-0.2-2-0.2-2.9
				c0-0.3,0-0.6,0-0.8v-0.1c0,0,0-0.1,0-0.1c0.2-0.5,0.7-0.8,1.2-0.9c0.1,0,0.1,0,0.2,0.1c0,0,0.1,0.1,0.1,0.2l-0.2,1.8l-0.4,3.7
				l0,0.1C80.7,152.1,80.6,152.1,80.5,152.2C80.5,152.2,80.5,152.2,80.5,152.2z M80.2,147.2L80.2,147.2c0,0.3,0,0.6,0,0.9
				c0,0.8,0.1,1.6,0.2,2.5l0.4-3.9C80.6,146.7,80.4,146.9,80.2,147.2z"/>
		</g>
		<g>
			<path class="st2" d="M78.8,161.1c0,0-0.1,0-0.1-0.1l-0.8-0.7c-1.4-1.2-2.5-2.7-3.4-4.2l-1-1.7c-0.1-0.2-0.2-0.5-0.2-0.7
				c0,0,0,0,0,0c0,0,0,0,0,0c0,0,0,0,0,0c0,0,0,0,0,0c0-0.6,0.4-1.2,1-1.3c0.1,0,0.2,0,0.2,0.1l1.7,2.4c0.1,0.2,0.3,0.2,0.5,0.2
				c0.2,0,0.3-0.2,0.4-0.3l0.5-1.7l0.9-6.3c0.1-0.9,0.8-1.7,1.7-1.9c0.1,0,0.1,0,0.2,0c0,0,0.1,0.1,0.1,0.2l-0.1,2.2
				c0,0.3,0,0.6,0,0.8c0,1,0.1,2,0.2,2.9c0,0.3,0.1,0.6,0.2,0.8l0,0.1c0,0,0,0.1,0,0.1c0.1,0.4,0.2,0.7,0.3,1.1
				c0.1,0.2,0.1,0.3,0.2,0.5c0.1,0.4,0.3,0.7,0.4,1.1l1.2,4.6c0,0.1,0,0.2-0.1,0.2L78.8,161.1C78.9,161.1,78.9,161.1,78.8,161.1z
				 M73.7,153.7c0,0.2,0.1,0.4,0.2,0.5l1,1.7c0.9,1.5,2,2.9,3.4,4.1l0.7,0.6l3.3-1.5l-1.1-4.4c-0.1-0.4-0.3-0.7-0.4-1.1
				c-0.1-0.2-0.1-0.3-0.2-0.5c-0.1-0.4-0.2-0.7-0.3-1.1c0,0,0-0.1,0-0.1l0-0.1c-0.1-0.3-0.1-0.6-0.2-0.8c-0.2-0.9-0.2-1.9-0.2-2.9
				c0-0.3,0-0.6,0-0.8v-0.1l0.1-1.8c-0.6,0.3-1,0.8-1.1,1.5l-0.9,6.3l-0.5,1.7c-0.1,0.3-0.3,0.6-0.7,0.6c-0.3,0.1-0.7-0.1-0.9-0.3
				l-1.6-2.3C73.9,153,73.7,153.3,73.7,153.7z"/>
		</g>
		<g>
			<path class="st2" d="M79.5,164.5C79.4,164.5,79.4,164.5,79.5,164.5c-0.1-0.1-0.2-0.1-0.2-0.2l-0.6-3.4c0-0.1,0-0.2,0.1-0.2
				l3.6-1.7c0.1,0,0.2,0,0.3,0.1l1.9,3c0,0,0,0.1,0,0.2s-0.1,0.1-0.1,0.1L79.5,164.5C79.5,164.5,79.5,164.5,79.5,164.5z M79.1,161
				l0.5,3l4.5-1.9l-1.7-2.6L79.1,161z"/>
		</g>
	</g>
	<g>
		<path class="st2" d="M52.8,166.4L52.8,166.4c0.2-0.2,0.2-0.4,0-0.6l-1.1-1.1c-0.2-0.2-0.4-0.2-0.6,0l0,0c-0.2,0.2-0.2,0.4,0,0.6
			l1.1,1.1C52.4,166.5,52.6,166.5,52.8,166.4z"/>
	</g>
	<g>
		<path class="st2" d="M53.9,164.7L53.9,164.7c-0.2-0.2-0.4-0.2-0.6,0l-1.1,1.1c-0.2,0.2-0.2,0.4,0,0.6l0,0c0.2,0.2,0.4,0.2,0.6,0
			l1.1-1.1C54.1,165.1,54.1,164.8,53.9,164.7z"/>
	</g>
	<g>
		<path class="st2" d="M13.8,104.2h19.9c0.8,0,1.5,0.7,1.5,1.5v19.9c0,0.8-0.7,1.5-1.5,1.5H13.8c-0.8,0-1.5-0.7-1.5-1.5v-19.9
			C12.3,104.9,13,104.2,13.8,104.2z"/>
	</g>
	<g>
		<g>
			<path class="st6" d="M25.2,117.8c0,0-0.1,0-0.1,0l-1.1-0.9c0,0,0-0.1-0.1-0.1c0,0,0-0.1,0-0.1l1.1-1.4c0-0.1,0.1-0.1,0.2-0.1
				s0.1,0.1,0.1,0.2v2.3C25.4,117.7,25.3,117.8,25.2,117.8C25.2,117.8,25.2,117.8,25.2,117.8L25.2,117.8z M24.3,116.7l0.8,0.6v-1.6
				L24.3,116.7z"/>
		</g>
		<g>
			<path class="st7" d="M22.6,117.2c0,0-0.1,0-0.1-0.1l-2.9-4.1c0-0.1,0-0.1,0-0.2c0-0.1,0.1-0.1,0.2,0l5.4,2.5c0,0,0.1,0.1,0.1,0.1
				s0,0.1-0.1,0.1L22.6,117.2C22.7,117.1,22.7,117.1,22.6,117.2L22.6,117.2z"/>
		</g>
		<g>
			<path class="st7" d="M26.5,115.1l-5.1-1.3l-1.7-0.8c-0.1,0-0.1-0.1-0.1-0.2c0-0.1,0.1-0.1,0.2-0.1l8.2,1.8c0.1,0,0.1,0.1,0.1,0.2
				s0,0.1-0.1,0.2C28,114.8,26.5,115.2,26.5,115.1L26.5,115.1z"/>
		</g>
	</g>
	<g class="st1">
		<path class="st8" d="M17.5,123.7c0,0.3-0.2,0.4-0.6,0.4H16v-1.6h0.8c0.4,0,0.6,0.2,0.6,0.4c0,0.2-0.1,0.3-0.2,0.4
			C17.4,123.4,17.5,123.5,17.5,123.7z M16.4,122.8v0.4h0.4c0.2,0,0.3-0.1,0.3-0.2s-0.1-0.2-0.3-0.2H16.4z M17.1,123.7
			c0-0.1-0.1-0.2-0.3-0.2h-0.4v0.4h0.4C17,123.9,17.1,123.8,17.1,123.7z"/>
		<path class="st8" d="M19,122.9v1.2h-0.3V124c-0.1,0.1-0.2,0.2-0.4,0.2c-0.3,0-0.5-0.2-0.5-0.6v-0.7h0.4v0.6c0,0.2,0.1,0.3,0.2,0.3
			c0.2,0,0.3-0.1,0.3-0.3v-0.6H19z"/>
		<path class="st8" d="M19.2,124l0.1-0.3c0.1,0.1,0.3,0.1,0.4,0.1c0.2,0,0.2,0,0.2-0.1c0-0.2-0.7,0-0.7-0.5c0-0.2,0.2-0.4,0.6-0.4
			c0.2,0,0.4,0,0.5,0.1l-0.1,0.3c-0.1-0.1-0.2-0.1-0.4-0.1c-0.2,0-0.2,0-0.2,0.1c0,0.2,0.7,0,0.7,0.5c0,0.2-0.2,0.4-0.6,0.4
			C19.5,124.2,19.3,124.1,19.2,124z"/>
		<path class="st8" d="M20.4,123.5c0-0.4,0.3-0.6,0.7-0.6c0.3,0,0.5,0.1,0.5,0.3l-0.3,0.1c-0.1-0.1-0.2-0.2-0.3-0.2
			c-0.2,0-0.3,0.1-0.3,0.3s0.1,0.3,0.3,0.3c0.1,0,0.2-0.1,0.3-0.2l0.3,0.2c-0.1,0.2-0.3,0.3-0.5,0.3
			C20.7,124.2,20.4,123.9,20.4,123.5z"/>
		<path class="st8" d="M23,123.5v0.7h-0.3V124c-0.1,0.1-0.2,0.2-0.4,0.2c-0.3,0-0.5-0.2-0.5-0.4c0-0.2,0.2-0.4,0.5-0.4h0.3
			c0-0.2-0.1-0.2-0.3-0.2c-0.1,0-0.3,0-0.4,0.1l-0.1-0.2c0.1-0.1,0.3-0.1,0.5-0.1C22.7,122.9,23,123.1,23,123.5z M22.6,123.8v-0.1
			h-0.2c-0.2,0-0.2,0.1-0.2,0.1c0,0.1,0.1,0.1,0.2,0.1C22.5,123.9,22.6,123.9,22.6,123.8z"/>
		<path class="st8" d="M24,122.9v0.3c0,0-0.1,0-0.1,0c-0.2,0-0.3,0.1-0.3,0.3v0.6h-0.4v-1.2h0.3v0.2C23.7,123,23.9,122.9,24,122.9z"
			/>
	</g>
	<g class="st1">
		<path class="st8" d="M26.1,122.9l-0.5,1.2h-0.4l-0.5-1.2h0.4l0.3,0.8l0.4-0.8H26.1z"/>
	</g>
	<g class="st1">
		<path class="st8" d="M27.3,123.5v0.7H27V124c-0.1,0.1-0.2,0.2-0.4,0.2c-0.3,0-0.5-0.2-0.5-0.4c0-0.2,0.2-0.4,0.5-0.4H27
			c0-0.2-0.1-0.2-0.3-0.2c-0.1,0-0.3,0-0.4,0.1l-0.1-0.2c0.1-0.1,0.3-0.1,0.5-0.1C27.1,122.9,27.3,123.1,27.3,123.5z M27,123.8v-0.1
			h-0.2c-0.2,0-0.2,0.1-0.2,0.1c0,0.1,0.1,0.1,0.2,0.1C26.8,123.9,26.9,123.9,27,123.8z"/>
	</g>
	<g class="st1">
		<path class="st8" d="M28.9,122.9v1c0,0.5-0.2,0.7-0.7,0.7c-0.2,0-0.5-0.1-0.6-0.2l0.1-0.3c0.1,0.1,0.3,0.1,0.4,0.1
			c0.3,0,0.4-0.1,0.4-0.3v-0.1c-0.1,0.1-0.2,0.2-0.4,0.2c-0.3,0-0.6-0.2-0.6-0.6c0-0.4,0.3-0.6,0.6-0.6c0.2,0,0.3,0.1,0.4,0.2v-0.2
			H28.9z M28.6,123.5c0-0.2-0.1-0.3-0.3-0.3s-0.3,0.1-0.3,0.3s0.1,0.3,0.3,0.3S28.6,123.7,28.6,123.5z"/>
		<path class="st8" d="M30.3,123.5v0.7H30V124c-0.1,0.1-0.2,0.2-0.4,0.2c-0.3,0-0.5-0.2-0.5-0.4c0-0.2,0.2-0.4,0.5-0.4H30
			c0-0.2-0.1-0.2-0.3-0.2c-0.1,0-0.3,0-0.4,0.1l-0.1-0.2c0.1-0.1,0.3-0.1,0.5-0.1C30.1,122.9,30.3,123.1,30.3,123.5z M30,123.8v-0.1
			h-0.2c-0.2,0-0.2,0.1-0.2,0.1c0,0.1,0.1,0.1,0.2,0.1C29.8,123.9,29.9,123.9,30,123.8z"/>
		<path class="st8" d="M30.5,124l0.1-0.3c0.1,0.1,0.3,0.1,0.4,0.1c0.2,0,0.2,0,0.2-0.1c0-0.2-0.7,0-0.7-0.5c0-0.2,0.2-0.4,0.6-0.4
			c0.2,0,0.4,0,0.5,0.1l-0.1,0.3c-0.1-0.1-0.2-0.1-0.4-0.1c-0.2,0-0.2,0-0.2,0.1c0,0.2,0.7,0,0.7,0.5c0,0.2-0.2,0.4-0.6,0.4
			C30.9,124.2,30.7,124.1,30.5,124z"/>
	</g>
	<g>
		<path class="st2" d="M42.6,104.2h19.9c0.8,0,1.5,0.7,1.5,1.5v19.9c0,0.8-0.7,1.5-1.5,1.5H42.6c-0.8,0-1.5-0.7-1.5-1.5v-19.9
			C41.1,104.9,41.7,104.2,42.6,104.2z"/>
	</g>
	<g class="st1">
		<path class="st8" d="M47.9,124.2l0-1l-0.5,0.8h-0.2l-0.5-0.8v0.9h-0.3v-1.6h0.3l0.6,1l0.6-1h0.3l0,1.6H47.9z"/>
		<path class="st8" d="M49.8,123.6h-0.9c0,0.2,0.2,0.2,0.4,0.2c0.1,0,0.2,0,0.3-0.1l0.2,0.2c-0.1,0.1-0.3,0.2-0.5,0.2
			c-0.4,0-0.7-0.3-0.7-0.6c0-0.4,0.3-0.6,0.7-0.6C49.5,122.9,49.8,123.2,49.8,123.6C49.8,123.6,49.8,123.6,49.8,123.6z M48.8,123.4
			h0.6c0-0.2-0.1-0.3-0.3-0.3C49,123.2,48.9,123.3,48.8,123.4z"/>
		<path class="st8" d="M51.3,122.9v1.2h-0.3V124c-0.1,0.1-0.2,0.2-0.4,0.2c-0.3,0-0.5-0.2-0.5-0.6v-0.7h0.4v0.6
			c0,0.2,0.1,0.3,0.2,0.3c0.2,0,0.3-0.1,0.3-0.3v-0.6H51.3z"/>
	</g>
	<g class="st1">
		<path class="st8" d="M53.6,123.1c0,0.4-0.3,0.6-0.7,0.6h-0.3v0.4h-0.4v-1.6h0.7C53.4,122.6,53.6,122.8,53.6,123.1z M53.3,123.1
			c0-0.2-0.1-0.3-0.3-0.3h-0.3v0.6h0.3C53.2,123.4,53.3,123.3,53.3,123.1z"/>
	</g>
	<g class="st1">
		<path class="st8" d="M55.1,123.6h-0.9c0,0.2,0.2,0.2,0.4,0.2c0.1,0,0.2,0,0.3-0.1L55,124c-0.1,0.1-0.3,0.2-0.5,0.2
			c-0.4,0-0.7-0.3-0.7-0.6c0-0.4,0.3-0.6,0.7-0.6C54.8,122.9,55.1,123.2,55.1,123.6C55.1,123.6,55.1,123.6,55.1,123.6z M54.1,123.4
			h0.6c0-0.2-0.1-0.3-0.3-0.3C54.3,123.2,54.2,123.3,54.1,123.4z"/>
	</g>
	<g class="st1">
		<path class="st8" d="M56.1,122.9v0.3c0,0-0.1,0-0.1,0c-0.2,0-0.3,0.1-0.3,0.3v0.6h-0.4v-1.2h0.3v0.2
			C55.7,123,55.9,122.9,56.1,122.9z"/>
	</g>
	<g class="st1">
		<path class="st8" d="M56.7,122.9L56.7,122.9L57,123v0.3h-0.3v0.9h-0.4v-0.9h-0.2V123h0.2v-0.1c0-0.3,0.2-0.5,0.5-0.5
			c0.1,0,0.2,0,0.3,0.1l-0.1,0.3c0,0-0.1,0-0.1,0C56.8,122.7,56.7,122.8,56.7,122.9z M57.3,122.6c0-0.1,0.1-0.2,0.2-0.2
			s0.2,0.1,0.2,0.2c0,0.1-0.1,0.2-0.2,0.2S57.3,122.7,57.3,122.6z M57.4,122.9h0.4v1.2h-0.4V122.9z"/>
		<path class="st8" d="M58.1,122.5h0.4v1.7h-0.4V122.5z"/>
	</g>
	<g>
		<path class="st2" d="M71.3,104.2h19.9c0.8,0,1.5,0.7,1.5,1.5v19.9c0,0.8-0.7,1.5-1.5,1.5H71.3c-0.8,0-1.5-0.7-1.5-1.5v-19.9
			C69.8,104.9,70.5,104.2,71.3,104.2z"/>
	</g>
	<g class="st1">
		<path class="st8" d="M72.5,123.4c0-0.5,0.4-0.8,0.9-0.8c0.3,0,0.5,0.1,0.7,0.3l-0.2,0.2c-0.1-0.1-0.2-0.2-0.4-0.2
			c-0.3,0-0.5,0.2-0.5,0.5s0.2,0.5,0.5,0.5c0.2,0,0.3-0.1,0.4-0.2l0.2,0.2c-0.1,0.2-0.4,0.3-0.7,0.3
			C72.9,124.2,72.5,123.8,72.5,123.4z"/>
	</g>
	<g class="st1">
		<path class="st8" d="M74.1,123.5c0-0.4,0.3-0.6,0.7-0.6s0.7,0.3,0.7,0.6s-0.3,0.6-0.7,0.6S74.1,123.9,74.1,123.5z M75.1,123.5
			c0-0.2-0.1-0.3-0.3-0.3c-0.2,0-0.3,0.1-0.3,0.3c0,0.2,0.1,0.3,0.3,0.3C75,123.9,75.1,123.8,75.1,123.5z"/>
		<path class="st8" d="M77,123.5v0.7h-0.4v-0.6c0-0.2-0.1-0.3-0.2-0.3c-0.2,0-0.3,0.1-0.3,0.3v0.6h-0.4v-1.2h0.3v0.1
			c0.1-0.1,0.2-0.2,0.4-0.2C76.7,122.9,77,123.1,77,123.5z"/>
		<path class="st8" d="M77.7,122.9L77.7,122.9L78,123v0.3h-0.3v0.9h-0.4v-0.9h-0.2V123h0.2v-0.1c0-0.3,0.2-0.5,0.5-0.5
			c0.1,0,0.2,0,0.3,0.1l-0.1,0.3c0,0-0.1,0-0.1,0C77.7,122.7,77.7,122.8,77.7,122.9z M78.3,122.6c0-0.1,0.1-0.2,0.2-0.2
			s0.2,0.1,0.2,0.2c0,0.1-0.1,0.2-0.2,0.2S78.3,122.7,78.3,122.6z M78.4,122.9h0.4v1.2h-0.4V122.9z"/>
		<path class="st8" d="M80.3,122.9v1c0,0.5-0.2,0.7-0.7,0.7c-0.2,0-0.5-0.1-0.6-0.2l0.1-0.3c0.1,0.1,0.3,0.1,0.4,0.1
			c0.3,0,0.4-0.1,0.4-0.3v-0.1c-0.1,0.1-0.2,0.2-0.4,0.2c-0.3,0-0.6-0.2-0.6-0.6c0-0.4,0.3-0.6,0.6-0.6c0.2,0,0.3,0.1,0.4,0.2v-0.2
			H80.3z M80,123.5c0-0.2-0.1-0.3-0.3-0.3s-0.3,0.1-0.3,0.3s0.1,0.3,0.3,0.3S80,123.7,80,123.5z"/>
		<path class="st8" d="M81.9,122.9v1.2h-0.3V124c-0.1,0.1-0.2,0.2-0.4,0.2c-0.3,0-0.5-0.2-0.5-0.6v-0.7H81v0.6
			c0,0.2,0.1,0.3,0.2,0.3c0.2,0,0.3-0.1,0.3-0.3v-0.6H81.9z"/>
	</g>
	<g class="st1">
		<path class="st8" d="M83,122.9v0.3c0,0-0.1,0-0.1,0c-0.2,0-0.3,0.1-0.3,0.3v0.6h-0.4v-1.2h0.3v0.2C82.6,123,82.8,122.9,83,122.9z"
			/>
	</g>
	<g class="st1">
		<path class="st8" d="M84.2,123.5v0.7h-0.3V124c-0.1,0.1-0.2,0.2-0.4,0.2c-0.3,0-0.5-0.2-0.5-0.4c0-0.2,0.2-0.4,0.5-0.4h0.3
			c0-0.2-0.1-0.2-0.3-0.2c-0.1,0-0.3,0-0.4,0.1l-0.1-0.2c0.1-0.1,0.3-0.1,0.5-0.1C84,122.9,84.2,123.1,84.2,123.5z M83.9,123.8v-0.1
			h-0.2c-0.2,0-0.2,0.1-0.2,0.1c0,0.1,0.1,0.1,0.2,0.1C83.7,123.9,83.8,123.9,83.9,123.8z"/>
	</g>
	<g class="st1">
		<path class="st8" d="M85.4,123.7l0.3,0.2c-0.1,0.2-0.3,0.3-0.5,0.3l0,0.1c0.1,0,0.2,0.1,0.2,0.2c0,0.1-0.1,0.2-0.3,0.2
			c-0.1,0-0.2,0-0.2,0l0.1-0.2c0,0,0.1,0,0.1,0c0.1,0,0.1,0,0.1-0.1c0,0,0-0.1-0.1-0.1H85l0.1-0.2c-0.3-0.1-0.5-0.3-0.5-0.6
			c0-0.4,0.3-0.6,0.7-0.6c0.3,0,0.5,0.1,0.5,0.3l-0.3,0.1c-0.1-0.1-0.2-0.2-0.3-0.2c-0.2,0-0.3,0.1-0.3,0.3s0.1,0.3,0.3,0.3
			C85.3,123.9,85.4,123.8,85.4,123.7z"/>
	</g>
	<g class="st1">
		<path class="st8" d="M85.8,123.5c0-0.4,0.3-0.6,0.7-0.6s0.7,0.3,0.7,0.6s-0.3,0.6-0.7,0.6S85.8,123.9,85.8,123.5z M86.3,122.6
			c-0.1,0-0.1,0-0.1,0.1h-0.2c0-0.2,0.1-0.3,0.3-0.3c0.2,0,0.2,0.1,0.3,0.1c0.1,0,0.1,0,0.1-0.1h0.2c0,0.2-0.1,0.3-0.3,0.3
			C86.5,122.8,86.4,122.6,86.3,122.6z M86.8,123.5c0-0.2-0.1-0.3-0.3-0.3c-0.2,0-0.3,0.1-0.3,0.3c0,0.2,0.1,0.3,0.3,0.3
			C86.7,123.9,86.8,123.8,86.8,123.5z"/>
		<path class="st8" d="M88.6,123.6h-0.9c0,0.2,0.2,0.2,0.4,0.2c0.1,0,0.2,0,0.3-0.1l0.2,0.2c-0.1,0.1-0.3,0.2-0.5,0.2
			c-0.4,0-0.7-0.3-0.7-0.6c0-0.4,0.3-0.6,0.7-0.6C88.3,122.9,88.6,123.2,88.6,123.6C88.6,123.6,88.6,123.6,88.6,123.6z M87.7,123.4
			h0.6c0-0.2-0.1-0.3-0.3-0.3C87.8,123.2,87.7,123.3,87.7,123.4z"/>
		<path class="st8" d="M88.7,124l0.1-0.3c0.1,0.1,0.3,0.1,0.4,0.1c0.2,0,0.2,0,0.2-0.1c0-0.2-0.7,0-0.7-0.5c0-0.2,0.2-0.4,0.6-0.4
			c0.2,0,0.4,0,0.5,0.1l-0.1,0.3c-0.1-0.1-0.2-0.1-0.4-0.1c-0.2,0-0.2,0-0.2,0.1c0,0.2,0.7,0,0.7,0.5c0,0.2-0.2,0.4-0.6,0.4
			C89.1,124.2,88.8,124.1,88.7,124z"/>
	</g>
	<g>
		<g>
			<path class="st7" d="M85.1,114.6l-0.5-0.1c-0.1,0-0.2-0.1-0.3-0.3c0-0.1-0.1-0.1-0.1-0.2c-0.1-0.1-0.1-0.3,0-0.4l0.3-0.5
				c0.1-0.2,0.1-0.4-0.1-0.5l-0.5-0.5c-0.1-0.1-0.4-0.2-0.5-0.1l-0.4,0.3c-0.1,0.1-0.3,0.1-0.4,0c-0.1,0-0.1-0.1-0.2-0.1
				c-0.1-0.1-0.2-0.2-0.3-0.3l-0.1-0.6c0-0.2-0.2-0.3-0.4-0.3H81c-0.2,0-0.4,0.1-0.4,0.3l-0.1,0.5c0,0.1-0.1,0.2-0.3,0.3
				c-0.1,0-0.1,0.1-0.2,0.1c-0.1,0.1-0.3,0.1-0.4,0l-0.5-0.3c-0.2-0.1-0.4-0.1-0.5,0.1l-0.5,0.5c-0.1,0.1-0.2,0.4-0.1,0.5l0.3,0.4
				c0.1,0.1,0.1,0.3,0,0.4c0,0.1-0.1,0.1-0.1,0.2c-0.1,0.1-0.2,0.2-0.3,0.3l-0.5,0.1c-0.2,0.1-0.3,0.2-0.3,0.4v0.7
				c0,0.2,0.1,0.4,0.3,0.4l0.5,0.1c0.1,0,0.2,0.1,0.3,0.3c0,0.1,0.1,0.1,0.1,0.2c0.1,0.1,0.1,0.3,0,0.4l-0.3,0.5
				c-0.1,0.2-0.1,0.4,0.1,0.5l0.5,0.5c0.1,0.1,0.4,0.2,0.5,0.1l0.4-0.3c0.1-0.1,0.3-0.1,0.4,0c0.1,0,0.1,0.1,0.2,0.1
				c0.1,0.1,0.2,0.2,0.3,0.3l0.1,0.5c0,0.2,0.2,0.3,0.4,0.3h0.7c0.2,0,0.4-0.1,0.4-0.3l0.1-0.5c0-0.1,0.1-0.2,0.3-0.3
				c0.1,0,0.1,0,0.2-0.1c0.1-0.1,0.3-0.1,0.4,0l0.5,0.3c0.2,0.1,0.4,0.1,0.5-0.1l0.5-0.5c0.1-0.1,0.2-0.3,0.1-0.5l-0.3-0.4
				c-0.1-0.1-0.1-0.3,0-0.4c0-0.1,0.1-0.1,0.1-0.2c0.1-0.1,0.2-0.2,0.3-0.3l0.5-0.1c0.2,0,0.3-0.2,0.3-0.4V115
				C85.4,114.8,85.3,114.6,85.1,114.6L85.1,114.6z M81.3,117c-0.9,0-1.7-0.8-1.7-1.7s0.8-1.7,1.7-1.7s1.7,0.8,1.7,1.7
				S82.2,117,81.3,117z"/>
		</g>
		<g>
			<path class="st6" d="M81.3,117.2c-1,0-1.9-0.8-1.9-1.9s0.8-1.9,1.9-1.9s1.9,0.8,1.9,1.9S82.3,117.2,81.3,117.2z M81.3,113.8
				c-0.8,0-1.5,0.7-1.5,1.5s0.7,1.5,1.5,1.5s1.5-0.7,1.5-1.5S82.1,113.8,81.3,113.8z"/>
		</g>
	</g>
	<g class="st1">
		<path class="st8" d="M36.4,95v2.8h-0.5l-1.4-1.7v1.7h-0.6V95h0.5l1.4,1.7V95H36.4z"/>
	</g>
	<g class="st1">
		<path class="st8" d="M39,96.5v1.2h-0.6v-0.3c-0.1,0.2-0.3,0.3-0.7,0.3c-0.5,0-0.8-0.3-0.8-0.7c0-0.4,0.3-0.7,0.9-0.7h0.5
			c0-0.3-0.2-0.4-0.5-0.4c-0.2,0-0.5,0.1-0.6,0.2L37,95.8c0.2-0.2,0.6-0.3,0.9-0.3C38.6,95.6,39,95.9,39,96.5z M38.3,97.1v-0.2h-0.4
			c-0.3,0-0.4,0.1-0.4,0.3c0,0.2,0.1,0.3,0.4,0.3C38.1,97.4,38.3,97.3,38.3,97.1z"/>
	</g>
	<g class="st1">
		<path class="st8" d="M41.7,95.6l-0.9,2.2h-0.7l-0.9-2.2h0.7l0.6,1.5l0.6-1.5H41.7z"/>
	</g>
	<g class="st1">
		<path class="st8" d="M44,96.9h-1.6c0.1,0.3,0.3,0.4,0.6,0.4c0.2,0,0.4-0.1,0.5-0.2l0.3,0.4c-0.2,0.2-0.5,0.4-0.9,0.4
			c-0.8,0-1.2-0.5-1.2-1.1c0-0.7,0.5-1.1,1.2-1.1c0.6,0,1.1,0.4,1.1,1.1C44,96.8,44,96.8,44,96.9z M42.3,96.5h1.1
			c0-0.3-0.3-0.5-0.5-0.5C42.6,96.1,42.4,96.2,42.3,96.5z"/>
		<path class="st8" d="M46.7,95.6v1.8c0,0.8-0.4,1.2-1.2,1.2c-0.4,0-0.8-0.1-1.1-0.3l0.3-0.5c0.2,0.1,0.5,0.2,0.8,0.2
			c0.4,0,0.6-0.2,0.6-0.6v-0.1c-0.2,0.2-0.4,0.3-0.7,0.3c-0.6,0-1.1-0.4-1.1-1.1s0.5-1.1,1.1-1.1c0.3,0,0.6,0.1,0.7,0.3v-0.3H46.7z
			 M46,96.6c0-0.3-0.2-0.5-0.6-0.5s-0.6,0.2-0.6,0.5s0.2,0.5,0.6,0.5S46,97,46,96.6z"/>
	</g>
	<g class="st1">
		<path class="st8" d="M49.2,96.5v1.2h-0.6v-0.3c-0.1,0.2-0.3,0.3-0.7,0.3c-0.5,0-0.8-0.3-0.8-0.7c0-0.4,0.3-0.7,0.9-0.7h0.5
			c0-0.3-0.2-0.4-0.5-0.4c-0.2,0-0.5,0.1-0.6,0.2l-0.2-0.4c0.2-0.2,0.6-0.3,0.9-0.3C48.8,95.6,49.2,95.9,49.2,96.5z M48.5,97.1v-0.2
			h-0.4c-0.3,0-0.4,0.1-0.4,0.3c0,0.2,0.1,0.3,0.4,0.3C48.3,97.4,48.5,97.3,48.5,97.1z"/>
	</g>
	<g class="st1">
		<path class="st8" d="M51.3,97l0.5,0.3c-0.1,0.3-0.5,0.5-0.9,0.5l0,0.2c0.2,0,0.4,0.2,0.4,0.3c0,0.2-0.2,0.4-0.6,0.4
			c-0.1,0-0.3,0-0.4-0.1l0.1-0.3c0.1,0,0.2,0.1,0.3,0.1c0.1,0,0.2-0.1,0.2-0.1c0-0.1-0.1-0.1-0.2-0.1h-0.1l0.1-0.4
			c-0.6-0.1-0.9-0.5-0.9-1.1c0-0.7,0.5-1.1,1.2-1.1c0.5,0,0.8,0.2,1,0.6l-0.5,0.3c-0.1-0.2-0.3-0.3-0.5-0.3c-0.3,0-0.6,0.2-0.6,0.6
			s0.3,0.6,0.6,0.6C51,97.3,51.2,97.2,51.3,97z"/>
	</g>
	<g class="st1">
		<path class="st8" d="M54.1,96.5v1.2h-0.6v-0.3c-0.1,0.2-0.3,0.3-0.7,0.3c-0.5,0-0.8-0.3-0.8-0.7c0-0.4,0.3-0.7,0.9-0.7h0.5
			c0-0.3-0.2-0.4-0.5-0.4c-0.2,0-0.5,0.1-0.6,0.2l-0.2-0.4c0.2-0.2,0.6-0.3,0.9-0.3C53.7,95.6,54.1,95.9,54.1,96.5z M52.7,95.3h-0.3
			c0-0.4,0.2-0.6,0.5-0.6c0.3,0,0.4,0.3,0.6,0.3c0.1,0,0.2-0.1,0.2-0.2h0.3c0,0.3-0.2,0.6-0.5,0.6c-0.3,0-0.4-0.3-0.6-0.3
			C52.7,95.1,52.7,95.2,52.7,95.3z M53.5,97.1v-0.2H53c-0.3,0-0.4,0.1-0.4,0.3c0,0.2,0.1,0.3,0.4,0.3C53.2,97.4,53.4,97.3,53.5,97.1
			z"/>
	</g>
	<g class="st1">
		<path class="st8" d="M54.5,96.7c0-0.7,0.5-1.1,1.2-1.1s1.2,0.5,1.2,1.1s-0.5,1.1-1.2,1.1S54.5,97.4,54.5,96.7z M56.3,96.7
			c0-0.4-0.2-0.6-0.6-0.6s-0.6,0.2-0.6,0.6s0.2,0.6,0.6,0.6S56.3,97.1,56.3,96.7z"/>
	</g>
	<g class="st1">
		<path class="st8" d="M59.8,95.6v0.6c-0.1,0-0.1,0-0.1,0c-0.3,0-0.6,0.2-0.6,0.6v1h-0.6v-2.2h0.6v0.3
			C59.2,95.7,59.5,95.6,59.8,95.6z"/>
	</g>
	<g class="st1">
		<path class="st8" d="M62.1,96.5v1.2h-0.6v-0.3c-0.1,0.2-0.3,0.3-0.7,0.3c-0.5,0-0.8-0.3-0.8-0.7c0-0.4,0.3-0.7,0.9-0.7h0.5
			c0-0.3-0.2-0.4-0.5-0.4c-0.2,0-0.5,0.1-0.6,0.2l-0.2-0.4c0.2-0.2,0.6-0.3,0.9-0.3C61.8,95.6,62.1,95.9,62.1,96.5z M61.5,97.1v-0.2
			h-0.4c-0.3,0-0.4,0.1-0.4,0.3c0,0.2,0.1,0.3,0.4,0.3C61.3,97.4,61.4,97.3,61.5,97.1z M61.3,95.3h-0.5l0.5-0.6H62L61.3,95.3z"/>
		<path class="st8" d="M65.1,96.7c0,0.7-0.5,1.1-1.1,1.1c-0.3,0-0.5-0.1-0.7-0.3v1h-0.6v-3h0.6v0.3c0.2-0.2,0.4-0.3,0.7-0.3
			C64.6,95.6,65.1,96,65.1,96.7z M64.4,96.7c0-0.4-0.2-0.6-0.6-0.6s-0.6,0.2-0.6,0.6s0.2,0.6,0.6,0.6S64.4,97.1,64.4,96.7z"/>
		<path class="st8" d="M65.4,95c0-0.2,0.2-0.4,0.4-0.4s0.4,0.1,0.4,0.3c0,0.2-0.2,0.4-0.4,0.4S65.4,95.2,65.4,95z M65.5,95.6h0.6
			v2.2h-0.6V95.6z"/>
		<path class="st8" d="M68.9,94.8v3h-0.6v-0.3c-0.2,0.2-0.4,0.3-0.7,0.3c-0.6,0-1.1-0.4-1.1-1.1s0.5-1.1,1.1-1.1
			c0.3,0,0.5,0.1,0.7,0.3v-1.1H68.9z M68.3,96.7c0-0.4-0.2-0.6-0.6-0.6c-0.3,0-0.6,0.2-0.6,0.6s0.2,0.6,0.6,0.6
			C68.1,97.3,68.3,97.1,68.3,96.7z"/>
		<path class="st8" d="M71.5,96.5v1.2h-0.6v-0.3c-0.1,0.2-0.3,0.3-0.7,0.3c-0.5,0-0.8-0.3-0.8-0.7c0-0.4,0.3-0.7,0.9-0.7h0.5
			c0-0.3-0.2-0.4-0.5-0.4c-0.2,0-0.5,0.1-0.6,0.2l-0.2-0.4c0.2-0.2,0.6-0.3,0.9-0.3C71.1,95.6,71.5,95.9,71.5,96.5z M70.8,97.1v-0.2
			h-0.4c-0.3,0-0.4,0.1-0.4,0.3c0,0.2,0.1,0.3,0.4,0.3C70.6,97.4,70.7,97.3,70.8,97.1z"/>
	</g>
	<g>
		<path class="st7" d="M54.3,114.4c0.6-0.5,1-1.3,1-2.2c0-1.6-1.3-2.9-2.9-2.9s-2.9,1.3-2.9,2.9c0,0.9,0.4,1.7,1,2.2
			c-0.8,0.4-1.4,1.3-1.4,2.3v2.9h6.4v-2.9C55.6,115.8,55.1,114.9,54.3,114.4L54.3,114.4z"/>
	</g>
	<g>
		<defs>
			<rect id="SVGID_00000093151469279175764510000002323161520018186168_" y="33.4" width="105" height="48.9"/>
		</defs>
		<clipPath id="SVGID_00000141442614565167452560000008831493491488789426_">
			<use xlink:href="#SVGID_00000093151469279175764510000002323161520018186168_"  style="overflow:visible;"/>
		</clipPath>
		<g style="clip-path:url(#SVGID_00000141442614565167452560000008831493491488789426_);">
			<g>
				<path class="st2" d="M-14.5,37H5.4c0.8,0,1.5,0.7,1.5,1.5v31.6c0,0.8-0.7,1.5-1.5,1.5h-19.9c-0.8,0-1.5-0.7-1.5-1.5V38.5
					C-16,37.7-15.3,37-14.5,37z"/>
			</g>
			<g class="st1">
				<path class="st8" d="M-12.1,55.2c0-0.5,0.4-0.8,0.9-0.8c0.3,0,0.5,0.1,0.7,0.3l-0.2,0.2c-0.1-0.1-0.2-0.2-0.4-0.2
					c-0.3,0-0.5,0.2-0.5,0.5s0.2,0.5,0.5,0.5c0.2,0,0.3-0.1,0.4-0.2l0.2,0.2c-0.1,0.2-0.4,0.3-0.7,0.3C-11.7,56-12.1,55.6-12.1,55.2
					z"/>
			</g>
			<g class="st1">
				<path class="st8" d="M-10.5,55.3c0-0.4,0.3-0.6,0.7-0.6s0.7,0.3,0.7,0.6S-9.4,56-9.8,56S-10.5,55.7-10.5,55.3z M-9.5,55.3
					c0-0.2-0.1-0.3-0.3-0.3s-0.3,0.1-0.3,0.3c0,0.2,0.1,0.3,0.3,0.3S-9.5,55.6-9.5,55.3z"/>
				<path class="st8" d="M-7.7,55.3V56H-8v-0.6c0-0.2-0.1-0.3-0.2-0.3c-0.2,0-0.3,0.1-0.3,0.3V56h-0.4v-1.2h0.3v0.1
					c0.1-0.1,0.2-0.2,0.4-0.2C-7.9,54.7-7.7,54.9-7.7,55.3z"/>
				<path class="st8" d="M-7.5,55.8l0.1-0.3c0.1,0.1,0.3,0.1,0.4,0.1c0.2,0,0.2,0,0.2-0.1c0-0.2-0.7,0-0.7-0.5
					c0-0.2,0.2-0.4,0.6-0.4c0.2,0,0.4,0,0.5,0.1l-0.1,0.3C-6.6,55-6.7,55-6.9,55c-0.2,0-0.2,0-0.2,0.1c0,0.2,0.7,0,0.7,0.5
					c0,0.2-0.2,0.4-0.6,0.4C-7.1,56-7.3,55.9-7.5,55.8z"/>
				<path class="st8" d="M-4.9,54.7V56h-0.3v-0.1C-5.3,55.9-5.5,56-5.6,56c-0.3,0-0.5-0.2-0.5-0.6v-0.7h0.4v0.6
					c0,0.2,0.1,0.3,0.2,0.3c0.2,0,0.3-0.1,0.3-0.3v-0.6H-4.9z"/>
			</g>
			<g class="st1">
				<path class="st8" d="M-4.6,54.3h0.4V56h-0.4V54.3z"/>
			</g>
			<g class="st1">
				<path class="st8" d="M-3,55.9C-3.1,56-3.2,56-3.3,56c-0.3,0-0.5-0.1-0.5-0.4V55h-0.2v-0.3h0.2v-0.3h0.4v0.3h0.3V55h-0.3v0.5
					c0,0.1,0.1,0.2,0.2,0.2c0.1,0,0.1,0,0.1,0L-3,55.9z"/>
			</g>
			<g class="st1">
				<path class="st8" d="M-2.9,55.3c0-0.4,0.3-0.6,0.7-0.6s0.7,0.3,0.7,0.6S-1.9,56-2.3,56S-2.9,55.7-2.9,55.3z M-1.9,55.3
					c0-0.2-0.1-0.3-0.3-0.3s-0.3,0.1-0.3,0.3c0,0.2,0.1,0.3,0.3,0.3S-1.9,55.6-1.9,55.3z"/>
				<path class="st8" d="M-0.6,54.7V55c0,0-0.1,0-0.1,0C-0.9,55-1,55.1-1,55.4V56h-0.4v-1.2H-1v0.2C-0.9,54.8-0.8,54.7-0.6,54.7z"/>
				<path class="st8" d="M1.5,54.3V56H1.2v-0.1C1.1,55.9,1,56,0.8,56c-0.3,0-0.6-0.2-0.6-0.6c0-0.4,0.3-0.6,0.6-0.6
					c0.1,0,0.3,0,0.4,0.1v-0.6H1.5z M1.2,55.3C1.2,55.1,1,55,0.9,55c-0.2,0-0.3,0.1-0.3,0.3c0,0.2,0.1,0.3,0.3,0.3
					C1,55.7,1.2,55.6,1.2,55.3z"/>
				<path class="st8" d="M3.1,55.4H2.1c0,0.2,0.2,0.2,0.4,0.2c0.1,0,0.2,0,0.3-0.1L3,55.8C2.9,55.9,2.7,56,2.5,56
					c-0.4,0-0.7-0.3-0.7-0.6c0-0.4,0.3-0.6,0.7-0.6C2.8,54.7,3.1,55,3.1,55.4C3.1,55.4,3.1,55.4,3.1,55.4z M2.1,55.2h0.6
					c0-0.2-0.1-0.3-0.3-0.3C2.3,55,2.1,55.1,2.1,55.2z"/>
			</g>
			<g class="st1">
				<path class="st8" d="M-7.4,57.5l-0.5,1.2h-0.4l-0.5-1.2h0.4l0.3,0.8l0.4-0.8H-7.4z"/>
			</g>
			<g class="st1">
				<path class="st8" d="M-6.1,58.2h-0.9c0,0.2,0.2,0.2,0.4,0.2c0.1,0,0.2,0,0.3-0.1l0.2,0.2c-0.1,0.1-0.3,0.2-0.5,0.2
					c-0.4,0-0.7-0.3-0.7-0.6c0-0.4,0.3-0.6,0.7-0.6C-6.4,57.4-6.1,57.7-6.1,58.2C-6.1,58.1-6.1,58.1-6.1,58.2z M-7.1,58h0.6
					c0-0.2-0.1-0.3-0.3-0.3C-6.9,57.7-7,57.8-7.1,58z"/>
			</g>
			<g class="st1">
				<path class="st8" d="M-4.6,58v0.7H-5V58c0-0.2-0.1-0.3-0.2-0.3c-0.2,0-0.3,0.1-0.3,0.3v0.6h-0.4v-1.2h0.3v0.1
					c0.1-0.1,0.2-0.2,0.4-0.2C-4.8,57.4-4.6,57.6-4.6,58z"/>
			</g>
			<g class="st1">
				<path class="st8" d="M-3,57v1.7h-0.3v-0.1c-0.1,0.1-0.2,0.2-0.4,0.2c-0.3,0-0.6-0.2-0.6-0.6c0-0.4,0.3-0.6,0.6-0.6
					c0.1,0,0.3,0,0.4,0.1V57H-3z M-3.4,58.1c0-0.2-0.1-0.3-0.3-0.3c-0.2,0-0.3,0.1-0.3,0.3c0,0.2,0.1,0.3,0.3,0.3
					C-3.5,58.4-3.4,58.3-3.4,58.1z"/>
				<path class="st8" d="M-1.6,58v0.7H-2v-0.2c-0.1,0.1-0.2,0.2-0.4,0.2c-0.3,0-0.5-0.2-0.5-0.4c0-0.2,0.2-0.4,0.5-0.4H-2
					c0-0.2-0.1-0.2-0.3-0.2c-0.1,0-0.3,0-0.4,0.1l-0.1-0.2c0.1-0.1,0.3-0.1,0.5-0.1C-1.8,57.4-1.6,57.6-1.6,58z M-2,58.3v-0.1h-0.2
					c-0.2,0-0.2,0.1-0.2,0.1c0,0.1,0.1,0.1,0.2,0.1C-2.1,58.5-2,58.4-2,58.3z"/>
				<path class="st8" d="M-1.4,58.6l0.1-0.3c0.1,0.1,0.3,0.1,0.4,0.1c0.2,0,0.2,0,0.2-0.1c0-0.2-0.7,0-0.7-0.5
					c0-0.2,0.2-0.4,0.6-0.4c0.2,0,0.4,0,0.5,0.1l-0.1,0.3c-0.1-0.1-0.2-0.1-0.4-0.1c-0.2,0-0.2,0-0.2,0.1c0,0.2,0.7,0,0.7,0.5
					c0,0.2-0.2,0.4-0.6,0.4C-1.1,58.7-1.3,58.7-1.4,58.6z"/>
			</g>
			<g class="st1">
				<path class="st10" d="M-9.5,62.1v4.2h-1v-3.4h-0.8v-0.8H-9.5z"/>
				<path class="st10" d="M-8.8,64.2c0-1.4,0.8-2.2,1.8-2.2c1,0,1.8,0.8,1.8,2.2c0,1.4-0.8,2.2-1.8,2.2C-8,66.4-8.8,65.6-8.8,64.2z
					 M-6.2,64.2c0-1-0.3-1.3-0.8-1.3c-0.5,0-0.8,0.4-0.8,1.3c0,1,0.3,1.3,0.8,1.3C-6.5,65.6-6.2,65.2-6.2,64.2z"/>
			</g>
			<g class="st1">
				<path class="st10" d="M-1.4,64.2c0,1.5-0.9,2.3-2.1,2.3c-0.4,0-0.9-0.1-1.2-0.3l0.4-0.7c0.2,0.2,0.5,0.2,0.8,0.2
					c0.7,0,1.2-0.4,1.2-1.2c-0.2,0.2-0.6,0.4-1,0.4c-0.8,0-1.4-0.5-1.4-1.3c0-0.9,0.7-1.4,1.6-1.4C-2.1,62.1-1.4,62.8-1.4,64.2z
					 M-2.4,63.4c0-0.4-0.3-0.6-0.7-0.6c-0.4,0-0.7,0.2-0.7,0.6S-3.6,64-3.2,64C-2.7,64-2.4,63.8-2.4,63.4z"/>
			</g>
			<g class="st1">
				<path class="st10" d="M2.4,62.1v0.6l-1.6,3.6h-1.1l1.5-3.4h-1.4v0.7H-1v-1.5H2.4z"/>
			</g>
			<g class="st1">
				<path class="st11" d="M-6.2,67.7l-0.5,1.1H-7l-0.5-1.1h0.3l0.3,0.7l0.3-0.7H-6.2z"/>
			</g>
			<g class="st1">
				<path class="st11" d="M-5.2,68.1v0.6h-0.3v-0.1c-0.1,0.1-0.2,0.1-0.3,0.1c-0.3,0-0.4-0.1-0.4-0.3c0-0.2,0.1-0.3,0.5-0.3h0.2
					c0-0.1-0.1-0.2-0.2-0.2c-0.1,0-0.2,0-0.3,0.1l-0.1-0.2c0.1-0.1,0.3-0.1,0.5-0.1C-5.4,67.6-5.2,67.8-5.2,68.1z M-5.5,68.4v-0.1
					h-0.2c-0.1,0-0.2,0.1-0.2,0.1c0,0.1,0.1,0.1,0.2,0.1C-5.6,68.5-5.5,68.5-5.5,68.4z"/>
			</g>
			<g class="st1">
				<path class="st11" d="M-3.8,67.7v0.9c0,0.4-0.2,0.6-0.6,0.6c-0.2,0-0.4,0-0.5-0.1l0.1-0.2c0.1,0.1,0.2,0.1,0.4,0.1
					c0.2,0,0.3-0.1,0.3-0.3v0c-0.1,0.1-0.2,0.1-0.3,0.1c-0.3,0-0.5-0.2-0.5-0.5c0-0.3,0.2-0.5,0.5-0.5c0.1,0,0.3,0.1,0.4,0.2v-0.1
					H-3.8z M-4.1,68.2c0-0.2-0.1-0.3-0.3-0.3s-0.3,0.1-0.3,0.3c0,0.2,0.1,0.3,0.3,0.3S-4.1,68.3-4.1,68.2z"/>
				<path class="st11" d="M-2.5,68.1v0.6h-0.3v-0.1c-0.1,0.1-0.2,0.1-0.3,0.1c-0.3,0-0.4-0.1-0.4-0.3c0-0.2,0.1-0.3,0.5-0.3h0.2
					c0-0.1-0.1-0.2-0.2-0.2c-0.1,0-0.2,0-0.3,0.1l-0.1-0.2c0.1-0.1,0.3-0.1,0.5-0.1C-2.7,67.6-2.5,67.8-2.5,68.1z M-2.9,68.4v-0.1
					h-0.2c-0.1,0-0.2,0.1-0.2,0.1c0,0.1,0.1,0.1,0.2,0.1C-3,68.5-2.9,68.5-2.9,68.4z"/>
				<path class="st11" d="M-2.4,68.6l0.1-0.2c0.1,0.1,0.2,0.1,0.4,0.1c0.1,0,0.2,0,0.2-0.1c0-0.2-0.6,0-0.6-0.4
					c0-0.2,0.2-0.3,0.5-0.3c0.1,0,0.3,0,0.4,0.1L-1.5,68c-0.1-0.1-0.2-0.1-0.3-0.1C-2,67.9-2,67.9-2,68c0,0.2,0.6,0,0.6,0.4
					c0,0.2-0.2,0.3-0.5,0.3C-2.1,68.8-2.3,68.7-2.4,68.6z"/>
			</g>
			<g>
				<path class="st2" d="M14.2,37H34c0.8,0,1.5,0.7,1.5,1.5v31.6c0,0.8-0.7,1.5-1.5,1.5H14.2c-0.8,0-1.5-0.7-1.5-1.5V38.5
					C12.6,37.7,13.3,37,14.2,37z"/>
			</g>
			<g class="st1">
				<path class="st8" d="M19.8,55.5c0,0.3-0.2,0.4-0.6,0.4h-0.8v-1.6h0.8c0.4,0,0.6,0.2,0.6,0.4c0,0.2-0.1,0.3-0.2,0.4
					C19.7,55.2,19.8,55.3,19.8,55.5z M18.8,54.6V55h0.4c0.2,0,0.3-0.1,0.3-0.2s-0.1-0.2-0.3-0.2H18.8z M19.5,55.5
					c0-0.1-0.1-0.2-0.3-0.2h-0.4v0.4h0.4C19.4,55.7,19.5,55.6,19.5,55.5z"/>
				<path class="st8" d="M20,55.3c0-0.4,0.3-0.6,0.7-0.6s0.7,0.3,0.7,0.6S21.1,56,20.7,56S20,55.7,20,55.3z M21,55.3
					c0-0.2-0.1-0.3-0.3-0.3s-0.3,0.1-0.3,0.3c0,0.2,0.1,0.3,0.3,0.3S21,55.6,21,55.3z"/>
				<path class="st8" d="M23.7,55.3V56h-0.4v-0.6c0-0.2-0.1-0.3-0.2-0.3c-0.2,0-0.3,0.1-0.3,0.3V56h-0.4v-0.6c0-0.2-0.1-0.3-0.2-0.3
					c-0.2,0-0.3,0.1-0.3,0.3V56h-0.4v-1.2h0.3v0.1c0.1-0.1,0.2-0.2,0.4-0.2c0.2,0,0.3,0.1,0.4,0.2c0.1-0.1,0.3-0.2,0.4-0.2
					C23.5,54.7,23.7,54.9,23.7,55.3z"/>
				<path class="st8" d="M25.3,55.3c0,0.4-0.3,0.6-0.6,0.6c-0.2,0-0.3-0.1-0.4-0.2V56H24v-1.7h0.4v0.6c0.1-0.1,0.2-0.1,0.4-0.1
					C25.1,54.7,25.3,55,25.3,55.3z M25,55.3c0-0.2-0.1-0.3-0.3-0.3s-0.3,0.1-0.3,0.3c0,0.2,0.1,0.3,0.3,0.3S25,55.6,25,55.3z"/>
				<path class="st8" d="M26.8,55.4h-0.9c0,0.2,0.2,0.2,0.4,0.2c0.1,0,0.2,0,0.3-0.1l0.2,0.2c-0.1,0.1-0.3,0.2-0.5,0.2
					c-0.4,0-0.7-0.3-0.7-0.6c0-0.4,0.3-0.6,0.7-0.6C26.5,54.7,26.8,55,26.8,55.4C26.8,55.4,26.8,55.4,26.8,55.4z M25.8,55.2h0.6
					c0-0.2-0.1-0.3-0.3-0.3C26,55,25.9,55.1,25.8,55.2z"/>
				<path class="st8" d="M27,54.4c0-0.1,0.1-0.2,0.2-0.2c0.1,0,0.2,0.1,0.2,0.2c0,0.1-0.1,0.2-0.2,0.2C27.1,54.6,27,54.5,27,54.4z
					 M27,54.7h0.4V56H27V54.7z"/>
			</g>
			<g class="st1">
				<path class="st8" d="M28.4,54.7V55c0,0-0.1,0-0.1,0c-0.2,0-0.3,0.1-0.3,0.3V56h-0.4v-1.2H28v0.2C28.1,54.8,28.3,54.7,28.4,54.7z
					"/>
			</g>
			<g class="st1">
				<path class="st8" d="M28.6,55.3c0-0.4,0.3-0.6,0.7-0.6s0.7,0.3,0.7,0.6S29.6,56,29.2,56S28.6,55.7,28.6,55.3z M29.5,55.3
					c0-0.2-0.1-0.3-0.3-0.3c-0.2,0-0.3,0.1-0.3,0.3c0,0.2,0.1,0.3,0.3,0.3C29.4,55.7,29.5,55.6,29.5,55.3z"/>
			</g>
			<g class="st1">
				<path class="st8" d="M19.5,58v0.7h-0.4V58c0-0.2-0.1-0.3-0.2-0.3c-0.2,0-0.3,0.1-0.3,0.3v0.6h-0.4V57h0.4v0.6
					c0.1-0.1,0.2-0.1,0.4-0.1C19.3,57.4,19.5,57.6,19.5,58z"/>
				<path class="st8" d="M19.8,57.1c0-0.1,0.1-0.2,0.2-0.2c0.1,0,0.2,0.1,0.2,0.2c0,0.1-0.1,0.2-0.2,0.2
					C19.9,57.3,19.8,57.2,19.8,57.1z M19.8,57.5h0.4v1.2h-0.4V57.5z"/>
				<path class="st8" d="M21.8,57v1.7h-0.3v-0.1c-0.1,0.1-0.2,0.2-0.4,0.2c-0.3,0-0.6-0.2-0.6-0.6c0-0.4,0.3-0.6,0.6-0.6
					c0.1,0,0.3,0,0.4,0.1V57H21.8z M21.4,58.1c0-0.2-0.1-0.3-0.3-0.3c-0.2,0-0.3,0.1-0.3,0.3c0,0.2,0.1,0.3,0.3,0.3
					C21.3,58.4,21.4,58.3,21.4,58.1z"/>
			</g>
			<g class="st1">
				<path class="st8" d="M22.9,57.4v0.3c0,0-0.1,0-0.1,0c-0.2,0-0.3,0.1-0.3,0.3v0.6h-0.4v-1.2h0.3v0.2
					C22.5,57.5,22.7,57.4,22.9,57.4z"/>
			</g>
			<g class="st1">
				<path class="st8" d="M24.2,58v0.7h-0.3v-0.2c-0.1,0.1-0.2,0.2-0.4,0.2c-0.3,0-0.5-0.2-0.5-0.4c0-0.2,0.2-0.4,0.5-0.4h0.3
					c0-0.2-0.1-0.2-0.3-0.2c-0.1,0-0.3,0-0.4,0.1L23,57.6c0.1-0.1,0.3-0.1,0.5-0.1C23.9,57.4,24.2,57.6,24.2,58z M23.8,58.3v-0.1
					h-0.2c-0.2,0-0.2,0.1-0.2,0.1c0,0.1,0.1,0.1,0.2,0.1C23.7,58.5,23.8,58.4,23.8,58.3z M23.7,57.3h-0.3l0.3-0.3h0.4L23.7,57.3z"/>
				<path class="st8" d="M25.7,57.5v1.2h-0.3v-0.1c-0.1,0.1-0.2,0.2-0.4,0.2c-0.3,0-0.5-0.2-0.5-0.6v-0.7h0.4v0.6
					c0,0.2,0.1,0.3,0.2,0.3c0.2,0,0.3-0.1,0.3-0.3v-0.6H25.7z"/>
				<path class="st8" d="M26,57h0.4v1.7H26V57z"/>
				<path class="st8" d="M26.7,57.1c0-0.1,0.1-0.2,0.2-0.2s0.2,0.1,0.2,0.2c0,0.1-0.1,0.2-0.2,0.2S26.7,57.2,26.7,57.1z M26.7,57.5
					h0.4v1.2h-0.4V57.5z"/>
			</g>
			<g class="st1">
				<path class="st8" d="M27.3,58.1c0-0.4,0.3-0.6,0.7-0.6c0.3,0,0.5,0.1,0.5,0.3l-0.3,0.1c-0.1-0.1-0.2-0.2-0.3-0.2
					c-0.2,0-0.3,0.1-0.3,0.3s0.1,0.3,0.3,0.3c0.1,0,0.2-0.1,0.3-0.2l0.3,0.2c-0.1,0.2-0.3,0.3-0.5,0.3
					C27.6,58.7,27.3,58.4,27.3,58.1z"/>
			</g>
			<g class="st1">
				<path class="st8" d="M28.7,58.1c0-0.4,0.3-0.6,0.7-0.6s0.7,0.3,0.7,0.6s-0.3,0.6-0.7,0.6S28.7,58.4,28.7,58.1z M29.6,58.1
					c0-0.2-0.1-0.3-0.3-0.3S29,57.9,29,58.1c0,0.2,0.1,0.3,0.3,0.3S29.6,58.3,29.6,58.1z"/>
			</g>
			<g class="st1">
				<path class="st10" d="M22,65.1c0,0.7-0.5,1.4-1.7,1.4c-0.6,0-1.2-0.2-1.6-0.5l0.4-0.7c0.3,0.2,0.8,0.4,1.2,0.4
					c0.5,0,0.8-0.2,0.8-0.5c0-0.3-0.2-0.5-0.8-0.5h-0.4v-0.6l0.9-1h-1.8v-0.8h2.9v0.6l-0.9,1.1C21.6,64,22,64.4,22,65.1z"/>
				<path class="st10" d="M22.4,64.2c0-1.4,0.8-2.2,1.8-2.2c1,0,1.8,0.8,1.8,2.2c0,1.4-0.8,2.2-1.8,2.2
					C23.2,66.4,22.4,65.6,22.4,64.2z M25,64.2c0-1-0.3-1.3-0.8-1.3c-0.5,0-0.8,0.4-0.8,1.3c0,1,0.3,1.3,0.8,1.3
					C24.7,65.6,25,65.2,25,64.2z"/>
				<path class="st10" d="M29.7,65c0,0.7-0.5,1.4-1.7,1.4c-0.6,0-1.2-0.2-1.6-0.5l0.4-0.7c0.3,0.2,0.8,0.4,1.2,0.4
					c0.5,0,0.8-0.2,0.8-0.5c0-0.3-0.2-0.5-1-0.5h-1.1l0.2-2.4h2.6v0.8h-1.8l-0.1,0.8h0.3C29.2,63.7,29.7,64.3,29.7,65z"/>
			</g>
			<g class="st1">
				<path class="st11" d="M22.4,67.7l-0.5,1.1h-0.3l-0.5-1.1h0.3l0.3,0.7l0.3-0.7H22.4z"/>
			</g>
			<g class="st1">
				<path class="st11" d="M23.4,68.1v0.6h-0.3v-0.1c-0.1,0.1-0.2,0.1-0.3,0.1c-0.3,0-0.4-0.1-0.4-0.3c0-0.2,0.1-0.3,0.5-0.3h0.2
					c0-0.1-0.1-0.2-0.2-0.2c-0.1,0-0.2,0-0.3,0.1l-0.1-0.2c0.1-0.1,0.3-0.1,0.5-0.1C23.2,67.6,23.4,67.8,23.4,68.1z M23.1,68.4v-0.1
					h-0.2c-0.1,0-0.2,0.1-0.2,0.1c0,0.1,0.1,0.1,0.2,0.1C23,68.5,23.1,68.5,23.1,68.4z"/>
			</g>
			<g class="st1">
				<path class="st11" d="M24.8,67.7v0.9c0,0.4-0.2,0.6-0.6,0.6c-0.2,0-0.4,0-0.5-0.1l0.1-0.2c0.1,0.1,0.2,0.1,0.4,0.1
					c0.2,0,0.3-0.1,0.3-0.3v0c-0.1,0.1-0.2,0.1-0.3,0.1c-0.3,0-0.5-0.2-0.5-0.5c0-0.3,0.2-0.5,0.5-0.5c0.1,0,0.3,0.1,0.4,0.2v-0.1
					H24.8z M24.5,68.2c0-0.2-0.1-0.3-0.3-0.3s-0.3,0.1-0.3,0.3c0,0.2,0.1,0.3,0.3,0.3S24.5,68.3,24.5,68.2z"/>
				<path class="st11" d="M26.1,68.1v0.6h-0.3v-0.1c-0.1,0.1-0.2,0.1-0.3,0.1c-0.3,0-0.4-0.1-0.4-0.3c0-0.2,0.1-0.3,0.5-0.3h0.2
					c0-0.1-0.1-0.2-0.2-0.2c-0.1,0-0.2,0-0.3,0.1l-0.1-0.2c0.1-0.1,0.3-0.1,0.5-0.1C25.9,67.6,26.1,67.8,26.1,68.1z M25.8,68.4v-0.1
					h-0.2c-0.1,0-0.2,0.1-0.2,0.1c0,0.1,0.1,0.1,0.2,0.1C25.6,68.5,25.7,68.5,25.8,68.4z"/>
				<path class="st11" d="M26.2,68.6l0.1-0.2c0.1,0.1,0.2,0.1,0.4,0.1c0.1,0,0.2,0,0.2-0.1c0-0.2-0.6,0-0.6-0.4
					c0-0.2,0.2-0.3,0.5-0.3c0.1,0,0.3,0,0.4,0.1L27.1,68c-0.1-0.1-0.2-0.1-0.3-0.1c-0.1,0-0.2,0-0.2,0.1c0,0.2,0.6,0,0.6,0.4
					c0,0.2-0.2,0.3-0.5,0.3C26.5,68.8,26.3,68.7,26.2,68.6z"/>
			</g>
			<g>
				<g>
					<path class="st6" d="M27.5,45.8v4.9c0,0.4-0.3,0.7-0.7,0.7h-4.9c-0.4,0-0.7-0.3-0.7-0.7v-4.9c0-0.4,0.3-0.7,0.7-0.7h4.9
						C27.2,45.1,27.5,45.4,27.5,45.8z"/>
				</g>
				<g>
					<path class="st7" d="M25.4,49v2.5h-2V49c0-0.2,0.2-0.4,0.4-0.4H25C25.2,48.6,25.4,48.8,25.4,49z"/>
				</g>
				<g>
					<path class="st6" d="M27.8,46.6h-6.8c-0.4,0-0.6-0.5-0.3-0.8l3.4-3.4c0.2-0.2,0.5-0.2,0.6,0l3.4,3.4
						C28.4,46.1,28.1,46.6,27.8,46.6L27.8,46.6z"/>
				</g>
			</g>
			<g>
				<path class="st2" d="M42.8,37h19.9c0.8,0,1.5,0.7,1.5,1.5v31.6c0,0.8-0.7,1.5-1.5,1.5H42.8c-0.8,0-1.5-0.7-1.5-1.5V38.5
					C41.2,37.7,41.9,37,42.8,37z"/>
			</g>
			<g class="st1">
				<path class="st8" d="M46.8,56l0-1l-0.5,0.8h-0.2L45.7,55V56h-0.3v-1.6h0.3l0.6,1l0.6-1h0.3l0,1.6H46.8z"/>
				<path class="st8" d="M48.7,55.4h-0.9c0,0.2,0.2,0.2,0.4,0.2c0.1,0,0.2,0,0.3-0.1l0.2,0.2c-0.1,0.1-0.3,0.2-0.5,0.2
					c-0.4,0-0.7-0.3-0.7-0.6c0-0.4,0.3-0.6,0.7-0.6C48.4,54.7,48.7,55,48.7,55.4C48.7,55.4,48.7,55.4,48.7,55.4z M47.8,55.2h0.6
					c0-0.2-0.1-0.3-0.3-0.3C47.9,55,47.8,55.1,47.8,55.2z"/>
				<path class="st8" d="M48.8,55.3c0-0.4,0.3-0.6,0.7-0.6c0.3,0,0.5,0.1,0.5,0.3l-0.3,0.1c-0.1-0.1-0.2-0.2-0.3-0.2
					c-0.2,0-0.3,0.1-0.3,0.3s0.1,0.3,0.3,0.3c0.1,0,0.2-0.1,0.3-0.2l0.3,0.2C50,55.9,49.8,56,49.5,56C49.1,56,48.8,55.7,48.8,55.3z"
					/>
				<path class="st8" d="M51.4,55.3V56H51v-0.2C51,55.9,50.8,56,50.7,56c-0.3,0-0.5-0.2-0.5-0.4c0-0.2,0.2-0.4,0.5-0.4H51
					c0-0.2-0.1-0.2-0.3-0.2c-0.1,0-0.3,0-0.4,0.1l-0.1-0.2c0.1-0.1,0.3-0.1,0.5-0.1C51.2,54.7,51.4,54.9,51.4,55.3z M50.6,54.6h-0.3
					l0.3-0.3H51l0.3,0.3H51l-0.2-0.2L50.6,54.6z M51,55.6v-0.1h-0.2c-0.2,0-0.2,0.1-0.2,0.1c0,0.1,0.1,0.1,0.2,0.1
					C50.9,55.7,51,55.7,51,55.6z"/>
				<path class="st8" d="M52.9,55.3V56h-0.4v-0.6c0-0.2-0.1-0.3-0.2-0.3c-0.2,0-0.3,0.1-0.3,0.3V56h-0.4v-1.2H52v0.1
					c0.1-0.1,0.2-0.2,0.4-0.2C52.7,54.7,52.9,54.9,52.9,55.3z"/>
				<path class="st8" d="M53.2,54.4c0-0.1,0.1-0.2,0.2-0.2c0.1,0,0.2,0.1,0.2,0.2c0,0.1-0.1,0.2-0.2,0.2
					C53.3,54.6,53.2,54.5,53.2,54.4z M53.3,54.7h0.4V56h-0.4V54.7z"/>
			</g>
			<g class="st1">
				<path class="st8" d="M53.9,55.3c0-0.4,0.3-0.6,0.7-0.6c0.3,0,0.5,0.1,0.5,0.3l-0.3,0.1c-0.1-0.1-0.2-0.2-0.3-0.2
					c-0.2,0-0.3,0.1-0.3,0.3s0.1,0.3,0.3,0.3c0.1,0,0.2-0.1,0.3-0.2l0.3,0.2C55,55.9,54.8,56,54.5,56C54.1,56,53.9,55.7,53.9,55.3z"
					/>
			</g>
			<g class="st1">
				<path class="st8" d="M55.2,55.3c0-0.4,0.3-0.6,0.7-0.6s0.7,0.3,0.7,0.6S56.3,56,55.9,56S55.2,55.7,55.2,55.3z M56.2,55.3
					c0-0.2-0.1-0.3-0.3-0.3c-0.2,0-0.3,0.1-0.3,0.3c0,0.2,0.1,0.3,0.3,0.3C56,55.7,56.2,55.6,56.2,55.3z"/>
				<path class="st8" d="M58.7,54.3V56h-0.3v-0.1c-0.1,0.1-0.2,0.2-0.4,0.2c-0.3,0-0.6-0.2-0.6-0.6c0-0.4,0.3-0.6,0.6-0.6
					c0.2,0,0.3,0,0.4,0.1v-0.6H58.7z M58.3,55.3c0-0.2-0.1-0.3-0.3-0.3c-0.2,0-0.3,0.1-0.3,0.3c0,0.2,0.1,0.3,0.3,0.3
					C58.2,55.7,58.3,55.6,58.3,55.3z"/>
				<path class="st8" d="M60.2,55.4h-0.9c0,0.2,0.2,0.2,0.4,0.2c0.1,0,0.2,0,0.3-0.1l0.2,0.2C60,55.9,59.8,56,59.6,56
					c-0.4,0-0.7-0.3-0.7-0.6c0-0.4,0.3-0.6,0.7-0.6C59.9,54.7,60.2,55,60.2,55.4C60.2,55.4,60.2,55.4,60.2,55.4z M59.3,55.2h0.6
					c0-0.2-0.1-0.3-0.3-0.3C59.4,55,59.3,55.1,59.3,55.2z"/>
			</g>
			<g class="st1">
				<path class="st8" d="M49.2,57.5l-0.5,1.2h-0.4l-0.5-1.2h0.4l0.3,0.8l0.4-0.8H49.2z"/>
			</g>
			<g class="st1">
				<path class="st8" d="M50.5,58.2h-0.9c0,0.2,0.2,0.2,0.4,0.2c0.1,0,0.2,0,0.3-0.1l0.2,0.2c-0.1,0.1-0.3,0.2-0.5,0.2
					c-0.4,0-0.7-0.3-0.7-0.6c0-0.4,0.3-0.6,0.7-0.6C50.3,57.4,50.5,57.7,50.5,58.2C50.5,58.1,50.5,58.1,50.5,58.2z M49.6,58h0.6
					c0-0.2-0.1-0.3-0.3-0.3C49.7,57.7,49.6,57.8,49.6,58z"/>
				<path class="st8" d="M51,57h0.4L51,57.3h-0.3L51,57z M50.8,57.5h0.4v1.2h-0.4V57.5z"/>
				<path class="st8" d="M51.4,58.1c0-0.4,0.3-0.6,0.7-0.6c0.3,0,0.5,0.1,0.5,0.3l-0.3,0.1c-0.1-0.1-0.2-0.2-0.3-0.2
					c-0.2,0-0.3,0.1-0.3,0.3s0.1,0.3,0.3,0.3c0.1,0,0.2-0.1,0.3-0.2l0.3,0.2c-0.1,0.2-0.3,0.3-0.5,0.3
					C51.7,58.7,51.4,58.4,51.4,58.1z"/>
				<path class="st8" d="M54,57.5v1.2h-0.3v-0.1c-0.1,0.1-0.2,0.2-0.4,0.2c-0.3,0-0.5-0.2-0.5-0.6v-0.7h0.4v0.6
					c0,0.2,0.1,0.3,0.2,0.3c0.2,0,0.3-0.1,0.3-0.3v-0.6H54z"/>
				<path class="st8" d="M54.4,57h0.4v1.7h-0.4V57z"/>
				<path class="st8" d="M55,58.1c0-0.4,0.3-0.6,0.7-0.6s0.7,0.3,0.7,0.6s-0.3,0.6-0.7,0.6S55,58.4,55,58.1z M56,58.1
					c0-0.2-0.1-0.3-0.3-0.3c-0.2,0-0.3,0.1-0.3,0.3c0,0.2,0.1,0.3,0.3,0.3C55.8,58.4,56,58.3,56,58.1z"/>
				<path class="st8" d="M56.4,58.6l0.1-0.3c0.1,0.1,0.3,0.1,0.4,0.1c0.2,0,0.2,0,0.2-0.1c0-0.2-0.7,0-0.7-0.5
					c0-0.2,0.2-0.4,0.6-0.4c0.2,0,0.4,0,0.5,0.1l-0.1,0.3c-0.1-0.1-0.2-0.1-0.4-0.1c-0.2,0-0.2,0-0.2,0.1c0,0.2,0.7,0,0.7,0.5
					c0,0.2-0.2,0.4-0.6,0.4C56.8,58.7,56.5,58.7,56.4,58.6z"/>
			</g>
			<g class="st1">
				<path class="st10" d="M49.5,62.1v4.2h-1v-3.4h-0.8v-0.8H49.5z"/>
				<path class="st10" d="M50.2,64.2c0-1.4,0.8-2.2,1.8-2.2c1,0,1.8,0.8,1.8,2.2c0,1.4-0.8,2.2-1.8,2.2C51,66.4,50.2,65.6,50.2,64.2
					z M52.9,64.2c0-1-0.3-1.3-0.8-1.3c-0.5,0-0.8,0.4-0.8,1.3c0,1,0.3,1.3,0.8,1.3C52.5,65.6,52.9,65.2,52.9,64.2z"/>
				<path class="st10" d="M57.8,65.1c0,0.8-0.7,1.3-1.8,1.3c-1.1,0-1.8-0.5-1.8-1.3c0-0.4,0.2-0.8,0.6-1c-0.3-0.2-0.5-0.5-0.5-0.9
					c0-0.7,0.7-1.2,1.6-1.2c1,0,1.6,0.5,1.6,1.2c0,0.4-0.2,0.7-0.5,0.9C57.6,64.3,57.8,64.7,57.8,65.1z M56.8,65.1
					c0-0.4-0.3-0.6-0.8-0.6c-0.5,0-0.8,0.2-0.8,0.6c0,0.4,0.3,0.6,0.8,0.6C56.5,65.7,56.8,65.5,56.8,65.1z M55.4,63.3
					c0,0.3,0.3,0.5,0.6,0.5c0.4,0,0.7-0.2,0.7-0.5c0-0.3-0.3-0.5-0.7-0.5C55.7,62.8,55.4,63,55.4,63.3z"/>
			</g>
			<g class="st1">
				<path class="st11" d="M51,67.7l-0.5,1.1h-0.3l-0.5-1.1h0.3l0.3,0.7l0.3-0.7H51z"/>
			</g>
			<g class="st1">
				<path class="st11" d="M52,68.1v0.6h-0.3v-0.1c-0.1,0.1-0.2,0.1-0.3,0.1c-0.3,0-0.4-0.1-0.4-0.3c0-0.2,0.1-0.3,0.5-0.3h0.2
					c0-0.1-0.1-0.2-0.2-0.2c-0.1,0-0.2,0-0.3,0.1l-0.1-0.2c0.1-0.1,0.3-0.1,0.5-0.1C51.9,67.6,52,67.8,52,68.1z M51.7,68.4v-0.1
					h-0.2c-0.1,0-0.2,0.1-0.2,0.1c0,0.1,0.1,0.1,0.2,0.1C51.6,68.5,51.7,68.5,51.7,68.4z"/>
			</g>
			<g class="st1">
				<path class="st11" d="M53.5,67.7v0.9c0,0.4-0.2,0.6-0.6,0.6c-0.2,0-0.4,0-0.5-0.1l0.1-0.2c0.1,0.1,0.2,0.1,0.4,0.1
					c0.2,0,0.3-0.1,0.3-0.3v0c-0.1,0.1-0.2,0.1-0.3,0.1c-0.3,0-0.5-0.2-0.5-0.5c0-0.3,0.2-0.5,0.5-0.5c0.1,0,0.3,0.1,0.4,0.2v-0.1
					H53.5z M53.1,68.2c0-0.2-0.1-0.3-0.3-0.3s-0.3,0.1-0.3,0.3c0,0.2,0.1,0.3,0.3,0.3S53.1,68.3,53.1,68.2z"/>
				<path class="st11" d="M54.7,68.1v0.6h-0.3v-0.1c-0.1,0.1-0.2,0.1-0.3,0.1c-0.3,0-0.4-0.1-0.4-0.3c0-0.2,0.1-0.3,0.5-0.3h0.2
					c0-0.1-0.1-0.2-0.2-0.2c-0.1,0-0.2,0-0.3,0.1l-0.1-0.2c0.1-0.1,0.3-0.1,0.5-0.1C54.5,67.6,54.7,67.8,54.7,68.1z M54.4,68.4v-0.1
					h-0.2c-0.1,0-0.2,0.1-0.2,0.1c0,0.1,0.1,0.1,0.2,0.1C54.3,68.5,54.3,68.5,54.4,68.4z"/>
				<path class="st11" d="M54.9,68.6l0.1-0.2c0.1,0.1,0.2,0.1,0.4,0.1c0.1,0,0.2,0,0.2-0.1c0-0.2-0.7,0-0.7-0.4
					c0-0.2,0.2-0.3,0.5-0.3c0.1,0,0.3,0,0.4,0.1L55.7,68c-0.1-0.1-0.2-0.1-0.3-0.1c-0.1,0-0.2,0-0.2,0.1c0,0.2,0.7,0,0.7,0.4
					c0,0.2-0.2,0.3-0.5,0.3C55.2,68.8,55,68.7,54.9,68.6z"/>
			</g>
			<g>
				<path class="st2" d="M71.4,37h19.9c0.8,0,1.5,0.7,1.5,1.5v31.6c0,0.8-0.7,1.5-1.5,1.5H71.4c-0.8,0-1.5-0.7-1.5-1.5V38.5
					C69.9,37.7,70.6,37,71.4,37z"/>
			</g>
			<g class="st1">
				<path class="st8" d="M73.2,55.2c0-0.5,0.4-0.8,0.9-0.8c0.3,0,0.5,0.1,0.7,0.3l-0.2,0.2c-0.1-0.1-0.2-0.2-0.4-0.2
					c-0.3,0-0.5,0.2-0.5,0.5s0.2,0.5,0.5,0.5c0.2,0,0.3-0.1,0.4-0.2l0.2,0.2c-0.2,0.2-0.4,0.3-0.7,0.3C73.6,56,73.2,55.6,73.2,55.2z
					"/>
			</g>
			<g class="st1">
				<path class="st8" d="M74.8,55.3c0-0.4,0.3-0.6,0.7-0.6s0.7,0.3,0.7,0.6S75.9,56,75.5,56S74.8,55.7,74.8,55.3z M75.8,55.3
					c0-0.2-0.1-0.3-0.3-0.3c-0.2,0-0.3,0.1-0.3,0.3c0,0.2,0.1,0.3,0.3,0.3C75.7,55.7,75.8,55.6,75.8,55.3z"/>
			</g>
			<g class="st1">
				<path class="st8" d="M77.4,55.7V56h-1.1v-0.2l0.6-0.7h-0.6v-0.3h1.1V55l-0.6,0.7H77.4z"/>
				<path class="st8" d="M77.6,54.4c0-0.1,0.1-0.2,0.2-0.2s0.2,0.1,0.2,0.2c0,0.1-0.1,0.2-0.2,0.2S77.6,54.5,77.6,54.4z M77.6,54.7
					H78V56h-0.4V54.7z"/>
				<path class="st8" d="M79.6,55.3V56h-0.4v-0.6c0-0.2-0.1-0.3-0.2-0.3c-0.2,0-0.3,0.1-0.3,0.3V56h-0.4v-1.2h0.3v0.1
					c0.1-0.1,0.2-0.2,0.4-0.2C79.3,54.7,79.6,54.9,79.6,55.3z"/>
			</g>
			<g class="st1">
				<path class="st8" d="M81.1,55.3V56h-0.4v-0.6c0-0.2-0.1-0.3-0.2-0.3c-0.2,0-0.3,0.1-0.3,0.3V56h-0.4v-1.7h0.4v0.6
					c0.1-0.1,0.2-0.1,0.4-0.1C80.9,54.7,81.1,54.9,81.1,55.3z"/>
			</g>
			<g class="st1">
				<path class="st8" d="M82.7,55.4h-0.9c0,0.2,0.2,0.2,0.4,0.2c0.1,0,0.2,0,0.3-0.1l0.2,0.2c-0.1,0.1-0.3,0.2-0.5,0.2
					c-0.4,0-0.7-0.3-0.7-0.6c0-0.4,0.3-0.6,0.7-0.6C82.4,54.7,82.7,55,82.7,55.4C82.7,55.4,82.7,55.4,82.7,55.4z M81.7,55.2h0.6
					c0-0.2-0.1-0.3-0.3-0.3C81.9,55,81.8,55.1,81.7,55.2z"/>
				<path class="st8" d="M82.9,54.4c0-0.1,0.1-0.2,0.2-0.2s0.2,0.1,0.2,0.2c0,0.1-0.1,0.2-0.2,0.2S82.9,54.5,82.9,54.4z M82.9,54.7
					h0.4V56h-0.4V54.7z"/>
			</g>
			<g class="st1">
				<path class="st8" d="M84.4,54.7V55c0,0-0.1,0-0.1,0c-0.2,0-0.3,0.1-0.3,0.3V56h-0.4v-1.2h0.3v0.2C84,54.8,84.2,54.7,84.4,54.7z"
					/>
			</g>
			<g class="st1">
				<path class="st8" d="M84.5,55.3c0-0.4,0.3-0.6,0.7-0.6s0.7,0.3,0.7,0.6S85.5,56,85.1,56S84.5,55.7,84.5,55.3z M85.5,55.3
					c0-0.2-0.1-0.3-0.3-0.3c-0.2,0-0.3,0.1-0.3,0.3c0,0.2,0.1,0.3,0.3,0.3C85.3,55.7,85.5,55.6,85.5,55.3z"/>
				<path class="st8" d="M87.9,54.3V56h-0.3v-0.1c-0.1,0.1-0.2,0.2-0.4,0.2c-0.3,0-0.6-0.2-0.6-0.6c0-0.4,0.3-0.6,0.6-0.6
					c0.2,0,0.3,0,0.4,0.1v-0.6H87.9z M87.6,55.3c0-0.2-0.1-0.3-0.3-0.3c-0.2,0-0.3,0.1-0.3,0.3c0,0.2,0.1,0.3,0.3,0.3
					C87.5,55.7,87.6,55.6,87.6,55.3z"/>
				<path class="st8" d="M89.5,55.4h-0.9c0,0.2,0.2,0.2,0.4,0.2c0.1,0,0.2,0,0.3-0.1l0.2,0.2c-0.1,0.1-0.3,0.2-0.5,0.2
					c-0.4,0-0.7-0.3-0.7-0.6c0-0.4,0.3-0.6,0.7-0.6C89.2,54.7,89.5,55,89.5,55.4C89.5,55.4,89.5,55.4,89.5,55.4z M88.5,55.2h0.6
					c0-0.2-0.1-0.3-0.3-0.3C88.7,55,88.6,55.1,88.5,55.2z"/>
			</g>
			<g class="st1">
				<path class="st8" d="M75.3,57.4v0.3c0,0-0.1,0-0.1,0c-0.2,0-0.3,0.1-0.3,0.3v0.6h-0.4v-1.2h0.3v0.2C75,57.5,75.1,57.4,75.3,57.4
					z"/>
			</g>
			<g class="st1">
				<path class="st8" d="M76.7,58.2h-0.9c0,0.2,0.2,0.2,0.4,0.2c0.1,0,0.2,0,0.3-0.1l0.2,0.2c-0.1,0.1-0.3,0.2-0.5,0.2
					c-0.4,0-0.7-0.3-0.7-0.6c0-0.4,0.3-0.6,0.7-0.6C76.4,57.4,76.7,57.7,76.7,58.2C76.7,58.1,76.7,58.1,76.7,58.2z M75.8,58h0.6
					c0-0.2-0.1-0.3-0.3-0.3C75.9,57.7,75.8,57.8,75.8,58z"/>
				<path class="st8" d="M76.8,58.6l0.1-0.3c0.1,0.1,0.3,0.1,0.4,0.1c0.2,0,0.2,0,0.2-0.1c0-0.2-0.7,0-0.7-0.5
					c0-0.2,0.2-0.4,0.6-0.4c0.2,0,0.4,0,0.5,0.1l-0.1,0.3c-0.1-0.1-0.2-0.1-0.4-0.1c-0.2,0-0.2,0-0.2,0.1c0,0.2,0.7,0,0.7,0.5
					c0,0.2-0.2,0.4-0.6,0.4C77.1,58.7,76.9,58.7,76.8,58.6z"/>
				<path class="st8" d="M78.9,58.6c-0.1,0.1-0.2,0.1-0.3,0.1c-0.3,0-0.5-0.1-0.5-0.4v-0.5H78v-0.3h0.2v-0.3h0.4v0.3h0.3v0.3h-0.3
					v0.5c0,0.1,0.1,0.2,0.2,0.2c0.1,0,0.1,0,0.1,0L78.9,58.6z"/>
				<path class="st8" d="M80.2,58v0.7h-0.3v-0.2c-0.1,0.1-0.2,0.2-0.4,0.2c-0.3,0-0.5-0.2-0.5-0.4c0-0.2,0.2-0.4,0.5-0.4h0.3
					c0-0.2-0.1-0.2-0.3-0.2c-0.1,0-0.3,0-0.4,0.1l-0.1-0.2c0.1-0.1,0.3-0.1,0.5-0.1C80,57.4,80.2,57.6,80.2,58z M79.9,58.3v-0.1
					h-0.2c-0.2,0-0.2,0.1-0.2,0.1c0,0.1,0.1,0.1,0.2,0.1C79.7,58.5,79.8,58.4,79.9,58.3z"/>
				<path class="st8" d="M81.8,57.5v1.2h-0.3v-0.1c-0.1,0.1-0.2,0.2-0.4,0.2c-0.3,0-0.5-0.2-0.5-0.6v-0.7h0.4v0.6
					c0,0.2,0.1,0.3,0.2,0.3c0.2,0,0.3-0.1,0.3-0.3v-0.6H81.8z"/>
			</g>
			<g class="st1">
				<path class="st8" d="M82.9,57.4v0.3c0,0-0.1,0-0.1,0c-0.2,0-0.3,0.1-0.3,0.3v0.6h-0.4v-1.2h0.3v0.2
					C82.5,57.5,82.7,57.4,82.9,57.4z"/>
			</g>
			<g class="st1">
				<path class="st8" d="M84.2,58v0.7h-0.3v-0.2c-0.1,0.1-0.2,0.2-0.4,0.2c-0.3,0-0.5-0.2-0.5-0.4c0-0.2,0.2-0.4,0.5-0.4h0.3
					c0-0.2-0.1-0.2-0.3-0.2c-0.1,0-0.3,0-0.4,0.1L83,57.6c0.1-0.1,0.3-0.1,0.5-0.1C84,57.4,84.2,57.6,84.2,58z M83.8,58.3v-0.1h-0.2
					c-0.2,0-0.2,0.1-0.2,0.1c0,0.1,0.1,0.1,0.2,0.1C83.7,58.5,83.8,58.4,83.8,58.3z"/>
				<path class="st8" d="M85.7,58v0.7h-0.4V58c0-0.2-0.1-0.3-0.2-0.3c-0.2,0-0.3,0.1-0.3,0.3v0.6h-0.4v-1.2h0.3v0.1
					c0.1-0.1,0.2-0.2,0.4-0.2C85.5,57.4,85.7,57.6,85.7,58z"/>
			</g>
			<g class="st1">
				<path class="st8" d="M86.9,58.6c-0.1,0.1-0.2,0.1-0.3,0.1c-0.3,0-0.5-0.1-0.5-0.4v-0.5h-0.2v-0.3h0.2v-0.3h0.4v0.3h0.3v0.3h-0.3
					v0.5c0,0.1,0.1,0.2,0.2,0.2c0.1,0,0.1,0,0.1,0L86.9,58.6z"/>
			</g>
			<g class="st1">
				<path class="st8" d="M88.2,58.2h-0.9c0,0.2,0.2,0.2,0.4,0.2c0.1,0,0.2,0,0.3-0.1l0.2,0.2c-0.1,0.1-0.3,0.2-0.5,0.2
					c-0.4,0-0.7-0.3-0.7-0.6c0-0.4,0.3-0.6,0.7-0.6C87.9,57.4,88.2,57.7,88.2,58.2C88.2,58.1,88.2,58.1,88.2,58.2z M87.3,58h0.6
					c0-0.2-0.1-0.3-0.3-0.3C87.4,57.7,87.3,57.8,87.3,58z"/>
			</g>
			<g class="st1">
				<path class="st10" d="M81.2,64.2c0,1.5-0.9,2.3-2.1,2.3c-0.4,0-0.9-0.1-1.2-0.3l0.4-0.7c0.2,0.2,0.5,0.2,0.8,0.2
					c0.7,0,1.2-0.4,1.2-1.2c-0.2,0.2-0.6,0.4-1,0.4c-0.8,0-1.4-0.5-1.4-1.3c0-0.9,0.7-1.4,1.6-1.4C80.4,62.1,81.2,62.8,81.2,64.2z
					 M80.1,63.4c0-0.4-0.3-0.6-0.7-0.6c-0.4,0-0.7,0.2-0.7,0.6s0.3,0.6,0.7,0.6C79.8,64,80.1,63.8,80.1,63.4z"/>
				<path class="st10" d="M85.1,65.1c0,0.8-0.7,1.3-1.8,1.3c-1.1,0-1.8-0.5-1.8-1.3c0-0.4,0.2-0.8,0.6-1c-0.3-0.2-0.5-0.5-0.5-0.9
					c0-0.7,0.7-1.2,1.6-1.2c1,0,1.6,0.5,1.6,1.2c0,0.4-0.2,0.7-0.5,0.9C84.9,64.3,85.1,64.7,85.1,65.1z M84.2,65.1
					c0-0.4-0.3-0.6-0.8-0.6c-0.5,0-0.8,0.2-0.8,0.6c0,0.4,0.3,0.6,0.8,0.6C83.9,65.7,84.2,65.5,84.2,65.1z M82.7,63.3
					c0,0.3,0.3,0.5,0.6,0.5c0.4,0,0.7-0.2,0.7-0.5c0-0.3-0.3-0.5-0.7-0.5C83,62.8,82.7,63,82.7,63.3z"/>
			</g>
			<g class="st1">
				<path class="st11" d="M79.6,67.7l-0.5,1.1h-0.3l-0.5-1.1h0.3l0.3,0.7l0.3-0.7H79.6z"/>
			</g>
			<g class="st1">
				<path class="st11" d="M80.7,68.1v0.6h-0.3v-0.1c-0.1,0.1-0.2,0.1-0.3,0.1c-0.3,0-0.4-0.1-0.4-0.3c0-0.2,0.1-0.3,0.5-0.3h0.2
					c0-0.1-0.1-0.2-0.2-0.2c-0.1,0-0.2,0-0.3,0.1l-0.1-0.2c0.1-0.1,0.3-0.1,0.5-0.1C80.5,67.6,80.7,67.8,80.7,68.1z M80.4,68.4v-0.1
					h-0.2c-0.1,0-0.2,0.1-0.2,0.1c0,0.1,0.1,0.1,0.2,0.1C80.2,68.5,80.3,68.5,80.4,68.4z"/>
			</g>
			<g class="st1">
				<path class="st11" d="M82.1,67.7v0.9c0,0.4-0.2,0.6-0.6,0.6c-0.2,0-0.4,0-0.5-0.1l0.1-0.2c0.1,0.1,0.2,0.1,0.4,0.1
					c0.2,0,0.3-0.1,0.3-0.3v0c-0.1,0.1-0.2,0.1-0.3,0.1c-0.3,0-0.5-0.2-0.5-0.5c0-0.3,0.2-0.5,0.5-0.5c0.1,0,0.3,0.1,0.4,0.2v-0.1
					H82.1z M81.8,68.2c0-0.2-0.1-0.3-0.3-0.3s-0.3,0.1-0.3,0.3c0,0.2,0.1,0.3,0.3,0.3S81.8,68.3,81.8,68.2z"/>
				<path class="st11" d="M83.3,68.1v0.6H83v-0.1c-0.1,0.1-0.2,0.1-0.3,0.1c-0.3,0-0.4-0.1-0.4-0.3c0-0.2,0.1-0.3,0.5-0.3H83
					c0-0.1-0.1-0.2-0.2-0.2c-0.1,0-0.2,0-0.3,0.1l-0.1-0.2c0.1-0.1,0.3-0.1,0.5-0.1C83.1,67.6,83.3,67.8,83.3,68.1z M83,68.4v-0.1
					h-0.2c-0.1,0-0.2,0.1-0.2,0.1c0,0.1,0.1,0.1,0.2,0.1C82.9,68.5,83,68.5,83,68.4z"/>
				<path class="st11" d="M83.5,68.6l0.1-0.2c0.1,0.1,0.2,0.1,0.4,0.1c0.1,0,0.2,0,0.2-0.1c0-0.2-0.7,0-0.7-0.4
					c0-0.2,0.2-0.3,0.5-0.3c0.1,0,0.3,0,0.4,0.1L84.3,68c-0.1-0.1-0.2-0.1-0.3-0.1c-0.1,0-0.2,0-0.2,0.1c0,0.2,0.7,0,0.7,0.4
					c0,0.2-0.2,0.3-0.5,0.3C83.8,68.8,83.6,68.7,83.5,68.6z"/>
			</g>
			<g>
				<path class="st2" d="M100,37h19.9c0.8,0,1.5,0.7,1.5,1.5v31.6c0,0.8-0.7,1.5-1.5,1.5H100c-0.8,0-1.5-0.7-1.5-1.5V38.5
					C98.5,37.7,99.2,37,100,37z"/>
			</g>
			<g class="st1">
				<path class="st8" d="M102.2,55.2c0-0.5,0.4-0.8,0.9-0.8c0.3,0,0.5,0.1,0.7,0.3l-0.2,0.2c-0.1-0.1-0.2-0.2-0.4-0.2
					c-0.3,0-0.5,0.2-0.5,0.5s0.2,0.5,0.5,0.5c0.2,0,0.3-0.1,0.4-0.2l0.2,0.2c-0.1,0.2-0.4,0.3-0.7,0.3
					C102.6,56,102.2,55.6,102.2,55.2z"/>
			</g>
			<g class="st1">
				<path class="st8" d="M103.8,55.3c0-0.4,0.3-0.6,0.7-0.6s0.7,0.3,0.7,0.6s-0.3,0.6-0.7,0.6S103.8,55.7,103.8,55.3z M104.8,55.3
					c0-0.2-0.1-0.3-0.3-0.3s-0.3,0.1-0.3,0.3c0,0.2,0.1,0.3,0.3,0.3S104.8,55.6,104.8,55.3z"/>
				<path class="st8" d="M105.3,55.3c0-0.4,0.3-0.6,0.7-0.6s0.7,0.3,0.7,0.6S106.4,56,106,56S105.3,55.7,105.3,55.3z M106.3,55.3
					c0-0.2-0.1-0.3-0.3-0.3s-0.3,0.1-0.3,0.3c0,0.2,0.1,0.3,0.3,0.3S106.3,55.6,106.3,55.3z"/>
			</g>
			<g class="st1">
				<path class="st8" d="M107.7,54.7V55c0,0-0.1,0-0.1,0c-0.2,0-0.3,0.1-0.3,0.3V56h-0.4v-1.2h0.3v0.2
					C107.3,54.8,107.5,54.7,107.7,54.7z"/>
			</g>
			<g class="st1">
				<path class="st8" d="M109.1,54.3V56h-0.3v-0.1c-0.1,0.1-0.2,0.2-0.4,0.2c-0.3,0-0.6-0.2-0.6-0.6c0-0.4,0.3-0.6,0.6-0.6
					c0.1,0,0.3,0,0.4,0.1v-0.6H109.1z M108.8,55.3c0-0.2-0.1-0.3-0.3-0.3c-0.2,0-0.3,0.1-0.3,0.3c0,0.2,0.1,0.3,0.3,0.3
					C108.6,55.7,108.8,55.6,108.8,55.3z"/>
				<path class="st8" d="M110.7,55.4h-0.9c0,0.2,0.2,0.2,0.3,0.2c0.1,0,0.2,0,0.3-0.1l0.2,0.2c-0.1,0.1-0.3,0.2-0.5,0.2
					c-0.4,0-0.7-0.3-0.7-0.6c0-0.4,0.3-0.6,0.7-0.6C110.4,54.7,110.7,55,110.7,55.4C110.7,55.4,110.7,55.4,110.7,55.4z M109.7,55.2
					h0.6c0-0.2-0.1-0.3-0.3-0.3C109.9,55,109.7,55.1,109.7,55.2z"/>
				<path class="st8" d="M112.2,55.3V56h-0.4v-0.6c0-0.2-0.1-0.3-0.2-0.3c-0.2,0-0.3,0.1-0.3,0.3V56h-0.4v-1.2h0.3v0.1
					c0.1-0.1,0.2-0.2,0.4-0.2C111.9,54.7,112.2,54.9,112.2,55.3z"/>
			</g>
			<g class="st1">
				<path class="st8" d="M113.6,55.3V56h-0.3v-0.2c-0.1,0.1-0.2,0.2-0.4,0.2c-0.3,0-0.5-0.2-0.5-0.4c0-0.2,0.2-0.4,0.5-0.4h0.3
					c0-0.2-0.1-0.2-0.3-0.2c-0.1,0-0.3,0-0.4,0.1l-0.1-0.2c0.1-0.1,0.3-0.1,0.5-0.1C113.3,54.7,113.6,54.9,113.6,55.3z M113.2,55.6
					v-0.1H113c-0.2,0-0.2,0.1-0.2,0.1c0,0.1,0.1,0.1,0.2,0.1C113.1,55.7,113.2,55.7,113.2,55.6z"/>
			</g>
			<g class="st1">
				<path class="st8" d="M115.1,54.3V56h-0.3v-0.1c-0.1,0.1-0.2,0.2-0.4,0.2c-0.3,0-0.6-0.2-0.6-0.6c0-0.4,0.3-0.6,0.6-0.6
					c0.1,0,0.3,0,0.4,0.1v-0.6H115.1z M114.8,55.3c0-0.2-0.1-0.3-0.3-0.3c-0.2,0-0.3,0.1-0.3,0.3c0,0.2,0.1,0.3,0.3,0.3
					C114.7,55.7,114.8,55.6,114.8,55.3z"/>
				<path class="st8" d="M115.4,55.3c0-0.4,0.3-0.6,0.7-0.6s0.7,0.3,0.7,0.6s-0.3,0.6-0.7,0.6S115.4,55.7,115.4,55.3z M116.4,55.3
					c0-0.2-0.1-0.3-0.3-0.3c-0.2,0-0.3,0.1-0.3,0.3c0,0.2,0.1,0.3,0.3,0.3C116.2,55.7,116.4,55.6,116.4,55.3z"/>
				<path class="st8" d="M117.7,54.7V55c0,0-0.1,0-0.1,0c-0.2,0-0.3,0.1-0.3,0.3V56H117v-1.2h0.3v0.2
					C117.4,54.8,117.5,54.7,117.7,54.7z"/>
			</g>
			<g class="st1">
				<path class="st8" d="M104.4,58.1c0,0.4-0.3,0.6-0.6,0.6c-0.2,0-0.3,0-0.4-0.1v0.6H103v-1.7h0.3v0.1c0.1-0.1,0.2-0.2,0.4-0.2
					C104.1,57.4,104.4,57.7,104.4,58.1z M104,58.1c0-0.2-0.1-0.3-0.3-0.3c-0.2,0-0.3,0.1-0.3,0.3c0,0.2,0.1,0.3,0.3,0.3
					C103.9,58.4,104,58.3,104,58.1z"/>
				<path class="st8" d="M105.8,58.2h-0.9c0,0.2,0.2,0.2,0.3,0.2c0.1,0,0.2,0,0.3-0.1l0.2,0.2c-0.1,0.1-0.3,0.2-0.5,0.2
					c-0.4,0-0.7-0.3-0.7-0.6c0-0.4,0.3-0.6,0.7-0.6C105.5,57.4,105.8,57.7,105.8,58.2C105.8,58.1,105.8,58.1,105.8,58.2z M104.9,58
					h0.6c0-0.2-0.1-0.3-0.3-0.3C105,57.7,104.9,57.8,104.9,58z"/>
				<path class="st8" d="M107.3,57v1.7h-0.3v-0.1c-0.1,0.1-0.2,0.2-0.4,0.2c-0.3,0-0.6-0.2-0.6-0.6c0-0.4,0.3-0.6,0.6-0.6
					c0.2,0,0.3,0,0.4,0.1V57H107.3z M106.9,58.1c0-0.2-0.1-0.3-0.3-0.3c-0.2,0-0.3,0.1-0.3,0.3c0,0.2,0.1,0.3,0.3,0.3
					C106.8,58.4,106.9,58.3,106.9,58.1z"/>
			</g>
			<g class="st1">
				<path class="st8" d="M108.7,58v0.7h-0.3v-0.2c-0.1,0.1-0.2,0.2-0.4,0.2c-0.3,0-0.5-0.2-0.5-0.4c0-0.2,0.2-0.4,0.5-0.4h0.3
					c0-0.2-0.1-0.2-0.3-0.2c-0.1,0-0.3,0-0.4,0.1l-0.1-0.2c0.1-0.1,0.3-0.1,0.5-0.1C108.5,57.4,108.7,57.6,108.7,58z M108.3,58.3
					v-0.1h-0.2c-0.2,0-0.2,0.1-0.2,0.1c0,0.1,0.1,0.1,0.2,0.1C108.2,58.5,108.3,58.4,108.3,58.3z"/>
			</g>
			<g class="st1">
				<path class="st8" d="M110.3,57.5v1c0,0.5-0.2,0.7-0.7,0.7c-0.2,0-0.5-0.1-0.6-0.2l0.1-0.3c0.1,0.1,0.3,0.1,0.4,0.1
					c0.3,0,0.4-0.1,0.4-0.3v-0.1c-0.1,0.1-0.2,0.2-0.4,0.2c-0.3,0-0.6-0.2-0.6-0.6c0-0.4,0.3-0.6,0.6-0.6c0.2,0,0.3,0.1,0.4,0.2
					v-0.2H110.3z M109.9,58c0-0.2-0.1-0.3-0.3-0.3s-0.3,0.1-0.3,0.3s0.1,0.3,0.3,0.3S109.9,58.2,109.9,58z"/>
				<path class="st8" d="M110.5,58.1c0-0.4,0.3-0.6,0.7-0.6s0.7,0.3,0.7,0.6s-0.3,0.6-0.7,0.6S110.5,58.4,110.5,58.1z M111.5,58.1
					c0-0.2-0.1-0.3-0.3-0.3c-0.2,0-0.3,0.1-0.3,0.3c0,0.2,0.1,0.3,0.3,0.3C111.4,58.4,111.5,58.3,111.5,58.1z M111.3,57h0.4
					l-0.4,0.3H111L111.3,57z"/>
				<path class="st8" d="M113.4,57.5v1c0,0.5-0.2,0.7-0.7,0.7c-0.2,0-0.5-0.1-0.6-0.2l0.1-0.3c0.1,0.1,0.3,0.1,0.4,0.1
					c0.2,0,0.4-0.1,0.4-0.3v-0.1c-0.1,0.1-0.2,0.2-0.4,0.2c-0.3,0-0.6-0.2-0.6-0.6c0-0.4,0.3-0.6,0.6-0.6c0.2,0,0.3,0.1,0.4,0.2
					v-0.2H113.4z M113,58c0-0.2-0.1-0.3-0.3-0.3s-0.3,0.1-0.3,0.3s0.1,0.3,0.3,0.3S113,58.2,113,58z"/>
				<path class="st8" d="M113.7,57.1c0-0.1,0.1-0.2,0.2-0.2s0.2,0.1,0.2,0.2c0,0.1-0.1,0.2-0.2,0.2S113.7,57.2,113.7,57.1z
					 M113.7,57.5h0.4v1.2h-0.4V57.5z"/>
			</g>
			<g class="st1">
				<path class="st8" d="M114.3,58.1c0-0.4,0.3-0.6,0.7-0.6c0.3,0,0.5,0.1,0.5,0.3l-0.3,0.1c-0.1-0.1-0.2-0.2-0.3-0.2
					c-0.2,0-0.3,0.1-0.3,0.3s0.1,0.3,0.3,0.3c0.1,0,0.2-0.1,0.3-0.2l0.3,0.2c-0.1,0.2-0.3,0.3-0.5,0.3
					C114.6,58.7,114.3,58.4,114.3,58.1z"/>
			</g>
			<g class="st1">
				<path class="st8" d="M115.6,58.1c0-0.4,0.3-0.6,0.7-0.6s0.7,0.3,0.7,0.6s-0.3,0.6-0.7,0.6S115.6,58.4,115.6,58.1z M116.6,58.1
					c0-0.2-0.1-0.3-0.3-0.3c-0.2,0-0.3,0.1-0.3,0.3c0,0.2,0.1,0.3,0.3,0.3C116.5,58.4,116.6,58.3,116.6,58.1z"/>
			</g>
			<g class="st1">
				<path class="st10" d="M107.9,65c0,0.7-0.5,1.4-1.7,1.4c-0.6,0-1.2-0.2-1.6-0.5l0.4-0.7c0.3,0.2,0.8,0.4,1.2,0.4
					c0.5,0,0.8-0.2,0.8-0.5c0-0.3-0.2-0.5-1-0.5h-1.1l0.2-2.4h2.6v0.8h-1.8l-0.1,0.8h0.3C107.4,63.7,107.9,64.3,107.9,65z"/>
				<path class="st10" d="M108.3,64.2c0-1.4,0.8-2.2,1.8-2.2c1,0,1.8,0.8,1.8,2.2c0,1.4-0.8,2.2-1.8,2.2
					C109.1,66.4,108.3,65.6,108.3,64.2z M110.9,64.2c0-1-0.3-1.3-0.8-1.3c-0.5,0-0.8,0.4-0.8,1.3c0,1,0.3,1.3,0.8,1.3
					C110.6,65.6,110.9,65.2,110.9,64.2z"/>
				<path class="st10" d="M115.5,65c0,0.7-0.5,1.4-1.7,1.4c-0.6,0-1.2-0.2-1.6-0.5l0.4-0.7c0.3,0.2,0.8,0.4,1.2,0.4
					c0.5,0,0.8-0.2,0.8-0.5c0-0.3-0.2-0.5-1-0.5h-1.1l0.2-2.4h2.6v0.8h-1.8l-0.1,0.8h0.3C115,63.7,115.5,64.3,115.5,65z"/>
			</g>
			<g class="st1">
				<path class="st11" d="M108.3,67.7l-0.5,1.1h-0.3l-0.5-1.1h0.3l0.3,0.7l0.3-0.7H108.3z"/>
			</g>
			<g class="st1">
				<path class="st11" d="M109.3,68.1v0.6H109v-0.1c-0.1,0.1-0.2,0.1-0.3,0.1c-0.3,0-0.4-0.1-0.4-0.3c0-0.2,0.1-0.3,0.5-0.3h0.2
					c0-0.1-0.1-0.2-0.2-0.2c-0.1,0-0.2,0-0.3,0.1l-0.1-0.2c0.1-0.1,0.3-0.1,0.5-0.1C109.1,67.6,109.3,67.8,109.3,68.1z M109,68.4
					v-0.1h-0.2c-0.1,0-0.2,0.1-0.2,0.1c0,0.1,0.1,0.1,0.2,0.1C108.9,68.5,108.9,68.5,109,68.4z"/>
			</g>
			<g class="st1">
				<path class="st11" d="M110.7,67.7v0.9c0,0.4-0.2,0.6-0.6,0.6c-0.2,0-0.4,0-0.5-0.1l0.1-0.2c0.1,0.1,0.2,0.1,0.4,0.1
					c0.2,0,0.3-0.1,0.3-0.3v0c-0.1,0.1-0.2,0.1-0.3,0.1c-0.3,0-0.5-0.2-0.5-0.5c0-0.3,0.2-0.5,0.5-0.5c0.1,0,0.3,0.1,0.4,0.2v-0.1
					H110.7z M110.4,68.2c0-0.2-0.1-0.3-0.3-0.3s-0.3,0.1-0.3,0.3c0,0.2,0.1,0.3,0.3,0.3S110.4,68.3,110.4,68.2z"/>
				<path class="st11" d="M111.9,68.1v0.6h-0.3v-0.1c-0.1,0.1-0.2,0.1-0.3,0.1c-0.3,0-0.4-0.1-0.4-0.3c0-0.2,0.1-0.3,0.5-0.3h0.2
					c0-0.1-0.1-0.2-0.2-0.2c-0.1,0-0.2,0-0.3,0.1l-0.1-0.2c0.1-0.1,0.3-0.1,0.5-0.1C111.7,67.6,111.9,67.8,111.9,68.1z M111.6,68.4
					v-0.1h-0.2c-0.1,0-0.2,0.1-0.2,0.1c0,0.1,0.1,0.1,0.2,0.1C111.5,68.5,111.6,68.5,111.6,68.4z"/>
				<path class="st11" d="M112.1,68.6l0.1-0.2c0.1,0.1,0.2,0.1,0.4,0.1c0.1,0,0.2,0,0.2-0.1c0-0.2-0.7,0-0.7-0.4
					c0-0.2,0.2-0.3,0.5-0.3c0.1,0,0.3,0,0.4,0.1l-0.1,0.2c-0.1-0.1-0.2-0.1-0.3-0.1c-0.1,0-0.2,0-0.2,0.1c0,0.2,0.7,0,0.7,0.4
					c0,0.2-0.2,0.3-0.5,0.3C112.4,68.8,112.2,68.7,112.1,68.6z"/>
			</g>
			<g>
				<g>
					<g>
						<path class="st7" d="M49.4,47.5h0.8c0.1,0,0.2,0.1,0.2,0.2v1.6c0,0.1-0.1,0.2-0.2,0.2h-0.8c-0.1,0-0.2-0.1-0.2-0.2v-1.6
							C49.1,47.6,49.2,47.5,49.4,47.5z"/>
					</g>
					<g>
						<path class="st7" d="M55.5,47.5h0.8c0.1,0,0.2,0.1,0.2,0.2v1.6c0,0.1-0.1,0.2-0.2,0.2h-0.8c-0.1,0-0.2-0.1-0.2-0.2v-1.6
							C55.3,47.6,55.4,47.5,55.5,47.5z"/>
					</g>
				</g>
				<g>
					<path class="st6" d="M56.1,46.7h-6.5l0.5-2.2c0.1-0.5,0.6-0.9,1.1-0.9h3.2c0.5,0,1,0.4,1.1,0.9L56.1,46.7L56.1,46.7z"/>
				</g>
				<g>
					<path class="st7" d="M50,46.3l0.4-1.7c0.1-0.4,0.4-0.6,0.8-0.6h3.2c0.4,0,0.7,0.2,0.8,0.6l0.4,1.7H50L50,46.3z"/>
				</g>
				<g>
					<path class="st6" d="M49.8,45.7h6c0.5,0,1,0.5,1,1v1.5c0,0.2-0.1,0.3-0.3,0.3h-7.4c-0.2,0-0.3-0.1-0.3-0.3v-1.5
						C48.8,46.2,49.3,45.7,49.8,45.7z"/>
				</g>
				<g>
					<circle class="st7" cx="50.2" cy="47.1" r="0.4"/>
				</g>
				<g>
					<path class="st7" d="M55.6,47.1c0,0.2-0.2,0.4-0.4,0.4s-0.4-0.2-0.4-0.4s0.2-0.4,0.4-0.4S55.6,46.9,55.6,47.1z"/>
				</g>
			</g>
			<g>
				<g>
					<path class="st7" d="M85.8,46.2l-0.4,0.3l-5.4,3.9c-0.3,0.2-0.8,0-0.8-0.4v-7.3c0-0.3,0.2-0.5,0.5-0.5c2.6,0.2,4.8,1.4,6.2,3.3
						C86.1,45.7,86,46,85.8,46.2L85.8,46.2z"/>
				</g>
				<g>
					<path class="st6" d="M85.4,46.5L80,50.4c-0.3,0.2-0.8,0-0.8-0.4v-6.8h0C81.7,43.4,83.9,44.6,85.4,46.5z"/>
				</g>
				<g>
					<circle class="st7" cx="80.4" cy="45.9" r="0.3"/>
				</g>
				<g>
					<path class="st7" d="M81.4,47.7c0,0.2-0.2,0.5-0.4,0.5s-0.4-0.2-0.4-0.5s0.2-0.5,0.4-0.5S81.4,47.4,81.4,47.7z"/>
				</g>
				<g>
					<path class="st7" d="M83,45.8c0,0.2-0.2,0.4-0.4,0.4s-0.4-0.2-0.4-0.4s0.2-0.4,0.4-0.4S83,45.6,83,45.8z"/>
				</g>
			</g>
		</g>
	</g>
	<g>
		<path class="st6" d="M64.6,87.3H37.3c-2.8,0-5-2.2-5-5l0,0c0-2.8,2.2-5,5-5h27.3c2.8,0,5,2.2,5,5l0,0
			C69.6,85.1,67.4,87.3,64.6,87.3z"/>
	</g>
	<g class="st1">
		<path class="st2" d="M39.6,82.9c0,0.4-0.3,0.6-0.9,0.6h-1.1v-2.2h1.1c0.5,0,0.8,0.2,0.8,0.6c0,0.2-0.1,0.4-0.3,0.5
			C39.5,82.4,39.6,82.6,39.6,82.9z M38.1,81.7v0.5h0.5c0.2,0,0.4-0.1,0.4-0.3c0-0.2-0.1-0.3-0.4-0.3H38.1z M39.1,82.8
			c0-0.2-0.1-0.3-0.4-0.3h-0.6v0.5h0.6C39,83.1,39.1,83,39.1,82.8z"/>
		<path class="st2" d="M41.6,81.8v1.7h-0.5v-0.2c-0.1,0.1-0.3,0.2-0.5,0.2c-0.4,0-0.7-0.2-0.7-0.7v-0.9h0.5v0.9
			c0,0.3,0.1,0.4,0.3,0.4c0.2,0,0.4-0.1,0.4-0.4v-0.8H41.6z"/>
		<path class="st2" d="M41.9,83.3l0.2-0.3c0.1,0.1,0.4,0.2,0.6,0.2c0.2,0,0.3-0.1,0.3-0.2c0-0.3-1,0-1-0.7c0-0.3,0.3-0.5,0.8-0.5
			c0.2,0,0.5,0.1,0.6,0.1l-0.2,0.3c-0.2-0.1-0.3-0.1-0.5-0.1c-0.2,0-0.3,0.1-0.3,0.2c0,0.3,1,0,1,0.7c0,0.3-0.3,0.5-0.8,0.5
			C42.4,83.5,42.1,83.4,41.9,83.3z"/>
		<path class="st2" d="M43.6,82.6c0-0.5,0.4-0.9,0.9-0.9c0.4,0,0.6,0.2,0.7,0.4l-0.4,0.2c-0.1-0.2-0.2-0.2-0.4-0.2
			c-0.2,0-0.4,0.2-0.4,0.5s0.2,0.5,0.4,0.5c0.2,0,0.3-0.1,0.4-0.2l0.4,0.2c-0.1,0.3-0.4,0.4-0.7,0.4C44,83.5,43.6,83.1,43.6,82.6z"
			/>
		<path class="st2" d="M47,82.5v1h-0.5v-0.2c-0.1,0.2-0.3,0.2-0.5,0.2c-0.4,0-0.6-0.2-0.6-0.5c0-0.3,0.2-0.5,0.7-0.5h0.4
			c0-0.2-0.1-0.3-0.4-0.3c-0.2,0-0.4,0.1-0.5,0.2L45.5,82c0.2-0.1,0.5-0.2,0.7-0.2C46.7,81.8,47,82,47,82.5z M46.6,82.9v-0.2h-0.3
			c-0.2,0-0.3,0.1-0.3,0.2c0,0.1,0.1,0.2,0.3,0.2C46.4,83.2,46.5,83.1,46.6,82.9z"/>
		<path class="st2" d="M50,81.2v2.3h-0.5v-0.2c-0.1,0.1-0.3,0.2-0.5,0.2c-0.5,0-0.8-0.3-0.8-0.9s0.4-0.9,0.8-0.9
			c0.2,0,0.4,0.1,0.5,0.2v-0.8H50z M49.6,82.6c0-0.3-0.2-0.5-0.4-0.5c-0.2,0-0.4,0.2-0.4,0.5s0.2,0.5,0.4,0.5
			C49.4,83.1,49.6,82.9,49.6,82.6z"/>
		<path class="st2" d="M52.1,82.8h-1.3c0,0.2,0.2,0.3,0.5,0.3c0.2,0,0.3-0.1,0.4-0.2l0.3,0.3c-0.2,0.2-0.4,0.3-0.7,0.3
			c-0.6,0-1-0.4-1-0.9c0-0.5,0.4-0.9,0.9-0.9c0.5,0,0.9,0.3,0.9,0.9C52.1,82.7,52.1,82.7,52.1,82.8z M50.9,82.5h0.8
			c0-0.2-0.2-0.3-0.4-0.3C51,82.1,50.9,82.3,50.9,82.5z"/>
		<path class="st2" d="M53.5,83.4c-0.1,0.1-0.2,0.1-0.4,0.1c-0.4,0-0.6-0.2-0.6-0.6v-0.7h-0.3v-0.4h0.3v-0.4H53v0.4h0.4v0.4H53v0.7
			c0,0.1,0.1,0.2,0.2,0.2c0.1,0,0.1,0,0.2-0.1L53.5,83.4z"/>
		<path class="st2" d="M55.3,82.5v1h-0.5v-0.2c-0.1,0.2-0.3,0.2-0.5,0.2c-0.4,0-0.6-0.2-0.6-0.5c0-0.3,0.2-0.5,0.7-0.5h0.4
			c0-0.2-0.1-0.3-0.4-0.3c-0.2,0-0.4,0.1-0.5,0.2L53.8,82c0.2-0.1,0.5-0.2,0.7-0.2C55,81.8,55.3,82,55.3,82.5z M54.8,82.9v-0.2h-0.3
			c-0.2,0-0.3,0.1-0.3,0.2c0,0.1,0.1,0.2,0.3,0.2C54.6,83.2,54.7,83.1,54.8,82.9z"/>
		<path class="st2" d="M55.7,81.2h0.5v2.3h-0.5V81.2z"/>
		<path class="st2" d="M58.4,82.5v1h-0.5v-0.9c0-0.3-0.1-0.4-0.3-0.4c-0.2,0-0.4,0.1-0.4,0.4v0.8h-0.5v-2.3h0.5V82
			c0.1-0.1,0.3-0.2,0.5-0.2C58.1,81.8,58.4,82,58.4,82.5z"/>
	</g>
	<g class="st1">
		<path class="st2" d="M60.3,82.5v1h-0.5v-0.2c-0.1,0.2-0.3,0.2-0.5,0.2c-0.4,0-0.6-0.2-0.6-0.5c0-0.3,0.2-0.5,0.7-0.5h0.4
			c0-0.2-0.1-0.3-0.4-0.3c-0.2,0-0.4,0.1-0.5,0.2L58.8,82c0.2-0.1,0.5-0.2,0.7-0.2C60,81.8,60.3,82,60.3,82.5z M59.8,82.9v-0.2h-0.3
			c-0.2,0-0.3,0.1-0.3,0.2c0,0.1,0.1,0.2,0.3,0.2C59.6,83.2,59.8,83.1,59.8,82.9z"/>
	</g>
	<g class="st1">
		<path class="st2" d="M62.5,81.2v2.3H62v-0.2c-0.1,0.1-0.3,0.2-0.5,0.2c-0.5,0-0.8-0.3-0.8-0.9s0.4-0.9,0.8-0.9
			c0.2,0,0.4,0.1,0.5,0.2v-0.8H62.5z M62,82.6c0-0.3-0.2-0.5-0.4-0.5c-0.2,0-0.4,0.2-0.4,0.5s0.2,0.5,0.4,0.5
			C61.8,83.1,62,82.9,62,82.6z"/>
		<path class="st2" d="M64.4,82.5v1h-0.5v-0.2c-0.1,0.2-0.3,0.2-0.5,0.2c-0.4,0-0.6-0.2-0.6-0.5c0-0.3,0.2-0.5,0.7-0.5h0.4
			c0-0.2-0.1-0.3-0.4-0.3c-0.2,0-0.4,0.1-0.5,0.2L62.9,82c0.2-0.1,0.5-0.2,0.7-0.2C64.1,81.8,64.4,82,64.4,82.5z M63.9,82.9v-0.2
			h-0.3c-0.2,0-0.3,0.1-0.3,0.2c0,0.1,0.1,0.2,0.3,0.2C63.7,83.2,63.8,83.1,63.9,82.9z"/>
	</g>
</g>
</svg>
