<?xml version="1.0" encoding="utf-8"?>
<!-- Generator: Adobe Illustrator 26.3.1, SVG Export Plug-In . SVG Version: 6.00 Build 0)  -->
<svg version="1.1" id="Layer_2_00000018199653621036556230000013025651829191039924_"
	 xmlns="http://www.w3.org/2000/svg" xmlns:xlink="http://www.w3.org/1999/xlink" x="0px" y="0px" viewBox="0 0 105.1 186.6"
	 style="enable-background:new 0 0 105.1 186.6;" xml:space="preserve">
<style type="text/css">
	.st0{fill:#F99E1D;}
	.st1{fill:none;}
	.st2{fill:#FFFFFF;}
	.st3{font-family:'Verdana-Bold';}
	.st4{font-size:4.6451px;}
	.st5{font-size:3.0392px;}
	.st6{font-size:6.0785px;}
	.st7{fill:#2B2B2B;}
	.st8{font-size:3.9842px;}
	.st9{fill:#999999;}
	.st10{fill:#E6ECF4;}
	.st11{fill:#727272;}
	.st12{font-size:2.8897px;}
</style>
<path id="XMLID_00000075158747370892739070000017665888160179068588_" class="st0" d="M71.2,141H30.4c-4.1,0-7.4-3.3-7.4-7.4l0,0
	c0-4.1,3.3-7.4,7.4-7.4h40.8c4.1,0,7.4,3.3,7.4,7.4l0,0C78.6,137.7,75.3,141,71.2,141z"/>
<rect id="XMLID_00000163769080857313935080000016852285315349932180_" x="34" y="131.8" class="st1" width="33.5" height="9.2"/>
<text id="XMLID_00000109748578630734058530000001237199301687341972_" transform="matrix(1 0 0 1 43.5582 135.3629)" class="st2 st3 st4">Entrar</text>
<rect id="XMLID_00000146489315535496811800000001052503881798047375_" x="-1.4" y="102.8" class="st1" width="104.9" height="8.3"/>
<text id="XMLID_00000057114758146309458840000000753609030142219447_" transform="matrix(1 0 0 1 36.5318 105.1345)" class="st2 st3 st5">Esqueceu a senha?</text>
<rect id="XMLID_00000124131834255620021220000012725585903802004390_" x="-1.4" y="26.8" class="st1" width="104.9" height="12.7"/>
<text id="XMLID_00000135657471494627002660000016447994995077817506_" transform="matrix(1 0 0 1 21.5455 31.4196)" class="st2 st3 st6">Bem vindo de volta</text>
<path id="XMLID_00000033349516345820219010000006977709007639522193_" class="st2" d="M86.8,67.3H15.4c-2.5,0-4.4,2-4.4,4.4V74
	c0,2.5,2,4.4,4.4,4.4h71.4c2.5,0,4.4-2,4.4-4.4v-2.3C91.2,69.3,89.2,67.3,86.8,67.3z"/>
<rect id="XMLID_00000072998276982950751560000009541537379550184851_" x="16.9" y="71.3" class="st1" width="38.3" height="5.9"/>
<text id="XMLID_00000146494049564004104570000000303965350015189669_" transform="matrix(1 0 0 1 16.9439 74.3068)" class="st7 st3 st8">Nome</text>
<path id="XMLID_00000036221573372521064000000003541047993265156007_" class="st2" d="M86.8,85.6H15.4c-2.5,0-4.4,2-4.4,4.4v2.3
	c0,2.5,2,4.4,4.4,4.4h71.4c2.5,0,4.4-2,4.4-4.4V90C91.2,87.6,89.2,85.6,86.8,85.6z"/>
<rect id="XMLID_00000103964357963990826930000001781778822391983025_" x="16.9" y="89.5" class="st1" width="38.3" height="5.6"/>
<text transform="matrix(1 0 0 1 16.9439 92.548)" class="st7 st3 st8">Senha</text>
<g id="XMLID_00000061443577914010731130000016694671567003375531_">
	<g>
		<path id="XMLID_00000100369878430068041500000000961796959863299498_" class="st9" d="M47.2,91.3c0,0.5-0.4,0.9-0.9,0.9
			s-0.9-0.4-0.9-0.9s0.4-0.9,0.9-0.9S47.2,90.8,47.2,91.3z"/>
		<path id="XMLID_00000083797928467525199970000015106026917358239896_" class="st9" d="M50.4,91.3c0,0.5-0.4,0.9-0.9,0.9
			s-0.9-0.4-0.9-0.9s0.4-0.9,0.9-0.9S50.4,90.8,50.4,91.3z"/>
		<path id="XMLID_00000106858943229917415220000015198877349811144378_" class="st9" d="M53.7,91.3c0,0.5-0.4,0.9-0.9,0.9
			s-0.9-0.4-0.9-0.9s0.4-0.9,0.9-0.9S53.7,90.8,53.7,91.3z"/>
		<path id="XMLID_00000030454109748004382220000006610166228965766295_" class="st9" d="M56.9,91.3c0,0.5-0.4,0.9-0.9,0.9
			s-0.9-0.4-0.9-0.9s0.4-0.9,0.9-0.9S56.9,90.8,56.9,91.3z"/>
		<path id="XMLID_00000183233969087917083660000005863499675389295771_" class="st9" d="M60.2,91.3c0,0.5-0.4,0.9-0.9,0.9
			s-0.9-0.4-0.9-0.9s0.4-0.9,0.9-0.9S60.2,90.8,60.2,91.3z"/>
		<path id="XMLID_00000178191177338533575030000011352748168847885960_" class="st9" d="M63.5,91.3c0,0.5-0.4,0.9-0.9,0.9
			s-0.9-0.4-0.9-0.9s0.4-0.9,0.9-0.9S63.5,90.8,63.5,91.3z"/>
		<path id="XMLID_00000054978888939280448460000008821730299505220014_" class="st9" d="M66.7,91.3c0,0.5-0.4,0.9-0.9,0.9
			s-0.9-0.4-0.9-0.9s0.4-0.9,0.9-0.9C66.3,90.4,66.7,90.8,66.7,91.3z"/>
		<path id="XMLID_00000174565368015751239450000005047738858260095410_" class="st9" d="M70,91.3c0,0.5-0.4,0.9-0.9,0.9
			s-0.9-0.4-0.9-0.9s0.4-0.9,0.9-0.9S70,90.8,70,91.3z"/>
		<path id="XMLID_00000181793282401346961090000000708883894195309730_" class="st9" d="M73.2,91.3c0,0.5-0.4,0.9-0.9,0.9
			s-0.9-0.4-0.9-0.9s0.4-0.9,0.9-0.9C72.8,90.4,73.2,90.8,73.2,91.3z"/>
		<path id="XMLID_00000053535800293083986530000002085945067930089887_" class="st9" d="M76.5,91.3c0,0.5-0.4,0.9-0.9,0.9
			s-0.9-0.4-0.9-0.9s0.4-0.9,0.9-0.9S76.5,90.8,76.5,91.3z"/>
		<path id="XMLID_00000120558391754071672470000001163687958890277818_" class="st9" d="M79.8,91.3c0,0.5-0.4,0.9-0.9,0.9
			S78,91.8,78,91.3s0.4-0.9,0.9-0.9S79.8,90.8,79.8,91.3z"/>
	</g>
</g>
<g id="XMLID_00000026136818851919721300000007274598076747088819_">
	<path id="XMLID_00000088092649745151370200000002280427506340225959_" class="st2" d="M10.4,30.1L10.4,30.1c0.2-0.2,0.4-0.2,0.6,0
		l1.1,1.1c0.2,0.2,0.2,0.4,0,0.6l0,0c-0.2,0.2-0.4,0.2-0.6,0l-1.1-1.1C10.2,30.6,10.2,30.3,10.4,30.1z"/>
	<path id="XMLID_00000088103633647225209790000013386456782306709381_" class="st2" d="M12.1,29L12.1,29c0.2,0.2,0.2,0.4,0,0.6
		L11,30.7c-0.2,0.2-0.4,0.2-0.6,0l0,0c-0.2-0.2-0.2-0.4,0-0.6l1.1-1.1C11.6,28.9,11.9,28.9,12.1,29z"/>
</g>
<path id="XMLID_00000174602748033350599870000014890286499737457306_" class="st2" d="M51,57.7L51,57.7c-5.1,0-9.3-4.2-9.3-9.3l0,0
	c0-5.1,4.2-9.3,9.3-9.3l0,0c5.1,0,9.3,4.2,9.3,9.3l0,0C60.3,53.6,56.2,57.7,51,57.7z"/>
<path id="XMLID_00000116954282542596543450000005294464395702754965_" class="st10" d="M52.9,47.9c0.6-0.5,1-1.3,1-2.2
	c0-1.6-1.3-2.9-2.9-2.9c-1.6,0-2.9,1.3-2.9,2.9c0,0.9,0.4,1.7,1,2.2c-0.8,0.5-1.4,1.3-1.4,2.3v2.9h6.4v-2.9
	C54.2,49.2,53.7,48.3,52.9,47.9z"/>
<path id="XMLID_00000176737153602730414170000009421844041121241755_" class="st0" d="M59.9,54.7c0,1-0.8,1.9-1.9,1.9
	c-1,0-1.9-0.8-1.9-1.9c0-1,0.8-1.9,1.9-1.9C59,52.8,59.9,53.6,59.9,54.7z"/>
<path id="XMLID_00000155142941574686389210000011303542328596052110_" class="st2" d="M59.3,54.7c0,0.7-0.6,1.3-1.3,1.3
	s-1.3-0.6-1.3-1.3s0.6-1.3,1.3-1.3S59.3,54,59.3,54.7z"/>
<path id="XMLID_00000083789665459565506720000006812128831521423261_" class="st2" d="M76.8,155H51.4c-2.6,0-4.6-2.1-4.6-4.6l0,0
	c0-2.6,2.1-4.6,4.6-4.6h25.4c2.6,0,4.6,2.1,4.6,4.6l0,0C81.4,152.9,79.4,155,76.8,155z"/>
<path id="XMLID_00000158018013726100950280000004121769151146601647_" class="st2" d="M51,155H25.6c-2.6,0-4.6-2.1-4.6-4.6l0,0
	c0-2.6,2.1-4.6,4.6-4.6H51c2.6,0,4.6,2.1,4.6,4.6l0,0C55.6,152.9,53.5,155,51,155z"/>
<rect id="XMLID_00000018204980722541290980000012079117515476126089_" x="33.5" y="149.2" class="st1" width="34.7" height="5.8"/>
<text id="XMLID_00000138572213312860575500000006796585143968799631_" transform="matrix(1 0 0 1 36.2892 151.4057)" class="st11 st3 st12">Quero me cadastrar</text>
</svg>
