<?xml version="1.0" encoding="utf-8"?>
<!-- Generator: Adobe Illustrator 26.3.1, SVG Export Plug-In . SVG Version: 6.00 Build 0)  -->
<svg version="1.1" id="Layer_2_00000067194178899289912770000000634967909269787043_"
	 xmlns="http://www.w3.org/2000/svg" xmlns:xlink="http://www.w3.org/1999/xlink" x="0px" y="0px" viewBox="0 0 104.9 188.3"
	 style="enable-background:new 0 0 104.9 188.3;" xml:space="preserve">
<style type="text/css">
	.st0{fill:none;}
	.st1{enable-background:new    ;}
	.st2{fill:#FFFFFF;}
	.st3{fill:#2B2B2B;}
	.st4{fill:#57B952;}
	.st5{fill:#D3D3D3;}
	.st6{fill:#757575;}
	.st7{fill:#F99E1D;}
	.st8{fill:#E03434;}
</style>
<g id="OBJECTS">
	<g>
		<rect class="st0" width="104.9" height="186.6"/>
	</g>
	<g class="st1">
		<path class="st2" d="M32.7,28.3l0-2.6l-1.3,2.1H31l-1.2-2v2.5h-0.9V24h0.8l1.6,2.6l1.6-2.6h0.8l0,4.3H32.7z"/>
		<path class="st2" d="M34.4,24c0-0.3,0.2-0.5,0.6-0.5c0.4,0,0.6,0.2,0.6,0.5c0,0.3-0.2,0.5-0.6,0.5C34.7,24.5,34.4,24.3,34.4,24z
			 M34.5,25h0.9v3.3h-0.9V25z"/>
		<path class="st2" d="M39.7,26.4v1.9h-0.9v-1.7c0-0.5-0.2-0.8-0.7-0.8c-0.5,0-0.8,0.3-0.8,0.9v1.6h-0.9V25h0.9v0.4
			c0.3-0.3,0.6-0.4,1.1-0.4C39.1,24.9,39.7,25.4,39.7,26.4z"/>
		<path class="st2" d="M43.9,26.4v1.9H43v-1.7c0-0.5-0.2-0.8-0.7-0.8c-0.5,0-0.8,0.3-0.8,0.9v1.6h-0.9v-4.5h0.9v1.6
			c0.3-0.3,0.6-0.4,1-0.4C43.3,24.9,43.9,25.4,43.9,26.4z"/>
		<path class="st2" d="M47.7,26.4v1.9h-0.9v-0.4c-0.2,0.3-0.5,0.5-1,0.5c-0.8,0-1.2-0.4-1.2-1c0-0.6,0.4-1,1.4-1h0.8
			c0-0.4-0.2-0.6-0.8-0.6c-0.3,0-0.7,0.1-0.9,0.3l-0.3-0.7c0.4-0.3,0.9-0.4,1.4-0.4C47.1,24.9,47.7,25.4,47.7,26.4z M46.7,27.2v-0.3
			h-0.6c-0.4,0-0.6,0.2-0.6,0.4c0,0.2,0.2,0.4,0.5,0.4C46.3,27.7,46.6,27.5,46.7,27.2z"/>
		<path class="st2" d="M48.2,28l0.3-0.7c0.3,0.2,0.7,0.3,1.1,0.3c0.4,0,0.6-0.1,0.6-0.3c0-0.5-2,0-2-1.3c0-0.6,0.6-1.1,1.5-1.1
			c0.4,0,0.9,0.1,1.3,0.3l-0.3,0.7c-0.3-0.2-0.6-0.2-0.9-0.2c-0.4,0-0.6,0.1-0.6,0.3c0,0.6,2,0,2,1.3c0,0.6-0.6,1-1.5,1
			C49.1,28.3,48.5,28.2,48.2,28z"/>
		<path class="st2" d="M53.3,26.1c0-1.3,1-2.2,2.3-2.2c1.3,0,2.3,0.9,2.3,2.2c0,1.3-1,2.2-2.3,2.2C54.3,28.3,53.3,27.4,53.3,26.1z
			 M56.9,26.1c0-0.8-0.6-1.4-1.3-1.4c-0.8,0-1.3,0.6-1.3,1.4c0,0.8,0.6,1.4,1.3,1.4C56.4,27.5,56.9,26.9,56.9,26.1z"/>
	</g>
	<g class="st1">
		<path class="st2" d="M59.6,25.1h0.8v0.7h-0.8v2.5h-0.9v-2.5h-0.5v-0.7h0.5v-0.1c0-0.7,0.4-1.2,1.3-1.2c0.3,0,0.5,0.1,0.7,0.2
			l-0.2,0.7c-0.1-0.1-0.2-0.1-0.4-0.1c-0.3,0-0.4,0.2-0.4,0.5V25.1z"/>
	</g>
	<g class="st1">
		<path class="st2" d="M64.1,26.9h-2.5c0.1,0.4,0.4,0.7,0.9,0.7c0.3,0,0.6-0.1,0.8-0.3l0.5,0.5c-0.3,0.3-0.8,0.5-1.3,0.5
			c-1.1,0-1.9-0.7-1.9-1.7c0-1,0.7-1.7,1.7-1.7c1,0,1.7,0.6,1.7,1.7C64.1,26.7,64.1,26.8,64.1,26.9z M61.6,26.3h1.6
			c-0.1-0.4-0.4-0.7-0.8-0.7C62,25.7,61.7,25.9,61.6,26.3z"/>
	</g>
	<g class="st1">
		<path class="st2" d="M66.8,24.9v0.9c-0.1,0-0.1,0-0.2,0c-0.5,0-0.9,0.3-0.9,0.9v1.5h-0.9V25h0.9v0.4
			C65.9,25.1,66.3,24.9,66.8,24.9z"/>
	</g>
	<g class="st1">
		<path class="st2" d="M69.6,28.1c-0.2,0.1-0.5,0.2-0.8,0.2c-0.8,0-1.2-0.4-1.2-1.2v-1.3h-0.5v-0.7h0.5v-0.8h0.9v0.8h0.8v0.7h-0.8
			v1.3c0,0.3,0.2,0.4,0.4,0.4c0.1,0,0.3,0,0.4-0.1L69.6,28.1z"/>
		<path class="st2" d="M73,26.4v1.9h-0.9v-0.4c-0.2,0.3-0.5,0.5-1,0.5c-0.8,0-1.2-0.4-1.2-1c0-0.6,0.4-1,1.4-1H72
			c0-0.4-0.2-0.6-0.8-0.6c-0.3,0-0.7,0.1-0.9,0.3L70,25.3c0.4-0.3,0.9-0.4,1.4-0.4C72.4,24.9,73,25.4,73,26.4z M72,27.2v-0.3h-0.6
			c-0.4,0-0.6,0.2-0.6,0.4c0,0.2,0.2,0.4,0.5,0.4C71.7,27.7,71.9,27.5,72,27.2z"/>
		<path class="st2" d="M73.5,28l0.3-0.7c0.3,0.2,0.7,0.3,1.1,0.3c0.4,0,0.6-0.1,0.6-0.3c0-0.5-2,0-2-1.3c0-0.6,0.6-1.1,1.5-1.1
			c0.4,0,0.9,0.1,1.3,0.3l-0.3,0.7c-0.3-0.2-0.6-0.2-0.9-0.2c-0.4,0-0.6,0.1-0.6,0.3c0,0.6,2,0,2,1.3c0,0.6-0.6,1-1.5,1
			C74.4,28.3,73.8,28.2,73.5,28z"/>
	</g>
	<g>
		<path class="st2" d="M11.7,25L11.7,25c0.2-0.2,0.4-0.2,0.6,0l1.1,1.1c0.2,0.2,0.2,0.4,0,0.6l0,0c-0.2,0.2-0.4,0.2-0.6,0l-1.1-1.1
			C11.6,25.4,11.6,25.2,11.7,25z"/>
	</g>
	<g>
		<path class="st2" d="M13.4,23.9L13.4,23.9c0.2,0.2,0.2,0.4,0,0.6l-1.1,1.1c-0.2,0.2-0.4,0.2-0.6,0l0,0c-0.2-0.2-0.2-0.4,0-0.6
			l1.1-1.1C13,23.7,13.3,23.7,13.4,23.9z"/>
	</g>
	<g>
		<path class="st2" d="M93.4,25L93.4,25c-0.2-0.2-0.4-0.2-0.6,0l-1.1,1.1c-0.2,0.2-0.2,0.4,0,0.6l0,0c0.2,0.2,0.4,0.2,0.6,0l1.1-1.1
			C93.6,25.4,93.6,25.2,93.4,25z"/>
	</g>
	<g>
		<path class="st2" d="M91.8,23.9L91.8,23.9c-0.2,0.2-0.2,0.4,0,0.6l1.1,1.1c0.2,0.2,0.4,0.2,0.6,0l0,0c0.2-0.2,0.2-0.4,0-0.6
			l-1.1-1.1C92.2,23.7,91.9,23.7,91.8,23.9z"/>
	</g>
	<g>
		<path class="st2" d="M54.1,158.6c-0.2-0.2-0.4-0.2-0.6,0l-0.8,0.8l-0.8-0.8c-0.2-0.2-0.4-0.2-0.6,0c-0.2,0.2-0.2,0.4,0,0.6
			l1.1,1.1c0.1,0.1,0.2,0.1,0.3,0.1c0.1,0,0.2,0,0.3-0.1l1.1-1.1C54.3,159,54.3,158.7,54.1,158.6L54.1,158.6z"/>
	</g>
	<g>
		<path class="st2" d="M46.1,175.9H18.8c-2.8,0-5-2.2-5-5l0,0c0-2.8,2.2-5,5-5h27.3c2.8,0,5,2.2,5,5l0,0
			C51.1,173.6,48.9,175.9,46.1,175.9L46.1,175.9z"/>
	</g>
	<g class="st1">
		<path class="st3" d="M29.9,169.9L29,172h-0.5l-0.9-2.2h0.5l0.7,1.5l0.7-1.5H29.9z"/>
	</g>
	<g class="st1">
		<path class="st3" d="M29.8,171.2c0-0.5,0.4-0.9,0.9-0.9s0.9,0.4,0.9,0.9s-0.4,0.9-0.9,0.9S29.8,171.7,29.8,171.2z M31.1,171.2
			c0-0.3-0.2-0.5-0.4-0.5s-0.4,0.2-0.4,0.5s0.2,0.5,0.4,0.5S31.1,171.5,31.1,171.2z"/>
	</g>
	<g class="st1">
		<path class="st3" d="M32,169.7h0.5v2.3H32V169.7z"/>
	</g>
	<g class="st1">
		<path class="st3" d="M34.1,172c-0.1,0.1-0.2,0.1-0.4,0.1c-0.4,0-0.6-0.2-0.6-0.6v-0.7h-0.3v-0.4h0.3V170h0.5v0.4H34v0.4h-0.4v0.7
			c0,0.1,0.1,0.2,0.2,0.2c0.1,0,0.1,0,0.2-0.1L34.1,172z"/>
		<path class="st3" d="M35.8,171.1v1h-0.5v-0.2c-0.1,0.2-0.3,0.2-0.5,0.2c-0.4,0-0.6-0.2-0.6-0.5c0-0.3,0.2-0.5,0.7-0.5h0.4
			c0-0.2-0.1-0.3-0.4-0.3c-0.2,0-0.4,0.1-0.5,0.2l-0.2-0.3c0.2-0.1,0.5-0.2,0.7-0.2C35.5,170.3,35.8,170.6,35.8,171.1z M35.3,171.5
			v-0.2H35c-0.2,0-0.3,0.1-0.3,0.2c0,0.1,0.1,0.2,0.3,0.2C35.1,171.7,35.3,171.7,35.3,171.5z"/>
		<path class="st3" d="M37.3,170.3v0.4c0,0-0.1,0-0.1,0c-0.3,0-0.4,0.1-0.4,0.5v0.8h-0.5v-1.7h0.5v0.2
			C36.8,170.4,37,170.3,37.3,170.3z"/>
	</g>
	<g>
		<g>
			<path class="st2" d="M15.3,44.1h74.5c1.5,0,2.8,1.2,2.8,2.8v26.9c0,1.5-1.2,2.8-2.8,2.8H15.3c-1.5,0-2.8-1.2-2.8-2.8V46.9
				C12.6,45.3,13.8,44.1,15.3,44.1z"/>
		</g>
	</g>
	<g class="st1">
		<path class="st3" d="M20.3,51.7v0.4h-2.1v-2.8h2v0.4h-1.6v0.9h1.4v0.3h-1.4v0.9H20.3z"/>
	</g>
	<g class="st1">
		<path class="st3" d="M22.9,50.8v1.2h-0.4v-1.2c0-0.4-0.2-0.6-0.6-0.6c-0.4,0-0.7,0.2-0.7,0.7v1.1h-0.4v-2.1h0.4v0.3
			c0.2-0.2,0.4-0.3,0.8-0.3C22.6,49.9,22.9,50.2,22.9,50.8z"/>
	</g>
	<g class="st1">
		<path class="st3" d="M25.7,49.9v1.9c0,0.8-0.4,1.1-1.1,1.1c-0.4,0-0.8-0.1-1-0.3l0.2-0.3c0.2,0.2,0.5,0.3,0.8,0.3
			c0.5,0,0.7-0.2,0.7-0.7v-0.2c-0.2,0.2-0.5,0.3-0.8,0.3c-0.6,0-1.1-0.4-1.1-1c0-0.6,0.5-1,1.1-1c0.3,0,0.6,0.1,0.8,0.4v-0.3H25.7z
			 M25.4,50.9c0-0.4-0.3-0.7-0.7-0.7c-0.4,0-0.7,0.3-0.7,0.7c0,0.4,0.3,0.7,0.7,0.7C25.1,51.6,25.4,51.3,25.4,50.9z"/>
		<path class="st3" d="M28.4,51.1h-1.7c0,0.4,0.4,0.6,0.8,0.6c0.3,0,0.5-0.1,0.6-0.3l0.2,0.3c-0.2,0.2-0.5,0.3-0.8,0.3
			c-0.7,0-1.2-0.5-1.2-1.1c0-0.6,0.5-1.1,1.1-1.1s1.1,0.4,1.1,1.1C28.4,51,28.4,51.1,28.4,51.1z M26.7,50.8H28
			c0-0.4-0.3-0.6-0.7-0.6C27,50.2,26.7,50.5,26.7,50.8z"/>
		<path class="st3" d="M31,50.8v1.2h-0.4v-1.2c0-0.4-0.2-0.6-0.6-0.6c-0.4,0-0.7,0.2-0.7,0.7v1.1H29v-2.1h0.4v0.3
			c0.2-0.2,0.4-0.3,0.8-0.3C30.6,49.9,31,50.2,31,50.8z"/>
		<path class="st3" d="M33.8,50.8v1.2h-0.4v-1.2c0-0.4-0.2-0.6-0.6-0.6c-0.4,0-0.7,0.2-0.7,0.7v1.1h-0.4v-3h0.4v1.2
			c0.2-0.2,0.4-0.3,0.8-0.3C33.4,49.9,33.8,50.2,33.8,50.8z"/>
		<path class="st3" d="M36.2,50.8v1.3h-0.4v-0.3c-0.1,0.2-0.4,0.3-0.7,0.3c-0.5,0-0.8-0.3-0.8-0.6c0-0.3,0.2-0.6,0.9-0.6h0.6v-0.1
			c0-0.3-0.2-0.5-0.6-0.5c-0.3,0-0.5,0.1-0.7,0.2l-0.2-0.3c0.2-0.2,0.5-0.3,0.9-0.3C35.8,49.9,36.2,50.2,36.2,50.8z M35.8,51.4v-0.3
			h-0.6c-0.4,0-0.5,0.1-0.5,0.3c0,0.2,0.2,0.3,0.5,0.3C35.5,51.8,35.7,51.7,35.8,51.4z"/>
	</g>
	<g class="st1">
		<path class="st3" d="M38.1,49.9v0.4c0,0-0.1,0-0.1,0c-0.4,0-0.7,0.3-0.7,0.7v1.1h-0.4v-2.1h0.4v0.4C37.4,50,37.7,49.9,38.1,49.9z"
			/>
	</g>
	<g class="st1">
		<path class="st3" d="M38.5,49.3c0-0.1,0.1-0.3,0.3-0.3c0.1,0,0.3,0.1,0.3,0.2c0,0.1-0.1,0.3-0.3,0.3
			C38.6,49.5,38.5,49.4,38.5,49.3z M38.5,49.9h0.4v2.1h-0.4V49.9z"/>
		<path class="st3" d="M41.4,50.8v1.3H41v-0.3c-0.1,0.2-0.4,0.3-0.7,0.3c-0.5,0-0.8-0.3-0.8-0.6c0-0.3,0.2-0.6,0.9-0.6H41v-0.1
			c0-0.3-0.2-0.5-0.6-0.5c-0.3,0-0.5,0.1-0.7,0.2l-0.2-0.3c0.2-0.2,0.5-0.3,0.9-0.3C41,49.9,41.4,50.2,41.4,50.8z M41,51.4v-0.3
			h-0.6c-0.4,0-0.5,0.1-0.5,0.3c0,0.2,0.2,0.3,0.5,0.3C40.7,51.8,40.9,51.7,41,51.4z"/>
	</g>
	<g class="st1">
		<path class="st3" d="M45.3,51.7v0.4h-2.1v-2.8h2v0.4h-1.6v0.9h1.4v0.3h-1.4v0.9H45.3z"/>
	</g>
	<g class="st1">
		<path class="st3" d="M45.7,51c0-0.6,0.5-1.1,1.1-1.1c0.6,0,1.1,0.5,1.1,1.1s-0.5,1.1-1.1,1.1C46.1,52.1,45.7,51.6,45.7,51z
			 M47.5,51c0-0.5-0.3-0.8-0.7-0.8c-0.4,0-0.7,0.3-0.7,0.8s0.3,0.8,0.7,0.8C47.2,51.7,47.5,51.4,47.5,51z M47,49.1h0.5l-0.7,0.5
			h-0.4L47,49.1z"/>
		<path class="st3" d="M48.4,49.1h0.4v3h-0.4V49.1z"/>
		<path class="st3" d="M49.5,49.3c0-0.1,0.1-0.3,0.3-0.3s0.3,0.1,0.3,0.2c0,0.1-0.1,0.3-0.3,0.3C49.6,49.5,49.5,49.4,49.5,49.3z
			 M49.6,49.9H50v2.1h-0.4V49.9z"/>
		<path class="st3" d="M50.5,51c0-0.6,0.5-1.1,1.1-1.1c0.4,0,0.7,0.2,0.9,0.5l-0.3,0.2c-0.1-0.2-0.3-0.3-0.6-0.3
			c-0.4,0-0.7,0.3-0.7,0.8c0,0.5,0.3,0.8,0.7,0.8c0.2,0,0.4-0.1,0.6-0.3l0.3,0.2c-0.2,0.3-0.5,0.5-0.9,0.5
			C51,52.1,50.5,51.6,50.5,51z"/>
		<path class="st3" d="M54.7,50.8v1.3h-0.4v-0.3c-0.1,0.2-0.4,0.3-0.7,0.3c-0.5,0-0.8-0.3-0.8-0.6c0-0.3,0.2-0.6,0.9-0.6h0.6v-0.1
			c0-0.3-0.2-0.5-0.6-0.5c-0.3,0-0.5,0.1-0.7,0.2l-0.2-0.3c0.2-0.2,0.5-0.3,0.9-0.3C54.4,49.9,54.7,50.2,54.7,50.8z M54.3,51.4v-0.3
			h-0.6c-0.4,0-0.5,0.1-0.5,0.3c0,0.2,0.2,0.3,0.5,0.3C54,51.8,54.2,51.7,54.3,51.4z"/>
	</g>
	<g>
		<g>
			<path class="st4" d="M89,51.1c-0.7,1-1.7,1.6-3,1.6s-2.3-0.6-3-1.6c0.7-1,1.8-1.6,3-1.6S88.4,50.1,89,51.1z"/>
		</g>
		<g>
			<path class="st2" d="M87.1,51.1c0,0.6-0.5,1-1,1s-1-0.5-1-1s0.5-1,1-1S87.1,50.5,87.1,51.1z"/>
		</g>
	</g>
	<g class="st1">
		<path class="st5" d="M19.5,62.3v0.3h-1.5v-0.2l0.9-0.8c0.2-0.2,0.3-0.4,0.3-0.5c0-0.2-0.2-0.4-0.5-0.4c-0.2,0-0.4,0.1-0.5,0.2
			l-0.2-0.2c0.2-0.2,0.4-0.3,0.8-0.3c0.4,0,0.7,0.2,0.7,0.6c0,0.2-0.1,0.4-0.3,0.7l-0.6,0.6H19.5z"/>
		<path class="st5" d="M20.4,60.5v2.1h-0.3v-1.9h-0.5v-0.3H20.4z"/>
	</g>
	<g class="st1">
		<path class="st5" d="M21.5,62.3l0.2-0.2c0.1,0.2,0.3,0.3,0.4,0.3c0.2,0,0.4-0.1,0.4-0.4v-1.2h-0.8v-0.3h1.1v1.4
			c0,0.5-0.2,0.7-0.7,0.7C21.9,62.6,21.6,62.5,21.5,62.3z"/>
	</g>
	<g class="st1">
		<path class="st5" d="M24.7,62.1h-1.1l-0.2,0.5H23l1-2.1h0.3l1,2.1h-0.3L24.7,62.1z M24.6,61.8l-0.5-1l-0.5,1H24.6z"/>
		<path class="st5" d="M27.4,60.5v2.1h-0.2L25.9,61v1.6h-0.3v-2.1h0.2l1.3,1.6v-1.6H27.4z"/>
		<path class="st5" d="M29.3,60.5v2.1H29v-1.9h-0.5v-0.3H29.3z"/>
	</g>
	<g class="st1">
		<path class="st5" d="M31.3,62.3v0.3h-1.5v-0.2l0.9-0.8c0.2-0.2,0.3-0.4,0.3-0.5c0-0.2-0.2-0.4-0.5-0.4c-0.2,0-0.4,0.1-0.5,0.2
			l-0.2-0.2c0.2-0.2,0.4-0.3,0.8-0.3c0.4,0,0.7,0.2,0.7,0.6c0,0.2-0.1,0.4-0.3,0.7l-0.6,0.6H31.3z"/>
	</g>
	<g class="st1">
		<path class="st5" d="M31.6,61.2c0-0.1,0.1-0.2,0.2-0.2c0.1,0,0.2,0.1,0.2,0.2s-0.1,0.2-0.2,0.2C31.7,61.4,31.6,61.3,31.6,61.2z
			 M31.6,62.4c0-0.1,0.1-0.2,0.2-0.2c0.1,0,0.2,0.1,0.2,0.2s-0.1,0.2-0.2,0.2C31.7,62.6,31.6,62.5,31.6,62.4z"/>
		<path class="st5" d="M32.3,61.5c0-0.7,0.4-1.1,0.9-1.1c0.5,0,0.9,0.4,0.9,1.1s-0.4,1.1-0.9,1.1C32.7,62.6,32.3,62.2,32.3,61.5z
			 M33.7,61.5c0-0.5-0.2-0.8-0.6-0.8c-0.3,0-0.6,0.3-0.6,0.8c0,0.5,0.2,0.8,0.6,0.8C33.5,62.3,33.7,62.1,33.7,61.5z"/>
		<path class="st5" d="M34.3,61.5c0-0.7,0.4-1.1,0.9-1.1c0.5,0,0.9,0.4,0.9,1.1s-0.4,1.1-0.9,1.1C34.7,62.6,34.3,62.2,34.3,61.5z
			 M35.8,61.5c0-0.5-0.2-0.8-0.6-0.8c-0.3,0-0.6,0.3-0.6,0.8c0,0.5,0.2,0.8,0.6,0.8C35.5,62.3,35.8,62.1,35.8,61.5z"/>
	</g>
	<g class="st1">
		<path class="st4" d="M58.6,68.8H59v2.8h-0.4V68.8z"/>
		<path class="st4" d="M61.8,70.4v1.2h-0.4v-1.2c0-0.4-0.2-0.6-0.6-0.6c-0.4,0-0.7,0.2-0.7,0.7v1.1h-0.4v-2.1h0.4v0.3
			c0.2-0.2,0.4-0.3,0.8-0.3C61.4,69.5,61.8,69.8,61.8,70.4z"/>
		<path class="st4" d="M62.4,68.9c0-0.1,0.1-0.3,0.3-0.3c0.1,0,0.3,0.1,0.3,0.2c0,0.1-0.1,0.3-0.3,0.3C62.6,69.1,62.4,69,62.4,68.9z
			 M62.5,69.5h0.4v2.1h-0.4V69.5z"/>
		<path class="st4" d="M63.4,70.6c0-0.6,0.5-1.1,1.1-1.1c0.4,0,0.7,0.2,0.9,0.5l-0.3,0.2c-0.1-0.2-0.3-0.3-0.6-0.3
			c-0.4,0-0.7,0.3-0.7,0.7c0,0.5,0.3,0.7,0.7,0.7c0.2,0,0.4-0.1,0.6-0.3l0.3,0.2c-0.2,0.3-0.5,0.5-0.9,0.5
			C63.9,71.7,63.4,71.2,63.4,70.6z"/>
		<path class="st4" d="M65.8,68.9c0-0.1,0.1-0.3,0.3-0.3c0.1,0,0.3,0.1,0.3,0.2c0,0.1-0.1,0.3-0.3,0.3C66,69.1,65.8,69,65.8,68.9z
			 M65.9,69.5h0.4v2.1h-0.4V69.5z"/>
		<path class="st4" d="M66.8,70.6c0-0.6,0.5-1.1,1.1-1.1c0.6,0,1.1,0.4,1.1,1.1s-0.5,1.1-1.1,1.1C67.3,71.7,66.8,71.2,66.8,70.6z
			 M68.6,70.6c0-0.5-0.3-0.7-0.7-0.7c-0.4,0-0.7,0.3-0.7,0.7c0,0.5,0.3,0.7,0.7,0.7C68.3,71.3,68.6,71,68.6,70.6z"/>
		<path class="st4" d="M70.6,68.9c0-0.1,0.1-0.3,0.3-0.3c0.1,0,0.3,0.1,0.3,0.2c0,0.1-0.1,0.3-0.3,0.3C70.7,69.1,70.6,69,70.6,68.9z
			 M70.6,69.5H71v2.1h-0.4V69.5z"/>
	</g>
	<g class="st1">
		<path class="st4" d="M75.3,70.4v1.2h-0.4v-1.2c0-0.4-0.2-0.6-0.5-0.6c-0.4,0-0.6,0.2-0.6,0.7v1.1h-0.4v-1.2c0-0.4-0.2-0.6-0.5-0.6
			c-0.4,0-0.6,0.2-0.6,0.7v1.1h-0.4v-2.1h0.4v0.3c0.2-0.2,0.4-0.3,0.7-0.3c0.3,0,0.6,0.1,0.7,0.4c0.2-0.2,0.5-0.4,0.8-0.4
			C74.9,69.5,75.3,69.8,75.3,70.4z"/>
	</g>
	<g class="st1">
		<path class="st4" d="M77.9,70.7h-1.7c0,0.4,0.3,0.6,0.8,0.6c0.2,0,0.5-0.1,0.6-0.3l0.2,0.2c-0.2,0.2-0.5,0.3-0.8,0.3
			c-0.7,0-1.1-0.5-1.1-1.1c0-0.6,0.5-1.1,1.1-1.1s1,0.4,1,1.1C77.9,70.6,77.9,70.7,77.9,70.7z M76.2,70.4h1.4c0-0.4-0.3-0.6-0.7-0.6
			C76.5,69.8,76.2,70.1,76.2,70.4z"/>
		<path class="st4" d="M80.4,68.7v3h-0.4v-0.3c-0.2,0.2-0.4,0.4-0.8,0.4c-0.6,0-1.1-0.4-1.1-1.1s0.5-1.1,1.1-1.1
			c0.3,0,0.6,0.1,0.7,0.3v-1.2H80.4z M80.1,70.6c0-0.5-0.3-0.7-0.7-0.7c-0.4,0-0.7,0.3-0.7,0.7c0,0.5,0.3,0.7,0.7,0.7
			C79.8,71.3,80.1,71,80.1,70.6z"/>
		<path class="st4" d="M81.1,68.9c0-0.1,0.1-0.3,0.3-0.3c0.1,0,0.3,0.1,0.3,0.2c0,0.1-0.1,0.3-0.3,0.3C81.2,69.1,81.1,69,81.1,68.9z
			 M81.2,69.5h0.4v2.1h-0.4V69.5z"/>
		<path class="st4" d="M84,70.4v1.3h-0.4v-0.3c-0.1,0.2-0.4,0.3-0.7,0.3c-0.5,0-0.8-0.3-0.8-0.6c0-0.3,0.2-0.6,0.9-0.6h0.6v-0.1
			c0-0.3-0.2-0.5-0.6-0.5c-0.3,0-0.5,0.1-0.7,0.2l-0.2-0.3c0.2-0.2,0.5-0.3,0.9-0.3C83.6,69.5,84,69.8,84,70.4z M83.6,71v-0.3H83
			c-0.4,0-0.5,0.1-0.5,0.3c0,0.2,0.2,0.3,0.5,0.3C83.3,71.4,83.5,71.2,83.6,71z"/>
	</g>
	<g class="st1">
		<path class="st4" d="M85.9,71.5c-0.1,0.1-0.3,0.1-0.5,0.1c-0.4,0-0.7-0.2-0.7-0.7v-1.2h-0.4v-0.3h0.4v-0.5h0.4v0.5h0.6v0.3h-0.6
			V71c0,0.2,0.1,0.4,0.3,0.4c0.1,0,0.2,0,0.3-0.1L85.9,71.5z"/>
	</g>
	<g class="st1">
		<path class="st4" d="M86.1,70.6c0-0.6,0.5-1.1,1.1-1.1c0.6,0,1.1,0.4,1.1,1.1s-0.5,1.1-1.1,1.1C86.5,71.7,86.1,71.2,86.1,70.6z
			 M87.9,70.6c0-0.5-0.3-0.7-0.7-0.7c-0.4,0-0.7,0.3-0.7,0.7c0,0.5,0.3,0.7,0.7,0.7C87.6,71.3,87.9,71,87.9,70.6z"/>
	</g>
	<g class="st1">
		<path class="st6" d="M20.3,71.3l-0.6-0.9h0H19v0.9h-0.7v-3.2h1.4c0.8,0,1.4,0.4,1.4,1.1c0,0.5-0.2,0.8-0.6,1l0.7,1H20.3z
			 M19.6,68.7H19v1.1h0.6c0.4,0,0.7-0.2,0.7-0.5C20.2,68.9,20,68.7,19.6,68.7z"/>
		<path class="st6" d="M22.9,71.3v0.5h-0.4v-0.5c-0.4,0-0.9-0.2-1.1-0.4l0.2-0.5c0.2,0.2,0.5,0.3,0.9,0.3V70
			c-0.5-0.1-1.1-0.3-1.1-0.9c0-0.5,0.3-0.9,1.1-1v-0.5h0.4v0.5c0.3,0,0.7,0.1,0.9,0.3l-0.2,0.6c-0.2-0.1-0.5-0.2-0.7-0.2v0.8
			c0.5,0.1,1,0.3,1,0.9C23.9,70.8,23.6,71.2,22.9,71.3z M22.4,69.3v-0.6c-0.2,0.1-0.3,0.2-0.3,0.3C22.1,69.2,22.2,69.3,22.4,69.3z
			 M23.2,70.4c0-0.2-0.1-0.2-0.3-0.3v0.6C23.1,70.7,23.2,70.6,23.2,70.4z"/>
	</g>
	<g class="st1">
		<path class="st6" d="M27.8,70.7v0.6h-2.4v-0.5l1.2-1.1c0.3-0.3,0.3-0.4,0.3-0.6c0-0.2-0.2-0.4-0.5-0.4c-0.3,0-0.5,0.1-0.7,0.3
			l-0.5-0.3c0.2-0.4,0.7-0.6,1.3-0.6c0.7,0,1.2,0.4,1.2,0.9c0,0.3-0.1,0.6-0.5,1l-0.7,0.7H27.8z"/>
		<path class="st6" d="M28.2,70.9c0-0.3,0.2-0.4,0.4-0.4c0.2,0,0.4,0.2,0.4,0.4c0,0.3-0.2,0.4-0.4,0.4
			C28.4,71.3,28.2,71.2,28.2,70.9z"/>
	</g>
	<g class="st1">
		<path class="st6" d="M31.8,70.7v0.6h-2.4v-0.5l1.2-1.1c0.3-0.3,0.3-0.4,0.3-0.6c0-0.2-0.2-0.4-0.5-0.4c-0.3,0-0.5,0.1-0.7,0.3
			l-0.5-0.3c0.2-0.4,0.7-0.6,1.3-0.6c0.7,0,1.2,0.4,1.2,0.9c0,0.3-0.1,0.6-0.5,1l-0.7,0.7H31.8z"/>
	</g>
	<g class="st1">
		<path class="st6" d="M32.1,69.7c0-1,0.6-1.6,1.4-1.6c0.8,0,1.4,0.6,1.4,1.6c0,1-0.6,1.6-1.4,1.6C32.6,71.4,32.1,70.8,32.1,69.7z
			 M34,69.7c0-0.7-0.3-1-0.6-1c-0.4,0-0.6,0.3-0.6,1s0.3,1,0.6,1C33.8,70.7,34,70.4,34,69.7z"/>
	</g>
	<g class="st1">
		<path class="st6" d="M35.1,69.7c0-1,0.6-1.6,1.4-1.6c0.8,0,1.4,0.6,1.4,1.6c0,1-0.6,1.6-1.4,1.6C35.7,71.4,35.1,70.8,35.1,69.7z
			 M37.1,69.7c0-0.7-0.3-1-0.6-1c-0.4,0-0.6,0.3-0.6,1s0.3,1,0.6,1C36.8,70.7,37.1,70.4,37.1,69.7z"/>
		<path class="st6" d="M38.9,70.9c0,0.1,0,0.2-0.1,0.5L38.6,72h-0.4l0.2-0.7c-0.1-0.1-0.2-0.2-0.2-0.4c0-0.3,0.2-0.4,0.4-0.4
			C38.8,70.5,38.9,70.6,38.9,70.9z"/>
	</g>
	<g class="st1">
		<path class="st6" d="M39.2,69.7c0-1,0.6-1.6,1.4-1.6c0.8,0,1.4,0.6,1.4,1.6c0,1-0.6,1.6-1.4,1.6C39.8,71.4,39.2,70.8,39.2,69.7z
			 M41.2,69.7c0-0.7-0.3-1-0.6-1c-0.4,0-0.6,0.3-0.6,1s0.3,1,0.6,1C41,70.7,41.2,70.4,41.2,69.7z"/>
		<path class="st6" d="M42.3,69.7c0-1,0.6-1.6,1.4-1.6c0.8,0,1.4,0.6,1.4,1.6c0,1-0.6,1.6-1.4,1.6C42.9,71.4,42.3,70.8,42.3,69.7z
			 M44.3,69.7c0-0.7-0.3-1-0.6-1c-0.4,0-0.6,0.3-0.6,1s0.3,1,0.6,1C44,70.7,44.3,70.4,44.3,69.7z"/>
	</g>
	<g>
		<path class="st4" d="M85.7,58.3c-0.3,0.3-0.3,0.7,0,1l1.4,1.4L85.7,62c-0.3,0.3-0.3,0.7,0,1s0.7,0.3,1,0l1.8-1.8
			c0.1-0.1,0.2-0.3,0.2-0.5s-0.1-0.3-0.2-0.5l-1.8-1.8C86.4,58.1,85.9,58.1,85.7,58.3z"/>
	</g>
	<g>
		<g>
			<path class="st2" d="M15.3,80.4h74.5c1.5,0,2.8,1.2,2.8,2.8v26.9c0,1.5-1.2,2.8-2.8,2.8H15.3c-1.5,0-2.8-1.2-2.8-2.8V83.2
				C12.6,81.6,13.8,80.4,15.3,80.4z"/>
		</g>
	</g>
	<g class="st1">
		<path class="st3" d="M20.3,88v0.4h-2.1v-2.8h2v0.4h-1.6v0.9h1.4v0.3h-1.4V88H20.3z"/>
	</g>
	<g class="st1">
		<path class="st3" d="M22.9,87.1v1.2h-0.4v-1.2c0-0.4-0.2-0.6-0.6-0.6c-0.4,0-0.7,0.2-0.7,0.7v1.1h-0.4v-2.1h0.4v0.3
			c0.2-0.2,0.4-0.3,0.8-0.3C22.6,86.2,22.9,86.5,22.9,87.1z"/>
	</g>
	<g class="st1">
		<path class="st3" d="M25.7,86.2V88c0,0.8-0.4,1.1-1.1,1.1c-0.4,0-0.8-0.1-1-0.3l0.2-0.3c0.2,0.2,0.5,0.3,0.8,0.3
			c0.5,0,0.7-0.2,0.7-0.7v-0.2c-0.2,0.2-0.5,0.3-0.8,0.3c-0.6,0-1.1-0.4-1.1-1c0-0.6,0.5-1,1.1-1c0.3,0,0.6,0.1,0.8,0.4v-0.3H25.7z
			 M25.4,87.2c0-0.4-0.3-0.7-0.7-0.7c-0.4,0-0.7,0.3-0.7,0.7c0,0.4,0.3,0.7,0.7,0.7C25.1,87.9,25.4,87.6,25.4,87.2z"/>
		<path class="st3" d="M28.4,87.4h-1.7c0,0.4,0.4,0.6,0.8,0.6c0.3,0,0.5-0.1,0.6-0.3l0.2,0.3c-0.2,0.2-0.5,0.3-0.8,0.3
			c-0.7,0-1.2-0.5-1.2-1.1c0-0.6,0.5-1.1,1.1-1.1s1.1,0.4,1.1,1.1C28.4,87.3,28.4,87.4,28.4,87.4z M26.7,87.1H28
			c0-0.4-0.3-0.6-0.7-0.6C27,86.5,26.7,86.8,26.7,87.1z"/>
		<path class="st3" d="M31,87.1v1.2h-0.4v-1.2c0-0.4-0.2-0.6-0.6-0.6c-0.4,0-0.7,0.2-0.7,0.7v1.1H29v-2.1h0.4v0.3
			c0.2-0.2,0.4-0.3,0.8-0.3C30.6,86.2,31,86.5,31,87.1z"/>
		<path class="st3" d="M33.8,87.1v1.2h-0.4v-1.2c0-0.4-0.2-0.6-0.6-0.6c-0.4,0-0.7,0.2-0.7,0.7v1.1h-0.4v-3h0.4v1.2
			c0.2-0.2,0.4-0.3,0.8-0.3C33.4,86.2,33.8,86.5,33.8,87.1z"/>
		<path class="st3" d="M36.2,87v1.3h-0.4v-0.3c-0.1,0.2-0.4,0.3-0.7,0.3c-0.5,0-0.8-0.3-0.8-0.6c0-0.3,0.2-0.6,0.9-0.6h0.6V87
			c0-0.3-0.2-0.5-0.6-0.5c-0.3,0-0.5,0.1-0.7,0.2l-0.2-0.3c0.2-0.2,0.5-0.3,0.9-0.3C35.8,86.2,36.2,86.5,36.2,87z M35.8,87.7v-0.3
			h-0.6c-0.4,0-0.5,0.1-0.5,0.3c0,0.2,0.2,0.3,0.5,0.3C35.5,88.1,35.7,87.9,35.8,87.7z"/>
	</g>
	<g class="st1">
		<path class="st3" d="M38.1,86.2v0.4c0,0-0.1,0-0.1,0c-0.4,0-0.7,0.3-0.7,0.7v1.1h-0.4v-2.1h0.4v0.4C37.4,86.3,37.7,86.2,38.1,86.2
			z"/>
	</g>
	<g class="st1">
		<path class="st3" d="M38.5,85.5c0-0.1,0.1-0.3,0.3-0.3c0.1,0,0.3,0.1,0.3,0.2c0,0.1-0.1,0.3-0.3,0.3
			C38.6,85.8,38.5,85.7,38.5,85.5z M38.5,86.2h0.4v2.1h-0.4V86.2z"/>
		<path class="st3" d="M41.4,87v1.3H41v-0.3c-0.1,0.2-0.4,0.3-0.7,0.3c-0.5,0-0.8-0.3-0.8-0.6c0-0.3,0.2-0.6,0.9-0.6H41V87
			c0-0.3-0.2-0.5-0.6-0.5c-0.3,0-0.5,0.1-0.7,0.2l-0.2-0.3c0.2-0.2,0.5-0.3,0.9-0.3C41,86.2,41.4,86.5,41.4,87z M41,87.7v-0.3h-0.6
			c-0.4,0-0.5,0.1-0.5,0.3c0,0.2,0.2,0.3,0.5,0.3C40.7,88.1,40.9,87.9,41,87.7z"/>
		<path class="st3" d="M45.3,88v0.4h-2.1v-2.8h2v0.4h-1.6v0.9h1.4v0.3h-1.4V88H45.3z"/>
		<path class="st3" d="M45.9,85.3h0.4v3h-0.4V85.3z"/>
		<path class="st3" d="M49,87.4h-1.7c0,0.4,0.4,0.6,0.8,0.6c0.3,0,0.5-0.1,0.6-0.3l0.2,0.3c-0.2,0.2-0.5,0.3-0.8,0.3
			c-0.7,0-1.2-0.5-1.2-1.1c0-0.6,0.5-1.1,1.1-1.1s1.1,0.4,1.1,1.1C49,87.3,49,87.4,49,87.4z M47.2,87.1h1.4c0-0.4-0.3-0.6-0.7-0.6
			C47.5,86.5,47.3,86.8,47.2,87.1z M48,85.9h-0.4l0.6-0.5h0.5L48,85.9z"/>
		<path class="st3" d="M50.7,88.2c-0.1,0.1-0.3,0.1-0.5,0.1c-0.4,0-0.7-0.2-0.7-0.7v-1.2h-0.4v-0.3h0.4v-0.5h0.4v0.5h0.6v0.3h-0.6
			v1.2c0,0.2,0.1,0.4,0.3,0.4c0.1,0,0.2,0,0.3-0.1L50.7,88.2z"/>
	</g>
	<g class="st1">
		<path class="st3" d="M52.3,86.2v0.4c0,0-0.1,0-0.1,0c-0.4,0-0.7,0.3-0.7,0.7v1.1h-0.4v-2.1h0.4v0.4C51.7,86.3,52,86.2,52.3,86.2z"
			/>
	</g>
	<g class="st1">
		<path class="st3" d="M52.7,85.5c0-0.1,0.1-0.3,0.3-0.3c0.2,0,0.3,0.1,0.3,0.2c0,0.1-0.1,0.3-0.3,0.3
			C52.9,85.8,52.7,85.7,52.7,85.5z M52.8,86.2h0.4v2.1h-0.4V86.2z"/>
		<path class="st3" d="M53.8,87.3c0-0.6,0.5-1.1,1.1-1.1c0.4,0,0.7,0.2,0.9,0.5l-0.3,0.2c-0.1-0.2-0.3-0.3-0.6-0.3
			c-0.4,0-0.7,0.3-0.7,0.8c0,0.5,0.3,0.8,0.7,0.8c0.2,0,0.4-0.1,0.6-0.3l0.3,0.2c-0.2,0.3-0.5,0.5-0.9,0.5
			C54.2,88.4,53.8,87.9,53.8,87.3z"/>
		<path class="st3" d="M58,87v1.3h-0.4v-0.3c-0.1,0.2-0.4,0.3-0.7,0.3c-0.5,0-0.8-0.3-0.8-0.6c0-0.3,0.2-0.6,0.9-0.6h0.6V87
			c0-0.3-0.2-0.5-0.6-0.5c-0.3,0-0.5,0.1-0.7,0.2l-0.2-0.3c0.2-0.2,0.5-0.3,0.9-0.3C57.6,86.2,58,86.5,58,87z M57.6,87.7v-0.3H57
			c-0.4,0-0.5,0.1-0.5,0.3c0,0.2,0.2,0.3,0.5,0.3C57.2,88.1,57.5,87.9,57.6,87.7z"/>
	</g>
	<g class="st1">
		<path class="st5" d="M19.5,98.6v0.3h-1.5v-0.2l0.9-0.8c0.2-0.2,0.3-0.4,0.3-0.5c0-0.2-0.2-0.4-0.5-0.4c-0.2,0-0.4,0.1-0.5,0.2
			L17.9,97c0.2-0.2,0.4-0.3,0.8-0.3c0.4,0,0.7,0.2,0.7,0.6c0,0.2-0.1,0.4-0.3,0.7l-0.6,0.6H19.5z"/>
		<path class="st5" d="M21.2,98.6v0.3h-1.5v-0.2l0.9-0.8c0.2-0.2,0.3-0.4,0.3-0.5c0-0.2-0.2-0.4-0.5-0.4c-0.2,0-0.4,0.1-0.5,0.2
			L19.6,97c0.2-0.2,0.4-0.3,0.8-0.3c0.4,0,0.7,0.2,0.7,0.6c0,0.2-0.1,0.4-0.3,0.7l-0.6,0.6H21.2z"/>
	</g>
	<g class="st1">
		<path class="st5" d="M22.1,98.6l0.2-0.2c0.1,0.2,0.3,0.3,0.4,0.3c0.2,0,0.4-0.1,0.4-0.4V97h-0.8v-0.3h1.1v1.4
			c0,0.5-0.2,0.7-0.7,0.7C22.5,98.9,22.2,98.8,22.1,98.6z"/>
	</g>
	<g class="st1">
		<path class="st5" d="M25.3,98.3h-1.1L24,98.9h-0.3l1-2.1h0.3l1,2.1h-0.3L25.3,98.3z M25.2,98.1l-0.5-1l-0.5,1H25.2z"/>
		<path class="st5" d="M28,96.7v2.1h-0.2l-1.3-1.6v1.6h-0.3v-2.1h0.2l1.3,1.6v-1.6H28z"/>
		<path class="st5" d="M30,96.7v2.1h-0.3V97h-0.5v-0.3H30z"/>
	</g>
	<g class="st1">
		<path class="st5" d="M31.9,98.6v0.3h-1.5v-0.2l0.9-0.8c0.2-0.2,0.3-0.4,0.3-0.5c0-0.2-0.2-0.4-0.5-0.4c-0.2,0-0.4,0.1-0.5,0.2
			L30.3,97c0.2-0.2,0.4-0.3,0.8-0.3c0.4,0,0.7,0.2,0.7,0.6c0,0.2-0.1,0.4-0.3,0.7l-0.6,0.6H31.9z"/>
	</g>
	<g class="st1">
		<path class="st5" d="M32.2,97.5c0-0.1,0.1-0.2,0.2-0.2c0.1,0,0.2,0.1,0.2,0.2s-0.1,0.2-0.2,0.2C32.3,97.7,32.2,97.6,32.2,97.5z
			 M32.2,98.7c0-0.1,0.1-0.2,0.2-0.2c0.1,0,0.2,0.1,0.2,0.2s-0.1,0.2-0.2,0.2C32.3,98.9,32.2,98.8,32.2,98.7z"/>
		<path class="st5" d="M32.9,97.8c0-0.7,0.4-1.1,0.9-1.1c0.5,0,0.9,0.4,0.9,1.1s-0.4,1.1-0.9,1.1C33.3,98.9,32.9,98.5,32.9,97.8z
			 M34.4,97.8c0-0.5-0.2-0.8-0.6-0.8c-0.3,0-0.6,0.3-0.6,0.8c0,0.5,0.2,0.8,0.6,0.8C34.1,98.6,34.4,98.4,34.4,97.8z"/>
		<path class="st5" d="M35,97.8c0-0.7,0.4-1.1,0.9-1.1c0.5,0,0.9,0.4,0.9,1.1s-0.4,1.1-0.9,1.1C35.3,98.9,35,98.5,35,97.8z
			 M36.4,97.8c0-0.5-0.2-0.8-0.6-0.8c-0.3,0-0.6,0.3-0.6,0.8c0,0.5,0.2,0.8,0.6,0.8C36.2,98.6,36.4,98.4,36.4,97.8z"/>
	</g>
	<g class="st1">
		<path class="st7" d="M71,104.7h-1.1l-0.2,0.5h-0.3l1-2.1h0.3l1,2.1h-0.3L71,104.7z M70.9,104.4l-0.5-1l-0.5,1H70.9z"/>
	</g>
	<g class="st1">
		<path class="st7" d="M73.3,103.6v1.4c0,0.6-0.3,0.8-0.8,0.8c-0.3,0-0.6-0.1-0.8-0.2l0.1-0.2c0.1,0.1,0.4,0.2,0.6,0.2
			c0.4,0,0.5-0.2,0.5-0.5v-0.1c-0.1,0.2-0.3,0.2-0.6,0.2c-0.5,0-0.8-0.3-0.8-0.8s0.3-0.8,0.8-0.8c0.2,0,0.5,0.1,0.6,0.3v-0.2H73.3z
			 M73,104.3c0-0.3-0.2-0.5-0.5-0.5c-0.3,0-0.5,0.2-0.5,0.5c0,0.3,0.2,0.5,0.5,0.5C72.8,104.9,73,104.6,73,104.3z"/>
		<path class="st7" d="M75.3,103.6v1.6h-0.3v-0.2c-0.1,0.2-0.3,0.3-0.5,0.3c-0.4,0-0.7-0.2-0.7-0.7v-0.9h0.3v0.9
			c0,0.3,0.2,0.5,0.4,0.5c0.3,0,0.5-0.2,0.5-0.5v-0.8H75.3z"/>
		<path class="st7" d="M77.1,104.2v1h-0.3V105c-0.1,0.1-0.3,0.2-0.5,0.2c-0.4,0-0.6-0.2-0.6-0.5c0-0.3,0.2-0.5,0.6-0.5h0.5v-0.1
			c0-0.2-0.1-0.4-0.4-0.4c-0.2,0-0.4,0.1-0.5,0.2l-0.1-0.2c0.2-0.1,0.4-0.2,0.7-0.2C76.9,103.6,77.1,103.8,77.1,104.2z M76.8,104.7
			v-0.2h-0.4c-0.3,0-0.4,0.1-0.4,0.2c0,0.2,0.1,0.3,0.4,0.3C76.6,105,76.8,104.9,76.8,104.7z"/>
	</g>
	<g class="st1">
		<path class="st7" d="M78.5,103.6v0.3c0,0,0,0-0.1,0c-0.3,0-0.5,0.2-0.5,0.5v0.8h-0.3v-1.6H78v0.3
			C78.1,103.7,78.3,103.6,78.5,103.6z"/>
	</g>
	<g class="st1">
		<path class="st7" d="M80.4,102.9v2.2h-0.3v-0.3c-0.1,0.2-0.3,0.3-0.6,0.3c-0.5,0-0.8-0.3-0.8-0.8c0-0.5,0.3-0.8,0.8-0.8
			c0.2,0,0.4,0.1,0.6,0.3v-0.9H80.4z M80.1,104.4c0-0.3-0.2-0.6-0.5-0.6c-0.3,0-0.5,0.2-0.5,0.6s0.2,0.6,0.5,0.6
			C79.8,104.9,80.1,104.7,80.1,104.4z"/>
		<path class="st7" d="M82.2,104.2v1h-0.3V105c-0.1,0.1-0.3,0.2-0.5,0.2c-0.4,0-0.6-0.2-0.6-0.5c0-0.3,0.2-0.5,0.6-0.5h0.5v-0.1
			c0-0.2-0.1-0.4-0.4-0.4c-0.2,0-0.4,0.1-0.5,0.2l-0.1-0.2c0.2-0.1,0.4-0.2,0.7-0.2C81.9,103.6,82.2,103.8,82.2,104.2z M81.9,104.7
			v-0.2h-0.4c-0.3,0-0.4,0.1-0.4,0.2c0,0.2,0.1,0.3,0.4,0.3C81.6,105,81.8,104.9,81.9,104.7z"/>
	</g>
	<g class="st1">
		<path class="st7" d="M84.2,104.3v0.9h-0.3v-0.9c0-0.3-0.2-0.5-0.4-0.5c-0.3,0-0.5,0.2-0.5,0.5v0.8h-0.3v-1.6H83v0.2
			c0.1-0.2,0.3-0.3,0.6-0.3C83.9,103.6,84.2,103.8,84.2,104.3z"/>
	</g>
	<g class="st1">
		<path class="st7" d="M86.3,102.9v2.2H86v-0.3c-0.1,0.2-0.3,0.3-0.6,0.3c-0.5,0-0.8-0.3-0.8-0.8c0-0.5,0.3-0.8,0.8-0.8
			c0.2,0,0.4,0.1,0.6,0.3v-0.9H86.3z M86,104.4c0-0.3-0.2-0.6-0.5-0.6c-0.3,0-0.5,0.2-0.5,0.6s0.2,0.6,0.5,0.6
			C85.7,104.9,86,104.7,86,104.4z"/>
		<path class="st7" d="M86.7,104.4c0-0.5,0.4-0.8,0.8-0.8c0.5,0,0.8,0.3,0.8,0.8c0,0.5-0.3,0.8-0.8,0.8
			C87,105.2,86.7,104.9,86.7,104.4z M88,104.4c0-0.3-0.2-0.6-0.5-0.6s-0.5,0.2-0.5,0.6s0.2,0.6,0.5,0.6S88,104.7,88,104.4z"/>
	</g>
	<g class="st1">
		<path class="st7" d="M67,106.5v2.2h-0.3v-0.3c-0.1,0.2-0.3,0.3-0.6,0.3c-0.5,0-0.8-0.3-0.8-0.8c0-0.5,0.3-0.8,0.8-0.8
			c0.2,0,0.4,0.1,0.6,0.3v-0.9H67z M66.7,108c0-0.3-0.2-0.6-0.5-0.6c-0.3,0-0.5,0.2-0.5,0.6s0.2,0.6,0.5,0.6
			C66.5,108.5,66.7,108.3,66.7,108z"/>
		<path class="st7" d="M67.4,108c0-0.5,0.4-0.8,0.8-0.8c0.5,0,0.8,0.3,0.8,0.8c0,0.5-0.3,0.8-0.8,0.8
			C67.7,108.8,67.4,108.5,67.4,108z M68.7,108c0-0.3-0.2-0.6-0.5-0.6s-0.5,0.2-0.5,0.6s0.2,0.6,0.5,0.6S68.7,108.3,68.7,108z"/>
		<path class="st7" d="M69.3,108c0-0.5,0.4-0.8,0.8-0.8c0.3,0,0.5,0.1,0.6,0.3l-0.2,0.1c-0.1-0.2-0.3-0.2-0.4-0.2
			c-0.3,0-0.5,0.2-0.5,0.6c0,0.3,0.2,0.6,0.5,0.6c0.2,0,0.3-0.1,0.4-0.2l0.2,0.1c-0.1,0.2-0.4,0.3-0.6,0.3
			C69.6,108.8,69.3,108.5,69.3,108z"/>
		<path class="st7" d="M72.6,107.2v1.6h-0.3v-0.2c-0.1,0.2-0.3,0.3-0.5,0.3c-0.4,0-0.7-0.2-0.7-0.7v-0.9h0.3v0.9
			c0,0.3,0.2,0.5,0.4,0.5c0.3,0,0.5-0.2,0.5-0.5v-0.8H72.6z"/>
	</g>
	<g class="st1">
		<path class="st7" d="M75.8,107.9v0.9h-0.3v-0.9c0-0.3-0.2-0.5-0.4-0.5c-0.3,0-0.5,0.2-0.5,0.5v0.8h-0.3v-0.9
			c0-0.3-0.1-0.5-0.4-0.5c-0.3,0-0.5,0.2-0.5,0.5v0.8h-0.3v-1.6h0.3v0.2c0.1-0.2,0.3-0.3,0.5-0.3c0.2,0,0.4,0.1,0.6,0.3
			c0.1-0.2,0.3-0.3,0.6-0.3C75.6,107.2,75.8,107.4,75.8,107.9z"/>
	</g>
	<g class="st1">
		<path class="st7" d="M77.8,108.1h-1.3c0,0.3,0.3,0.5,0.6,0.5c0.2,0,0.3-0.1,0.5-0.2l0.2,0.2c-0.1,0.2-0.4,0.3-0.6,0.3
			c-0.5,0-0.9-0.3-0.9-0.8c0-0.5,0.3-0.8,0.8-0.8S77.8,107.5,77.8,108.1C77.8,108,77.8,108.1,77.8,108.1z M76.5,107.9h1
			c0-0.3-0.2-0.5-0.5-0.5C76.7,107.4,76.5,107.6,76.5,107.9z"/>
		<path class="st7" d="M79.7,107.9v0.9h-0.3v-0.9c0-0.3-0.2-0.5-0.4-0.5c-0.3,0-0.5,0.2-0.5,0.5v0.8h-0.3v-1.6h0.3v0.2
			c0.1-0.2,0.3-0.3,0.6-0.3C79.4,107.2,79.7,107.4,79.7,107.9z"/>
		<path class="st7" d="M81.1,108.7c-0.1,0.1-0.2,0.1-0.3,0.1c-0.3,0-0.5-0.2-0.5-0.5v-0.9H80v-0.2h0.3v-0.3h0.3v0.3H81v0.2h-0.5v0.9
			c0,0.2,0.1,0.3,0.2,0.3c0.1,0,0.2,0,0.2-0.1L81.1,108.7z"/>
	</g>
	<g class="st1">
		<path class="st7" d="M82.7,107.8v1h-0.3v-0.2c-0.1,0.1-0.3,0.2-0.5,0.2c-0.4,0-0.6-0.2-0.6-0.5c0-0.3,0.2-0.5,0.6-0.5h0.5v-0.1
			c0-0.2-0.1-0.4-0.4-0.4c-0.2,0-0.4,0.1-0.5,0.2l-0.1-0.2c0.2-0.1,0.4-0.2,0.7-0.2C82.5,107.2,82.7,107.4,82.7,107.8z M82.5,108.3
			v-0.2H82c-0.3,0-0.4,0.1-0.4,0.2c0,0.2,0.1,0.3,0.4,0.3C82.2,108.6,82.4,108.5,82.5,108.3z"/>
	</g>
	<g class="st1">
		<path class="st7" d="M84.4,108.3l0.2,0.1c-0.1,0.2-0.4,0.3-0.6,0.3l0,0.1c0.2,0,0.3,0.1,0.3,0.2c0,0.2-0.1,0.3-0.4,0.3
			c-0.1,0-0.2,0-0.3-0.1l0.1-0.1c0.1,0,0.1,0.1,0.2,0.1c0.1,0,0.2,0,0.2-0.1c0-0.1-0.1-0.1-0.2-0.1h-0.1l0.1-0.3
			c-0.4-0.1-0.7-0.4-0.7-0.8c0-0.5,0.4-0.8,0.8-0.8c0.3,0,0.5,0.1,0.6,0.3l-0.2,0.1c-0.1-0.2-0.3-0.2-0.4-0.2
			c-0.3,0-0.5,0.2-0.5,0.6c0,0.3,0.2,0.6,0.5,0.6C84.1,108.5,84.3,108.5,84.4,108.3z"/>
	</g>
	<g class="st1">
		<path class="st7" d="M86.3,107.8v1H86v-0.2c-0.1,0.1-0.3,0.2-0.5,0.2c-0.4,0-0.6-0.2-0.6-0.5c0-0.3,0.2-0.5,0.6-0.5H86v-0.1
			c0-0.2-0.1-0.4-0.4-0.4c-0.2,0-0.4,0.1-0.5,0.2l-0.1-0.2c0.2-0.1,0.4-0.2,0.7-0.2C86,107.2,86.3,107.4,86.3,107.8z M85.3,106.9
			h-0.2c0-0.2,0.1-0.4,0.3-0.4c0.2,0,0.3,0.2,0.4,0.2c0.1,0,0.1-0.1,0.2-0.2h0.2c0,0.2-0.1,0.4-0.3,0.4c-0.2,0-0.3-0.2-0.4-0.2
			C85.3,106.7,85.3,106.8,85.3,106.9z M86,108.3v-0.2h-0.4c-0.3,0-0.4,0.1-0.4,0.2c0,0.2,0.1,0.3,0.4,0.3
			C85.7,108.6,85.9,108.5,86,108.3z"/>
	</g>
	<g class="st1">
		<path class="st7" d="M86.7,108c0-0.5,0.4-0.8,0.8-0.8c0.5,0,0.8,0.3,0.8,0.8c0,0.5-0.3,0.8-0.8,0.8C87,108.8,86.7,108.5,86.7,108z
			 M88,108c0-0.3-0.2-0.6-0.5-0.6s-0.5,0.2-0.5,0.6s0.2,0.6,0.5,0.6S88,108.3,88,108z"/>
	</g>
	<g class="st1">
		<path class="st6" d="M20.3,107.6l-0.6-0.9h0H19v0.9h-0.7v-3.2h1.4c0.8,0,1.4,0.4,1.4,1.1c0,0.5-0.2,0.8-0.6,1l0.7,1H20.3z
			 M19.6,105H19v1.1h0.6c0.4,0,0.7-0.2,0.7-0.5C20.2,105.2,20,105,19.6,105z"/>
		<path class="st6" d="M22.9,107.6v0.5h-0.4v-0.5c-0.4,0-0.9-0.2-1.1-0.4l0.2-0.5c0.2,0.2,0.5,0.3,0.9,0.3v-0.8
			c-0.5-0.1-1.1-0.3-1.1-0.9c0-0.5,0.3-0.9,1.1-1v-0.5h0.4v0.5c0.3,0,0.7,0.1,0.9,0.3l-0.2,0.6c-0.2-0.1-0.5-0.2-0.7-0.2v0.8
			c0.5,0.1,1,0.3,1,0.9C23.9,107.1,23.6,107.5,22.9,107.6z M22.4,105.6V105c-0.2,0.1-0.3,0.2-0.3,0.3
			C22.1,105.5,22.2,105.6,22.4,105.6z M23.2,106.7c0-0.2-0.1-0.2-0.3-0.3v0.6C23.1,107,23.2,106.9,23.2,106.7z"/>
	</g>
	<g class="st1">
		<path class="st6" d="M27.8,107v0.6h-2.4v-0.5l1.2-1.1c0.3-0.3,0.3-0.4,0.3-0.6c0-0.2-0.2-0.4-0.5-0.4c-0.3,0-0.5,0.1-0.7,0.3
			l-0.5-0.3c0.2-0.4,0.7-0.6,1.3-0.6c0.7,0,1.2,0.4,1.2,0.9c0,0.3-0.1,0.6-0.5,1l-0.7,0.7H27.8z"/>
	</g>
	<g class="st1">
		<path class="st6" d="M28.2,107.2c0-0.3,0.2-0.4,0.4-0.4c0.2,0,0.4,0.2,0.4,0.4c0,0.3-0.2,0.4-0.4,0.4
			C28.4,107.6,28.2,107.4,28.2,107.2z"/>
	</g>
	<g class="st1">
		<path class="st6" d="M32.3,106.9h-0.5v0.7H31v-0.7h-1.7v-0.5l1.5-2h0.8l-1.4,1.9h0.8v-0.6h0.7v0.6h0.5V106.9z"/>
	</g>
	<g class="st1">
		<path class="st6" d="M34.8,106.6c0,0.6-0.4,1-1.3,1c-0.4,0-0.9-0.1-1.2-0.3l0.3-0.6c0.2,0.2,0.6,0.3,0.9,0.3
			c0.4,0,0.6-0.2,0.6-0.4c0-0.2-0.2-0.4-0.7-0.4h-0.8l0.2-1.8h1.9v0.6h-1.3l0,0.6h0.3C34.5,105.6,34.8,106,34.8,106.6z"/>
	</g>
	<g class="st1">
		<path class="st6" d="M35.1,106c0-1,0.6-1.6,1.4-1.6c0.8,0,1.4,0.6,1.4,1.6c0,1-0.6,1.6-1.4,1.6C35.7,107.6,35.1,107.1,35.1,106z
			 M37.1,106c0-0.7-0.3-1-0.6-1c-0.4,0-0.6,0.3-0.6,1s0.3,1,0.6,1C36.9,107,37.1,106.7,37.1,106z"/>
		<path class="st6" d="M39,107.2c0,0.1,0,0.2-0.1,0.5l-0.3,0.6h-0.4l0.2-0.7c-0.1-0.1-0.2-0.2-0.2-0.4c0-0.3,0.2-0.4,0.4-0.4
			C38.8,106.8,39,106.9,39,107.2z"/>
	</g>
	<g class="st1">
		<path class="st6" d="M39.3,106c0-1,0.6-1.6,1.4-1.6c0.8,0,1.4,0.6,1.4,1.6c0,1-0.6,1.6-1.4,1.6C39.8,107.6,39.3,107.1,39.3,106z
			 M41.2,106c0-0.7-0.3-1-0.6-1c-0.4,0-0.6,0.3-0.6,1s0.3,1,0.6,1C41,107,41.2,106.7,41.2,106z"/>
		<path class="st6" d="M42.3,106c0-1,0.6-1.6,1.4-1.6c0.8,0,1.4,0.6,1.4,1.6c0,1-0.6,1.6-1.4,1.6C42.9,107.6,42.3,107.1,42.3,106z
			 M44.3,106c0-0.7-0.3-1-0.6-1c-0.4,0-0.6,0.3-0.6,1s0.3,1,0.6,1C44,107,44.3,106.7,44.3,106z"/>
	</g>
	<g>
		<path class="st7" d="M85.7,94.6c-0.3,0.3-0.3,0.7,0,1L87,97l-1.4,1.4c-0.3,0.3-0.3,0.7,0,1c0.3,0.3,0.7,0.3,1,0l1.8-1.8
			c0.1-0.1,0.2-0.3,0.2-0.5s-0.1-0.3-0.2-0.5l-1.8-1.8C86.4,94.4,85.9,94.4,85.7,94.6L85.7,94.6z"/>
	</g>
	<g>
		<g>
			<path class="st5" d="M89,87.5c-0.7,0.9-1.7,1.6-3,1.6s-2.3-0.6-3-1.6c0.7-0.9,1.8-1.6,3-1.6S88.4,86.5,89,87.5z"/>
		</g>
		<g>
			<path class="st2" d="M87,87.5c0,0.6-0.5,1-1,1s-1-0.5-1-1s0.5-1,1-1S87,86.9,87,87.5z"/>
		</g>
	</g>
	<g>
		<g>
			<path class="st2" d="M15.3,116.9h74.5c1.5,0,2.8,1.2,2.8,2.8v26.9c0,1.5-1.2,2.8-2.8,2.8H15.3c-1.5,0-2.8-1.2-2.8-2.8v-26.9
				C12.6,118.1,13.8,116.9,15.3,116.9z"/>
		</g>
	</g>
	<g class="st1">
		<path class="st3" d="M20.3,124.5v0.4h-2.1V122h2v0.4h-1.6v0.9h1.4v0.3h-1.4v0.9H20.3z"/>
	</g>
	<g class="st1">
		<path class="st3" d="M22.9,123.6v1.2h-0.4v-1.2c0-0.4-0.2-0.6-0.6-0.6c-0.4,0-0.7,0.2-0.7,0.7v1.1h-0.4v-2.1h0.4v0.3
			c0.2-0.2,0.4-0.3,0.8-0.3C22.6,122.7,22.9,123,22.9,123.6z"/>
	</g>
	<g class="st1">
		<path class="st3" d="M25.7,122.7v1.9c0,0.8-0.4,1.1-1.1,1.1c-0.4,0-0.8-0.1-1-0.3l0.2-0.3c0.2,0.2,0.5,0.3,0.8,0.3
			c0.5,0,0.7-0.2,0.7-0.7v-0.2c-0.2,0.2-0.5,0.3-0.8,0.3c-0.6,0-1.1-0.4-1.1-1c0-0.6,0.5-1,1.1-1c0.3,0,0.6,0.1,0.8,0.4v-0.3H25.7z
			 M25.4,123.7c0-0.4-0.3-0.7-0.7-0.7c-0.4,0-0.7,0.3-0.7,0.7c0,0.4,0.3,0.7,0.7,0.7C25.1,124.4,25.4,124.1,25.4,123.7z"/>
		<path class="st3" d="M28.4,123.9h-1.7c0,0.4,0.4,0.6,0.8,0.6c0.3,0,0.5-0.1,0.6-0.3l0.2,0.3c-0.2,0.2-0.5,0.3-0.8,0.3
			c-0.7,0-1.2-0.5-1.2-1.1c0-0.6,0.5-1.1,1.1-1.1s1.1,0.4,1.1,1.1C28.4,123.8,28.4,123.9,28.4,123.9z M26.7,123.6H28
			c0-0.4-0.3-0.6-0.7-0.6C27,123,26.7,123.2,26.7,123.6z"/>
		<path class="st3" d="M31,123.6v1.2h-0.4v-1.2c0-0.4-0.2-0.6-0.6-0.6c-0.4,0-0.7,0.2-0.7,0.7v1.1H29v-2.1h0.4v0.3
			c0.2-0.2,0.4-0.3,0.8-0.3C30.6,122.7,31,123,31,123.6z"/>
		<path class="st3" d="M33.8,123.6v1.2h-0.4v-1.2c0-0.4-0.2-0.6-0.6-0.6c-0.4,0-0.7,0.2-0.7,0.7v1.1h-0.4v-3h0.4v1.2
			c0.2-0.2,0.4-0.3,0.8-0.3C33.4,122.7,33.8,123,33.8,123.6z"/>
		<path class="st3" d="M36.2,123.5v1.3h-0.4v-0.3c-0.1,0.2-0.4,0.3-0.7,0.3c-0.5,0-0.8-0.3-0.8-0.6c0-0.3,0.2-0.6,0.9-0.6h0.6v-0.1
			c0-0.3-0.2-0.5-0.6-0.5c-0.3,0-0.5,0.1-0.7,0.2l-0.2-0.3c0.2-0.2,0.5-0.3,0.9-0.3C35.8,122.7,36.2,123,36.2,123.5z M35.8,124.2
			v-0.3h-0.6c-0.4,0-0.5,0.1-0.5,0.3c0,0.2,0.2,0.3,0.5,0.3C35.5,124.6,35.7,124.4,35.8,124.2z"/>
	</g>
	<g class="st1">
		<path class="st3" d="M38.1,122.7v0.4c0,0-0.1,0-0.1,0c-0.4,0-0.7,0.3-0.7,0.7v1.1h-0.4v-2.1h0.4v0.4
			C37.4,122.8,37.7,122.7,38.1,122.7z"/>
	</g>
	<g class="st1">
		<path class="st3" d="M38.5,122c0-0.1,0.1-0.3,0.3-0.3c0.1,0,0.3,0.1,0.3,0.2c0,0.1-0.1,0.3-0.3,0.3
			C38.6,122.3,38.5,122.2,38.5,122z M38.5,122.7h0.4v2.1h-0.4V122.7z"/>
		<path class="st3" d="M41.4,123.5v1.3H41v-0.3c-0.1,0.2-0.4,0.3-0.7,0.3c-0.5,0-0.8-0.3-0.8-0.6c0-0.3,0.2-0.6,0.9-0.6H41v-0.1
			c0-0.3-0.2-0.5-0.6-0.5c-0.3,0-0.5,0.1-0.7,0.2l-0.2-0.3c0.2-0.2,0.5-0.3,0.9-0.3C41,122.7,41.4,123,41.4,123.5z M41,124.2v-0.3
			h-0.6c-0.4,0-0.5,0.1-0.5,0.3c0,0.2,0.2,0.3,0.5,0.3C40.7,124.6,40.9,124.4,41,124.2z"/>
	</g>
	<g class="st1">
		<path class="st3" d="M20.5,127.8c0,0.6-0.4,1-1.2,1h-0.7v0.9h-0.4v-2.8h1.1C20.1,126.9,20.5,127.2,20.5,127.8z M20.1,127.8
			c0-0.4-0.3-0.6-0.8-0.6h-0.7v1.3h0.7C19.9,128.5,20.1,128.3,20.1,127.8z"/>
	</g>
	<g class="st1">
		<path class="st3" d="M22.2,127.5v0.4c0,0-0.1,0-0.1,0c-0.4,0-0.7,0.3-0.7,0.7v1.1H21v-2.1h0.4v0.4
			C21.6,127.7,21.8,127.5,22.2,127.5z"/>
	</g>
	<g class="st1">
		<path class="st3" d="M22.5,128.6c0-0.6,0.5-1.1,1.1-1.1c0.6,0,1.1,0.5,1.1,1.1s-0.5,1.1-1.1,1.1C22.9,129.7,22.5,129.3,22.5,128.6
			z M24.3,128.6c0-0.5-0.3-0.8-0.7-0.8c-0.4,0-0.7,0.3-0.7,0.8s0.3,0.8,0.7,0.8C24,129.4,24.3,129.1,24.3,128.6z"/>
		<path class="st3" d="M27.3,126.7v3h-0.4v-0.3c-0.2,0.2-0.4,0.4-0.8,0.4c-0.6,0-1.1-0.4-1.1-1.1s0.5-1.1,1.1-1.1
			c0.3,0,0.6,0.1,0.7,0.3v-1.2H27.3z M26.9,128.6c0-0.5-0.3-0.8-0.7-0.8c-0.4,0-0.7,0.3-0.7,0.8s0.3,0.8,0.7,0.8
			C26.6,129.4,26.9,129.1,26.9,128.6z"/>
		<path class="st3" d="M30,127.5v2.1h-0.4v-0.3c-0.2,0.2-0.4,0.3-0.7,0.3c-0.6,0-0.9-0.3-0.9-0.9v-1.2h0.4v1.2
			c0,0.4,0.2,0.6,0.6,0.6c0.4,0,0.7-0.3,0.7-0.7v-1.1H30z"/>
		<path class="st3" d="M32.2,129.1l0.3,0.2c-0.2,0.3-0.5,0.5-0.9,0.5l0,0.2c0.2,0,0.4,0.2,0.4,0.3c0,0.2-0.2,0.4-0.5,0.4
			c-0.1,0-0.3,0-0.4-0.1l0.1-0.2c0.1,0,0.2,0.1,0.3,0.1c0.2,0,0.2-0.1,0.2-0.2c0-0.1-0.1-0.2-0.2-0.2h-0.1l0.1-0.4
			c-0.5-0.1-0.9-0.5-0.9-1.1c0-0.6,0.5-1.1,1.1-1.1c0.4,0,0.7,0.2,0.9,0.5l-0.3,0.2c-0.1-0.2-0.3-0.3-0.6-0.3
			c-0.4,0-0.7,0.3-0.7,0.8c0,0.5,0.3,0.8,0.7,0.8C31.9,129.4,32.1,129.3,32.2,129.1z"/>
	</g>
	<g class="st1">
		<path class="st3" d="M34.7,128.4v1.3h-0.4v-0.3c-0.1,0.2-0.4,0.3-0.7,0.3c-0.5,0-0.8-0.3-0.8-0.6c0-0.3,0.2-0.6,0.9-0.6h0.6v-0.1
			c0-0.3-0.2-0.5-0.6-0.5c-0.3,0-0.5,0.1-0.7,0.2l-0.2-0.3c0.2-0.2,0.5-0.3,0.9-0.3C34.4,127.5,34.7,127.8,34.7,128.4z M33.4,127.2
			h-0.2c0-0.3,0.2-0.5,0.4-0.5c0.3,0,0.4,0.3,0.5,0.3c0.1,0,0.2-0.1,0.2-0.2h0.2c0,0.3-0.2,0.5-0.4,0.5c-0.3,0-0.4-0.3-0.5-0.3
			C33.5,127,33.4,127,33.4,127.2z M34.4,129v-0.3h-0.6c-0.4,0-0.5,0.1-0.5,0.3c0,0.2,0.2,0.3,0.5,0.3C34,129.4,34.3,129.3,34.4,129z
			"/>
	</g>
	<g class="st1">
		<path class="st3" d="M35.3,128.6c0-0.6,0.5-1.1,1.1-1.1c0.6,0,1.1,0.5,1.1,1.1s-0.5,1.1-1.1,1.1C35.8,129.7,35.3,129.3,35.3,128.6
			z M37.1,128.6c0-0.5-0.3-0.8-0.7-0.8c-0.4,0-0.7,0.3-0.7,0.8s0.3,0.8,0.7,0.8C36.8,129.4,37.1,129.1,37.1,128.6z"/>
	</g>
	<g class="st1">
		<path class="st5" d="M19.5,135.1v0.3h-1.5v-0.2l0.9-0.8c0.2-0.2,0.3-0.4,0.3-0.5c0-0.2-0.2-0.4-0.5-0.4c-0.2,0-0.4,0.1-0.5,0.2
			l-0.2-0.2c0.2-0.2,0.4-0.3,0.8-0.3c0.4,0,0.7,0.2,0.7,0.6c0,0.2-0.1,0.4-0.3,0.7l-0.6,0.6H19.5z"/>
		<path class="st5" d="M21.2,134.7c0,0.4-0.3,0.7-0.8,0.7c-0.3,0-0.6-0.1-0.8-0.3l0.1-0.2c0.1,0.1,0.4,0.2,0.6,0.2
			c0.3,0,0.5-0.1,0.5-0.4c0-0.2-0.2-0.4-0.5-0.4h-0.2v-0.2l0.5-0.7h-1v-0.3h1.4v0.2l-0.6,0.7C21,134.2,21.2,134.4,21.2,134.7z"/>
	</g>
	<g class="st1">
		<path class="st5" d="M22.1,135.1l0.2-0.2c0.1,0.2,0.3,0.3,0.4,0.3c0.2,0,0.4-0.1,0.4-0.4v-1.2h-0.8v-0.3h1.1v1.4
			c0,0.5-0.2,0.7-0.7,0.7C22.5,135.4,22.2,135.3,22.1,135.1z"/>
	</g>
	<g class="st1">
		<path class="st5" d="M25.3,134.8h-1.1l-0.2,0.5h-0.3l1-2.1h0.3l1,2.1h-0.3L25.3,134.8z M25.2,134.6l-0.5-1l-0.5,1H25.2z"/>
		<path class="st5" d="M28,133.2v2.1h-0.2l-1.3-1.6v1.6h-0.3v-2.1h0.2l1.3,1.6v-1.6H28z"/>
		<path class="st5" d="M30,133.2v2.1h-0.3v-1.9h-0.5v-0.3H30z"/>
	</g>
	<g class="st1">
		<path class="st5" d="M31.9,135.1v0.3h-1.5v-0.2l0.9-0.8c0.2-0.2,0.3-0.4,0.3-0.5c0-0.2-0.2-0.4-0.5-0.4c-0.2,0-0.4,0.1-0.5,0.2
			l-0.2-0.2c0.2-0.2,0.4-0.3,0.8-0.3c0.4,0,0.7,0.2,0.7,0.6c0,0.2-0.1,0.4-0.3,0.7l-0.6,0.6H31.9z"/>
	</g>
	<g class="st1">
		<path class="st5" d="M32.2,134c0-0.1,0.1-0.2,0.2-0.2c0.1,0,0.2,0.1,0.2,0.2s-0.1,0.2-0.2,0.2C32.3,134.2,32.2,134.1,32.2,134z
			 M32.2,135.2c0-0.1,0.1-0.2,0.2-0.2c0.1,0,0.2,0.1,0.2,0.2s-0.1,0.2-0.2,0.2C32.3,135.4,32.2,135.3,32.2,135.2z"/>
		<path class="st5" d="M32.9,134.3c0-0.7,0.4-1.1,0.9-1.1c0.5,0,0.9,0.4,0.9,1.1s-0.4,1.1-0.9,1.1C33.3,135.4,32.9,135,32.9,134.3z
			 M34.3,134.3c0-0.5-0.2-0.8-0.6-0.8c-0.3,0-0.6,0.3-0.6,0.8c0,0.5,0.2,0.8,0.6,0.8C34.1,135.1,34.3,134.9,34.3,134.3z"/>
		<path class="st5" d="M34.9,134.3c0-0.7,0.4-1.1,0.9-1.1c0.5,0,0.9,0.4,0.9,1.1s-0.4,1.1-0.9,1.1C35.3,135.4,34.9,135,34.9,134.3z
			 M36.4,134.3c0-0.5-0.2-0.8-0.6-0.8c-0.3,0-0.6,0.3-0.6,0.8c0,0.5,0.2,0.8,0.6,0.8C36.1,135.1,36.4,134.9,36.4,134.3z"/>
	</g>
	<g class="st1">
		<path class="st8" d="M71.8,141.9c-0.1,0.2-0.3,0.2-0.5,0.2c-0.3,0-0.5-0.1-0.8-0.4c-0.6,0-1-0.5-1-1.1c0-0.6,0.5-1.1,1.1-1.1
			c0.6,0,1.1,0.5,1.1,1.1c0,0.5-0.3,0.9-0.8,1c0.1,0.2,0.3,0.2,0.4,0.2c0.2,0,0.3-0.1,0.4-0.2L71.8,141.9z M70.6,141.4
			c0.5,0,0.8-0.3,0.8-0.8s-0.3-0.8-0.8-0.8c-0.5,0-0.8,0.3-0.8,0.8S70.1,141.4,70.6,141.4z"/>
		<path class="st8" d="M73.6,140.1v1.6h-0.3v-0.2c-0.1,0.2-0.3,0.3-0.5,0.3c-0.4,0-0.7-0.2-0.7-0.7v-0.9h0.3v0.9
			c0,0.3,0.2,0.5,0.4,0.5c0.3,0,0.5-0.2,0.5-0.5v-0.8H73.6z"/>
		<path class="st8" d="M75.4,140.7v1h-0.3v-0.2c-0.1,0.1-0.3,0.2-0.5,0.2c-0.4,0-0.6-0.2-0.6-0.5c0-0.3,0.2-0.5,0.6-0.5h0.5v-0.1
			c0-0.2-0.1-0.4-0.4-0.4c-0.2,0-0.4,0.1-0.5,0.2l-0.1-0.2c0.2-0.1,0.4-0.2,0.7-0.2C75.2,140.1,75.4,140.3,75.4,140.7z M75.1,141.2
			V141h-0.4c-0.3,0-0.4,0.1-0.4,0.2c0,0.2,0.1,0.3,0.4,0.3C74.9,141.5,75.1,141.4,75.1,141.2z"/>
		<path class="st8" d="M76,139.4h0.3v2.2H76V139.4z"/>
		<path class="st8" d="M76.7,139.6c0-0.1,0.1-0.2,0.2-0.2c0.1,0,0.2,0.1,0.2,0.2c0,0.1-0.1,0.2-0.2,0.2
			C76.8,139.8,76.7,139.7,76.7,139.6z M76.8,140.1h0.3v1.6h-0.3V140.1z"/>
		<path class="st8" d="M78.2,139.4c0.1,0,0.2,0,0.3,0.1l-0.1,0.2c-0.1,0-0.1-0.1-0.2-0.1c-0.2,0-0.3,0.1-0.3,0.3v0.1h0.5v0.2H78v1.4
			h-0.3v-1.4h-0.3v-0.2h0.3v-0.1C77.7,139.6,77.9,139.4,78.2,139.4z M78.9,139.6c0-0.1,0.1-0.2,0.2-0.2c0.1,0,0.2,0.1,0.2,0.2
			c0,0.1-0.1,0.2-0.2,0.2C79,139.8,78.9,139.7,78.9,139.6z M78.9,140.1h0.3v1.6h-0.3V140.1z"/>
		<path class="st8" d="M79.6,140.9c0-0.5,0.4-0.8,0.8-0.8c0.3,0,0.5,0.1,0.6,0.3l-0.2,0.1c-0.1-0.2-0.3-0.2-0.4-0.2
			c-0.3,0-0.5,0.2-0.5,0.6c0,0.3,0.2,0.6,0.5,0.6c0.2,0,0.3-0.1,0.4-0.2l0.2,0.1c-0.1,0.2-0.4,0.3-0.6,0.3
			C80,141.7,79.6,141.3,79.6,140.9z"/>
	</g>
	<g class="st1">
		<path class="st8" d="M82.7,140.7v1h-0.3v-0.2c-0.1,0.1-0.3,0.2-0.5,0.2c-0.4,0-0.6-0.2-0.6-0.5c0-0.3,0.2-0.5,0.6-0.5h0.5v-0.1
			c0-0.2-0.1-0.4-0.4-0.4c-0.2,0-0.4,0.1-0.5,0.2l-0.1-0.2c0.2-0.1,0.4-0.2,0.7-0.2C82.5,140.1,82.7,140.3,82.7,140.7z M82.5,141.2
			V141H82c-0.3,0-0.4,0.1-0.4,0.2c0,0.2,0.1,0.3,0.4,0.3C82.2,141.5,82.4,141.4,82.5,141.2z"/>
	</g>
	<g class="st1">
		<path class="st8" d="M84.4,141.2l0.2,0.1c-0.1,0.2-0.4,0.3-0.6,0.3l0,0.1c0.2,0,0.3,0.1,0.3,0.2c0,0.2-0.1,0.3-0.4,0.3
			c-0.1,0-0.2,0-0.3-0.1l0.1-0.1c0.1,0,0.1,0.1,0.2,0.1c0.1,0,0.2,0,0.2-0.1c0-0.1-0.1-0.1-0.2-0.1h-0.1l0.1-0.3
			c-0.4-0.1-0.7-0.4-0.7-0.8c0-0.5,0.4-0.8,0.8-0.8c0.3,0,0.5,0.1,0.6,0.3l-0.2,0.1c-0.1-0.2-0.3-0.2-0.4-0.2
			c-0.3,0-0.5,0.2-0.5,0.6c0,0.3,0.2,0.6,0.5,0.6C84.1,141.4,84.3,141.4,84.4,141.2z"/>
	</g>
	<g class="st1">
		<path class="st8" d="M86.3,140.7v1H86v-0.2c-0.1,0.1-0.3,0.2-0.5,0.2c-0.4,0-0.6-0.2-0.6-0.5c0-0.3,0.2-0.5,0.6-0.5H86v-0.1
			c0-0.2-0.1-0.4-0.4-0.4c-0.2,0-0.4,0.1-0.5,0.2l-0.1-0.2c0.2-0.1,0.4-0.2,0.7-0.2C86,140.1,86.3,140.3,86.3,140.7z M85.3,139.8
			h-0.2c0-0.2,0.1-0.4,0.3-0.4c0.2,0,0.3,0.2,0.4,0.2c0.1,0,0.1-0.1,0.2-0.2h0.2c0,0.2-0.1,0.4-0.3,0.4c-0.2,0-0.3-0.2-0.4-0.2
			C85.3,139.6,85.3,139.7,85.3,139.8z M86,141.2V141h-0.4c-0.3,0-0.4,0.1-0.4,0.2c0,0.2,0.1,0.3,0.4,0.3
			C85.7,141.5,85.9,141.4,86,141.2z"/>
	</g>
	<g class="st1">
		<path class="st8" d="M86.7,140.9c0-0.5,0.4-0.8,0.8-0.8c0.5,0,0.8,0.3,0.8,0.8c0,0.5-0.3,0.8-0.8,0.8
			C87,141.7,86.7,141.3,86.7,140.9z M88,140.9c0-0.3-0.2-0.6-0.5-0.6s-0.5,0.2-0.5,0.6s0.2,0.6,0.5,0.6S88,141.2,88,140.9z"/>
	</g>
	<g class="st1">
		<path class="st8" d="M65.7,144.4v0.9h-0.3v-0.9c0-0.3-0.2-0.5-0.4-0.5c-0.3,0-0.5,0.2-0.5,0.5v0.8h-0.3v-1.6h0.3v0.2
			c0.1-0.2,0.3-0.3,0.6-0.3C65.4,143.7,65.7,143.9,65.7,144.4z"/>
	</g>
	<g class="st1">
		<path class="st8" d="M67.5,144.3v1h-0.3v-0.2c-0.1,0.1-0.3,0.2-0.5,0.2c-0.4,0-0.6-0.2-0.6-0.5c0-0.3,0.2-0.5,0.6-0.5h0.5v-0.1
			c0-0.2-0.1-0.4-0.4-0.4c-0.2,0-0.4,0.1-0.5,0.2l-0.1-0.2c0.2-0.1,0.4-0.2,0.7-0.2C67.3,143.7,67.5,143.9,67.5,144.3z M66.5,143.4
			h-0.2c0-0.2,0.1-0.4,0.3-0.4c0.2,0,0.3,0.2,0.4,0.2c0.1,0,0.1-0.1,0.2-0.2h0.2c0,0.2-0.1,0.4-0.3,0.4c-0.2,0-0.3-0.2-0.4-0.2
			C66.6,143.2,66.5,143.3,66.5,143.4z M67.2,144.8v-0.2h-0.4c-0.3,0-0.4,0.1-0.4,0.2c0,0.2,0.1,0.3,0.4,0.3
			C67,145.1,67.2,145,67.2,144.8z"/>
	</g>
	<g class="st1">
		<path class="st8" d="M67.9,144.5c0-0.5,0.4-0.8,0.8-0.8c0.5,0,0.8,0.3,0.8,0.8c0,0.5-0.3,0.8-0.8,0.8
			C68.3,145.3,67.9,144.9,67.9,144.5z M69.3,144.5c0-0.3-0.2-0.6-0.5-0.6s-0.5,0.2-0.5,0.6s0.2,0.6,0.5,0.6S69.3,144.8,69.3,144.5z"
			/>
	</g>
	<g class="st1">
		<path class="st8" d="M70.6,144.5c0-0.5,0.4-0.8,0.8-0.8c0.3,0,0.5,0.1,0.6,0.3l-0.2,0.1c-0.1-0.2-0.3-0.2-0.4-0.2
			c-0.3,0-0.5,0.2-0.5,0.6c0,0.3,0.2,0.6,0.5,0.6c0.2,0,0.3-0.1,0.4-0.2l0.2,0.1c-0.1,0.2-0.4,0.3-0.6,0.3
			C71,145.3,70.6,144.9,70.6,144.5z"/>
	</g>
	<g class="st1">
		<path class="st8" d="M72.3,144.5c0-0.5,0.4-0.8,0.8-0.8c0.5,0,0.8,0.3,0.8,0.8c0,0.5-0.3,0.8-0.8,0.8
			C72.7,145.3,72.3,144.9,72.3,144.5z M73.7,144.5c0-0.3-0.2-0.6-0.5-0.6s-0.5,0.2-0.5,0.6s0.2,0.6,0.5,0.6S73.7,144.8,73.7,144.5z"
			/>
		<path class="st8" d="M77,144.4v0.9h-0.3v-0.9c0-0.3-0.2-0.5-0.4-0.5c-0.3,0-0.5,0.2-0.5,0.5v0.8h-0.3v-0.9c0-0.3-0.1-0.5-0.4-0.5
			c-0.3,0-0.5,0.2-0.5,0.5v0.8h-0.3v-1.6h0.3v0.2c0.1-0.2,0.3-0.3,0.5-0.3c0.2,0,0.4,0.1,0.6,0.3c0.1-0.2,0.3-0.3,0.6-0.3
			C76.7,143.7,77,143.9,77,144.4z"/>
		<path class="st8" d="M79.2,144.5c0,0.5-0.3,0.8-0.8,0.8c-0.2,0-0.4-0.1-0.6-0.3v0.8h-0.3v-2.2h0.3v0.3c0.1-0.2,0.3-0.3,0.6-0.3
			C78.8,143.7,79.2,144,79.2,144.5z M78.9,144.5c0-0.3-0.2-0.6-0.5-0.6c-0.3,0-0.5,0.2-0.5,0.6c0,0.3,0.2,0.6,0.5,0.6
			C78.7,145,78.9,144.8,78.9,144.5z"/>
	</g>
	<g class="st1">
		<path class="st8" d="M79.4,144.5c0-0.5,0.4-0.8,0.8-0.8c0.5,0,0.8,0.3,0.8,0.8c0,0.5-0.3,0.8-0.8,0.8
			C79.8,145.3,79.4,144.9,79.4,144.5z M80.8,144.5c0-0.3-0.2-0.6-0.5-0.6s-0.5,0.2-0.5,0.6s0.2,0.6,0.5,0.6S80.8,144.8,80.8,144.5z"
			/>
	</g>
	<g class="st1">
		<path class="st8" d="M82.8,143.7l-0.7,1.6h-0.3l-0.7-1.6h0.3L82,145l0.6-1.3H82.8z"/>
	</g>
	<g class="st1">
		<path class="st8" d="M84.3,144.3v1h-0.3v-0.2c-0.1,0.1-0.3,0.2-0.5,0.2c-0.4,0-0.6-0.2-0.6-0.5c0-0.3,0.2-0.5,0.6-0.5H84v-0.1
			c0-0.2-0.1-0.4-0.4-0.4c-0.2,0-0.4,0.1-0.5,0.2l-0.1-0.2c0.2-0.1,0.4-0.2,0.7-0.2C84.1,143.7,84.3,143.9,84.3,144.3z M84,144.8
			v-0.2h-0.4c-0.3,0-0.4,0.1-0.4,0.2c0,0.2,0.1,0.3,0.4,0.3C83.8,145.1,84,145,84,144.8z"/>
	</g>
	<g class="st1">
		<path class="st8" d="M86.4,143v2.2h-0.3V145c-0.1,0.2-0.3,0.3-0.6,0.3c-0.5,0-0.8-0.3-0.8-0.8c0-0.5,0.3-0.8,0.8-0.8
			c0.2,0,0.4,0.1,0.6,0.3V143H86.4z M86.1,144.5c0-0.3-0.2-0.6-0.5-0.6c-0.3,0-0.5,0.2-0.5,0.6s0.2,0.6,0.5,0.6
			C85.8,145,86.1,144.8,86.1,144.5z"/>
		<path class="st8" d="M88.2,144.3v1h-0.3v-0.2c-0.1,0.1-0.3,0.2-0.5,0.2c-0.4,0-0.6-0.2-0.6-0.5c0-0.3,0.2-0.5,0.6-0.5h0.5v-0.1
			c0-0.2-0.1-0.4-0.4-0.4c-0.2,0-0.4,0.1-0.5,0.2l-0.1-0.2c0.2-0.1,0.4-0.2,0.7-0.2C87.9,143.7,88.2,143.9,88.2,144.3z M87.9,144.8
			v-0.2h-0.4c-0.3,0-0.4,0.1-0.4,0.2c0,0.2,0.1,0.3,0.4,0.3C87.6,145.1,87.8,145,87.9,144.8z"/>
	</g>
	<g class="st1">
		<path class="st6" d="M20.3,144.1l-0.6-0.9h0H19v0.9h-0.7v-3.2h1.4c0.8,0,1.4,0.4,1.4,1.1c0,0.5-0.2,0.8-0.6,1l0.7,1H20.3z
			 M19.6,141.5H19v1.1h0.6c0.4,0,0.7-0.2,0.7-0.5C20.2,141.7,20,141.5,19.6,141.5z"/>
		<path class="st6" d="M22.9,144.1v0.5h-0.4v-0.5c-0.4,0-0.9-0.2-1.1-0.4l0.2-0.5c0.2,0.2,0.5,0.3,0.9,0.3v-0.8
			c-0.5-0.1-1.1-0.3-1.1-0.9c0-0.5,0.3-0.9,1.1-1v-0.5h0.4v0.5c0.3,0,0.7,0.1,0.9,0.3l-0.2,0.6c-0.2-0.1-0.5-0.2-0.7-0.2v0.8
			c0.5,0.1,1,0.3,1,0.9C23.9,143.6,23.6,144,22.9,144.1z M22.4,142.1v-0.6c-0.2,0.1-0.3,0.2-0.3,0.3C22.1,142,22.2,142.1,22.4,142.1
			z M23.2,143.2c0-0.2-0.1-0.2-0.3-0.3v0.6C23.1,143.5,23.2,143.4,23.2,143.2z"/>
		<path class="st6" d="M26.7,140.9v3.2H26v-2.6h-0.6v-0.6H26.7z"/>
		<path class="st6" d="M27.2,143.7c0-0.3,0.2-0.4,0.4-0.4c0.2,0,0.4,0.2,0.4,0.4c0,0.3-0.2,0.4-0.4,0.4
			C27.4,144.1,27.2,143.9,27.2,143.7z"/>
		<path class="st6" d="M31,142.4c0,1.1-0.7,1.7-1.6,1.7c-0.3,0-0.7-0.1-0.9-0.2l0.3-0.5c0.2,0.1,0.4,0.2,0.6,0.2
			c0.5,0,0.9-0.3,0.9-0.9c-0.2,0.2-0.5,0.3-0.8,0.3c-0.6,0-1.1-0.4-1.1-1c0-0.6,0.5-1,1.2-1C30.4,140.9,31,141.4,31,142.4z
			 M30.1,141.9c0-0.3-0.2-0.5-0.5-0.5c-0.3,0-0.5,0.2-0.5,0.5s0.2,0.5,0.5,0.5C29.9,142.4,30.1,142.2,30.1,141.9z"/>
		<path class="st6" d="M33.7,143.1c0,0.6-0.4,1-1.3,1c-0.4,0-0.9-0.1-1.2-0.3l0.3-0.6c0.2,0.2,0.6,0.3,0.9,0.3
			c0.4,0,0.6-0.2,0.6-0.4c0-0.2-0.2-0.4-0.7-0.4h-0.8l0.2-1.8h1.9v0.6h-1.3l0,0.6h0.3C33.3,142.1,33.7,142.5,33.7,143.1z"/>
	</g>
	<g class="st1">
		<path class="st6" d="M34,142.5c0-1,0.6-1.6,1.4-1.6c0.8,0,1.4,0.6,1.4,1.6c0,1-0.6,1.6-1.4,1.6C34.6,144.1,34,143.5,34,142.5z
			 M36,142.5c0-0.7-0.3-1-0.6-1c-0.4,0-0.6,0.3-0.6,1s0.3,1,0.6,1C35.7,143.5,36,143.2,36,142.5z"/>
		<path class="st6" d="M37.8,143.7c0,0.1,0,0.2-0.1,0.5l-0.3,0.6H37l0.2-0.7c-0.1-0.1-0.2-0.2-0.2-0.4c0-0.3,0.2-0.4,0.4-0.4
			C37.6,143.2,37.8,143.4,37.8,143.7z"/>
	</g>
	<g class="st1">
		<path class="st6" d="M38.1,142.5c0-1,0.6-1.6,1.4-1.6c0.8,0,1.4,0.6,1.4,1.6c0,1-0.6,1.6-1.4,1.6
			C38.7,144.1,38.1,143.5,38.1,142.5z M40.1,142.5c0-0.7-0.3-1-0.6-1c-0.4,0-0.6,0.3-0.6,1s0.3,1,0.6,1
			C39.8,143.5,40.1,143.2,40.1,142.5z"/>
		<path class="st6" d="M41.2,142.5c0-1,0.6-1.6,1.4-1.6c0.8,0,1.4,0.6,1.4,1.6c0,1-0.6,1.6-1.4,1.6
			C41.7,144.1,41.2,143.5,41.2,142.5z M43.1,142.5c0-0.7-0.3-1-0.6-1c-0.4,0-0.6,0.3-0.6,1s0.3,1,0.6,1
			C42.9,143.5,43.1,143.2,43.1,142.5z"/>
	</g>
	<g>
		<path class="st8" d="M85.7,131.1c-0.3,0.3-0.3,0.7,0,1l1.4,1.4l-1.4,1.4c-0.3,0.3-0.3,0.7,0,1c0.3,0.3,0.7,0.3,1,0l1.8-1.9
			c0.1-0.1,0.2-0.3,0.2-0.5c0-0.2-0.1-0.4-0.2-0.5l-1.8-1.9C86.4,130.8,85.9,130.8,85.7,131.1L85.7,131.1z"/>
	</g>
	<g>
		<g>
			<path class="st5" d="M89,124c-0.7,0.9-1.7,1.6-3,1.6s-2.3-0.6-3-1.6c0.7-0.9,1.8-1.6,3-1.6S88.4,123,89,124z"/>
		</g>
		<g>
			<path class="st2" d="M87,124c0,0.6-0.5,1-1,1s-1-0.5-1-1s0.5-1,1-1S87,123.4,87,124z"/>
		</g>
	</g>
</g>
</svg>
