<?xml version="1.0" encoding="UTF-8"?><svg id="Layer_2" xmlns="http://www.w3.org/2000/svg" xmlns:xlink="http://www.w3.org/1999/xlink" viewBox="0 0 104.95 186.57"><defs><style>.cls-1{fill:none;}.cls-2{font-size:3px;}.cls-2,.cls-3,.cls-4,.cls-5,.cls-6{font-family:Verdana-Bold, Verdana;}.cls-2,.cls-6{fill:#727272;}.cls-3{font-size:6.08px;}.cls-3,.cls-7,.cls-5{fill:#fff;}.cls-8{clip-path:url(#clippath);}.cls-9{fill:#f99e1d;}.cls-10{fill:#e6ecf4;}.cls-11{fill:#3733bf;}.cls-12{fill:#339ce9;}.cls-13{fill:#57b952;}.cls-4{fill:#2b2b2b;font-size:3.98px;}.cls-5,.cls-6{font-size:2.54px;}.cls-14{letter-spacing:-.02em;}</style><clipPath id="clippath"><rect class="cls-1" x="5.33" y="162.36" width="92.05" height="24.21"/></clipPath></defs><g id="OBJECTS"><rect class="cls-1" width="104.95" height="186.57" rx="3.97" ry="3.97"/><text class="cls-3" transform="translate(35.25 14.91)"><tspan x="0" y="0">Meu Perfil</tspan></text><rect class="cls-7" x="12.35" y="56.76" width="80.25" height="11.22" rx="4.44" ry="4.44"/><text class="cls-4" transform="translate(18.32 63.79)"><tspan x="0" y="0">Teresa dos Santos</tspan></text><rect class="cls-7" x="12.35" y="69.82" width="80.25" height="11.22" rx="4.44" ry="4.44"/><text class="cls-4" transform="translate(18.32 76.86)"><tspan x="0" y="0">Rua das moradas, 223, ap 22</tspan></text><rect class="cls-7" x="12.35" y="82.88" width="47.05" height="11.22" rx="4.44" ry="4.44"/><rect class="cls-7" x="12.35" y="106.67" width="80.25" height="45.7" rx="4.44" ry="4.44"/><text class="cls-4" transform="translate(18.32 89.92)"><tspan x="0" y="0">Fortaleza</tspan></text><rect class="cls-7" x="62.56" y="82.88" width="29.85" height="11.22" rx="4.44" ry="4.44"/><rect class="cls-7" x="35.19" y="97.58" width="31.82" height="5.61" rx="2.43" ry="2.43"/><text class="cls-4" transform="translate(64.31 89.92)"><tspan x="0" y="0">60882-610</tspan></text><rect class="cls-7" x="43.06" y="22.59" width="18.63" height="18.63" rx="9.32" ry="9.32"/><path class="cls-10" d="M54.23,31.38c.62-.53,1.02-1.31,1.02-2.19,0-1.58-1.28-2.87-2.87-2.87s-2.87,1.28-2.87,2.87c0,.88,.4,1.66,1.02,2.19-.81,.45-1.36,1.32-1.36,2.31v2.9h6.41v-2.9c0-.99-.55-1.86-1.36-2.31Z"/><g><path class="cls-9" d="M61.26,38.16c0,1.03-.83,1.86-1.86,1.86s-1.86-.83-1.86-1.86,.83-1.86,1.86-1.86,1.86,.83,1.86,1.86Z"/><path class="cls-7" d="M60.66,38.16c0,.7-.56,1.26-1.26,1.26s-1.26-.56-1.26-1.26,.56-1.26,1.26-1.26,1.26,.56,1.26,1.26Z"/></g><text class="cls-6" transform="translate(37.46 101.17)"><tspan x="0" y="0">Editar meus dados</tspan></text><rect class="cls-12" x="17.37" y="120.69" width="14.65" height="5.61" rx="2.43" ry="2.43"/><text class="cls-5" transform="translate(20.58 124.29)"><tspan x="0" y="0">Office</tspan></text><rect class="cls-12" x="34.45" y="120.69" width="25.85" height="5.61" rx="2.43" ry="2.43"/><text class="cls-5" transform="translate(37.32 124.29)"><tspan x="0" y="0">Contabilidade</tspan></text><rect class="cls-12" x="62.56" y="120.69" width="18.7" height="5.61" rx="2.43" ry="2.43"/><text class="cls-5" transform="translate(65.76 124.29)"><tspan x="0" y="0">Planilhas</tspan></text><rect class="cls-12" x="57.3" y="128.34" width="24.08" height="5.61" rx="2.43" ry="2.43"/><g><path class="cls-7" d="M62.86,131.94h-.49l-.13-.37h-.68l-.13,.37h-.48l.68-1.85h.55l.68,1.85Zm-.74-.71l-.23-.66-.23,.66h.46Z"/><path class="cls-7" d="M63.99,131.93s-.1,.02-.15,.03c-.05,0-.12,.01-.2,.01-.17,0-.3-.04-.39-.11s-.13-.19-.13-.36v-.65h-.18v-.3h.18v-.4h.45v.4h.42v.3h-.42v.5s0,.09,0,.13c0,.04,0,.07,.02,.1,.01,.03,.03,.05,.06,.07,.03,.02,.07,.03,.13,.03,.02,0,.05,0,.09-.01,.04-.01,.06-.02,.08-.03h.04v.31Z"/><path class="cls-7" d="M65.63,131.32h-1.02c0,.11,.05,.19,.12,.25,.08,.06,.19,.09,.34,.09,.09,0,.19-.02,.27-.05,.09-.03,.16-.07,.21-.11h.05v.36c-.1,.04-.2,.07-.29,.09-.09,.02-.19,.03-.3,.03-.28,0-.49-.06-.64-.19s-.22-.31-.22-.54,.07-.41,.21-.55c.14-.13,.33-.2,.58-.2,.23,0,.4,.06,.51,.17,.11,.12,.17,.28,.17,.5v.16Zm-.45-.26c0-.09-.03-.16-.07-.21-.04-.05-.11-.07-.21-.07-.09,0-.16,.02-.21,.07s-.09,.12-.09,.21h.58Z"/><path class="cls-7" d="M67.35,131.94h-.45v-.69c0-.06,0-.11,0-.17s-.02-.1-.03-.12c-.02-.03-.04-.05-.07-.07-.03-.01-.08-.02-.13-.02-.04,0-.08,0-.12,.02-.04,.01-.09,.04-.14,.06v.99h-.45v-1.4h.45v.15c.08-.06,.16-.11,.23-.14s.15-.05,.24-.05c.15,0,.27,.04,.35,.13,.08,.09,.13,.22,.13,.39v.91Z"/><path class="cls-7" d="M69.12,131.94h-.45v-.15c-.08,.06-.15,.11-.22,.14-.07,.03-.14,.04-.23,.04-.17,0-.31-.07-.41-.2s-.15-.31-.15-.53c0-.12,.02-.22,.05-.32s.08-.17,.14-.24c.06-.06,.12-.11,.2-.14,.08-.04,.16-.05,.24-.05s.15,0,.21,.03,.11,.04,.16,.07v-.59h.45v1.93Zm-.45-.38v-.69s-.06-.02-.1-.03c-.04,0-.07,0-.1,0-.12,0-.21,.04-.26,.11s-.09,.18-.09,.31c0,.14,.02,.24,.07,.3,.05,.06,.12,.09,.23,.09,.04,0,.08,0,.13-.02,.05-.02,.09-.04,.12-.06Z"/><path class="cls-7" d="M70,130.34h-.47v-.34h.47v.34Zm-.01,1.59h-.45v-1.4h.45v1.4Z"/><path class="cls-7" d="M71.77,130.95v.99h-.45v-.7c0-.07,0-.12,0-.17,0-.05-.01-.09-.03-.12-.02-.03-.04-.05-.07-.07s-.07-.02-.13-.02c-.04,0-.09,0-.13,.03-.04,.02-.08,.04-.11,.06v.99h-.45v-1.4h.45v.15c.08-.06,.15-.11,.22-.14s.15-.05,.23-.05c.09,0,.17,.02,.24,.06s.12,.1,.17,.18c.09-.08,.18-.13,.26-.18,.08-.04,.17-.06,.25-.06,.15,0,.26,.04,.34,.14,.08,.09,.12,.22,.12,.39v.91h-.45v-.7c0-.07,0-.13,0-.17,0-.05-.01-.09-.03-.12-.01-.03-.04-.05-.07-.07s-.07-.02-.13-.02c-.04,0-.07,0-.11,.02-.04,.01-.08,.03-.13,.06Z"/><path class="cls-7" d="M74.48,131.32h-1.02c0,.11,.05,.19,.12,.25,.08,.06,.19,.09,.34,.09,.09,0,.19-.02,.27-.05,.09-.03,.16-.07,.21-.11h.05v.36c-.1,.04-.2,.07-.29,.09-.09,.02-.19,.03-.3,.03-.28,0-.49-.06-.64-.19s-.22-.31-.22-.54,.07-.41,.21-.55c.14-.13,.33-.2,.58-.2,.23,0,.4,.06,.51,.17,.11,.12,.17,.28,.17,.5v.16Zm-.45-.26c0-.09-.03-.16-.07-.21-.04-.05-.11-.07-.21-.07-.09,0-.16,.02-.21,.07s-.09,.12-.09,.21h.58Z"/><path class="cls-7" d="M76.2,131.94h-.45v-.69c0-.06,0-.11,0-.17s-.02-.1-.03-.12c-.02-.03-.04-.05-.07-.07-.03-.01-.08-.02-.13-.02-.04,0-.08,0-.12,.02-.04,.01-.09,.04-.14,.06v.99h-.45v-1.4h.45v.15c.08-.06,.16-.11,.23-.14s.15-.05,.24-.05c.15,0,.27,.04,.35,.13,.08,.09,.13,.22,.13,.39v.91Z"/><path class="cls-7" d="M77.48,131.29h-.95v-.36h.95v.36Z"/><path class="cls-7" d="M68.92,134.98s-.1,.02-.15,.03c-.05,0-.12,.01-.2,.01-.17,0-.3-.04-.39-.11s-.13-.19-.13-.36v-.65h-.18v-.3h.18v-.4h.45v.4h.42v.3h-.42v.5s0,.09,0,.13c0,.04,0,.07,.02,.1,.01,.03,.03,.05,.06,.07,.03,.02,.07,.03,.13,.03,.02,0,.05,0,.09-.01,.04-.01,.06-.02,.08-.03h.04v.31Z"/><path class="cls-7" d="M70.61,134.29c0,.23-.07,.41-.2,.54s-.32,.2-.56,.2-.43-.07-.56-.2-.2-.31-.2-.54,.07-.41,.2-.54,.32-.2,.56-.2,.43,.07,.56,.2c.13,.13,.2,.31,.2,.54Zm-.55,.34s.05-.08,.07-.13,.02-.12,.02-.21c0-.08,0-.15-.02-.21-.02-.06-.04-.1-.06-.13-.03-.03-.06-.06-.1-.07-.04-.01-.08-.02-.12-.02s-.08,0-.12,.02c-.03,.01-.07,.04-.1,.07-.03,.03-.05,.08-.07,.13-.02,.06-.02,.13-.02,.21,0,.08,0,.14,.02,.2,.01,.06,.04,.1,.06,.13,.03,.03,.06,.06,.09,.07,.04,.01,.08,.02,.13,.02,.04,0,.08,0,.12-.02,.04-.01,.07-.04,.09-.07Z"/></g><rect class="cls-12" x="17.37" y="128.48" width="37.52" height="5.61" rx="2.43" ry="2.43"/><text class="cls-5" transform="translate(18.74 132.07)"><tspan x="0" y="0">Contas a pagar/receber</tspan></text><rect class="cls-12" x="17.37" y="135.96" width="37.52" height="5.61" rx="2.43" ry="2.43"/><text class="cls-5" transform="translate(18.82 139.56)"><tspan x="0" y="0">Rotinas administrativas</tspan></text><text class="cls-2" transform="translate(17.8 114)"><tspan x="0" y="0">Minhas qualificações</tspan></text><g><rect class="cls-13" x="80.19" y="110.53" width="7.36" height="7.36" rx=".8" ry=".8"/><g><path class="cls-7" d="M83.93,115.91h0c-.25,0-.46-.2-.46-.46v-2.49c0-.25,.2-.46,.46-.46h0c.25,0,.46,.2,.46,.46v2.49c0,.25-.2,.46-.46,.46Z"/><path class="cls-7" d="M82.23,114.21h0c0-.25,.2-.46,.46-.46h2.49c.25,0,.46,.2,.46,.46h0c0,.25-.2,.46-.46,.46h-2.49c-.25,0-.46-.2-.46-.46Z"/></g></g><g class="cls-8"><rect class="cls-7" x="12.35" y="166.72" width="80.25" height="45.7" rx="4.44" ry="4.44"/><text class="cls-2" transform="translate(17.8 174.05)"><tspan x="0" y="0">Meus documento</tspan><tspan class="cls-14" x="28.56" y="0">s</tspan></text><g><path class="cls-9" d="M29.68,182.37v7.33c0,.33-.27,.6-.6,.6h-7.14c-.33,0-.6-.27-.6-.6v-9.62c0-.33,.27-.6,.6-.6h4.85l2.89,2.89Z"/><path class="cls-11" d="M26.79,181.77v-2.29l2.89,2.89h-2.29c-.33,0-.6-.27-.6-.6Z"/><path class="cls-11" d="M27.65,184.42h-4.27c-.14,0-.26-.12-.26-.26h0c0-.14,.12-.26,.26-.26h4.27c.14,0,.26,.12,.26,.26h0c0,.14-.12,.26-.26,.26Z"/><path class="cls-11" d="M27.65,185.76h-4.27c-.14,0-.26-.12-.26-.26h0c0-.14,.12-.26,.26-.26h4.27c.14,0,.26,.12,.26,.26h0c0,.15-.12,.26-.26,.26Z"/></g><g><path class="cls-9" d="M46.2,182.37v7.33c0,.33-.27,.6-.6,.6h-7.14c-.33,0-.6-.27-.6-.6v-9.62c0-.33,.27-.6,.6-.6h4.85l2.89,2.89Z"/><path class="cls-11" d="M43.31,181.77v-2.29l2.89,2.89h-2.29c-.33,0-.6-.27-.6-.6Z"/><path class="cls-11" d="M44.17,184.42h-4.27c-.14,0-.26-.12-.26-.26h0c0-.14,.12-.26,.26-.26h4.27c.14,0,.26,.12,.26,.26h0c0,.14-.12,.26-.26,.26Z"/><path class="cls-11" d="M44.17,185.76h-4.27c-.14,0-.26-.12-.26-.26h0c0-.14,.12-.26,.26-.26h4.27c.14,0,.26,.12,.26,.26h0c0,.15-.12,.26-.26,.26Z"/></g><g><path class="cls-9" d="M62.72,182.37v7.33c0,.33-.27,.6-.6,.6h-7.14c-.33,0-.6-.27-.6-.6v-9.62c0-.33,.27-.6,.6-.6h4.85l2.89,2.89Z"/><path class="cls-11" d="M59.83,181.77v-2.29l2.89,2.89h-2.29c-.33,0-.6-.27-.6-.6Z"/><path class="cls-11" d="M60.68,184.42h-4.27c-.14,0-.26-.12-.26-.26h0c0-.14,.12-.26,.26-.26h4.27c.14,0,.26,.12,.26,.26h0c0,.14-.12,.26-.26,.26Z"/><path class="cls-11" d="M60.68,185.76h-4.27c-.14,0-.26-.12-.26-.26h0c0-.14,.12-.26,.26-.26h4.27c.14,0,.26,.12,.26,.26h0c0,.15-.12,.26-.26,.26Z"/></g><g><rect class="cls-9" x="73.23" y="179.26" width="11.15" height="11.15" rx=".8" ry=".8"/><g><path class="cls-7" d="M78.89,187.41h0c-.38,0-.69-.31-.69-.69v-3.77c0-.38,.31-.69,.69-.69h0c.38,0,.69,.31,.69,.69v3.77c0,.38-.31,.69-.69,.69Z"/><path class="cls-7" d="M76.31,184.83h0c0-.38,.31-.69,.69-.69h3.77c.38,0,.69,.31,.69,.69h0c0,.38-.31,.69-.69,.69h-3.77c-.38,0-.69-.31-.69-.69Z"/></g></g></g></g></svg>