<?xml version="1.0" encoding="utf-8"?>
<!-- Generator: Adobe Illustrator 26.3.1, SVG Export Plug-In . SVG Version: 6.00 Build 0)  -->
<svg version="1.1" id="Layer_2_00000183214771333670174560000007816534808142202299_"
	 xmlns="http://www.w3.org/2000/svg" xmlns:xlink="http://www.w3.org/1999/xlink" x="0px" y="0px" viewBox="0 0 104.9 186.6"
	 style="enable-background:new 0 0 104.9 186.6;" xml:space="preserve">
<style type="text/css">
	.st0{fill:none;}
	.st1{fill:#FFFFFF;}
	.st2{enable-background:new    ;}
	.st3{fill:#3733BF;}
	.st4{fill:#828282;}
	.st5{fill:#D3D3D3;}
	.st6{fill:#149314;}
	.st7{fill:#2B2B2B;}
	.st8{clip-path:url(#SVGID_00000036935399255590553420000015536022948757242803_);}
	.st9{fill:#F99E1D;}
	.st10{fill:#F2F2F4;}
</style>
<g id="OBJECTS">
	<g>
		<rect class="st0" width="104.9" height="186.6"/>
	</g>
	<g>
		<path class="st1" d="M18.3,23.2H87c3.2,0,5.8,2.6,5.8,5.8v139.6c0,3.2-2.6,5.8-5.8,5.8H18.3c-3.2,0-5.8-2.6-5.8-5.8V29
			C12.6,25.8,15.1,23.2,18.3,23.2z"/>
	</g>
	<g class="st2">
		<path class="st3" d="M19.4,47.6l0.1-0.2c0.2,0.1,0.4,0.2,0.7,0.2c0.4,0,0.5-0.1,0.5-0.3c0-0.5-1.3-0.2-1.3-1
			c0-0.3,0.3-0.6,0.8-0.6c0.2,0,0.5,0.1,0.7,0.2l-0.1,0.2c-0.2-0.1-0.4-0.2-0.6-0.2c-0.4,0-0.5,0.2-0.5,0.3c0,0.5,1.3,0.2,1.3,1
			c0,0.3-0.3,0.6-0.8,0.6C19.9,47.9,19.5,47.7,19.4,47.6z"/>
		<path class="st3" d="M22.9,47.1h-1.3c0,0.3,0.3,0.5,0.6,0.5c0.2,0,0.3-0.1,0.5-0.2l0.2,0.2c-0.1,0.2-0.4,0.3-0.6,0.3
			c-0.5,0-0.9-0.3-0.9-0.8c0-0.5,0.3-0.8,0.8-0.8C22.5,46.2,22.9,46.5,22.9,47.1C22.9,47.1,22.9,47.1,22.9,47.1z M21.6,46.9h1
			c0-0.3-0.2-0.5-0.5-0.5C21.8,46.5,21.6,46.6,21.6,46.9z"/>
	</g>
	<g class="st2">
		<path class="st3" d="M24.1,46.2v0.3c0,0,0,0-0.1,0c-0.3,0-0.5,0.2-0.5,0.5v0.8h-0.3v-1.6h0.3v0.3C23.7,46.3,23.9,46.2,24.1,46.2z"
			/>
	</g>
	<g class="st2">
		<path class="st3" d="M25.8,46.9v1h-0.3v-0.2c-0.1,0.1-0.3,0.2-0.5,0.2c-0.4,0-0.6-0.2-0.6-0.5c0-0.3,0.2-0.5,0.6-0.5h0.5v-0.1
			c0-0.2-0.1-0.4-0.4-0.4c-0.2,0-0.4,0.1-0.5,0.2l-0.1-0.2c0.2-0.1,0.4-0.2,0.7-0.2C25.5,46.2,25.8,46.4,25.8,46.9z M25.5,47.3v-0.2
			H25c-0.3,0-0.4,0.1-0.4,0.2c0,0.2,0.1,0.3,0.4,0.3C25.2,47.6,25.4,47.5,25.5,47.3z M25.1,46h-0.3l0.4-0.4h0.4L25.1,46z"/>
	</g>
	<g class="st2">
	</g>
	<g class="st2">
		<path class="st3" d="M30.1,46.2v0.3c0,0,0,0-0.1,0c-0.3,0-0.5,0.2-0.5,0.5v0.8h-0.3v-1.6h0.3v0.3C29.6,46.3,29.8,46.2,30.1,46.2z"
			/>
	</g>
	<g class="st2">
		<path class="st3" d="M31.9,47.1h-1.3c0,0.3,0.3,0.5,0.6,0.5c0.2,0,0.3-0.1,0.5-0.2l0.2,0.2c-0.1,0.2-0.4,0.3-0.6,0.3
			c-0.5,0-0.9-0.3-0.9-0.8c0-0.5,0.3-0.8,0.8-0.8C31.5,46.2,31.9,46.5,31.9,47.1C31.9,47.1,31.9,47.1,31.9,47.1z M30.6,46.9h1
			c0-0.3-0.2-0.5-0.5-0.5C30.8,46.5,30.6,46.6,30.6,46.9z"/>
		<path class="st3" d="M32.1,47.7l0.1-0.2c0.1,0.1,0.4,0.2,0.6,0.2c0.3,0,0.4-0.1,0.4-0.2c0-0.4-1,0-1-0.7c0-0.3,0.3-0.5,0.7-0.5
			c0.2,0,0.4,0.1,0.6,0.1l-0.1,0.2c-0.1-0.1-0.3-0.1-0.5-0.1c-0.3,0-0.4,0.1-0.4,0.2c0,0.4,1,0.1,1,0.7c0,0.3-0.3,0.5-0.7,0.5
			C32.5,47.8,32.2,47.8,32.1,47.7z"/>
		<path class="st3" d="M35.5,47c0,0.5-0.3,0.8-0.8,0.8c-0.2,0-0.4-0.1-0.6-0.3v0.8h-0.3v-2.2h0.3v0.3c0.1-0.2,0.3-0.3,0.6-0.3
			C35.1,46.2,35.5,46.5,35.5,47z M35.2,47c0-0.3-0.2-0.6-0.5-0.6c-0.3,0-0.5,0.2-0.5,0.6c0,0.3,0.2,0.6,0.5,0.6
			C34.9,47.6,35.2,47.4,35.2,47z"/>
		<path class="st3" d="M35.7,47c0-0.5,0.4-0.8,0.8-0.8c0.5,0,0.8,0.3,0.8,0.8s-0.4,0.8-0.8,0.8C36.1,47.8,35.7,47.5,35.7,47z
			 M37.1,47c0-0.3-0.2-0.6-0.5-0.6c-0.3,0-0.5,0.2-0.5,0.6s0.2,0.6,0.5,0.6C36.9,47.6,37.1,47.4,37.1,47z"/>
		<path class="st3" d="M39.3,46.9v0.9H39v-0.9c0-0.3-0.2-0.5-0.4-0.5c-0.3,0-0.5,0.2-0.5,0.5v0.8h-0.3v-1.6h0.3v0.2
			c0.1-0.2,0.3-0.3,0.6-0.3C39.1,46.2,39.3,46.4,39.3,46.9z"/>
		<path class="st3" d="M39.7,47.7l0.1-0.2c0.1,0.1,0.4,0.2,0.6,0.2c0.3,0,0.4-0.1,0.4-0.2c0-0.4-1,0-1-0.7c0-0.3,0.3-0.5,0.7-0.5
			c0.2,0,0.4,0.1,0.6,0.1l-0.1,0.2c-0.1-0.1-0.3-0.1-0.5-0.1c-0.3,0-0.4,0.1-0.4,0.2c0,0.4,1,0.1,1,0.7c0,0.3-0.3,0.5-0.7,0.5
			C40.1,47.8,39.8,47.8,39.7,47.7z"/>
	</g>
	<g class="st2">
		<path class="st3" d="M42.7,46.9v1h-0.3v-0.2c-0.1,0.1-0.3,0.2-0.5,0.2c-0.4,0-0.6-0.2-0.6-0.5c0-0.3,0.2-0.5,0.6-0.5h0.5v-0.1
			c0-0.2-0.1-0.4-0.4-0.4c-0.2,0-0.4,0.1-0.5,0.2l-0.1-0.2c0.2-0.1,0.4-0.2,0.7-0.2C42.4,46.2,42.7,46.4,42.7,46.9z M42.4,47.3v-0.2
			h-0.4c-0.3,0-0.4,0.1-0.4,0.2c0,0.2,0.1,0.3,0.4,0.3C42.1,47.6,42.3,47.5,42.4,47.3z M42,46h-0.3l0.4-0.4h0.4L42,46z"/>
	</g>
	<g class="st2">
		<path class="st3" d="M44.6,46.2l-0.7,1.6h-0.3l-0.7-1.6h0.3l0.6,1.3l0.6-1.3H44.6z"/>
	</g>
	<g class="st2">
		<path class="st3" d="M46.3,47.1H45c0,0.3,0.3,0.5,0.6,0.5c0.2,0,0.3-0.1,0.5-0.2l0.2,0.2c-0.1,0.2-0.4,0.3-0.6,0.3
			c-0.5,0-0.9-0.3-0.9-0.8c0-0.5,0.3-0.8,0.8-0.8C46,46.2,46.3,46.5,46.3,47.1C46.3,47.1,46.3,47.1,46.3,47.1z M45,46.9h1
			c0-0.3-0.2-0.5-0.5-0.5C45.2,46.5,45,46.6,45,46.9z"/>
		<path class="st3" d="M46.7,45.6H47v2.3h-0.3V45.6z"/>
	</g>
	<g class="st2">
	</g>
	<g class="st2">
		<path class="st3" d="M52.1,47c0,0.5-0.3,0.8-0.8,0.8c-0.2,0-0.4-0.1-0.6-0.3v0.8h-0.3v-2.2h0.3v0.3c0.1-0.2,0.3-0.3,0.6-0.3
			C51.8,46.2,52.1,46.5,52.1,47z M51.8,47c0-0.3-0.2-0.6-0.5-0.6c-0.3,0-0.5,0.2-0.5,0.6c0,0.3,0.2,0.6,0.5,0.6
			C51.6,47.6,51.8,47.4,51.8,47z"/>
		<path class="st3" d="M52.4,47c0-0.5,0.4-0.8,0.8-0.8c0.5,0,0.8,0.3,0.8,0.8s-0.4,0.8-0.8,0.8C52.7,47.8,52.4,47.5,52.4,47z
			 M53.7,47c0-0.3-0.2-0.6-0.5-0.6c-0.3,0-0.5,0.2-0.5,0.6s0.2,0.6,0.5,0.6C53.5,47.6,53.7,47.4,53.7,47z"/>
		<path class="st3" d="M55.3,46.2v0.3c0,0,0,0-0.1,0c-0.3,0-0.5,0.2-0.5,0.5v0.8h-0.3v-1.6h0.3v0.3C54.8,46.3,55,46.2,55.3,46.2z"/>
	</g>
	<g class="st2">
	</g>
	<g class="st2">
		<path class="st3" d="M58.9,46.1v0.1h0.5v0.2h-0.5v1.4h-0.3v-1.4h-0.3v-0.2h0.3v-0.1c0-0.3,0.2-0.5,0.5-0.5c0.1,0,0.2,0,0.3,0.1
			l-0.1,0.2c-0.1,0-0.1-0.1-0.2-0.1C59,45.8,58.9,45.9,58.9,46.1z"/>
	</g>
	<g class="st2">
		<path class="st3" d="M59.5,47c0-0.5,0.4-0.8,0.8-0.8c0.5,0,0.8,0.3,0.8,0.8s-0.4,0.8-0.8,0.8C59.9,47.8,59.5,47.5,59.5,47z
			 M60.9,47c0-0.3-0.2-0.6-0.5-0.6c-0.3,0-0.5,0.2-0.5,0.6s0.2,0.6,0.5,0.6C60.6,47.6,60.9,47.4,60.9,47z"/>
	</g>
	<g class="st2">
		<path class="st3" d="M62.4,46.2v0.3c0,0,0,0-0.1,0c-0.3,0-0.5,0.2-0.5,0.5v0.8h-0.3v-1.6h0.3v0.3C62,46.3,62.2,46.2,62.4,46.2z"/>
	</g>
	<g class="st2">
		<path class="st3" d="M64.3,46.9v0.9H64v-0.9c0-0.3-0.2-0.5-0.4-0.5c-0.3,0-0.5,0.2-0.5,0.5v0.8h-0.3v-1.6h0.3v0.2
			c0.1-0.2,0.3-0.3,0.6-0.3C64,46.2,64.3,46.4,64.3,46.9z"/>
	</g>
	<g class="st2">
		<path class="st3" d="M66.3,47.1H65c0,0.3,0.3,0.5,0.6,0.5c0.2,0,0.3-0.1,0.5-0.2l0.2,0.2c-0.1,0.2-0.4,0.3-0.6,0.3
			c-0.5,0-0.9-0.3-0.9-0.8c0-0.5,0.3-0.8,0.8-0.8S66.3,46.5,66.3,47.1C66.3,47.1,66.3,47.1,66.3,47.1z M65,46.9h1
			c0-0.3-0.2-0.5-0.5-0.5C65.3,46.5,65,46.6,65,46.9z"/>
	</g>
	<g class="st2">
		<path class="st3" d="M66.6,47c0-0.5,0.4-0.8,0.8-0.8c0.3,0,0.5,0.1,0.7,0.3l-0.2,0.1c-0.1-0.2-0.3-0.2-0.4-0.2
			c-0.3,0-0.6,0.2-0.6,0.6c0,0.3,0.2,0.6,0.6,0.6c0.2,0,0.3-0.1,0.4-0.2l0.2,0.1c-0.1,0.2-0.4,0.3-0.7,0.3
			C66.9,47.8,66.6,47.5,66.6,47z"/>
	</g>
	<g class="st2">
		<path class="st3" d="M69.9,47.1h-1.3c0,0.3,0.3,0.5,0.6,0.5c0.2,0,0.3-0.1,0.5-0.2l0.2,0.2c-0.1,0.2-0.4,0.3-0.6,0.3
			c-0.5,0-0.9-0.3-0.9-0.8c0-0.5,0.3-0.8,0.8-0.8S69.9,46.5,69.9,47.1C69.9,47.1,69.9,47.1,69.9,47.1z M68.6,46.9h1
			c0-0.3-0.2-0.5-0.5-0.5C68.8,46.5,68.6,46.6,68.6,46.9z"/>
		<path class="st3" d="M71.2,46.2v0.3c0,0,0,0-0.1,0c-0.3,0-0.5,0.2-0.5,0.5v0.8h-0.3v-1.6h0.3v0.3C70.7,46.3,70.9,46.2,71.2,46.2z"
			/>
	</g>
	<g class="st2">
	</g>
	<g class="st2">
		<path class="st3" d="M75.4,47.7c-0.1,0.1-0.2,0.1-0.4,0.1c-0.3,0-0.5-0.2-0.5-0.5v-0.9h-0.3v-0.2h0.3v-0.4h0.3v0.4h0.5v0.2h-0.5
			v0.9c0,0.2,0.1,0.3,0.3,0.3c0.1,0,0.2,0,0.2-0.1L75.4,47.7z"/>
	</g>
	<g class="st2">
		<path class="st3" d="M75.5,47c0-0.5,0.4-0.8,0.8-0.8s0.8,0.3,0.8,0.8s-0.4,0.8-0.8,0.8S75.5,47.5,75.5,47z M76.9,47
			c0-0.3-0.2-0.6-0.5-0.6s-0.5,0.2-0.5,0.6s0.2,0.6,0.5,0.6S76.9,47.4,76.9,47z"/>
		<path class="st3" d="M79.1,45.6v2.3h-0.3v-0.3c-0.1,0.2-0.3,0.3-0.6,0.3c-0.5,0-0.8-0.3-0.8-0.8s0.3-0.8,0.8-0.8
			c0.2,0,0.4,0.1,0.6,0.3v-0.9H79.1z M78.8,47c0-0.3-0.2-0.6-0.5-0.6c-0.3,0-0.5,0.2-0.5,0.6s0.2,0.6,0.5,0.6
			C78.6,47.6,78.8,47.4,78.8,47z"/>
		<path class="st3" d="M79.5,47c0-0.5,0.4-0.8,0.8-0.8c0.5,0,0.8,0.3,0.8,0.8s-0.4,0.8-0.8,0.8C79.9,47.8,79.5,47.5,79.5,47z
			 M80.9,47c0-0.3-0.2-0.6-0.5-0.6c-0.3,0-0.5,0.2-0.5,0.6s0.2,0.6,0.5,0.6C80.7,47.6,80.9,47.4,80.9,47z"/>
	</g>
	<g class="st2">
	</g>
	<g class="st2">
		<path class="st3" d="M84.3,47c0-0.5,0.4-0.8,0.8-0.8S86,46.5,86,47s-0.4,0.8-0.8,0.8S84.3,47.5,84.3,47z M85.7,47
			c0-0.3-0.2-0.6-0.5-0.6s-0.5,0.2-0.5,0.6s0.2,0.6,0.5,0.6S85.7,47.4,85.7,47z"/>
	</g>
	<g class="st2">
		<path class="st3" d="M19.3,51.3l0.1-0.2c0.1,0.1,0.4,0.2,0.6,0.2c0.3,0,0.4-0.1,0.4-0.2c0-0.4-1,0-1-0.7c0-0.3,0.3-0.5,0.7-0.5
			c0.2,0,0.4,0.1,0.6,0.1l-0.1,0.2c-0.1-0.1-0.3-0.1-0.5-0.1c-0.3,0-0.4,0.1-0.4,0.2c0,0.4,1,0.1,1,0.7c0,0.3-0.3,0.5-0.7,0.5
			C19.7,51.5,19.5,51.4,19.3,51.3z"/>
		<path class="st3" d="M22.5,49.9v1.6h-0.3v-0.2c-0.1,0.2-0.3,0.3-0.5,0.3c-0.4,0-0.7-0.2-0.7-0.7v-0.9h0.3v0.9
			c0,0.3,0.2,0.5,0.4,0.5c0.3,0,0.5-0.2,0.5-0.5v-0.8H22.5z"/>
		<path class="st3" d="M24.8,50.7c0,0.5-0.3,0.8-0.8,0.8c-0.2,0-0.4-0.1-0.6-0.3v0.8h-0.3v-2.2h0.3v0.3c0.1-0.2,0.3-0.3,0.6-0.3
			C24.4,49.9,24.8,50.2,24.8,50.7z M24.5,50.7c0-0.3-0.2-0.6-0.5-0.6c-0.3,0-0.5,0.2-0.5,0.6c0,0.3,0.2,0.6,0.5,0.6
			C24.2,51.2,24.5,51,24.5,50.7z"/>
		<path class="st3" d="M25,50.7c0-0.5,0.4-0.8,0.8-0.8c0.5,0,0.8,0.3,0.8,0.8s-0.4,0.8-0.8,0.8C25.4,51.5,25,51.2,25,50.7z
			 M26.4,50.7c0-0.3-0.2-0.6-0.5-0.6c-0.3,0-0.5,0.2-0.5,0.6s0.2,0.6,0.5,0.6C26.2,51.2,26.4,51,26.4,50.7z"/>
	</g>
	<g class="st2">
		<path class="st3" d="M28,49.9v0.3c0,0,0,0-0.1,0c-0.3,0-0.5,0.2-0.5,0.5v0.8h-0.3v-1.6h0.3v0.3C27.5,50,27.7,49.9,28,49.9z"/>
	</g>
	<g class="st2">
		<path class="st3" d="M29.3,51.4c-0.1,0.1-0.2,0.1-0.4,0.1c-0.3,0-0.5-0.2-0.5-0.5v-0.9h-0.3v-0.2h0.3v-0.4h0.3v0.4h0.5v0.2h-0.5
			V51c0,0.2,0.1,0.3,0.3,0.3c0.1,0,0.2,0,0.2-0.1L29.3,51.4z"/>
	</g>
	<g class="st2">
		<path class="st3" d="M31.1,50.8h-1.3c0,0.3,0.3,0.5,0.6,0.5c0.2,0,0.3-0.1,0.5-0.2l0.2,0.2c-0.1,0.2-0.4,0.3-0.6,0.3
			c-0.5,0-0.9-0.3-0.9-0.8c0-0.5,0.3-0.8,0.8-0.8C30.7,49.9,31.1,50.2,31.1,50.8C31.1,50.7,31.1,50.7,31.1,50.8z M29.7,50.6h1
			c0-0.3-0.2-0.5-0.5-0.5C30,50.1,29.8,50.3,29.7,50.6z"/>
	</g>
	<g class="st2">
	</g>
	<g class="st2">
		<path class="st3" d="M39.6,51.4c-0.1,0.1-0.2,0.1-0.4,0.1c-0.3,0-0.5-0.2-0.5-0.5v-0.9h-0.3v-0.2h0.3v-0.4H39v0.4h0.5v0.2H39V51
			c0,0.2,0.1,0.3,0.3,0.3c0.1,0,0.2,0,0.2-0.1L39.6,51.4z"/>
	</g>
	<g class="st2">
		<path class="st3" d="M41.3,50.8H40c0,0.3,0.3,0.5,0.6,0.5c0.2,0,0.3-0.1,0.5-0.2l0.2,0.2c-0.1,0.2-0.4,0.3-0.6,0.3
			c-0.5,0-0.9-0.3-0.9-0.8c0-0.5,0.3-0.8,0.8-0.8C41,49.9,41.4,50.2,41.3,50.8C41.4,50.7,41.3,50.7,41.3,50.8z M40,50.6h1
			c0-0.3-0.2-0.5-0.5-0.5C40.3,50.1,40.1,50.3,40,50.6z M40.6,49.6h-0.3l0.4-0.4h0.4L40.6,49.6z"/>
		<path class="st3" d="M41.6,50.7c0-0.5,0.4-0.8,0.9-0.8c0.3,0,0.5,0.1,0.7,0.3l-0.2,0.1c-0.1-0.2-0.3-0.2-0.4-0.2
			c-0.3,0-0.6,0.2-0.6,0.6c0,0.3,0.2,0.6,0.6,0.6c0.2,0,0.3-0.1,0.4-0.2l0.2,0.1c-0.1,0.2-0.4,0.3-0.7,0.3
			C42,51.5,41.6,51.2,41.6,50.7z"/>
		<path class="st3" d="M45,50.6v0.9h-0.3v-0.9c0-0.3-0.2-0.5-0.4-0.5c-0.3,0-0.5,0.2-0.5,0.5v0.8h-0.3v-1.6h0.3v0.2
			c0.1-0.2,0.3-0.3,0.6-0.3C44.7,49.9,45,50.1,45,50.6z"/>
		<path class="st3" d="M45.5,49.4c0-0.1,0.1-0.2,0.2-0.2c0.1,0,0.2,0.1,0.2,0.2c0,0.1-0.1,0.2-0.2,0.2
			C45.6,49.6,45.5,49.5,45.5,49.4z M45.6,49.9h0.3v1.6h-0.3V49.9z"/>
	</g>
	<g class="st2">
		<path class="st3" d="M46.3,50.7c0-0.5,0.4-0.8,0.9-0.8c0.3,0,0.5,0.1,0.7,0.3l-0.2,0.1c-0.1-0.2-0.3-0.2-0.4-0.2
			c-0.3,0-0.6,0.2-0.6,0.6c0,0.3,0.2,0.6,0.6,0.6c0.2,0,0.3-0.1,0.4-0.2l0.2,0.1c-0.1,0.2-0.4,0.3-0.7,0.3
			C46.6,51.5,46.3,51.2,46.3,50.7z"/>
	</g>
	<g class="st2">
		<path class="st3" d="M48,50.7c0-0.5,0.4-0.8,0.8-0.8c0.5,0,0.8,0.3,0.8,0.8s-0.4,0.8-0.8,0.8C48.3,51.5,48,51.2,48,50.7z
			 M49.4,50.7c0-0.3-0.2-0.6-0.5-0.6c-0.3,0-0.5,0.2-0.5,0.6s0.2,0.6,0.5,0.6C49.1,51.2,49.4,51,49.4,50.7z"/>
	</g>
	<g class="st2">
	</g>
	<g class="st2">
		<path class="st3" d="M58.8,50.6v0.9h-0.3v-0.9c0-0.3-0.2-0.5-0.4-0.5c-0.3,0-0.5,0.2-0.5,0.5v0.8h-0.3v-1.6h0.3v0.2
			c0.1-0.2,0.3-0.3,0.6-0.3C58.5,49.9,58.8,50.1,58.8,50.6z"/>
	</g>
	<g class="st2">
		<path class="st3" d="M60.8,50.8h-1.3c0,0.3,0.3,0.5,0.6,0.5c0.2,0,0.3-0.1,0.5-0.2l0.2,0.2c-0.1,0.2-0.4,0.3-0.6,0.3
			c-0.5,0-0.9-0.3-0.9-0.8c0-0.5,0.3-0.8,0.8-0.8C60.5,49.9,60.8,50.2,60.8,50.8C60.8,50.7,60.8,50.7,60.8,50.8z M59.5,50.6h1
			c0-0.3-0.2-0.5-0.5-0.5C59.7,50.1,59.5,50.3,59.5,50.6z"/>
	</g>
	<g class="st2">
		<path class="st3" d="M61.1,50.7c0-0.5,0.4-0.8,0.9-0.8c0.3,0,0.5,0.1,0.7,0.3l-0.2,0.1c-0.1-0.2-0.3-0.2-0.4-0.2
			c-0.3,0-0.6,0.2-0.6,0.6c0,0.3,0.2,0.6,0.6,0.6c0.2,0,0.3-0.1,0.4-0.2l0.2,0.1c-0.1,0.2-0.4,0.3-0.7,0.3
			C61.4,51.5,61.1,51.2,61.1,50.7z"/>
	</g>
	<g class="st2">
		<path class="st3" d="M64.4,50.8h-1.3c0,0.3,0.3,0.5,0.6,0.5c0.2,0,0.3-0.1,0.5-0.2l0.2,0.2c-0.1,0.2-0.4,0.3-0.6,0.3
			c-0.5,0-0.9-0.3-0.9-0.8c0-0.5,0.3-0.8,0.8-0.8C64.1,49.9,64.4,50.2,64.4,50.8C64.4,50.7,64.4,50.7,64.4,50.8z M63.1,50.6h1
			c0-0.3-0.2-0.5-0.5-0.5C63.3,50.1,63.1,50.3,63.1,50.6z"/>
		<path class="st3" d="M64.6,51.3l0.1-0.2c0.1,0.1,0.4,0.2,0.6,0.2c0.3,0,0.4-0.1,0.4-0.2c0-0.4-1,0-1-0.7c0-0.3,0.3-0.5,0.7-0.5
			c0.2,0,0.4,0.1,0.6,0.1l-0.1,0.2c-0.1-0.1-0.3-0.1-0.5-0.1c-0.3,0-0.4,0.1-0.4,0.2c0,0.4,1,0.1,1,0.7c0,0.3-0.3,0.5-0.7,0.5
			C65,51.5,64.7,51.4,64.6,51.3z"/>
		<path class="st3" d="M66.1,51.3l0.1-0.2c0.1,0.1,0.4,0.2,0.6,0.2c0.3,0,0.4-0.1,0.4-0.2c0-0.4-1,0-1-0.7c0-0.3,0.3-0.5,0.7-0.5
			c0.2,0,0.4,0.1,0.6,0.1l-0.1,0.2c-0.1-0.1-0.3-0.1-0.5-0.1c-0.3,0-0.4,0.1-0.4,0.2c0,0.4,1,0.1,1,0.7c0,0.3-0.3,0.5-0.7,0.5
			C66.5,51.5,66.2,51.4,66.1,51.3z"/>
		<path class="st3" d="M69.1,50.5v1h-0.3v-0.2c-0.1,0.1-0.3,0.2-0.5,0.2c-0.4,0-0.6-0.2-0.6-0.5c0-0.3,0.2-0.5,0.6-0.5h0.5v-0.1
			c0-0.2-0.1-0.4-0.4-0.4c-0.2,0-0.4,0.1-0.5,0.2l-0.1-0.2c0.2-0.1,0.4-0.2,0.7-0.2C68.9,49.9,69.1,50.1,69.1,50.5z M68.8,51v-0.2
			h-0.4c-0.3,0-0.4,0.1-0.4,0.2c0,0.2,0.1,0.3,0.4,0.3C68.6,51.3,68.8,51.2,68.8,51z M68.5,49.6h-0.3l0.4-0.4H69L68.5,49.6z"/>
	</g>
	<g class="st2">
		<path class="st3" d="M70.5,49.9v0.3c0,0,0,0-0.1,0c-0.3,0-0.5,0.2-0.5,0.5v0.8h-0.3v-1.6h0.3v0.3C70,50,70.2,49.9,70.5,49.9z"/>
	</g>
	<g class="st2">
		<path class="st3" d="M70.8,49.4c0-0.1,0.1-0.2,0.2-0.2s0.2,0.1,0.2,0.2c0,0.1-0.1,0.2-0.2,0.2C70.9,49.6,70.8,49.5,70.8,49.4z
			 M70.9,49.9h0.3v1.6h-0.3V49.9z"/>
		<path class="st3" d="M71.6,50.7c0-0.5,0.4-0.8,0.8-0.8c0.5,0,0.8,0.3,0.8,0.8s-0.4,0.8-0.8,0.8C71.9,51.5,71.6,51.2,71.6,50.7z
			 M73,50.7c0-0.3-0.2-0.6-0.5-0.6c-0.3,0-0.5,0.2-0.5,0.6s0.2,0.6,0.5,0.6C72.7,51.2,73,51,73,50.7z"/>
	</g>
	<g class="st2">
	</g>
	<g class="st2">
		<path class="st3" d="M82.4,49.2v2.3h-0.3v-0.3c-0.1,0.2-0.3,0.3-0.6,0.3c-0.5,0-0.8-0.3-0.8-0.8s0.3-0.8,0.8-0.8
			c0.2,0,0.4,0.1,0.6,0.3v-0.9H82.4z M82.1,50.7c0-0.3-0.2-0.6-0.5-0.6c-0.3,0-0.5,0.2-0.5,0.6s0.2,0.6,0.5,0.6
			C81.9,51.2,82.1,51,82.1,50.7z"/>
		<path class="st3" d="M82.8,50.7c0-0.5,0.4-0.8,0.8-0.8c0.5,0,0.8,0.3,0.8,0.8s-0.4,0.8-0.8,0.8C83.2,51.5,82.8,51.2,82.8,50.7z
			 M84.2,50.7c0-0.3-0.2-0.6-0.5-0.6c-0.3,0-0.5,0.2-0.5,0.6s0.2,0.6,0.5,0.6C84,51.2,84.2,51,84.2,50.7z"/>
		<path class="st3" d="M84.7,51.3l0.1-0.2c0.1,0.1,0.4,0.2,0.6,0.2c0.3,0,0.4-0.1,0.4-0.2c0-0.4-1,0-1-0.7c0-0.3,0.3-0.5,0.7-0.5
			c0.2,0,0.4,0.1,0.6,0.1l-0.1,0.2c-0.1-0.1-0.3-0.1-0.5-0.1c-0.3,0-0.4,0.1-0.4,0.2c0,0.4,1,0.1,1,0.7c0,0.3-0.3,0.5-0.7,0.5
			C85.1,51.5,84.8,51.4,84.7,51.3z"/>
	</g>
	<g class="st2">
		<path class="st3" d="M21,52.9v2.3h-0.3v-0.3c-0.1,0.2-0.3,0.3-0.6,0.3c-0.5,0-0.8-0.3-0.8-0.8s0.3-0.8,0.8-0.8
			c0.2,0,0.4,0.1,0.6,0.3v-0.9H21z M20.8,54.3c0-0.3-0.2-0.6-0.5-0.6c-0.3,0-0.5,0.2-0.5,0.6s0.2,0.6,0.5,0.6
			C20.5,54.9,20.8,54.7,20.8,54.3z"/>
		<path class="st3" d="M23,54.4h-1.3c0,0.3,0.3,0.5,0.6,0.5c0.2,0,0.3-0.1,0.5-0.2l0.2,0.2c-0.1,0.2-0.4,0.3-0.6,0.3
			c-0.5,0-0.9-0.3-0.9-0.8c0-0.5,0.3-0.8,0.8-0.8C22.7,53.5,23.1,53.8,23,54.4C23.1,54.3,23.1,54.4,23,54.4z M21.7,54.2h1
			c0-0.3-0.2-0.5-0.5-0.5C22,53.7,21.8,53.9,21.7,54.2z"/>
	</g>
	<g class="st2">
		<path class="st3" d="M25.1,54.3c0,0.5-0.3,0.8-0.8,0.8c-0.2,0-0.4-0.1-0.6-0.3v0.8h-0.3v-2.2h0.3v0.3c0.1-0.2,0.3-0.3,0.6-0.3
			C24.8,53.5,25.1,53.8,25.1,54.3z M24.8,54.3c0-0.3-0.2-0.6-0.5-0.6c-0.3,0-0.5,0.2-0.5,0.6c0,0.3,0.2,0.6,0.5,0.6
			C24.6,54.9,24.8,54.7,24.8,54.3z"/>
	</g>
	<g class="st2">
		<path class="st3" d="M26.8,54.1v1h-0.3v-0.2c-0.1,0.1-0.3,0.2-0.5,0.2c-0.4,0-0.6-0.2-0.6-0.5c0-0.3,0.2-0.5,0.6-0.5h0.5v-0.1
			c0-0.2-0.1-0.4-0.4-0.4c-0.2,0-0.4,0.1-0.5,0.2l-0.1-0.2c0.2-0.1,0.4-0.2,0.7-0.2C26.5,53.5,26.8,53.7,26.8,54.1z M26.5,54.6v-0.2
			h-0.4c-0.3,0-0.4,0.1-0.4,0.2c0,0.2,0.1,0.3,0.4,0.3C26.3,54.9,26.4,54.8,26.5,54.6z"/>
	</g>
	<g class="st2">
		<path class="st3" d="M28.2,53.5v0.3c0,0,0,0-0.1,0c-0.3,0-0.5,0.2-0.5,0.5v0.8h-0.3v-1.6h0.3v0.3C27.7,53.6,27.9,53.5,28.2,53.5z"
			/>
	</g>
	<g class="st2">
		<path class="st3" d="M29.5,55c-0.1,0.1-0.2,0.1-0.4,0.1c-0.3,0-0.5-0.2-0.5-0.5v-0.9h-0.3v-0.2h0.3v-0.4H29v0.4h0.5v0.2H29v0.9
			c0,0.2,0.1,0.3,0.3,0.3c0.1,0,0.2,0,0.2-0.1L29.5,55z"/>
		<path class="st3" d="M31.2,54.1v1h-0.3v-0.2c-0.1,0.1-0.3,0.2-0.5,0.2c-0.4,0-0.6-0.2-0.6-0.5c0-0.3,0.2-0.5,0.6-0.5h0.5v-0.1
			c0-0.2-0.1-0.4-0.4-0.4c-0.2,0-0.4,0.1-0.5,0.2l-0.1-0.2c0.2-0.1,0.4-0.2,0.7-0.2C30.9,53.5,31.2,53.7,31.2,54.1z M30.9,54.6v-0.2
			h-0.4c-0.3,0-0.4,0.1-0.4,0.2c0,0.2,0.1,0.3,0.4,0.3C30.6,54.9,30.8,54.8,30.9,54.6z"/>
	</g>
	<g class="st2">
		<path class="st3" d="M34.4,54.2v0.9h-0.3v-0.9c0-0.3-0.2-0.5-0.4-0.5c-0.3,0-0.5,0.2-0.5,0.5v0.8h-0.3v-0.9c0-0.3-0.2-0.5-0.4-0.5
			c-0.3,0-0.5,0.2-0.5,0.5v0.8h-0.3v-1.6H32v0.2c0.1-0.2,0.3-0.3,0.6-0.3c0.2,0,0.5,0.1,0.6,0.3c0.1-0.2,0.3-0.3,0.6-0.3
			C34.1,53.5,34.4,53.7,34.4,54.2z"/>
	</g>
	<g class="st2">
		<path class="st3" d="M36.4,54.4h-1.3c0,0.3,0.3,0.5,0.6,0.5c0.2,0,0.3-0.1,0.5-0.2l0.2,0.2c-0.1,0.2-0.4,0.3-0.6,0.3
			c-0.5,0-0.9-0.3-0.9-0.8c0-0.5,0.3-0.8,0.8-0.8C36,53.5,36.4,53.8,36.4,54.4C36.4,54.3,36.4,54.4,36.4,54.4z M35.1,54.2h1
			c0-0.3-0.2-0.5-0.5-0.5C35.3,53.7,35.1,53.9,35.1,54.2z"/>
		<path class="st3" d="M38.3,54.2v0.9H38v-0.9c0-0.3-0.2-0.5-0.4-0.5c-0.3,0-0.5,0.2-0.5,0.5v0.8h-0.3v-1.6h0.3v0.2
			c0.1-0.2,0.3-0.3,0.6-0.3C38,53.5,38.3,53.7,38.3,54.2z"/>
	</g>
	<g class="st2">
		<path class="st3" d="M39.8,55c-0.1,0.1-0.2,0.1-0.4,0.1c-0.3,0-0.5-0.2-0.5-0.5v-0.9h-0.3v-0.2h0.3v-0.4h0.3v0.4h0.5v0.2h-0.5v0.9
			c0,0.2,0.1,0.3,0.3,0.3c0.1,0,0.2,0,0.2-0.1L39.8,55z"/>
	</g>
	<g class="st2">
		<path class="st3" d="M39.9,54.3c0-0.5,0.4-0.8,0.8-0.8c0.5,0,0.8,0.3,0.8,0.8s-0.4,0.8-0.8,0.8C40.3,55.1,39.9,54.8,39.9,54.3z
			 M41.3,54.3c0-0.3-0.2-0.6-0.5-0.6c-0.3,0-0.5,0.2-0.5,0.6s0.2,0.6,0.5,0.6C41.1,54.9,41.3,54.7,41.3,54.3z"/>
		<path class="st3" d="M41.8,55l0.1-0.2c0.1,0.1,0.4,0.2,0.6,0.2c0.3,0,0.4-0.1,0.4-0.2c0-0.4-1,0-1-0.7c0-0.3,0.3-0.5,0.7-0.5
			c0.2,0,0.4,0.1,0.6,0.1L43,53.9c-0.1-0.1-0.3-0.1-0.5-0.1c-0.3,0-0.4,0.1-0.4,0.2c0,0.4,1,0.1,1,0.7c0,0.3-0.3,0.5-0.7,0.5
			C42.2,55.1,41.9,55.1,41.8,55z"/>
	</g>
	<g class="st2">
	</g>
	<g class="st2">
		<path class="st3" d="M47.8,52.9v2.3h-0.3v-0.3c-0.1,0.2-0.3,0.3-0.6,0.3c-0.5,0-0.8-0.3-0.8-0.8s0.3-0.8,0.8-0.8
			c0.2,0,0.4,0.1,0.6,0.3v-0.9H47.8z M47.5,54.3c0-0.3-0.2-0.6-0.5-0.6c-0.3,0-0.5,0.2-0.5,0.6s0.2,0.6,0.5,0.6
			C47.3,54.9,47.5,54.7,47.5,54.3z"/>
		<path class="st3" d="M49.8,54.4h-1.3c0,0.3,0.3,0.5,0.6,0.5c0.2,0,0.3-0.1,0.5-0.2l0.2,0.2c-0.1,0.2-0.4,0.3-0.6,0.3
			c-0.5,0-0.9-0.3-0.9-0.8c0-0.5,0.3-0.8,0.8-0.8C49.5,53.5,49.8,53.8,49.8,54.4C49.8,54.3,49.8,54.4,49.8,54.4z M48.5,54.2h1
			c0-0.3-0.2-0.5-0.5-0.5C48.7,53.7,48.5,53.9,48.5,54.2z"/>
	</g>
	<g class="st2">
	</g>
	<g class="st2">
		<path class="st3" d="M54.4,53.5l-0.7,1.6h-0.3l-0.7-1.6H53l0.6,1.3l0.6-1.3H54.4z"/>
	</g>
	<g class="st2">
		<path class="st3" d="M56.1,54.4h-1.3c0,0.3,0.3,0.5,0.6,0.5c0.2,0,0.3-0.1,0.5-0.2l0.2,0.2c-0.1,0.2-0.4,0.3-0.6,0.3
			c-0.5,0-0.9-0.3-0.9-0.8c0-0.5,0.3-0.8,0.8-0.8C55.7,53.5,56.1,53.8,56.1,54.4C56.1,54.3,56.1,54.4,56.1,54.4z M54.7,54.2h1
			c0-0.3-0.2-0.5-0.5-0.5C55,53.7,54.8,53.9,54.7,54.2z"/>
	</g>
	<g class="st2">
		<path class="st3" d="M58,54.2v0.9h-0.3v-0.9c0-0.3-0.2-0.5-0.4-0.5c-0.3,0-0.5,0.2-0.5,0.5v0.8h-0.3v-1.6h0.3v0.2
			c0.1-0.2,0.3-0.3,0.6-0.3C57.7,53.5,58,53.7,58,54.2z"/>
	</g>
	<g class="st2">
		<path class="st3" d="M60.1,52.9v2.3h-0.3v-0.3c-0.1,0.2-0.3,0.3-0.6,0.3c-0.5,0-0.8-0.3-0.8-0.8s0.3-0.8,0.8-0.8
			c0.2,0,0.4,0.1,0.6,0.3v-0.9H60.1z M59.8,54.3c0-0.3-0.2-0.6-0.5-0.6c-0.3,0-0.5,0.2-0.5,0.6s0.2,0.6,0.5,0.6
			C59.5,54.9,59.8,54.7,59.8,54.3z"/>
		<path class="st3" d="M61.9,54.1v1h-0.3v-0.2c-0.1,0.1-0.3,0.2-0.5,0.2c-0.4,0-0.6-0.2-0.6-0.5c0-0.3,0.2-0.5,0.6-0.5h0.5v-0.1
			c0-0.2-0.1-0.4-0.4-0.4c-0.2,0-0.4,0.1-0.5,0.2l-0.1-0.2c0.2-0.1,0.4-0.2,0.7-0.2C61.6,53.5,61.9,53.7,61.9,54.1z M61.6,54.6v-0.2
			h-0.4c-0.3,0-0.4,0.1-0.4,0.2c0,0.2,0.1,0.3,0.4,0.3C61.4,54.9,61.5,54.8,61.6,54.6z"/>
		<path class="st3" d="M62.2,55l0.1-0.2c0.1,0.1,0.4,0.2,0.6,0.2c0.3,0,0.4-0.1,0.4-0.2c0-0.4-1,0-1-0.7c0-0.3,0.3-0.5,0.7-0.5
			c0.2,0,0.4,0.1,0.6,0.1l-0.1,0.2c-0.1-0.1-0.3-0.1-0.5-0.1c-0.3,0-0.4,0.1-0.4,0.2c0,0.4,1,0.1,1,0.7c0,0.3-0.3,0.5-0.7,0.5
			C62.6,55.1,62.4,55.1,62.2,55z"/>
		<path class="st3" d="M64.2,54.9c0,0.1,0,0.1-0.1,0.2L64,55.6h-0.2l0.1-0.5c-0.1,0-0.1-0.1-0.1-0.2c0-0.1,0.1-0.2,0.2-0.2
			S64.2,54.8,64.2,54.9z"/>
	</g>
	<g class="st2">
	</g>
	<g class="st2">
		<path class="st3" d="M67.4,52.9h0.3v2.3h-0.3V52.9z"/>
		<path class="st3" d="M68.2,53c0-0.1,0.1-0.2,0.2-0.2s0.2,0.1,0.2,0.2c0,0.1-0.1,0.2-0.2,0.2C68.3,53.2,68.2,53.1,68.2,53z
			 M68.3,53.5h0.3v1.6h-0.3V53.5z"/>
		<path class="st3" d="M69,54.3c0-0.5,0.4-0.8,0.8-0.8c0.3,0,0.5,0.1,0.7,0.3L70.2,54c-0.1-0.2-0.3-0.2-0.4-0.2
			c-0.3,0-0.6,0.2-0.6,0.6c0,0.3,0.2,0.6,0.6,0.6c0.2,0,0.3-0.1,0.4-0.2l0.2,0.1c-0.1,0.2-0.4,0.3-0.7,0.3
			C69.3,55.1,69,54.8,69,54.3z"/>
		<path class="st3" d="M70.8,53c0-0.1,0.1-0.2,0.2-0.2s0.2,0.1,0.2,0.2c0,0.1-0.1,0.2-0.2,0.2C70.9,53.2,70.8,53.1,70.8,53z
			 M70.8,53.5h0.3v1.6h-0.3V53.5z"/>
		<path class="st3" d="M72.6,55c-0.1,0.1-0.2,0.1-0.4,0.1c-0.3,0-0.5-0.2-0.5-0.5v-0.9h-0.3v-0.2h0.3v-0.4H72v0.4h0.5v0.2H72v0.9
			c0,0.2,0.1,0.3,0.3,0.3c0.1,0,0.2,0,0.2-0.1L72.6,55z"/>
	</g>
	<g class="st2">
		<path class="st3" d="M74.2,54.1v1h-0.3v-0.2c-0.1,0.1-0.3,0.2-0.5,0.2c-0.4,0-0.6-0.2-0.6-0.5c0-0.3,0.2-0.5,0.6-0.5h0.5v-0.1
			c0-0.2-0.1-0.4-0.4-0.4c-0.2,0-0.4,0.1-0.5,0.2l-0.1-0.2c0.2-0.1,0.4-0.2,0.7-0.2C74,53.5,74.2,53.7,74.2,54.1z M73.9,54.6v-0.2
			h-0.5c-0.3,0-0.4,0.1-0.4,0.2c0,0.2,0.1,0.3,0.4,0.3C73.7,54.9,73.9,54.8,73.9,54.6z"/>
	</g>
	<g class="st2">
		<path class="st3" d="M75.9,54.7l0.2,0.1c-0.1,0.2-0.4,0.3-0.6,0.3l0,0.1c0.2,0,0.3,0.1,0.3,0.3c0,0.2-0.1,0.3-0.4,0.3
			c-0.1,0-0.2,0-0.3-0.1l0.1-0.1c0.1,0,0.1,0.1,0.2,0.1c0.1,0,0.2,0,0.2-0.1c0-0.1-0.1-0.1-0.2-0.1h-0.1l0.1-0.3
			c-0.4-0.1-0.7-0.4-0.7-0.8c0-0.5,0.4-0.8,0.9-0.8c0.3,0,0.5,0.1,0.7,0.3L75.9,54c-0.1-0.2-0.3-0.2-0.4-0.2c-0.3,0-0.6,0.2-0.6,0.6
			c0,0.3,0.2,0.6,0.6,0.6C75.7,54.9,75.8,54.8,75.9,54.7z"/>
	</g>
	<g class="st2">
		<path class="st3" d="M76.3,54.3c0-0.5,0.4-0.8,0.8-0.8s0.8,0.3,0.8,0.8s-0.4,0.8-0.8,0.8S76.3,54.8,76.3,54.3z M77.7,54.3
			c0-0.3-0.2-0.6-0.5-0.6s-0.5,0.2-0.5,0.6s0.2,0.6,0.5,0.6S77.7,54.7,77.7,54.3z M77,53.1c-0.1,0-0.1,0.1-0.2,0.2h-0.2
			c0-0.2,0.1-0.4,0.3-0.4c0.2,0,0.3,0.2,0.4,0.2c0.1,0,0.1-0.1,0.2-0.2h0.2c0,0.2-0.1,0.4-0.3,0.4C77.2,53.3,77.1,53.1,77,53.1z"/>
		<path class="st3" d="M79.9,54.4h-1.3c0,0.3,0.3,0.5,0.6,0.5c0.2,0,0.3-0.1,0.5-0.2l0.2,0.2c-0.1,0.2-0.4,0.3-0.6,0.3
			c-0.5,0-0.9-0.3-0.9-0.8c0-0.5,0.3-0.8,0.8-0.8C79.5,53.5,79.9,53.8,79.9,54.4C79.9,54.3,79.9,54.4,79.9,54.4z M78.6,54.2h1
			c0-0.3-0.2-0.5-0.5-0.5C78.8,53.7,78.6,53.9,78.6,54.2z"/>
		<path class="st3" d="M80.1,55l0.1-0.2c0.1,0.1,0.4,0.2,0.6,0.2c0.3,0,0.4-0.1,0.4-0.2c0-0.4-1,0-1-0.7c0-0.3,0.3-0.5,0.7-0.5
			c0.2,0,0.4,0.1,0.6,0.1l-0.1,0.2c-0.1-0.1-0.3-0.1-0.5-0.1c-0.3,0-0.4,0.1-0.4,0.2c0,0.4,1,0.1,1,0.7c0,0.3-0.3,0.5-0.7,0.5
			C80.5,55.1,80.2,55.1,80.1,55z"/>
	</g>
	<g class="st2">
	</g>
	<g class="st2">
		<path class="st3" d="M86,54.4h-1.3c0,0.3,0.3,0.5,0.6,0.5c0.2,0,0.3-0.1,0.5-0.2l0.2,0.2c-0.1,0.2-0.4,0.3-0.6,0.3
			c-0.5,0-0.9-0.3-0.9-0.8c0-0.5,0.3-0.8,0.8-0.8C85.7,53.5,86,53.8,86,54.4C86,54.3,86,54.4,86,54.4z M84.7,54.2h1
			c0-0.3-0.2-0.5-0.5-0.5C84.9,53.7,84.7,53.9,84.7,54.2z"/>
	</g>
	<g class="st2">
		<path class="st3" d="M21.1,57.8v0.9h-0.3v-0.9c0-0.3-0.2-0.5-0.4-0.5c-0.3,0-0.5,0.2-0.5,0.5v0.8h-0.3v-1.6h0.3v0.2
			c0.1-0.2,0.3-0.3,0.6-0.3C20.8,57.1,21.1,57.4,21.1,57.8z"/>
	</g>
	<g class="st2">
		<path class="st3" d="M23.1,58.1h-1.3c0,0.3,0.3,0.5,0.6,0.5c0.2,0,0.3-0.1,0.5-0.2l0.2,0.2c-0.1,0.2-0.4,0.3-0.6,0.3
			c-0.5,0-0.9-0.3-0.9-0.8c0-0.5,0.3-0.8,0.8-0.8C22.7,57.1,23.1,57.5,23.1,58.1C23.1,58,23.1,58,23.1,58.1z M21.7,57.9h1
			c0-0.3-0.2-0.5-0.5-0.5C22,57.4,21.8,57.6,21.7,57.9z"/>
		<path class="st3" d="M25,57.2v1.4c0,0.6-0.3,0.8-0.8,0.8c-0.3,0-0.6-0.1-0.8-0.2l0.1-0.2c0.1,0.1,0.4,0.2,0.6,0.2
			c0.4,0,0.6-0.2,0.6-0.5v-0.1c-0.1,0.2-0.3,0.2-0.6,0.2c-0.5,0-0.8-0.3-0.8-0.8c0-0.5,0.4-0.8,0.8-0.8c0.2,0,0.5,0.1,0.6,0.3v-0.2
			H25z M24.7,57.9c0-0.3-0.2-0.5-0.6-0.5c-0.3,0-0.6,0.2-0.6,0.5c0,0.3,0.2,0.5,0.6,0.5C24.5,58.4,24.7,58.2,24.7,57.9z"/>
		<path class="st3" d="M25.4,58c0-0.5,0.4-0.8,0.8-0.8c0.5,0,0.8,0.3,0.8,0.8s-0.4,0.8-0.8,0.8C25.8,58.8,25.4,58.4,25.4,58z
			 M26.8,58c0-0.3-0.2-0.6-0.5-0.6c-0.3,0-0.5,0.2-0.5,0.6s0.2,0.6,0.5,0.6C26.6,58.5,26.8,58.3,26.8,58z"/>
		<path class="st3" d="M27.3,58c0-0.5,0.4-0.8,0.9-0.8c0.3,0,0.5,0.1,0.7,0.3l-0.2,0.1c-0.1-0.2-0.3-0.2-0.4-0.2
			c-0.3,0-0.6,0.2-0.6,0.6c0,0.3,0.2,0.6,0.6,0.6c0.2,0,0.3-0.1,0.4-0.2l0.2,0.1c-0.1,0.2-0.4,0.3-0.7,0.3
			C27.7,58.8,27.3,58.4,27.3,58z"/>
		<path class="st3" d="M29.2,56.7c0-0.1,0.1-0.2,0.2-0.2s0.2,0.1,0.2,0.2c0,0.1-0.1,0.2-0.2,0.2C29.3,56.9,29.2,56.8,29.2,56.7z
			 M29.2,57.2h0.3v1.6h-0.3V57.2z"/>
	</g>
	<g class="st2">
		<path class="st3" d="M31.4,57.8v1h-0.3v-0.2c-0.1,0.1-0.3,0.2-0.5,0.2c-0.4,0-0.6-0.2-0.6-0.5c0-0.3,0.2-0.5,0.6-0.5h0.5v-0.1
			c0-0.2-0.1-0.4-0.4-0.4c-0.2,0-0.4,0.1-0.5,0.2L30,57.4c0.2-0.1,0.4-0.2,0.7-0.2C31.1,57.1,31.4,57.4,31.4,57.8z M31.1,58.3v-0.2
			h-0.4c-0.3,0-0.4,0.1-0.4,0.2c0,0.2,0.1,0.3,0.4,0.3C30.8,58.6,31,58.5,31.1,58.3z"/>
	</g>
	<g class="st2">
		<path class="st3" d="M33,58.3l0.2,0.1c-0.1,0.2-0.4,0.3-0.6,0.3l0,0.1c0.2,0,0.3,0.1,0.3,0.3c0,0.2-0.1,0.3-0.4,0.3
			c-0.1,0-0.2,0-0.3-0.1l0.1-0.1c0.1,0,0.1,0.1,0.2,0.1c0.1,0,0.2,0,0.2-0.1c0-0.1-0.1-0.1-0.2-0.1h-0.1l0.1-0.3
			c-0.4-0.1-0.7-0.4-0.7-0.8c0-0.5,0.4-0.8,0.9-0.8c0.3,0,0.5,0.1,0.7,0.3L33,57.6c-0.1-0.2-0.3-0.2-0.4-0.2c-0.3,0-0.6,0.2-0.6,0.6
			c0,0.3,0.2,0.6,0.6,0.6C32.8,58.5,32.9,58.5,33,58.3z"/>
	</g>
	<g class="st2">
		<path class="st3" d="M34.9,57.8v1h-0.3v-0.2c-0.1,0.1-0.3,0.2-0.5,0.2c-0.4,0-0.6-0.2-0.6-0.5c0-0.3,0.2-0.5,0.6-0.5h0.5v-0.1
			c0-0.2-0.1-0.4-0.4-0.4c-0.2,0-0.4,0.1-0.5,0.2l-0.1-0.2c0.2-0.1,0.4-0.2,0.7-0.2C34.7,57.1,34.9,57.4,34.9,57.8z M33.9,56.9h-0.2
			c0-0.2,0.1-0.4,0.3-0.4c0.2,0,0.3,0.2,0.4,0.2c0.1,0,0.1-0.1,0.2-0.2h0.2c0,0.2-0.1,0.4-0.3,0.4c-0.2,0-0.3-0.2-0.4-0.2
			C34,56.7,33.9,56.8,33.9,56.9z M34.6,58.3v-0.2h-0.4c-0.3,0-0.4,0.1-0.4,0.2c0,0.2,0.1,0.3,0.4,0.3C34.4,58.6,34.5,58.5,34.6,58.3
			z"/>
	</g>
	<g class="st2">
		<path class="st3" d="M35.3,58c0-0.5,0.4-0.8,0.8-0.8c0.5,0,0.8,0.3,0.8,0.8s-0.4,0.8-0.8,0.8C35.7,58.8,35.3,58.4,35.3,58z
			 M36.7,58c0-0.3-0.2-0.6-0.5-0.6c-0.3,0-0.5,0.2-0.5,0.6s0.2,0.6,0.5,0.6C36.5,58.5,36.7,58.3,36.7,58z"/>
	</g>
	<g class="st2">
	</g>
	<g class="st2">
		<path class="st3" d="M39.9,56.5v2.3h-0.3v-0.3c-0.1,0.2-0.3,0.3-0.6,0.3c-0.5,0-0.8-0.3-0.8-0.8s0.3-0.8,0.8-0.8
			c0.2,0,0.4,0.1,0.6,0.3v-0.9H39.9z M39.6,58c0-0.3-0.2-0.6-0.5-0.6c-0.3,0-0.5,0.2-0.5,0.6s0.2,0.6,0.5,0.6
			C39.4,58.5,39.6,58.3,39.6,58z"/>
		<path class="st3" d="M41.9,58.1h-1.3c0,0.3,0.3,0.5,0.6,0.5c0.2,0,0.3-0.1,0.5-0.2l0.2,0.2c-0.1,0.2-0.4,0.3-0.6,0.3
			c-0.5,0-0.9-0.3-0.9-0.8c0-0.5,0.3-0.8,0.8-0.8C41.6,57.1,41.9,57.5,41.9,58.1C41.9,58,41.9,58,41.9,58.1z M40.6,57.9h1
			c0-0.3-0.2-0.5-0.5-0.5C40.9,57.4,40.7,57.6,40.6,57.9z"/>
	</g>
	<g class="st2">
	</g>
	<g class="st2">
		<path class="st3" d="M43.2,58c0-0.5,0.4-0.8,0.9-0.8c0.3,0,0.5,0.1,0.7,0.3l-0.2,0.1c-0.1-0.2-0.3-0.2-0.4-0.2
			c-0.3,0-0.6,0.2-0.6,0.6c0,0.3,0.2,0.6,0.6,0.6c0.2,0,0.3-0.1,0.4-0.2l0.2,0.1c-0.1,0.2-0.4,0.3-0.7,0.3
			C43.6,58.8,43.2,58.4,43.2,58z"/>
	</g>
	<g class="st2">
		<path class="st3" d="M44.9,58c0-0.5,0.4-0.8,0.8-0.8c0.5,0,0.8,0.3,0.8,0.8s-0.4,0.8-0.8,0.8C45.3,58.8,44.9,58.4,44.9,58z
			 M46.3,58c0-0.3-0.2-0.6-0.5-0.6c-0.3,0-0.5,0.2-0.5,0.6s0.2,0.6,0.5,0.6C46.1,58.5,46.3,58.3,46.3,58z"/>
		<path class="st3" d="M48.5,57.8v0.9h-0.3v-0.9c0-0.3-0.2-0.5-0.4-0.5c-0.3,0-0.5,0.2-0.5,0.5v0.8H47v-1.6h0.3v0.2
			c0.1-0.2,0.3-0.3,0.6-0.3C48.3,57.1,48.5,57.4,48.5,57.8z"/>
		<path class="st3" d="M50,58.7c-0.1,0.1-0.2,0.1-0.4,0.1c-0.3,0-0.5-0.2-0.5-0.5v-0.9h-0.3v-0.2h0.3v-0.4h0.3v0.4h0.5v0.2h-0.5v0.9
			c0,0.2,0.1,0.3,0.3,0.3c0.1,0,0.2,0,0.2-0.1L50,58.7z"/>
	</g>
	<g class="st2">
		<path class="st3" d="M51.2,57.1v0.3c0,0,0,0-0.1,0c-0.3,0-0.5,0.2-0.5,0.5v0.8h-0.3v-1.6h0.3v0.3C50.7,57.2,50.9,57.1,51.2,57.1z"
			/>
	</g>
	<g class="st2">
		<path class="st3" d="M52.8,57.8v1h-0.3v-0.2c-0.1,0.1-0.3,0.2-0.5,0.2c-0.4,0-0.6-0.2-0.6-0.5c0-0.3,0.2-0.5,0.6-0.5h0.5v-0.1
			c0-0.2-0.1-0.4-0.4-0.4c-0.2,0-0.4,0.1-0.5,0.2l-0.1-0.2c0.2-0.1,0.4-0.2,0.7-0.2C52.6,57.1,52.8,57.4,52.8,57.8z M52.5,58.3v-0.2
			h-0.4c-0.3,0-0.4,0.1-0.4,0.2c0,0.2,0.1,0.3,0.4,0.3C52.3,58.6,52.5,58.5,52.5,58.3z"/>
	</g>
	<g class="st2">
		<path class="st3" d="M54.3,58.7c-0.1,0.1-0.2,0.1-0.4,0.1c-0.3,0-0.5-0.2-0.5-0.5v-0.9h-0.3v-0.2h0.3v-0.4h0.3v0.4h0.5v0.2h-0.5
			v0.9c0,0.2,0.1,0.3,0.3,0.3c0.1,0,0.2,0,0.2-0.1L54.3,58.7z"/>
	</g>
	<g class="st2">
		<path class="st3" d="M54.4,58c0-0.5,0.4-0.8,0.8-0.8s0.8,0.3,0.8,0.8s-0.4,0.8-0.8,0.8S54.4,58.4,54.4,58z M55.8,58
			c0-0.3-0.2-0.6-0.5-0.6s-0.5,0.2-0.5,0.6s0.2,0.6,0.5,0.6S55.8,58.3,55.8,58z"/>
		<path class="st3" d="M56.3,58.6l0.1-0.2c0.1,0.1,0.4,0.2,0.6,0.2c0.3,0,0.4-0.1,0.4-0.2c0-0.4-1,0-1-0.7c0-0.3,0.3-0.5,0.7-0.5
			c0.2,0,0.4,0.1,0.6,0.1l-0.1,0.2c-0.1-0.1-0.3-0.1-0.5-0.1c-0.3,0-0.4,0.1-0.4,0.2c0,0.4,1,0.1,1,0.7c0,0.3-0.3,0.5-0.7,0.5
			C56.7,58.8,56.4,58.7,56.3,58.6z"/>
	</g>
	<g class="st2">
	</g>
	<g class="st2">
		<path class="st3" d="M60.6,56.5v2.3h-0.3v-0.3c-0.1,0.2-0.3,0.3-0.6,0.3c-0.5,0-0.8-0.3-0.8-0.8s0.3-0.8,0.8-0.8
			c0.2,0,0.4,0.1,0.6,0.3v-0.9H60.6z M60.3,58c0-0.3-0.2-0.6-0.5-0.6c-0.3,0-0.5,0.2-0.5,0.6s0.2,0.6,0.5,0.6
			C60.1,58.5,60.3,58.3,60.3,58z"/>
		<path class="st3" d="M62.6,57.2v1.6h-0.3v-0.2c-0.1,0.2-0.3,0.3-0.5,0.3c-0.4,0-0.7-0.2-0.7-0.7v-0.9h0.3v0.9
			c0,0.3,0.2,0.5,0.4,0.5c0.3,0,0.5-0.2,0.5-0.5v-0.8H62.6z"/>
	</g>
	<g class="st2">
		<path class="st3" d="M64.1,57.1v0.3c0,0,0,0-0.1,0c-0.3,0-0.5,0.2-0.5,0.5v0.8h-0.3v-1.6h0.3v0.3C63.6,57.2,63.8,57.1,64.1,57.1z"
			/>
	</g>
	<g class="st2">
		<path class="st3" d="M65.7,57.8v1h-0.3v-0.2c-0.1,0.1-0.3,0.2-0.5,0.2c-0.4,0-0.6-0.2-0.6-0.5c0-0.3,0.2-0.5,0.6-0.5h0.5v-0.1
			c0-0.2-0.1-0.4-0.4-0.4c-0.2,0-0.4,0.1-0.5,0.2l-0.1-0.2c0.2-0.1,0.4-0.2,0.7-0.2C65.4,57.1,65.7,57.4,65.7,57.8z M65.4,58.3v-0.2
			h-0.5c-0.3,0-0.4,0.1-0.4,0.2c0,0.2,0.1,0.3,0.4,0.3C65.1,58.6,65.3,58.5,65.4,58.3z"/>
		<path class="st3" d="M67.8,57.8v0.9h-0.3v-0.9c0-0.3-0.2-0.5-0.4-0.5c-0.3,0-0.5,0.2-0.5,0.5v0.8h-0.3v-1.6h0.3v0.2
			c0.1-0.2,0.3-0.3,0.6-0.3C67.5,57.1,67.8,57.4,67.8,57.8z"/>
	</g>
	<g class="st2">
		<path class="st3" d="M69.2,58.7c-0.1,0.1-0.2,0.1-0.4,0.1c-0.3,0-0.5-0.2-0.5-0.5v-0.9h-0.3v-0.2h0.3v-0.4h0.3v0.4h0.5v0.2h-0.5
			v0.9c0,0.2,0.1,0.3,0.3,0.3c0.1,0,0.2,0,0.2-0.1L69.2,58.7z"/>
	</g>
	<g class="st2">
		<path class="st3" d="M70.9,58.1h-1.3c0,0.3,0.3,0.5,0.6,0.5c0.2,0,0.3-0.1,0.5-0.2l0.2,0.2c-0.1,0.2-0.4,0.3-0.6,0.3
			c-0.5,0-0.9-0.3-0.9-0.8c0-0.5,0.3-0.8,0.8-0.8S71,57.5,70.9,58.1C71,58,70.9,58,70.9,58.1z M69.6,57.9h1c0-0.3-0.2-0.5-0.5-0.5
			C69.9,57.4,69.7,57.6,69.6,57.9z"/>
	</g>
	<g class="st2">
	</g>
	<g class="st2">
		<path class="st3" d="M73.7,57.8v1h-0.3v-0.2c-0.1,0.1-0.3,0.2-0.5,0.2c-0.4,0-0.6-0.2-0.6-0.5c0-0.3,0.2-0.5,0.6-0.5h0.5v-0.1
			c0-0.2-0.1-0.4-0.4-0.4c-0.2,0-0.4,0.1-0.5,0.2l-0.1-0.2c0.2-0.1,0.4-0.2,0.7-0.2C73.4,57.1,73.7,57.4,73.7,57.8z M73.4,58.3v-0.2
			h-0.5c-0.3,0-0.4,0.1-0.4,0.2c0,0.2,0.1,0.3,0.4,0.3C73.1,58.6,73.3,58.5,73.4,58.3z"/>
	</g>
	<g class="st2">
	</g>
	<g class="st2">
		<path class="st3" d="M75.5,57v0.1H76v0.2h-0.5v1.4h-0.3v-1.4H75v-0.2h0.3V57c0-0.3,0.2-0.5,0.5-0.5c0.1,0,0.2,0,0.3,0.1L76,56.8
			c-0.1,0-0.1-0.1-0.2-0.1C75.6,56.7,75.5,56.8,75.5,57z"/>
	</g>
	<g class="st2">
		<path class="st3" d="M77.5,57.8v1h-0.3v-0.2c-0.1,0.1-0.3,0.2-0.5,0.2c-0.4,0-0.6-0.2-0.6-0.5c0-0.3,0.2-0.5,0.6-0.5h0.5v-0.1
			c0-0.2-0.1-0.4-0.4-0.4c-0.2,0-0.4,0.1-0.5,0.2l-0.1-0.2c0.2-0.1,0.4-0.2,0.7-0.2C77.3,57.1,77.5,57.4,77.5,57.8z M77.2,58.3v-0.2
			h-0.4c-0.3,0-0.4,0.1-0.4,0.2c0,0.2,0.1,0.3,0.4,0.3C77,58.6,77.2,58.5,77.2,58.3z"/>
		<path class="st3" d="M77.9,58.6l0.1-0.2c0.1,0.1,0.4,0.2,0.6,0.2c0.3,0,0.4-0.1,0.4-0.2c0-0.4-1,0-1-0.7c0-0.3,0.3-0.5,0.7-0.5
			c0.2,0,0.4,0.1,0.6,0.1l-0.1,0.2c-0.1-0.1-0.3-0.1-0.5-0.1c-0.3,0-0.4,0.1-0.4,0.2c0,0.4,1,0.1,1,0.7c0,0.3-0.3,0.5-0.7,0.5
			C78.3,58.8,78,58.7,77.9,58.6z"/>
		<path class="st3" d="M81,58.1h-1.3c0,0.3,0.3,0.5,0.6,0.5c0.2,0,0.3-0.1,0.5-0.2l0.2,0.2c-0.1,0.2-0.4,0.3-0.6,0.3
			c-0.5,0-0.9-0.3-0.9-0.8c0-0.5,0.3-0.8,0.8-0.8S81.1,57.5,81,58.1C81.1,58,81,58,81,58.1z M79.7,57.9h1c0-0.3-0.2-0.5-0.5-0.5
			C80,57.4,79.8,57.6,79.7,57.9z"/>
	</g>
	<g class="st2">
	</g>
	<g class="st2">
		<path class="st3" d="M84,56.5v2.3h-0.3v-0.3c-0.1,0.2-0.3,0.3-0.6,0.3c-0.5,0-0.8-0.3-0.8-0.8s0.3-0.8,0.8-0.8
			c0.2,0,0.4,0.1,0.6,0.3v-0.9H84z M83.7,58c0-0.3-0.2-0.6-0.5-0.6c-0.3,0-0.5,0.2-0.5,0.6s0.2,0.6,0.5,0.6
			C83.5,58.5,83.7,58.3,83.7,58z"/>
		<path class="st3" d="M86,58.1h-1.3c0,0.3,0.3,0.5,0.6,0.5c0.2,0,0.3-0.1,0.5-0.2l0.2,0.2c-0.1,0.2-0.4,0.3-0.6,0.3
			c-0.5,0-0.9-0.3-0.9-0.8c0-0.5,0.3-0.8,0.8-0.8S86,57.5,86,58.1C86,58,86,58,86,58.1z M84.7,57.9h1c0-0.3-0.2-0.5-0.5-0.5
			C84.9,57.4,84.7,57.6,84.7,57.9z"/>
	</g>
	<g class="st2">
		<path class="st3" d="M21,60.8l-0.7,1.6h-0.3l-0.7-1.6h0.3l0.6,1.3l0.6-1.3H21z"/>
	</g>
	<g class="st2">
		<path class="st3" d="M22.6,61.7h-1.3c0,0.3,0.3,0.5,0.6,0.5c0.2,0,0.3-0.1,0.5-0.2l0.2,0.2c-0.1,0.2-0.4,0.3-0.6,0.3
			c-0.5,0-0.9-0.3-0.9-0.8c0-0.5,0.3-0.8,0.8-0.8C22.3,60.8,22.6,61.1,22.6,61.7C22.6,61.6,22.6,61.7,22.6,61.7z M21.3,61.5h1
			c0-0.3-0.2-0.5-0.5-0.5C21.6,61,21.3,61.2,21.3,61.5z"/>
	</g>
	<g class="st2">
		<path class="st3" d="M24.6,61.5v0.9h-0.3v-0.9c0-0.3-0.2-0.5-0.4-0.5c-0.3,0-0.5,0.2-0.5,0.5v0.8H23v-1.6h0.3v0.2
			c0.1-0.2,0.3-0.3,0.6-0.3C24.3,60.8,24.6,61,24.6,61.5z"/>
	</g>
	<g class="st2">
		<path class="st3" d="M26.6,60.2v2.3h-0.3v-0.3c-0.1,0.2-0.3,0.3-0.6,0.3c-0.5,0-0.8-0.3-0.8-0.8s0.3-0.8,0.8-0.8
			c0.2,0,0.4,0.1,0.6,0.3v-0.9H26.6z M26.3,61.6c0-0.3-0.2-0.6-0.5-0.6c-0.3,0-0.5,0.2-0.5,0.6s0.2,0.6,0.5,0.6
			C26.1,62.2,26.3,62,26.3,61.6z"/>
		<path class="st3" d="M28.5,61.4v1h-0.3v-0.2c-0.1,0.1-0.3,0.2-0.5,0.2c-0.4,0-0.6-0.2-0.6-0.5c0-0.3,0.2-0.5,0.6-0.5h0.5v-0.1
			c0-0.2-0.1-0.4-0.4-0.4c-0.2,0-0.4,0.1-0.5,0.2L27.1,61c0.2-0.1,0.4-0.2,0.7-0.2C28.2,60.8,28.5,61,28.5,61.4z M28.2,61.9v-0.2
			h-0.4c-0.3,0-0.4,0.1-0.4,0.2c0,0.2,0.1,0.3,0.4,0.3C27.9,62.2,28.1,62.1,28.2,61.9z"/>
		<path class="st3" d="M28.8,62.2l0.1-0.2c0.1,0.1,0.4,0.2,0.6,0.2c0.3,0,0.4-0.1,0.4-0.2c0-0.4-1,0-1-0.7c0-0.3,0.3-0.5,0.7-0.5
			c0.2,0,0.4,0.1,0.6,0.1L30,61.2c-0.1-0.1-0.3-0.1-0.5-0.1c-0.3,0-0.4,0.1-0.4,0.2c0,0.4,1,0.1,1,0.7c0,0.3-0.3,0.5-0.7,0.5
			C29.2,62.4,28.9,62.4,28.8,62.2z"/>
	</g>
	<g class="st2">
	</g>
	<g class="st2">
		<path class="st3" d="M33.8,61.7h-1.3c0,0.3,0.3,0.5,0.6,0.5c0.2,0,0.3-0.1,0.5-0.2l0.2,0.2c-0.1,0.2-0.4,0.3-0.6,0.3
			c-0.5,0-0.9-0.3-0.9-0.8c0-0.5,0.3-0.8,0.8-0.8C33.5,60.8,33.8,61.1,33.8,61.7C33.8,61.6,33.8,61.7,33.8,61.7z M32.5,61.5h1
			c0-0.3-0.2-0.5-0.5-0.5C32.8,61,32.6,61.2,32.5,61.5z"/>
	</g>
	<g class="st2">
	</g>
	<g class="st2">
		<path class="st3" d="M36.4,60.7v0.1h0.5v0.2h-0.5v1.4h-0.3v-1.4h-0.3v-0.2h0.3v-0.1c0-0.3,0.2-0.5,0.5-0.5c0.1,0,0.2,0,0.3,0.1
			l-0.1,0.2c-0.1,0-0.1-0.1-0.2-0.1C36.5,60.4,36.4,60.5,36.4,60.7z"/>
	</g>
	<g class="st2">
		<path class="st3" d="M38.6,61.7h-1.3c0,0.3,0.3,0.5,0.6,0.5c0.2,0,0.3-0.1,0.5-0.2l0.2,0.2c-0.1,0.2-0.4,0.3-0.6,0.3
			c-0.5,0-0.9-0.3-0.9-0.8c0-0.5,0.3-0.8,0.8-0.8C38.3,60.8,38.6,61.1,38.6,61.7C38.6,61.6,38.6,61.7,38.6,61.7z M37.3,61.5h1
			c0-0.3-0.2-0.5-0.5-0.5C37.5,61,37.3,61.2,37.3,61.5z"/>
	</g>
	<g class="st2">
		<path class="st3" d="M38.9,61.6c0-0.5,0.4-0.8,0.9-0.8c0.3,0,0.5,0.1,0.7,0.3l-0.2,0.1c-0.1-0.2-0.3-0.2-0.4-0.2
			c-0.3,0-0.6,0.2-0.6,0.6c0,0.3,0.2,0.6,0.6,0.6c0.2,0,0.3-0.1,0.4-0.2l0.2,0.1c-0.1,0.2-0.4,0.3-0.7,0.3
			C39.2,62.4,38.9,62.1,38.9,61.6z"/>
	</g>
	<g class="st2">
		<path class="st3" d="M42.3,61.5v0.9H42v-0.9c0-0.3-0.2-0.5-0.4-0.5c-0.3,0-0.5,0.2-0.5,0.5v0.8h-0.3v-2.3H41V61
			c0.1-0.2,0.3-0.2,0.6-0.2C42,60.8,42.3,61,42.3,61.5z"/>
		<path class="st3" d="M44.1,61.4v1h-0.3v-0.2c-0.1,0.1-0.3,0.2-0.5,0.2c-0.4,0-0.6-0.2-0.6-0.5c0-0.3,0.2-0.5,0.6-0.5h0.5v-0.1
			c0-0.2-0.1-0.4-0.4-0.4c-0.2,0-0.4,0.1-0.5,0.2L42.7,61c0.2-0.1,0.4-0.2,0.7-0.2C43.8,60.8,44.1,61,44.1,61.4z M43.8,61.9v-0.2
			h-0.4C43,61.7,43,61.8,43,62c0,0.2,0.1,0.3,0.4,0.3C43.5,62.2,43.7,62.1,43.8,61.9z"/>
	</g>
	<g class="st2">
		<path class="st3" d="M47.3,61.5v0.9H47v-0.9c0-0.3-0.2-0.5-0.4-0.5c-0.3,0-0.5,0.2-0.5,0.5v0.8h-0.3v-0.9c0-0.3-0.2-0.5-0.4-0.5
			c-0.3,0-0.5,0.2-0.5,0.5v0.8h-0.3v-1.6h0.3v0.2c0.1-0.2,0.3-0.3,0.6-0.3c0.2,0,0.5,0.1,0.6,0.3c0.1-0.2,0.3-0.3,0.6-0.3
			C47,60.8,47.3,61,47.3,61.5z"/>
	</g>
	<g class="st2">
		<path class="st3" d="M49.3,61.7H48c0,0.3,0.3,0.5,0.6,0.5c0.2,0,0.3-0.1,0.5-0.2l0.2,0.2c-0.1,0.2-0.4,0.3-0.6,0.3
			c-0.5,0-0.9-0.3-0.9-0.8c0-0.5,0.3-0.8,0.8-0.8C49,60.8,49.3,61.1,49.3,61.7C49.3,61.6,49.3,61.7,49.3,61.7z M48,61.5h1
			c0-0.3-0.2-0.5-0.5-0.5C48.2,61,48,61.2,48,61.5z"/>
		<path class="st3" d="M51.2,61.5v0.9h-0.3v-0.9c0-0.3-0.2-0.5-0.4-0.5c-0.3,0-0.5,0.2-0.5,0.5v0.8h-0.3v-1.6H50v0.2
			c0.1-0.2,0.3-0.3,0.6-0.3C50.9,60.8,51.2,61,51.2,61.5z"/>
	</g>
	<g class="st2">
		<path class="st3" d="M52.7,62.3c-0.1,0.1-0.2,0.1-0.4,0.1c-0.3,0-0.5-0.2-0.5-0.5v-0.9h-0.3v-0.2h0.3v-0.4h0.3v0.4h0.5v0.2h-0.5
			v0.9c0,0.2,0.1,0.3,0.3,0.3c0.1,0,0.2,0,0.2-0.1L52.7,62.3z"/>
	</g>
	<g class="st2">
		<path class="st3" d="M52.8,61.6c0-0.5,0.4-0.8,0.8-0.8c0.5,0,0.8,0.3,0.8,0.8s-0.4,0.8-0.8,0.8C53.2,62.4,52.8,62.1,52.8,61.6z
			 M54.2,61.6c0-0.3-0.2-0.6-0.5-0.6c-0.3,0-0.5,0.2-0.5,0.6s0.2,0.6,0.5,0.6C54,62.2,54.2,62,54.2,61.6z"/>
	</g>
	<g class="st2">
	</g>
	<g class="st2">
		<path class="st3" d="M58.3,60.2v2.3H58v-0.3c-0.1,0.2-0.3,0.3-0.6,0.3c-0.5,0-0.8-0.3-0.8-0.8s0.3-0.8,0.8-0.8
			c0.2,0,0.4,0.1,0.6,0.3v-0.9H58.3z M58,61.6c0-0.3-0.2-0.6-0.5-0.6c-0.3,0-0.5,0.2-0.5,0.6s0.2,0.6,0.5,0.6
			C57.8,62.2,58,62,58,61.6z"/>
		<path class="st3" d="M58.7,61.6c0-0.5,0.4-0.8,0.8-0.8c0.5,0,0.8,0.3,0.8,0.8s-0.4,0.8-0.8,0.8C59,62.4,58.7,62.1,58.7,61.6z
			 M60.1,61.6c0-0.3-0.2-0.6-0.5-0.6c-0.3,0-0.5,0.2-0.5,0.6s0.2,0.6,0.5,0.6C59.8,62.2,60.1,62,60.1,61.6z"/>
	</g>
	<g class="st2">
	</g>
	<g class="st2">
		<path class="st3" d="M62.5,61.6c0-0.5,0.4-0.8,0.8-0.8c0.3,0,0.5,0.1,0.7,0.3l-0.2,0.1c-0.1-0.2-0.3-0.2-0.4-0.2
			c-0.3,0-0.6,0.2-0.6,0.6c0,0.3,0.2,0.6,0.6,0.6c0.2,0,0.3-0.1,0.4-0.2l0.2,0.1c-0.1,0.2-0.4,0.3-0.7,0.3
			C62.8,62.4,62.5,62.1,62.5,61.6z"/>
	</g>
	<g class="st2">
		<path class="st3" d="M64.2,61.6c0-0.5,0.4-0.8,0.8-0.8s0.8,0.3,0.8,0.8s-0.4,0.8-0.8,0.8S64.2,62.1,64.2,61.6z M65.6,61.6
			c0-0.3-0.2-0.6-0.5-0.6s-0.5,0.2-0.5,0.6s0.2,0.6,0.5,0.6S65.6,62,65.6,61.6z"/>
		<path class="st3" d="M67.8,61.5v0.9h-0.3v-0.9c0-0.3-0.2-0.5-0.4-0.5c-0.3,0-0.5,0.2-0.5,0.5v0.8h-0.3v-1.6h0.3v0.2
			c0.1-0.2,0.3-0.3,0.6-0.3C67.5,60.8,67.8,61,67.8,61.5z"/>
		<path class="st3" d="M69.2,62.3c-0.1,0.1-0.2,0.1-0.4,0.1c-0.3,0-0.5-0.2-0.5-0.5v-0.9h-0.3v-0.2h0.3v-0.4h0.3v0.4h0.5v0.2h-0.5
			v0.9c0,0.2,0.1,0.3,0.3,0.3c0.1,0,0.2,0,0.2-0.1L69.2,62.3z"/>
	</g>
	<g class="st2">
		<path class="st3" d="M70.5,60.8v0.3c0,0,0,0-0.1,0c-0.3,0-0.5,0.2-0.5,0.5v0.8h-0.3v-1.6h0.3v0.3C70,60.9,70.2,60.8,70.5,60.8z"/>
	</g>
	<g class="st2">
		<path class="st3" d="M72.1,61.4v1h-0.3v-0.2c-0.1,0.1-0.3,0.2-0.5,0.2c-0.4,0-0.6-0.2-0.6-0.5c0-0.3,0.2-0.5,0.6-0.5h0.5v-0.1
			c0-0.2-0.1-0.4-0.4-0.4c-0.2,0-0.4,0.1-0.5,0.2L70.7,61c0.2-0.1,0.4-0.2,0.7-0.2C71.8,60.8,72.1,61,72.1,61.4z M71.8,61.9v-0.2
			h-0.4c-0.3,0-0.4,0.1-0.4,0.2c0,0.2,0.1,0.3,0.4,0.3C71.5,62.2,71.7,62.1,71.8,61.9z"/>
	</g>
	<g class="st2">
		<path class="st3" d="M73.5,62.3c-0.1,0.1-0.2,0.1-0.4,0.1c-0.3,0-0.5-0.2-0.5-0.5v-0.9h-0.3v-0.2h0.3v-0.4H73v0.4h0.5v0.2H73v0.9
			c0,0.2,0.1,0.3,0.3,0.3c0.1,0,0.2,0,0.2-0.1L73.5,62.3z"/>
	</g>
	<g class="st2">
		<path class="st3" d="M73.7,61.6c0-0.5,0.4-0.8,0.8-0.8s0.8,0.3,0.8,0.8s-0.4,0.8-0.8,0.8S73.7,62.1,73.7,61.6z M75.1,61.6
			c0-0.3-0.2-0.6-0.5-0.6S74,61.3,74,61.6s0.2,0.6,0.5,0.6S75.1,62,75.1,61.6z"/>
	</g>
	<g class="st2">
		<path class="st3" d="M75.6,62.2c0-0.1,0.1-0.2,0.2-0.2c0.1,0,0.2,0.1,0.2,0.2s-0.1,0.2-0.2,0.2C75.7,62.4,75.6,62.3,75.6,62.2z"/>
	</g>
	<g class="st2">
	</g>
	<g class="st2">
		<path class="st3" d="M79.7,61.9h-1.1l-0.2,0.5H78l1-2.1h0.3l1,2.1h-0.3L79.7,61.9z M79.6,61.6l-0.5-1l-0.5,1H79.6z"/>
		<path class="st3" d="M80.5,60.2h0.3v2.3h-0.3V60.2z"/>
		<path class="st3" d="M82.8,61.7h-1.3c0,0.3,0.3,0.5,0.6,0.5c0.2,0,0.3-0.1,0.5-0.2l0.2,0.2c-0.1,0.2-0.4,0.3-0.6,0.3
			c-0.5,0-0.9-0.3-0.9-0.8c0-0.5,0.3-0.8,0.8-0.8C82.5,60.8,82.8,61.1,82.8,61.7C82.8,61.6,82.8,61.7,82.8,61.7z M81.5,61.5h1
			c0-0.3-0.2-0.5-0.5-0.5C81.7,61,81.5,61.2,81.5,61.5z M82,60.6h-0.3l0.4-0.4h0.4L82,60.6z"/>
		<path class="st3" d="M85.9,61.5v0.9h-0.3v-0.9c0-0.3-0.2-0.5-0.4-0.5c-0.3,0-0.5,0.2-0.5,0.5v0.8h-0.3v-0.9c0-0.3-0.2-0.5-0.4-0.5
			c-0.3,0-0.5,0.2-0.5,0.5v0.8h-0.3v-1.6h0.3v0.2c0.1-0.2,0.3-0.3,0.6-0.3c0.2,0,0.5,0.1,0.6,0.3c0.1-0.2,0.3-0.3,0.6-0.3
			C85.6,60.8,85.9,61,85.9,61.5z"/>
	</g>
	<g class="st2">
		<path class="st3" d="M21,63.8v2.3h-0.3v-0.3c-0.1,0.2-0.3,0.3-0.6,0.3c-0.5,0-0.8-0.3-0.8-0.8s0.3-0.8,0.8-0.8
			c0.2,0,0.4,0.1,0.6,0.3v-0.9H21z M20.8,65.3c0-0.3-0.2-0.6-0.5-0.6c-0.3,0-0.5,0.2-0.5,0.6s0.2,0.6,0.5,0.6
			C20.5,65.8,20.8,65.6,20.8,65.3z"/>
		<path class="st3" d="M21.5,64c0-0.1,0.1-0.2,0.2-0.2s0.2,0.1,0.2,0.2c0,0.1-0.1,0.2-0.2,0.2C21.6,64.2,21.5,64.1,21.5,64z
			 M21.6,64.5h0.3v1.6h-0.3V64.5z"/>
		<path class="st3" d="M22.2,65.9l0.1-0.2c0.1,0.1,0.4,0.2,0.6,0.2c0.3,0,0.4-0.1,0.4-0.2c0-0.4-1,0-1-0.7c0-0.3,0.3-0.5,0.7-0.5
			c0.2,0,0.4,0.1,0.6,0.1l-0.1,0.2c-0.1-0.1-0.3-0.1-0.5-0.1c-0.3,0-0.4,0.1-0.4,0.2c0,0.4,1,0.1,1,0.7c0,0.3-0.3,0.5-0.7,0.5
			C22.6,66.1,22.4,66,22.2,65.9z"/>
		<path class="st3" d="M23.8,65.9l0.1-0.2c0.1,0.1,0.4,0.2,0.6,0.2c0.3,0,0.4-0.1,0.4-0.2c0-0.4-1,0-1-0.7c0-0.3,0.3-0.5,0.7-0.5
			c0.2,0,0.4,0.1,0.6,0.1L25,64.8c-0.1-0.1-0.3-0.1-0.5-0.1c-0.3,0-0.4,0.1-0.4,0.2c0,0.4,1,0.1,1,0.7c0,0.3-0.3,0.5-0.7,0.5
			C24.2,66.1,23.9,66,23.8,65.9z"/>
	</g>
	<g class="st2">
		<path class="st3" d="M25.3,65.3c0-0.5,0.4-0.8,0.8-0.8c0.5,0,0.8,0.3,0.8,0.8s-0.4,0.8-0.8,0.8C25.7,66.1,25.3,65.7,25.3,65.3z
			 M26.7,65.3c0-0.3-0.2-0.6-0.5-0.6c-0.3,0-0.5,0.2-0.5,0.6s0.2,0.6,0.5,0.6C26.5,65.8,26.7,65.6,26.7,65.3z"/>
	</g>
	<g class="st2">
		<path class="st3" d="M27.7,65.9c0,0.1,0,0.1-0.1,0.2l-0.1,0.4h-0.2l0.1-0.5c-0.1,0-0.1-0.1-0.1-0.2c0-0.1,0.1-0.2,0.2-0.2
			S27.7,65.8,27.7,65.9z"/>
	</g>
	<g class="st2">
	</g>
	<g class="st2">
		<path class="st3" d="M30.5,65.4h-1.3c0,0.3,0.3,0.5,0.6,0.5c0.2,0,0.3-0.1,0.5-0.2l0.2,0.2c-0.1,0.2-0.4,0.3-0.6,0.3
			c-0.5,0-0.9-0.3-0.9-0.8c0-0.5,0.3-0.8,0.8-0.8C30.1,64.4,30.5,64.8,30.5,65.4C30.5,65.3,30.5,65.3,30.5,65.4z M29.1,65.2h1
			c0-0.3-0.2-0.5-0.5-0.5C29.4,64.7,29.2,64.9,29.1,65.2z"/>
		<path class="st3" d="M30.9,63.8h0.3v2.3h-0.3V63.8z"/>
		<path class="st3" d="M33.2,65.4h-1.3c0,0.3,0.3,0.5,0.6,0.5c0.2,0,0.3-0.1,0.5-0.2l0.2,0.2c-0.1,0.2-0.4,0.3-0.6,0.3
			c-0.5,0-0.9-0.3-0.9-0.8c0-0.5,0.3-0.8,0.8-0.8C32.8,64.4,33.2,64.8,33.2,65.4C33.2,65.3,33.2,65.3,33.2,65.4z M31.9,65.2h1
			c0-0.3-0.2-0.5-0.5-0.5C32.1,64.7,31.9,64.9,31.9,65.2z"/>
	</g>
	<g class="st2">
		<path class="st3" d="M34.2,63.5h0.3l-1,2.9h-0.3L34.2,63.5z"/>
	</g>
	<g class="st2">
		<path class="st3" d="M35.9,65.4h-1.3c0,0.3,0.3,0.5,0.6,0.5c0.2,0,0.3-0.1,0.5-0.2l0.2,0.2c-0.1,0.2-0.4,0.3-0.6,0.3
			c-0.5,0-0.9-0.3-0.9-0.8c0-0.5,0.3-0.8,0.8-0.8C35.6,64.4,35.9,64.8,35.9,65.4C35.9,65.3,35.9,65.3,35.9,65.4z M34.6,65.2h1
			c0-0.3-0.2-0.5-0.5-0.5C34.8,64.7,34.6,64.9,34.6,65.2z"/>
		<path class="st3" d="M36.3,63.8h0.3v2.3h-0.3V63.8z"/>
		<path class="st3" d="M38.4,65.1v1h-0.3v-0.2c-0.1,0.1-0.3,0.2-0.5,0.2c-0.4,0-0.6-0.2-0.6-0.5c0-0.3,0.2-0.5,0.6-0.5h0.5v-0.1
			c0-0.2-0.1-0.4-0.4-0.4c-0.2,0-0.4,0.1-0.5,0.2l-0.1-0.2c0.2-0.1,0.4-0.2,0.7-0.2C38.2,64.4,38.4,64.7,38.4,65.1z M38.1,65.6v-0.2
			h-0.4c-0.3,0-0.4,0.1-0.4,0.2c0,0.2,0.1,0.3,0.4,0.3C37.9,65.9,38.1,65.8,38.1,65.6z"/>
	</g>
	<g class="st2">
	</g>
	<g class="st2">
		<path class="st3" d="M39.7,65.9l0.1-0.2c0.1,0.1,0.4,0.2,0.6,0.2c0.3,0,0.4-0.1,0.4-0.2c0-0.4-1,0-1-0.7c0-0.3,0.3-0.5,0.7-0.5
			c0.2,0,0.4,0.1,0.6,0.1l-0.1,0.2c-0.1-0.1-0.3-0.1-0.5-0.1c-0.3,0-0.4,0.1-0.4,0.2c0,0.4,1,0.1,1,0.7c0,0.3-0.3,0.5-0.7,0.5
			C40.1,66.1,39.8,66,39.7,65.9z"/>
		<path class="st3" d="M42.9,65.4h-1.3c0,0.3,0.3,0.5,0.6,0.5c0.2,0,0.3-0.1,0.5-0.2l0.2,0.2c-0.1,0.2-0.4,0.3-0.6,0.3
			c-0.5,0-0.9-0.3-0.9-0.8c0-0.5,0.3-0.8,0.8-0.8C42.6,64.4,42.9,64.8,42.9,65.4C42.9,65.3,42.9,65.3,42.9,65.4z M41.6,65.2h1
			c0-0.3-0.2-0.5-0.5-0.5C41.8,64.7,41.6,64.9,41.6,65.2z"/>
	</g>
	<g class="st2">
		<path class="st3" d="M44.2,64.4v0.3c0,0,0,0-0.1,0c-0.3,0-0.5,0.2-0.5,0.5v0.8h-0.3v-1.6h0.3v0.3C43.7,64.5,43.9,64.4,44.2,64.4z"
			/>
	</g>
	<g class="st2">
		<path class="st3" d="M45.8,65.1v1h-0.3v-0.2c-0.1,0.1-0.3,0.2-0.5,0.2c-0.4,0-0.6-0.2-0.6-0.5c0-0.3,0.2-0.5,0.6-0.5h0.5v-0.1
			c0-0.2-0.1-0.4-0.4-0.4c-0.2,0-0.4,0.1-0.5,0.2l-0.1-0.2c0.2-0.1,0.4-0.2,0.7-0.2C45.5,64.4,45.8,64.7,45.8,65.1z M45.5,65.6v-0.2
			H45c-0.3,0-0.4,0.1-0.4,0.2c0,0.2,0.1,0.3,0.4,0.3C45.2,65.9,45.4,65.8,45.5,65.6z M45.2,64.2h-0.3l0.4-0.4h0.4L45.2,64.2z"/>
	</g>
	<g class="st2">
	</g>
	<g class="st2">
		<path class="st3" d="M48.1,64.4v0.3c0,0,0,0-0.1,0c-0.3,0-0.5,0.2-0.5,0.5v0.8h-0.3v-1.6h0.3v0.3C47.6,64.5,47.8,64.4,48.1,64.4z"
			/>
	</g>
	<g class="st2">
		<path class="st3" d="M49.9,65.4h-1.3c0,0.3,0.3,0.5,0.6,0.5c0.2,0,0.3-0.1,0.5-0.2l0.2,0.2c-0.1,0.2-0.4,0.3-0.6,0.3
			c-0.5,0-0.9-0.3-0.9-0.8c0-0.5,0.3-0.8,0.8-0.8C49.6,64.4,49.9,64.8,49.9,65.4C49.9,65.3,49.9,65.3,49.9,65.4z M48.6,65.2h1
			c0-0.3-0.2-0.5-0.5-0.5C48.8,64.7,48.6,64.9,48.6,65.2z"/>
		<path class="st3" d="M50.1,65.9l0.1-0.2c0.1,0.1,0.4,0.2,0.6,0.2c0.3,0,0.4-0.1,0.4-0.2c0-0.4-1,0-1-0.7c0-0.3,0.3-0.5,0.7-0.5
			c0.2,0,0.4,0.1,0.6,0.1l-0.1,0.2c-0.1-0.1-0.3-0.1-0.5-0.1c-0.3,0-0.4,0.1-0.4,0.2c0,0.4,1,0.1,1,0.7c0,0.3-0.3,0.5-0.7,0.5
			C50.5,66.1,50.3,66,50.1,65.9z"/>
		<path class="st3" d="M53.5,65.3c0,0.5-0.3,0.8-0.8,0.8c-0.2,0-0.4-0.1-0.6-0.3v0.8h-0.3v-2.2h0.3v0.3c0.1-0.2,0.3-0.3,0.6-0.3
			C53.2,64.4,53.5,64.8,53.5,65.3z M53.2,65.3c0-0.3-0.2-0.6-0.5-0.6c-0.3,0-0.5,0.2-0.5,0.6c0,0.3,0.2,0.6,0.5,0.6
			C53,65.8,53.2,65.6,53.2,65.3z"/>
		<path class="st3" d="M53.8,65.3c0-0.5,0.4-0.8,0.8-0.8s0.8,0.3,0.8,0.8s-0.4,0.8-0.8,0.8S53.8,65.7,53.8,65.3z M55.2,65.3
			c0-0.3-0.2-0.6-0.5-0.6s-0.5,0.2-0.5,0.6s0.2,0.6,0.5,0.6S55.2,65.6,55.2,65.3z"/>
		<path class="st3" d="M57.4,65.1v0.9h-0.3v-0.9c0-0.3-0.2-0.5-0.4-0.5c-0.3,0-0.5,0.2-0.5,0.5v0.8h-0.3v-1.6h0.3v0.2
			c0.1-0.2,0.3-0.3,0.6-0.3C57.1,64.4,57.4,64.7,57.4,65.1z"/>
		<path class="st3" d="M57.7,65.9l0.1-0.2c0.1,0.1,0.4,0.2,0.6,0.2c0.3,0,0.4-0.1,0.4-0.2c0-0.4-1,0-1-0.7c0-0.3,0.3-0.5,0.7-0.5
			c0.2,0,0.4,0.1,0.6,0.1l-0.1,0.2c-0.1-0.1-0.3-0.1-0.5-0.1c-0.3,0-0.4,0.1-0.4,0.2c0,0.4,1,0.1,1,0.7c0,0.3-0.3,0.5-0.7,0.5
			C58.1,66.1,57.9,66,57.7,65.9z"/>
	</g>
	<g class="st2">
		<path class="st3" d="M60.7,65.1v1h-0.3v-0.2c-0.1,0.1-0.3,0.2-0.5,0.2c-0.4,0-0.6-0.2-0.6-0.5c0-0.3,0.2-0.5,0.6-0.5h0.5v-0.1
			c0-0.2-0.1-0.4-0.4-0.4c-0.2,0-0.4,0.1-0.5,0.2l-0.1-0.2c0.2-0.1,0.4-0.2,0.7-0.2C60.5,64.4,60.7,64.7,60.7,65.1z M60.4,65.6v-0.2
			H60c-0.3,0-0.4,0.1-0.4,0.2c0,0.2,0.1,0.3,0.4,0.3C60.2,65.9,60.4,65.8,60.4,65.6z M60.1,64.2h-0.3l0.4-0.4h0.4L60.1,64.2z"/>
	</g>
	<g class="st2">
		<path class="st3" d="M62.7,64.5L62,66.1h-0.3L61,64.5h0.3l0.6,1.3l0.6-1.3H62.7z"/>
	</g>
	<g class="st2">
		<path class="st3" d="M64.3,65.4H63c0,0.3,0.3,0.5,0.6,0.5c0.2,0,0.3-0.1,0.5-0.2l0.2,0.2c-0.1,0.2-0.4,0.3-0.6,0.3
			c-0.5,0-0.9-0.3-0.9-0.8c0-0.5,0.3-0.8,0.8-0.8C64,64.4,64.3,64.8,64.3,65.4C64.3,65.3,64.3,65.3,64.3,65.4z M63,65.2h1
			c0-0.3-0.2-0.5-0.5-0.5C63.3,64.7,63.1,64.9,63,65.2z"/>
		<path class="st3" d="M64.7,63.8H65v2.3h-0.3V63.8z"/>
	</g>
	<g class="st2">
	</g>
	<g class="st2">
		<path class="st3" d="M68.2,65.3c0,0.5-0.3,0.8-0.8,0.8c-0.2,0-0.4-0.1-0.6-0.3v0.8h-0.3v-2.2h0.3v0.3c0.1-0.2,0.3-0.3,0.6-0.3
			C67.8,64.4,68.2,64.8,68.2,65.3z M67.9,65.3c0-0.3-0.2-0.6-0.5-0.6c-0.3,0-0.5,0.2-0.5,0.6c0,0.3,0.2,0.6,0.5,0.6
			C67.7,65.8,67.9,65.6,67.9,65.3z"/>
		<path class="st3" d="M68.5,65.3c0-0.5,0.4-0.8,0.8-0.8s0.8,0.3,0.8,0.8s-0.4,0.8-0.8,0.8S68.5,65.7,68.5,65.3z M69.8,65.3
			c0-0.3-0.2-0.6-0.5-0.6c-0.3,0-0.5,0.2-0.5,0.6s0.2,0.6,0.5,0.6C69.6,65.8,69.8,65.6,69.8,65.3z"/>
		<path class="st3" d="M71.4,64.4v0.3c0,0,0,0-0.1,0c-0.3,0-0.5,0.2-0.5,0.5v0.8h-0.3v-1.6h0.3v0.3C70.9,64.5,71.1,64.4,71.4,64.4z"
			/>
	</g>
	<g class="st2">
	</g>
	<g class="st2">
		<path class="st3" d="M74.2,65.4h-1.3c0,0.3,0.3,0.5,0.6,0.5c0.2,0,0.3-0.1,0.5-0.2l0.2,0.2c-0.1,0.2-0.4,0.3-0.6,0.3
			c-0.5,0-0.9-0.3-0.9-0.8c0-0.5,0.3-0.8,0.8-0.8C73.8,64.4,74.2,64.8,74.2,65.4C74.2,65.3,74.2,65.3,74.2,65.4z M72.9,65.2h1
			c0-0.3-0.2-0.5-0.5-0.5C73.1,64.7,72.9,64.9,72.9,65.2z"/>
		<path class="st3" d="M74.4,65.9l0.1-0.2c0.1,0.1,0.4,0.2,0.6,0.2c0.3,0,0.4-0.1,0.4-0.2c0-0.4-1,0-1-0.7c0-0.3,0.3-0.5,0.7-0.5
			c0.2,0,0.4,0.1,0.6,0.1l-0.1,0.2c-0.1-0.1-0.3-0.1-0.5-0.1c-0.3,0-0.4,0.1-0.4,0.2c0,0.4,1,0.1,1,0.7c0,0.3-0.3,0.5-0.7,0.5
			C74.8,66.1,74.5,66,74.4,65.9z"/>
	</g>
	<g class="st2">
		<path class="st3" d="M77,66c-0.1,0.1-0.2,0.1-0.4,0.1c-0.3,0-0.5-0.2-0.5-0.5v-0.9h-0.3v-0.2h0.3v-0.4h0.3v0.4h0.5v0.2h-0.5v0.9
			c0,0.2,0.1,0.3,0.3,0.3c0.1,0,0.2,0,0.2-0.1L77,66z"/>
	</g>
	<g class="st2">
		<path class="st3" d="M78.7,65.4h-1.3c0,0.3,0.3,0.5,0.6,0.5c0.2,0,0.3-0.1,0.5-0.2l0.2,0.2c-0.1,0.2-0.4,0.3-0.6,0.3
			c-0.5,0-0.9-0.3-0.9-0.8c0-0.5,0.3-0.8,0.8-0.8S78.8,64.8,78.7,65.4C78.8,65.3,78.7,65.3,78.7,65.4z M77.4,65.2h1
			c0-0.3-0.2-0.5-0.5-0.5C77.7,64.7,77.5,64.9,77.4,65.2z"/>
	</g>
	<g class="st2">
		<path class="st3" d="M80.7,65.1v0.9h-0.3v-0.9c0-0.3-0.2-0.5-0.4-0.5c-0.3,0-0.5,0.2-0.5,0.5v0.8h-0.3v-1.6h0.3v0.2
			c0.1-0.2,0.3-0.3,0.6-0.3C80.4,64.4,80.7,64.7,80.7,65.1z"/>
	</g>
	<g class="st2">
		<path class="st3" d="M82.8,63.8v2.3h-0.3v-0.3c-0.1,0.2-0.3,0.3-0.6,0.3c-0.5,0-0.8-0.3-0.8-0.8s0.3-0.8,0.8-0.8
			c0.2,0,0.4,0.1,0.6,0.3v-0.9H82.8z M82.5,65.3c0-0.3-0.2-0.6-0.5-0.6c-0.3,0-0.5,0.2-0.5,0.6s0.2,0.6,0.5,0.6
			C82.2,65.8,82.5,65.6,82.5,65.3z"/>
		<path class="st3" d="M84.8,65.4h-1.3c0,0.3,0.3,0.5,0.6,0.5c0.2,0,0.3-0.1,0.5-0.2l0.2,0.2c-0.1,0.2-0.4,0.3-0.6,0.3
			c-0.5,0-0.9-0.3-0.9-0.8c0-0.5,0.3-0.8,0.8-0.8S84.8,64.8,84.8,65.4C84.8,65.3,84.8,65.3,84.8,65.4z M83.5,65.2h1
			c0-0.3-0.2-0.5-0.5-0.5C83.7,64.7,83.5,64.9,83.5,65.2z"/>
		<path class="st3" d="M86,64.4v0.3c0,0,0,0-0.1,0c-0.3,0-0.5,0.2-0.5,0.5v0.8h-0.3v-1.6h0.3v0.3C85.6,64.5,85.8,64.4,86,64.4z"/>
	</g>
	<g class="st2">
		<path class="st3" d="M21,69h-1.3c0,0.3,0.3,0.5,0.6,0.5c0.2,0,0.3-0.1,0.5-0.2l0.2,0.2c-0.1,0.2-0.4,0.3-0.6,0.3
			c-0.5,0-0.9-0.3-0.9-0.8c0-0.5,0.3-0.8,0.8-0.8C20.6,68.1,21,68.4,21,69C21,68.9,21,69,21,69z M19.7,68.8h1c0-0.3-0.2-0.5-0.5-0.5
			C19.9,68.3,19.7,68.5,19.7,68.8z"/>
		<path class="st3" d="M21.2,69.5l0.1-0.2c0.1,0.1,0.4,0.2,0.6,0.2c0.3,0,0.4-0.1,0.4-0.2c0-0.4-1,0-1-0.7c0-0.3,0.3-0.5,0.7-0.5
			c0.2,0,0.4,0.1,0.6,0.1l-0.1,0.2c-0.1-0.1-0.3-0.1-0.5-0.1c-0.3,0-0.4,0.1-0.4,0.2c0,0.4,1,0.1,1,0.7c0,0.3-0.3,0.5-0.7,0.5
			C21.6,69.7,21.3,69.6,21.2,69.5z"/>
		<path class="st3" d="M22.7,69.5l0.1-0.2c0.1,0.1,0.4,0.2,0.6,0.2c0.3,0,0.4-0.1,0.4-0.2c0-0.4-1,0-1-0.7c0-0.3,0.3-0.5,0.7-0.5
			c0.2,0,0.4,0.1,0.6,0.1l-0.1,0.2c-0.1-0.1-0.3-0.1-0.5-0.1c-0.3,0-0.4,0.1-0.4,0.2c0,0.4,1,0.1,1,0.7c0,0.3-0.3,0.5-0.7,0.5
			C23.1,69.7,22.8,69.6,22.7,69.5z"/>
		<path class="st3" d="M25.9,69h-1.3c0,0.3,0.3,0.5,0.6,0.5c0.2,0,0.3-0.1,0.5-0.2l0.2,0.2c-0.1,0.2-0.4,0.3-0.6,0.3
			c-0.5,0-0.9-0.3-0.9-0.8c0-0.5,0.3-0.8,0.8-0.8C25.6,68.1,25.9,68.4,25.9,69C25.9,68.9,25.9,69,25.9,69z M24.6,68.8h1
			c0-0.3-0.2-0.5-0.5-0.5C24.8,68.3,24.6,68.5,24.6,68.8z"/>
	</g>
	<g class="st2">
	</g>
	<g class="st2">
		<path class="st3" d="M27.2,69.5l0.1-0.2c0.1,0.1,0.4,0.2,0.6,0.2c0.3,0,0.4-0.1,0.4-0.2c0-0.4-1,0-1-0.7c0-0.3,0.3-0.5,0.7-0.5
			c0.2,0,0.4,0.1,0.6,0.1l-0.1,0.2c-0.1-0.1-0.3-0.1-0.5-0.1c-0.3,0-0.4,0.1-0.4,0.2c0,0.4,1,0.1,1,0.7c0,0.3-0.3,0.5-0.7,0.5
			C27.6,69.7,27.3,69.6,27.2,69.5z"/>
		<path class="st3" d="M30.4,68.1v1.6h-0.3v-0.2c-0.1,0.2-0.3,0.3-0.5,0.3c-0.4,0-0.7-0.2-0.7-0.7v-0.9h0.3V69
			c0,0.3,0.2,0.5,0.4,0.5c0.3,0,0.5-0.2,0.5-0.5v-0.8H30.4z"/>
		<path class="st3" d="M32.6,68.9c0,0.5-0.3,0.8-0.8,0.8c-0.2,0-0.4-0.1-0.6-0.3v0.8H31v-2.2h0.3v0.3c0.1-0.2,0.3-0.3,0.6-0.3
			C32.3,68.1,32.6,68.4,32.6,68.9z M32.4,68.9c0-0.3-0.2-0.6-0.5-0.6c-0.3,0-0.5,0.2-0.5,0.6c0,0.3,0.2,0.6,0.5,0.6
			C32.1,69.5,32.4,69.2,32.4,68.9z"/>
		<path class="st3" d="M32.9,68.9c0-0.5,0.4-0.8,0.8-0.8c0.5,0,0.8,0.3,0.8,0.8s-0.4,0.8-0.8,0.8C33.3,69.7,32.9,69.4,32.9,68.9z
			 M34.3,68.9c0-0.3-0.2-0.6-0.5-0.6c-0.3,0-0.5,0.2-0.5,0.6s0.2,0.6,0.5,0.6C34,69.5,34.3,69.2,34.3,68.9z"/>
	</g>
	<g class="st2">
		<path class="st3" d="M35.8,68.1v0.3c0,0,0,0-0.1,0c-0.3,0-0.5,0.2-0.5,0.5v0.8H35v-1.6h0.3v0.3C35.4,68.2,35.6,68.1,35.8,68.1z"/>
	</g>
	<g class="st2">
		<path class="st3" d="M37.2,69.6c-0.1,0.1-0.2,0.1-0.4,0.1c-0.3,0-0.5-0.2-0.5-0.5v-0.9H36v-0.2h0.3v-0.4h0.3v0.4h0.5v0.2h-0.5v0.9
			c0,0.2,0.1,0.3,0.3,0.3c0.1,0,0.2,0,0.2-0.1L37.2,69.6z"/>
	</g>
	<g class="st2">
		<path class="st3" d="M38.9,69h-1.3c0,0.3,0.3,0.5,0.6,0.5c0.2,0,0.3-0.1,0.5-0.2l0.2,0.2c-0.1,0.2-0.4,0.3-0.6,0.3
			c-0.5,0-0.9-0.3-0.9-0.8c0-0.5,0.3-0.8,0.8-0.8C38.6,68.1,38.9,68.4,38.9,69C38.9,68.9,38.9,69,38.9,69z M37.6,68.8h1
			c0-0.3-0.2-0.5-0.5-0.5C37.8,68.3,37.6,68.5,37.6,68.8z"/>
	</g>
	<g class="st2">
	</g>
	<g class="st2">
		<path class="st3" d="M42,67.5v2.3h-0.3v-0.3c-0.1,0.2-0.3,0.3-0.6,0.3c-0.5,0-0.8-0.3-0.8-0.8s0.3-0.8,0.8-0.8
			c0.2,0,0.4,0.1,0.6,0.3v-0.9H42z M41.7,68.9c0-0.3-0.2-0.6-0.5-0.6c-0.3,0-0.5,0.2-0.5,0.6s0.2,0.6,0.5,0.6
			C41.4,69.5,41.7,69.2,41.7,68.9z"/>
		<path class="st3" d="M44,68.1v1.6h-0.3v-0.2c-0.1,0.2-0.3,0.3-0.5,0.3c-0.4,0-0.7-0.2-0.7-0.7v-0.9h0.3V69c0,0.3,0.2,0.5,0.4,0.5
			c0.3,0,0.5-0.2,0.5-0.5v-0.8H44z"/>
	</g>
	<g class="st2">
		<path class="st3" d="M45.4,68.1v0.3c0,0,0,0-0.1,0c-0.3,0-0.5,0.2-0.5,0.5v0.8h-0.3v-1.6h0.3v0.3C44.9,68.2,45.1,68.1,45.4,68.1z"
			/>
	</g>
	<g class="st2">
		<path class="st3" d="M47.1,68.7v1h-0.3v-0.2c-0.1,0.1-0.3,0.2-0.5,0.2c-0.4,0-0.6-0.2-0.6-0.5c0-0.3,0.2-0.5,0.6-0.5h0.5v-0.1
			c0-0.2-0.1-0.4-0.4-0.4c-0.2,0-0.4,0.1-0.5,0.2l-0.1-0.2c0.2-0.1,0.4-0.2,0.7-0.2C46.8,68.1,47.1,68.3,47.1,68.7z M46.8,69.2V69
			h-0.5C46,69,46,69.1,46,69.2c0,0.2,0.1,0.3,0.4,0.3C46.5,69.5,46.7,69.4,46.8,69.2z"/>
		<path class="st3" d="M49.1,68.8v0.9h-0.3v-0.9c0-0.3-0.2-0.5-0.4-0.5c-0.3,0-0.5,0.2-0.5,0.5v0.8h-0.3v-1.6h0.3v0.2
			c0.1-0.2,0.3-0.3,0.6-0.3C48.9,68.1,49.1,68.3,49.1,68.8z"/>
	</g>
	<g class="st2">
		<path class="st3" d="M50.6,69.6c-0.1,0.1-0.2,0.1-0.4,0.1c-0.3,0-0.5-0.2-0.5-0.5v-0.9h-0.3v-0.2h0.3v-0.4H50v0.4h0.5v0.2H50v0.9
			c0,0.2,0.1,0.3,0.3,0.3c0.1,0,0.2,0,0.2-0.1L50.6,69.6z"/>
	</g>
	<g class="st2">
		<path class="st3" d="M52.3,69H51c0,0.3,0.3,0.5,0.6,0.5c0.2,0,0.3-0.1,0.5-0.2l0.2,0.2c-0.1,0.2-0.4,0.3-0.6,0.3
			c-0.5,0-0.9-0.3-0.9-0.8c0-0.5,0.3-0.8,0.8-0.8C52,68.1,52.3,68.4,52.3,69C52.3,68.9,52.3,69,52.3,69z M51,68.8h1
			c0-0.3-0.2-0.5-0.5-0.5C51.3,68.3,51,68.5,51,68.8z"/>
	</g>
	<g class="st2">
	</g>
	<g class="st2">
		<path class="st3" d="M55.1,68.7v1h-0.3v-0.2c-0.1,0.1-0.3,0.2-0.5,0.2c-0.4,0-0.6-0.2-0.6-0.5c0-0.3,0.2-0.5,0.6-0.5h0.5v-0.1
			c0-0.2-0.1-0.4-0.4-0.4c-0.2,0-0.4,0.1-0.5,0.2l-0.1-0.2c0.2-0.1,0.4-0.2,0.7-0.2C54.9,68.1,55.1,68.3,55.1,68.7z M54.8,69.2V69
			h-0.5c-0.3,0-0.4,0.1-0.4,0.2c0,0.2,0.1,0.3,0.4,0.3C54.6,69.5,54.7,69.4,54.8,69.2z"/>
	</g>
	<g class="st2">
	</g>
	<g class="st2">
		<path class="st3" d="M57.1,68v0.1h0.5v0.2h-0.5v1.4h-0.3v-1.4h-0.3v-0.2h0.3V68c0-0.3,0.2-0.5,0.5-0.5c0.1,0,0.2,0,0.3,0.1
			l-0.1,0.2c-0.1,0-0.1-0.1-0.2-0.1C57.2,67.7,57.1,67.8,57.1,68z"/>
	</g>
	<g class="st2">
		<path class="st3" d="M59.1,68.7v1h-0.3v-0.2c-0.1,0.1-0.3,0.2-0.5,0.2c-0.4,0-0.6-0.2-0.6-0.5c0-0.3,0.2-0.5,0.6-0.5h0.5v-0.1
			c0-0.2-0.1-0.4-0.4-0.4c-0.2,0-0.4,0.1-0.5,0.2l-0.1-0.2c0.2-0.1,0.4-0.2,0.7-0.2C58.8,68.1,59.1,68.3,59.1,68.7z M58.8,69.2V69
			h-0.5C58,69,58,69.1,58,69.2c0,0.2,0.1,0.3,0.4,0.3C58.5,69.5,58.7,69.4,58.8,69.2z"/>
		<path class="st3" d="M59.4,69.5l0.1-0.2c0.1,0.1,0.4,0.2,0.6,0.2c0.3,0,0.4-0.1,0.4-0.2c0-0.4-1,0-1-0.7c0-0.3,0.3-0.5,0.7-0.5
			c0.2,0,0.4,0.1,0.6,0.1l-0.1,0.2c-0.1-0.1-0.3-0.1-0.5-0.1c-0.3,0-0.4,0.1-0.4,0.2c0,0.4,1,0.1,1,0.7c0,0.3-0.3,0.5-0.7,0.5
			C59.8,69.7,59.5,69.6,59.4,69.5z"/>
		<path class="st3" d="M62.6,69h-1.3c0,0.3,0.3,0.5,0.6,0.5c0.2,0,0.3-0.1,0.5-0.2l0.2,0.2c-0.1,0.2-0.4,0.3-0.6,0.3
			c-0.5,0-0.9-0.3-0.9-0.8c0-0.5,0.3-0.8,0.8-0.8C62.3,68.1,62.6,68.4,62.6,69C62.6,68.9,62.6,69,62.6,69z M61.3,68.8h1
			c0-0.3-0.2-0.5-0.5-0.5C61.5,68.3,61.3,68.5,61.3,68.8z"/>
	</g>
	<g class="st2">
	</g>
	<g class="st2">
		<path class="st3" d="M65.6,67.5v2.3h-0.3v-0.3c-0.1,0.2-0.3,0.3-0.6,0.3c-0.5,0-0.8-0.3-0.8-0.8s0.3-0.8,0.8-0.8
			c0.2,0,0.4,0.1,0.6,0.3v-0.9H65.6z M65.3,68.9c0-0.3-0.2-0.6-0.5-0.6c-0.3,0-0.5,0.2-0.5,0.6s0.2,0.6,0.5,0.6
			C65.1,69.5,65.3,69.2,65.3,68.9z"/>
		<path class="st3" d="M67.6,69h-1.3c0,0.3,0.3,0.5,0.6,0.5c0.2,0,0.3-0.1,0.5-0.2l0.2,0.2c-0.1,0.2-0.4,0.3-0.6,0.3
			c-0.5,0-0.9-0.3-0.9-0.8c0-0.5,0.3-0.8,0.8-0.8C67.3,68.1,67.6,68.4,67.6,69C67.6,68.9,67.6,69,67.6,69z M66.3,68.8h1
			c0-0.3-0.2-0.5-0.5-0.5C66.5,68.3,66.3,68.5,66.3,68.8z"/>
	</g>
	<g class="st2">
	</g>
	<g class="st2">
		<path class="st3" d="M69,68.9c0-0.5,0.4-0.8,0.8-0.8c0.3,0,0.5,0.1,0.7,0.3l-0.2,0.1c-0.1-0.2-0.3-0.2-0.4-0.2
			c-0.3,0-0.6,0.2-0.6,0.6c0,0.3,0.2,0.6,0.6,0.6c0.2,0,0.3-0.1,0.4-0.2l0.2,0.1c-0.1,0.2-0.4,0.3-0.7,0.3
			C69.3,69.7,69,69.4,69,68.9z"/>
	</g>
	<g class="st2">
		<path class="st3" d="M70.7,68.9c0-0.5,0.4-0.8,0.8-0.8c0.5,0,0.8,0.3,0.8,0.8s-0.4,0.8-0.8,0.8C71.1,69.7,70.7,69.4,70.7,68.9z
			 M72.1,68.9c0-0.3-0.2-0.6-0.5-0.6c-0.3,0-0.5,0.2-0.5,0.6s0.2,0.6,0.5,0.6C71.8,69.5,72.1,69.2,72.1,68.9z"/>
		<path class="st3" d="M74.3,68.8v0.9H74v-0.9c0-0.3-0.2-0.5-0.4-0.5c-0.3,0-0.5,0.2-0.5,0.5v0.8h-0.3v-1.6h0.3v0.2
			c0.1-0.2,0.3-0.3,0.6-0.3C74,68.1,74.3,68.3,74.3,68.8z"/>
		<path class="st3" d="M74.6,69.5l0.1-0.2c0.1,0.1,0.4,0.2,0.6,0.2c0.3,0,0.4-0.1,0.4-0.2c0-0.4-1,0-1-0.7c0-0.3,0.3-0.5,0.7-0.5
			c0.2,0,0.4,0.1,0.6,0.1l-0.1,0.2c-0.1-0.1-0.3-0.1-0.5-0.1c-0.3,0-0.4,0.1-0.4,0.2c0,0.4,1,0.1,1,0.7c0,0.3-0.3,0.5-0.7,0.5
			C75,69.7,74.8,69.6,74.6,69.5z"/>
		<path class="st3" d="M77.3,69.6c-0.1,0.1-0.2,0.1-0.4,0.1c-0.3,0-0.5-0.2-0.5-0.5v-0.9h-0.3v-0.2h0.3v-0.4h0.3v0.4h0.5v0.2h-0.5
			v0.9c0,0.2,0.1,0.3,0.3,0.3c0.1,0,0.2,0,0.2-0.1L77.3,69.6z"/>
		<path class="st3" d="M78.5,68.1v0.3c0,0,0,0-0.1,0c-0.3,0-0.5,0.2-0.5,0.5v0.8h-0.3v-1.6h0.3v0.3C78,68.2,78.2,68.1,78.5,68.1z"/>
		<path class="st3" d="M80.4,68.1v1.6h-0.3v-0.2c-0.1,0.2-0.3,0.3-0.5,0.3c-0.4,0-0.7-0.2-0.7-0.7v-0.9h0.3V69
			c0,0.3,0.2,0.5,0.4,0.5c0.3,0,0.5-0.2,0.5-0.5v-0.8H80.4z"/>
		<path class="st3" d="M82.1,69.2l0.2,0.1c-0.1,0.2-0.4,0.3-0.6,0.3l0,0.1c0.2,0,0.3,0.1,0.3,0.3c0,0.2-0.1,0.3-0.4,0.3
			c-0.1,0-0.2,0-0.3-0.1l0.1-0.1c0.1,0,0.1,0.1,0.2,0.1c0.1,0,0.2,0,0.2-0.1c0-0.1-0.1-0.1-0.2-0.1h-0.1l0.1-0.3
			c-0.4-0.1-0.7-0.4-0.7-0.8c0-0.5,0.4-0.8,0.8-0.8c0.3,0,0.5,0.1,0.7,0.3l-0.2,0.1c-0.1-0.2-0.3-0.2-0.4-0.2
			c-0.3,0-0.6,0.2-0.6,0.6c0,0.3,0.2,0.6,0.6,0.6C81.8,69.5,82,69.4,82.1,69.2z"/>
	</g>
	<g class="st2">
		<path class="st3" d="M83.9,68.7v1h-0.3v-0.2c-0.1,0.1-0.3,0.2-0.5,0.2c-0.4,0-0.6-0.2-0.6-0.5c0-0.3,0.2-0.5,0.6-0.5h0.5v-0.1
			c0-0.2-0.1-0.4-0.4-0.4c-0.2,0-0.4,0.1-0.5,0.2l-0.1-0.2c0.2-0.1,0.4-0.2,0.7-0.2C83.7,68.1,83.9,68.3,83.9,68.7z M82.9,67.8h-0.2
			c0-0.2,0.1-0.4,0.3-0.4c0.2,0,0.3,0.2,0.4,0.2c0.1,0,0.1-0.1,0.2-0.2h0.2c0,0.2-0.1,0.4-0.3,0.4c-0.2,0-0.3-0.2-0.4-0.2
			C83,67.7,82.9,67.7,82.9,67.8z M83.6,69.2V69h-0.5c-0.3,0-0.4,0.1-0.4,0.2c0,0.2,0.1,0.3,0.4,0.3C83.4,69.5,83.6,69.4,83.6,69.2z"
			/>
	</g>
	<g class="st2">
		<path class="st3" d="M84.3,68.9c0-0.5,0.4-0.8,0.8-0.8s0.8,0.3,0.8,0.8s-0.4,0.8-0.8,0.8S84.3,69.4,84.3,68.9z M85.7,68.9
			c0-0.3-0.2-0.6-0.5-0.6s-0.5,0.2-0.5,0.6s0.2,0.6,0.5,0.6S85.7,69.2,85.7,68.9z"/>
	</g>
	<g class="st2">
		<path class="st3" d="M21.2,72.6c0,0.5-0.3,0.8-0.8,0.8c-0.2,0-0.4-0.1-0.6-0.3v0.8h-0.3v-2.2h0.3V72c0.1-0.2,0.3-0.3,0.6-0.3
			C20.9,71.7,21.2,72.1,21.2,72.6z M20.9,72.6c0-0.3-0.2-0.6-0.5-0.6c-0.3,0-0.5,0.2-0.5,0.6c0,0.3,0.2,0.6,0.5,0.6
			C20.7,73.1,20.9,72.9,20.9,72.6z"/>
	</g>
	<g class="st2">
		<path class="st3" d="M22.9,72.4v1h-0.3v-0.2c-0.1,0.1-0.3,0.2-0.5,0.2c-0.4,0-0.6-0.2-0.6-0.5c0-0.3,0.2-0.5,0.6-0.5h0.5v-0.1
			c0-0.2-0.1-0.4-0.4-0.4c-0.2,0-0.4,0.1-0.5,0.2l-0.1-0.2c0.2-0.1,0.4-0.2,0.7-0.2C22.6,71.7,22.9,71.9,22.9,72.4z M22.6,72.9v-0.2
			h-0.4c-0.3,0-0.4,0.1-0.4,0.2c0,0.2,0.1,0.3,0.4,0.3C22.3,73.2,22.5,73.1,22.6,72.9z"/>
	</g>
	<g class="st2">
		<path class="st3" d="M24.3,71.7V72c0,0,0,0-0.1,0c-0.3,0-0.5,0.2-0.5,0.5v0.8h-0.3v-1.6h0.3V72C23.8,71.8,24,71.7,24.3,71.7z"/>
	</g>
	<g class="st2">
		<path class="st3" d="M25.9,72.4v1h-0.3v-0.2c-0.1,0.1-0.3,0.2-0.5,0.2c-0.4,0-0.6-0.2-0.6-0.5c0-0.3,0.2-0.5,0.6-0.5h0.5v-0.1
			c0-0.2-0.1-0.4-0.4-0.4c-0.2,0-0.4,0.1-0.5,0.2l-0.1-0.2c0.2-0.1,0.4-0.2,0.7-0.2C25.7,71.7,25.9,71.9,25.9,72.4z M25.6,72.9v-0.2
			h-0.4c-0.3,0-0.4,0.1-0.4,0.2c0,0.2,0.1,0.3,0.4,0.3C25.4,73.2,25.5,73.1,25.6,72.9z"/>
	</g>
	<g class="st2">
	</g>
	<g class="st2">
		<path class="st3" d="M30.2,72.4v1h-0.3v-0.2c-0.1,0.1-0.3,0.2-0.5,0.2c-0.4,0-0.6-0.2-0.6-0.5c0-0.3,0.2-0.5,0.6-0.5h0.5v-0.1
			c0-0.2-0.1-0.4-0.4-0.4c-0.2,0-0.4,0.1-0.5,0.2l-0.1-0.2c0.2-0.1,0.4-0.2,0.7-0.2C30,71.7,30.2,71.9,30.2,72.4z M29.9,72.9v-0.2
			h-0.4c-0.3,0-0.4,0.1-0.4,0.2c0,0.2,0.1,0.3,0.4,0.3C29.7,73.2,29.9,73.1,29.9,72.9z"/>
		<path class="st3" d="M30.6,73.2l0.1-0.2c0.1,0.1,0.4,0.2,0.6,0.2c0.3,0,0.4-0.1,0.4-0.2c0-0.4-1,0-1-0.7c0-0.3,0.3-0.5,0.7-0.5
			c0.2,0,0.4,0.1,0.6,0.1l-0.1,0.2C31.6,72,31.4,72,31.3,72c-0.3,0-0.4,0.1-0.4,0.2c0,0.4,1,0.1,1,0.7c0,0.3-0.3,0.5-0.7,0.5
			C31,73.4,30.7,73.3,30.6,73.2z"/>
		<path class="st3" d="M32.1,73.2l0.1-0.2c0.1,0.1,0.4,0.2,0.6,0.2c0.3,0,0.4-0.1,0.4-0.2c0-0.4-1,0-1-0.7c0-0.3,0.3-0.5,0.7-0.5
			c0.2,0,0.4,0.1,0.6,0.1l-0.1,0.2C33.1,72,33,72,32.8,72c-0.3,0-0.4,0.1-0.4,0.2c0,0.4,1,0.1,1,0.7c0,0.3-0.3,0.5-0.7,0.5
			C32.5,73.4,32.2,73.3,32.1,73.2z"/>
		<path class="st3" d="M35.3,71.8v1.6H35v-0.2c-0.1,0.2-0.3,0.3-0.5,0.3c-0.4,0-0.7-0.2-0.7-0.7v-0.9h0.3v0.9c0,0.3,0.2,0.5,0.4,0.5
			c0.3,0,0.5-0.2,0.5-0.5v-0.8H35.3z"/>
		<path class="st3" d="M37.4,72.4v0.9h-0.3v-0.9c0-0.3-0.2-0.5-0.4-0.5c-0.3,0-0.5,0.2-0.5,0.5v0.8h-0.3v-1.6h0.3V72
			c0.1-0.2,0.3-0.3,0.6-0.3C37.1,71.7,37.4,72,37.4,72.4z"/>
	</g>
	<g class="st2">
		<path class="st3" d="M38.8,73.3c-0.1,0.1-0.2,0.1-0.4,0.1c-0.3,0-0.5-0.2-0.5-0.5V72h-0.3v-0.2H38v-0.4h0.3v0.4h0.5V72h-0.5v0.9
			c0,0.2,0.1,0.3,0.3,0.3c0.1,0,0.2,0,0.2-0.1L38.8,73.3z"/>
	</g>
	<g class="st2">
		<path class="st3" d="M39,72.6c0-0.5,0.4-0.8,0.8-0.8c0.5,0,0.8,0.3,0.8,0.8s-0.4,0.8-0.8,0.8C39.3,73.4,39,73,39,72.6z M40.4,72.6
			c0-0.3-0.2-0.6-0.5-0.6c-0.3,0-0.5,0.2-0.5,0.6s0.2,0.6,0.5,0.6C40.1,73.1,40.4,72.9,40.4,72.6z"/>
		<path class="st3" d="M40.9,73.2L41,73c0.1,0.1,0.4,0.2,0.6,0.2c0.3,0,0.4-0.1,0.4-0.2c0-0.4-1,0-1-0.7c0-0.3,0.3-0.5,0.7-0.5
			c0.2,0,0.4,0.1,0.6,0.1L42,72.1C41.9,72,41.7,72,41.6,72c-0.3,0-0.4,0.1-0.4,0.2c0,0.4,1,0.1,1,0.7c0,0.3-0.3,0.5-0.7,0.5
			C41.3,73.4,41,73.3,40.9,73.2z"/>
	</g>
	<g class="st2">
	</g>
	<g class="st2">
		<path class="st3" d="M46.6,71.1v2.3h-0.3v-0.3c-0.1,0.2-0.3,0.3-0.6,0.3c-0.5,0-0.8-0.3-0.8-0.8s0.3-0.8,0.8-0.8
			c0.2,0,0.4,0.1,0.6,0.3v-0.9H46.6z M46.3,72.6c0-0.3-0.2-0.6-0.5-0.6c-0.3,0-0.5,0.2-0.5,0.6s0.2,0.6,0.5,0.6
			C46.1,73.1,46.3,72.9,46.3,72.6z"/>
		<path class="st3" d="M48.6,72.7h-1.3c0,0.3,0.3,0.5,0.6,0.5c0.2,0,0.3-0.1,0.5-0.2l0.2,0.2c-0.1,0.2-0.4,0.3-0.6,0.3
			c-0.5,0-0.9-0.3-0.9-0.8c0-0.5,0.3-0.8,0.8-0.8C48.3,71.7,48.6,72.1,48.6,72.7C48.6,72.6,48.6,72.6,48.6,72.7z M47.3,72.4h1
			c0-0.3-0.2-0.5-0.5-0.5C47.5,72,47.3,72.2,47.3,72.4z"/>
	</g>
	<g class="st2">
	</g>
	<g class="st2">
		<path class="st3" d="M53.4,72.8c0,0.4-0.3,0.6-0.8,0.6h-1v-2.1h1c0.5,0,0.8,0.2,0.8,0.5c0,0.2-0.1,0.4-0.3,0.5
			C53.2,72.3,53.4,72.5,53.4,72.8z M51.9,71.5v0.7h0.6c0.3,0,0.5-0.1,0.5-0.3c0-0.2-0.2-0.3-0.5-0.3H51.9z M53.1,72.8
			c0-0.2-0.2-0.4-0.5-0.4h-0.7v0.7h0.7C52.9,73.1,53.1,73,53.1,72.8z"/>
		<path class="st3" d="M53.7,72.6c0-0.5,0.4-0.8,0.8-0.8c0.5,0,0.8,0.3,0.8,0.8s-0.4,0.8-0.8,0.8C54,73.4,53.7,73,53.7,72.6z
			 M55.1,72.6c0-0.3-0.2-0.6-0.5-0.6c-0.3,0-0.5,0.2-0.5,0.6s0.2,0.6,0.5,0.6C54.8,73.1,55.1,72.9,55.1,72.6z"/>
		<path class="st3" d="M57.5,72c0,0.5-0.3,0.7-0.9,0.7h-0.5v0.6h-0.3v-2.1h0.8C57.2,71.2,57.5,71.5,57.5,72z M57.2,72
			c0-0.3-0.2-0.5-0.6-0.5h-0.5v1h0.5C57,72.5,57.2,72.3,57.2,72z"/>
	</g>
	<g class="st2">
	</g>
	<g class="st2">
		<path class="st3" d="M61.3,71.7V72c0,0,0,0-0.1,0c-0.3,0-0.5,0.2-0.5,0.5v0.8h-0.3v-1.6h0.3V72C60.9,71.8,61.1,71.7,61.3,71.7z"/>
	</g>
	<g class="st2">
		<path class="st3" d="M63.1,72.7h-1.3c0,0.3,0.3,0.5,0.6,0.5c0.2,0,0.3-0.1,0.5-0.2l0.2,0.2c-0.1,0.2-0.4,0.3-0.6,0.3
			c-0.5,0-0.9-0.3-0.9-0.8c0-0.5,0.3-0.8,0.8-0.8C62.8,71.7,63.1,72.1,63.1,72.7C63.1,72.6,63.1,72.6,63.1,72.7z M61.8,72.4h1
			c0-0.3-0.2-0.5-0.5-0.5C62.1,72,61.9,72.2,61.8,72.4z"/>
		<path class="st3" d="M63.5,71.1h0.3v2.3h-0.3V71.1z"/>
	</g>
	<g class="st2">
		<path class="st3" d="M65.7,72.4v1h-0.3v-0.2c-0.1,0.1-0.3,0.2-0.5,0.2c-0.4,0-0.6-0.2-0.6-0.5c0-0.3,0.2-0.5,0.6-0.5h0.5v-0.1
			c0-0.2-0.1-0.4-0.4-0.4c-0.2,0-0.4,0.1-0.5,0.2l-0.1-0.2c0.2-0.1,0.4-0.2,0.7-0.2C65.4,71.7,65.7,71.9,65.7,72.4z M65.4,72.9v-0.2
			h-0.4c-0.3,0-0.4,0.1-0.4,0.2c0,0.2,0.1,0.3,0.4,0.3C65.1,73.2,65.3,73.1,65.4,72.9z"/>
	</g>
	<g class="st2">
		<path class="st3" d="M66.1,72.6c0-0.5,0.4-0.8,0.9-0.8c0.3,0,0.5,0.1,0.7,0.3l-0.2,0.1c-0.1-0.2-0.3-0.2-0.4-0.2
			c-0.3,0-0.6,0.2-0.6,0.6c0,0.3,0.2,0.6,0.6,0.6c0.2,0,0.3-0.1,0.4-0.2l0.2,0.1c-0.1,0.2-0.4,0.3-0.7,0.3
			C66.4,73.4,66.1,73,66.1,72.6z"/>
		<path class="st3" d="M67.9,71.3c0-0.1,0.1-0.2,0.2-0.2c0.1,0,0.2,0.1,0.2,0.2c0,0.1-0.1,0.2-0.2,0.2C68,71.4,67.9,71.4,67.9,71.3z
			 M68,71.8h0.3v1.6H68V71.8z"/>
		<path class="st3" d="M68.7,72.6c0-0.5,0.4-0.8,0.8-0.8c0.5,0,0.8,0.3,0.8,0.8s-0.4,0.8-0.8,0.8C69,73.4,68.7,73,68.7,72.6z
			 M70,72.6c0-0.3-0.2-0.6-0.5-0.6c-0.3,0-0.5,0.2-0.5,0.6s0.2,0.6,0.5,0.6C69.8,73.1,70,72.9,70,72.6z"/>
		<path class="st3" d="M72.3,72.4v0.9H72v-0.9c0-0.3-0.2-0.5-0.4-0.5c-0.3,0-0.5,0.2-0.5,0.5v0.8h-0.3v-1.6H71V72
			c0.1-0.2,0.3-0.3,0.6-0.3C72,71.7,72.3,72,72.3,72.4z"/>
	</g>
	<g class="st2">
		<path class="st3" d="M74.1,72.4v1h-0.3v-0.2c-0.1,0.1-0.3,0.2-0.5,0.2c-0.4,0-0.6-0.2-0.6-0.5c0-0.3,0.2-0.5,0.6-0.5h0.5v-0.1
			c0-0.2-0.1-0.4-0.4-0.4c-0.2,0-0.4,0.1-0.5,0.2l-0.1-0.2c0.2-0.1,0.4-0.2,0.7-0.2C73.8,71.7,74.1,71.9,74.1,72.4z M73.8,72.9v-0.2
			h-0.5c-0.3,0-0.4,0.1-0.4,0.2c0,0.2,0.1,0.3,0.4,0.3C73.5,73.2,73.7,73.1,73.8,72.9z"/>
	</g>
	<g class="st2">
		<path class="st3" d="M76.1,71.1v2.3h-0.3v-0.3c-0.1,0.2-0.3,0.3-0.6,0.3c-0.5,0-0.8-0.3-0.8-0.8s0.3-0.8,0.8-0.8
			c0.2,0,0.4,0.1,0.6,0.3v-0.9H76.1z M75.9,72.6c0-0.3-0.2-0.6-0.5-0.6c-0.3,0-0.5,0.2-0.5,0.6s0.2,0.6,0.5,0.6
			C75.6,73.1,75.9,72.9,75.9,72.6z"/>
		<path class="st3" d="M76.6,72.6c0-0.5,0.4-0.8,0.8-0.8s0.8,0.3,0.8,0.8s-0.4,0.8-0.8,0.8S76.6,73,76.6,72.6z M77.9,72.6
			c0-0.3-0.2-0.6-0.5-0.6s-0.5,0.2-0.5,0.6s0.2,0.6,0.5,0.6S77.9,72.9,77.9,72.6z"/>
		<path class="st3" d="M78.4,73.2l0.1-0.2c0.1,0.1,0.4,0.2,0.6,0.2c0.3,0,0.4-0.1,0.4-0.2c0-0.4-1,0-1-0.7c0-0.3,0.3-0.5,0.7-0.5
			c0.2,0,0.4,0.1,0.6,0.1l-0.1,0.2C79.5,72,79.3,72,79.1,72c-0.3,0-0.4,0.1-0.4,0.2c0,0.4,1,0.1,1,0.7c0,0.3-0.3,0.5-0.7,0.5
			C78.8,73.4,78.6,73.3,78.4,73.2z"/>
	</g>
	<g class="st2">
	</g>
	<g class="st2">
		<path class="st3" d="M83.9,72.4v1h-0.3v-0.2c-0.1,0.1-0.3,0.2-0.5,0.2c-0.4,0-0.6-0.2-0.6-0.5c0-0.3,0.2-0.5,0.6-0.5h0.5v-0.1
			c0-0.2-0.1-0.4-0.4-0.4c-0.2,0-0.4,0.1-0.5,0.2l-0.1-0.2c0.2-0.1,0.4-0.2,0.7-0.2C83.7,71.7,83.9,71.9,83.9,72.4z M83.6,72.9v-0.2
			h-0.5c-0.3,0-0.4,0.1-0.4,0.2c0,0.2,0.1,0.3,0.4,0.3C83.4,73.2,83.6,73.1,83.6,72.9z"/>
	</g>
	<g class="st2">
		<path class="st3" d="M84.3,72.6c0-0.5,0.4-0.8,0.8-0.8s0.8,0.3,0.8,0.8s-0.4,0.8-0.8,0.8S84.3,73,84.3,72.6z M85.7,72.6
			c0-0.3-0.2-0.6-0.5-0.6s-0.5,0.2-0.5,0.6s0.2,0.6,0.5,0.6S85.7,72.9,85.7,72.6z"/>
	</g>
	<g class="st2">
		<path class="st3" d="M20.4,76.9C20.3,77,20.2,77,20.1,77c-0.3,0-0.5-0.2-0.5-0.5v-0.9h-0.3v-0.2h0.3V75h0.3v0.4h0.5v0.2h-0.5v0.9
			c0,0.2,0.1,0.3,0.3,0.3c0.1,0,0.2,0,0.2-0.1L20.4,76.9z"/>
	</g>
	<g class="st2">
		<path class="st3" d="M21.7,75.4v0.3c0,0,0,0-0.1,0c-0.3,0-0.5,0.2-0.5,0.5V77h-0.3v-1.6h0.3v0.3C21.2,75.5,21.4,75.4,21.7,75.4z"
			/>
	</g>
	<g class="st2">
		<path class="st3" d="M23.3,76v1H23v-0.2c-0.1,0.1-0.3,0.2-0.5,0.2c-0.4,0-0.6-0.2-0.6-0.5c0-0.3,0.2-0.5,0.6-0.5H23V76
			c0-0.2-0.1-0.4-0.4-0.4c-0.2,0-0.4,0.1-0.5,0.2l-0.1-0.2c0.2-0.1,0.4-0.2,0.7-0.2C23,75.4,23.3,75.6,23.3,76z M23,76.5v-0.2h-0.4
			c-0.3,0-0.4,0.1-0.4,0.2c0,0.2,0.1,0.3,0.4,0.3C22.7,76.8,22.9,76.7,23,76.5z"/>
		<path class="st3" d="M25.4,76.1V77h-0.3v-0.9c0-0.3-0.2-0.5-0.4-0.5c-0.3,0-0.5,0.2-0.5,0.5V77h-0.3v-1.6h0.3v0.2
			c0.1-0.2,0.3-0.3,0.6-0.3C25.1,75.4,25.4,75.6,25.4,76.1z"/>
		<path class="st3" d="M25.7,76.8l0.1-0.2c0.1,0.1,0.4,0.2,0.6,0.2c0.3,0,0.4-0.1,0.4-0.2c0-0.4-1,0-1-0.7c0-0.3,0.3-0.5,0.7-0.5
			c0.2,0,0.4,0.1,0.6,0.1l-0.1,0.2c-0.1-0.1-0.3-0.1-0.5-0.1c-0.3,0-0.4,0.1-0.4,0.2c0,0.4,1,0.1,1,0.7c0,0.3-0.3,0.5-0.7,0.5
			C26.1,77,25.8,76.9,25.7,76.8z"/>
		<path class="st3" d="M29.1,76.2c0,0.5-0.3,0.8-0.8,0.8c-0.2,0-0.4-0.1-0.6-0.3v0.8h-0.3v-2.2h0.3v0.3c0.1-0.2,0.3-0.3,0.6-0.3
			C28.7,75.4,29.1,75.7,29.1,76.2z M28.8,76.2c0-0.3-0.2-0.6-0.5-0.6c-0.3,0-0.5,0.2-0.5,0.6c0,0.3,0.2,0.6,0.5,0.6
			C28.6,76.8,28.8,76.5,28.8,76.2z"/>
		<path class="st3" d="M29.3,76.2c0-0.5,0.4-0.8,0.8-0.8c0.5,0,0.8,0.3,0.8,0.8S30.7,77,30.2,77C29.7,77,29.3,76.7,29.3,76.2z
			 M30.7,76.2c0-0.3-0.2-0.6-0.5-0.6c-0.3,0-0.5,0.2-0.5,0.6s0.2,0.6,0.5,0.6C30.5,76.8,30.7,76.5,30.7,76.2z"/>
	</g>
	<g class="st2">
		<path class="st3" d="M32.3,75.4v0.3c0,0,0,0-0.1,0c-0.3,0-0.5,0.2-0.5,0.5V77h-0.3v-1.6h0.3v0.3C31.8,75.5,32,75.4,32.3,75.4z"/>
	</g>
	<g class="st2">
		<path class="st3" d="M33.6,76.9C33.5,77,33.4,77,33.3,77c-0.3,0-0.5-0.2-0.5-0.5v-0.9h-0.3v-0.2h0.3V75H33v0.4h0.5v0.2H33v0.9
			c0,0.2,0.1,0.3,0.3,0.3c0.1,0,0.2,0,0.2-0.1L33.6,76.9z"/>
	</g>
	<g class="st2">
		<path class="st3" d="M35.4,76.3h-1.3c0,0.3,0.3,0.5,0.6,0.5c0.2,0,0.3-0.1,0.5-0.2l0.2,0.2c-0.1,0.2-0.4,0.3-0.6,0.3
			c-0.5,0-0.9-0.3-0.9-0.8c0-0.5,0.3-0.8,0.8-0.8C35,75.4,35.4,75.7,35.4,76.3C35.4,76.2,35.4,76.3,35.4,76.3z M34.1,76.1h1
			c0-0.3-0.2-0.5-0.5-0.5C34.3,75.6,34.1,75.8,34.1,76.1z"/>
		<path class="st3" d="M38,76.3h-1.3c0,0.3,0.3,0.5,0.6,0.5c0.2,0,0.3-0.1,0.5-0.2l0.2,0.2c-0.1,0.2-0.4,0.3-0.6,0.3
			c-0.5,0-0.9-0.3-0.9-0.8c0-0.5,0.3-0.8,0.8-0.8C37.7,75.4,38,75.7,38,76.3C38,76.2,38,76.3,38,76.3z M36.7,76.1h1
			c0-0.3-0.2-0.5-0.5-0.5C37,75.6,36.8,75.8,36.7,76.1z"/>
		<path class="st3" d="M39.2,74.9c0-0.1,0.1-0.2,0.2-0.2s0.2,0.1,0.2,0.2c0,0.1-0.1,0.2-0.2,0.2C39.3,75.1,39.2,75,39.2,74.9z
			 M39.3,75.4h0.3V77h-0.3V75.4z"/>
		<path class="st3" d="M41.6,76.1V77h-0.3v-0.9c0-0.3-0.2-0.5-0.4-0.5c-0.3,0-0.5,0.2-0.5,0.5V77h-0.3v-1.6h0.3v0.2
			c0.1-0.2,0.3-0.3,0.6-0.3C41.4,75.4,41.6,75.6,41.6,76.1z"/>
		<path class="st3" d="M42,76.8l0.1-0.2c0.1,0.1,0.4,0.2,0.6,0.2c0.3,0,0.4-0.1,0.4-0.2c0-0.4-1,0-1-0.7c0-0.3,0.3-0.5,0.7-0.5
			c0.2,0,0.4,0.1,0.6,0.1l-0.1,0.2c-0.1-0.1-0.3-0.1-0.5-0.1c-0.3,0-0.4,0.1-0.4,0.2c0,0.4,1,0.1,1,0.7c0,0.3-0.3,0.5-0.7,0.5
			C42.4,77,42.1,76.9,42,76.8z"/>
		<path class="st3" d="M44.6,76.9C44.5,77,44.4,77,44.3,77c-0.3,0-0.5-0.2-0.5-0.5v-0.9h-0.3v-0.2h0.3V75H44v0.4h0.5v0.2H44v0.9
			c0,0.2,0.1,0.3,0.3,0.3c0.1,0,0.2,0,0.2-0.1L44.6,76.9z"/>
		<path class="st3" d="M46.2,76v1H46v-0.2c-0.1,0.1-0.3,0.2-0.5,0.2c-0.4,0-0.6-0.2-0.6-0.5c0-0.3,0.2-0.5,0.6-0.5H46V76
			c0-0.2-0.1-0.4-0.4-0.4c-0.2,0-0.4,0.1-0.5,0.2l-0.1-0.2c0.2-0.1,0.4-0.2,0.7-0.2C46,75.4,46.2,75.6,46.2,76z M46,76.5v-0.2h-0.4
			c-0.3,0-0.4,0.1-0.4,0.2c0,0.2,0.1,0.3,0.4,0.3C45.7,76.8,45.9,76.7,46,76.5z"/>
		<path class="st3" d="M46.8,74.8h0.3V77h-0.3V74.8z"/>
	</g>
	<g class="st2">
		<path class="st3" d="M48.9,76v1h-0.3v-0.2c-0.1,0.1-0.3,0.2-0.5,0.2c-0.4,0-0.6-0.2-0.6-0.5c0-0.3,0.2-0.5,0.6-0.5h0.5V76
			c0-0.2-0.1-0.4-0.4-0.4c-0.2,0-0.4,0.1-0.5,0.2l-0.1-0.2c0.2-0.1,0.4-0.2,0.7-0.2C48.7,75.4,48.9,75.6,48.9,76z M48.6,76.5v-0.2
			h-0.4c-0.3,0-0.4,0.1-0.4,0.2c0,0.2,0.1,0.3,0.4,0.3C48.4,76.8,48.5,76.7,48.6,76.5z"/>
	</g>
	<g class="st2">
		<path class="st3" d="M50.6,76.5l0.2,0.1c-0.1,0.2-0.4,0.3-0.6,0.3l0,0.1c0.2,0,0.3,0.1,0.3,0.3c0,0.2-0.1,0.3-0.4,0.3
			c-0.1,0-0.2,0-0.3-0.1l0.1-0.1c0.1,0,0.1,0.1,0.2,0.1c0.1,0,0.2,0,0.2-0.1c0-0.1-0.1-0.1-0.2-0.1h-0.1L50,77
			c-0.4-0.1-0.7-0.4-0.7-0.8c0-0.5,0.4-0.8,0.9-0.8c0.3,0,0.5,0.1,0.7,0.3l-0.2,0.1c-0.1-0.2-0.3-0.2-0.4-0.2
			c-0.3,0-0.6,0.2-0.6,0.6c0,0.3,0.2,0.6,0.6,0.6C50.3,76.8,50.5,76.7,50.6,76.5z"/>
	</g>
	<g class="st2">
		<path class="st3" d="M52.5,76v1h-0.3v-0.2c-0.1,0.1-0.3,0.2-0.5,0.2c-0.4,0-0.6-0.2-0.6-0.5c0-0.3,0.2-0.5,0.6-0.5h0.5V76
			c0-0.2-0.1-0.4-0.4-0.4c-0.2,0-0.4,0.1-0.5,0.2l-0.1-0.2c0.2-0.1,0.4-0.2,0.7-0.2C52.2,75.4,52.5,75.6,52.5,76z M51.5,75.1h-0.2
			c0-0.2,0.1-0.4,0.3-0.4c0.2,0,0.3,0.2,0.4,0.2c0.1,0,0.1-0.1,0.2-0.2h0.2c0,0.2-0.1,0.4-0.3,0.4c-0.2,0-0.3-0.2-0.4-0.2
			C51.5,75,51.5,75,51.5,75.1z M52.2,76.5v-0.2h-0.4c-0.3,0-0.4,0.1-0.4,0.2c0,0.2,0.1,0.3,0.4,0.3C51.9,76.8,52.1,76.7,52.2,76.5z"
			/>
	</g>
	<g class="st2">
		<path class="st3" d="M52.9,76.2c0-0.5,0.4-0.8,0.8-0.8c0.5,0,0.8,0.3,0.8,0.8S54.2,77,53.7,77C53.2,77,52.9,76.7,52.9,76.2z
			 M54.2,76.2c0-0.3-0.2-0.6-0.5-0.6c-0.3,0-0.5,0.2-0.5,0.6s0.2,0.6,0.5,0.6C54,76.8,54.2,76.5,54.2,76.2z"/>
	</g>
	<g class="st2">
		<path class="st3" d="M54.8,76.8c0-0.1,0.1-0.2,0.2-0.2c0.1,0,0.2,0.1,0.2,0.2S55.1,77,55,77C54.9,77,54.8,76.9,54.8,76.8z"/>
	</g>
	<g class="st2">
		<path class="st4" d="M21.5,83.3l-0.9,2.1h-0.5l-0.9-2.1h0.5l0.6,1.5l0.6-1.5H21.5z"/>
	</g>
	<g class="st2">
		<path class="st4" d="M23,84.5v0.9h-0.4v-0.2c-0.1,0.1-0.3,0.2-0.5,0.2c-0.4,0-0.6-0.2-0.6-0.5c0-0.3,0.2-0.5,0.7-0.5h0.4
			c0-0.2-0.1-0.3-0.4-0.3c-0.2,0-0.3,0.1-0.5,0.2L21.5,84c0.2-0.1,0.4-0.2,0.7-0.2C22.7,83.8,23,84,23,84.5z M22.5,84.9v-0.2h-0.3
			c-0.2,0-0.3,0.1-0.3,0.2c0,0.1,0.1,0.2,0.3,0.2C22.3,85.1,22.4,85.1,22.5,84.9z"/>
	</g>
	<g class="st2">
		<path class="st4" d="M25.1,83.8v1.3c0,0.6-0.3,0.9-0.9,0.9c-0.3,0-0.6-0.1-0.8-0.2l0.2-0.3c0.1,0.1,0.4,0.2,0.6,0.2
			c0.3,0,0.5-0.2,0.5-0.4v-0.1c-0.1,0.1-0.3,0.2-0.5,0.2c-0.4,0-0.8-0.3-0.8-0.8c0-0.5,0.4-0.8,0.8-0.8c0.2,0,0.4,0.1,0.5,0.2v-0.2
			H25.1z M24.6,84.6c0-0.2-0.2-0.4-0.4-0.4s-0.4,0.2-0.4,0.4c0,0.2,0.2,0.4,0.4,0.4S24.6,84.8,24.6,84.6z"/>
		<path class="st4" d="M26.9,84.5v0.9h-0.4v-0.2c-0.1,0.1-0.3,0.2-0.5,0.2c-0.4,0-0.6-0.2-0.6-0.5c0-0.3,0.2-0.5,0.7-0.5h0.4
			c0-0.2-0.1-0.3-0.4-0.3c-0.2,0-0.3,0.1-0.5,0.2L25.5,84c0.2-0.1,0.4-0.2,0.7-0.2C26.7,83.8,26.9,84,26.9,84.5z M26.5,84.9v-0.2
			h-0.3c-0.2,0-0.3,0.1-0.3,0.2c0,0.1,0.1,0.2,0.3,0.2C26.3,85.1,26.4,85.1,26.5,84.9z"/>
		<path class="st4" d="M27.2,85.3l0.2-0.3c0.1,0.1,0.4,0.2,0.6,0.2c0.2,0,0.3-0.1,0.3-0.1c0-0.3-1,0-1-0.6c0-0.3,0.3-0.5,0.7-0.5
			c0.2,0,0.5,0.1,0.6,0.1l-0.2,0.3c-0.2-0.1-0.3-0.1-0.5-0.1c-0.2,0-0.3,0.1-0.3,0.1c0,0.3,1,0,1,0.6c0,0.3-0.3,0.5-0.8,0.5
			C27.6,85.5,27.4,85.4,27.2,85.3z"/>
		<path class="st4" d="M31.6,84.6c0,0.5-0.4,0.8-0.8,0.8c-0.2,0-0.4-0.1-0.5-0.2V86h-0.5v-2.2h0.4V84c0.1-0.1,0.3-0.2,0.5-0.2
			C31.2,83.8,31.6,84.1,31.6,84.6z M31.1,84.6c0-0.3-0.2-0.4-0.4-0.4s-0.4,0.2-0.4,0.4s0.2,0.4,0.4,0.4S31.1,84.9,31.1,84.6z"/>
		<path class="st4" d="M31.7,84.6c0-0.5,0.4-0.8,0.9-0.8c0.5,0,0.9,0.3,0.9,0.8s-0.4,0.8-0.9,0.8C32.1,85.5,31.7,85.1,31.7,84.6z
			 M33.1,84.6c0-0.3-0.2-0.4-0.4-0.4s-0.4,0.2-0.4,0.4s0.2,0.4,0.4,0.4S33.1,84.9,33.1,84.6z"/>
		<path class="st4" d="M34.8,83.8v0.4c0,0-0.1,0-0.1,0c-0.3,0-0.4,0.1-0.4,0.5v0.8h-0.5v-1.6h0.4V84C34.4,83.9,34.6,83.8,34.8,83.8z
			"/>
		<path class="st4" d="M36,83.2h0.5v2.2H36V83.2z"/>
		<path class="st4" d="M36.8,84.6c0-0.5,0.4-0.8,0.9-0.8c0.5,0,0.9,0.3,0.9,0.8s-0.4,0.8-0.9,0.8C37.1,85.5,36.8,85.1,36.8,84.6z
			 M38.1,84.6c0-0.3-0.2-0.4-0.4-0.4s-0.4,0.2-0.4,0.4s0.2,0.4,0.4,0.4S38.1,84.9,38.1,84.6z"/>
		<path class="st4" d="M38.7,84.6c0-0.5,0.4-0.8,0.9-0.8c0.3,0,0.6,0.1,0.7,0.4L40,84.4c-0.1-0.2-0.2-0.2-0.4-0.2
			c-0.2,0-0.4,0.2-0.4,0.4s0.2,0.4,0.4,0.4c0.1,0,0.3-0.1,0.4-0.2l0.4,0.2c-0.1,0.3-0.4,0.4-0.7,0.4C39.1,85.5,38.7,85.1,38.7,84.6z
			"/>
		<path class="st4" d="M42,84.5v0.9h-0.4v-0.2c-0.1,0.1-0.3,0.2-0.5,0.2c-0.4,0-0.6-0.2-0.6-0.5c0-0.3,0.2-0.5,0.7-0.5h0.4
			c0-0.2-0.1-0.3-0.4-0.3c-0.2,0-0.3,0.1-0.5,0.2L40.6,84c0.2-0.1,0.4-0.2,0.7-0.2C41.8,83.8,42,84,42,84.5z M41.6,84.9v-0.2h-0.3
			c-0.2,0-0.3,0.1-0.3,0.2c0,0.1,0.1,0.2,0.3,0.2C41.4,85.1,41.5,85.1,41.6,84.9z"/>
		<path class="st4" d="M42.5,83.2h0.5v2.2h-0.5V83.2z"/>
		<path class="st4" d="M43.3,84.1c0-0.2,0.1-0.3,0.3-0.3c0.2,0,0.3,0.1,0.3,0.3c0,0.2-0.1,0.3-0.3,0.3
			C43.4,84.4,43.3,84.3,43.3,84.1z M43.3,85.2c0-0.2,0.1-0.3,0.3-0.3c0.2,0,0.3,0.1,0.3,0.3c0,0.2-0.1,0.3-0.3,0.3
			C43.4,85.5,43.3,85.3,43.3,85.2z"/>
	</g>
	<g>
		<g>
			<g>
				<path class="st1" d="M99.6,57.2L99.6,57.2c-0.2-0.2-0.4-0.2-0.6,0l-1.1,1.1c-0.2,0.2-0.2,0.4,0,0.6l0,0c0.2,0.2,0.4,0.2,0.6,0
					l1.1-1.1C99.8,57.6,99.8,57.3,99.6,57.2z"/>
			</g>
			<g>
				<path class="st1" d="M97.9,56L97.9,56c-0.2,0.2-0.2,0.4,0,0.6l1.1,1.1c0.2,0.2,0.4,0.2,0.6,0l0,0c0.2-0.2,0.2-0.4,0-0.6L98.5,56
					C98.3,55.9,98.1,55.9,97.9,56z"/>
			</g>
		</g>
		<g>
			<g>
				<path class="st1" d="M5.5,57.2L5.5,57.2c0.2-0.2,0.4-0.2,0.6,0l1.1,1.1c0.2,0.2,0.2,0.4,0,0.6l0,0c-0.2,0.2-0.4,0.2-0.6,0
					l-1.1-1.1C5.4,57.6,5.4,57.3,5.5,57.2z"/>
			</g>
			<g>
				<path class="st1" d="M7.2,56L7.2,56c0.2,0.2,0.2,0.4,0,0.6l-1.1,1.1c-0.2,0.2-0.4,0.2-0.6,0l0,0c-0.2-0.2-0.2-0.4,0-0.6L6.6,56
					C6.8,55.9,7,55.9,7.2,56z"/>
			</g>
		</g>
	</g>
	<g class="st2">
		<path class="st5" d="M20.6,42.8V43h-1.5v-0.2l0.9-0.8c0.2-0.2,0.3-0.4,0.3-0.5c0-0.2-0.2-0.4-0.5-0.4c-0.2,0-0.4,0.1-0.5,0.2
			L19,41.2c0.2-0.2,0.4-0.3,0.8-0.3c0.4,0,0.7,0.2,0.7,0.6c0,0.2-0.1,0.4-0.3,0.7l-0.6,0.6H20.6z"/>
		<path class="st5" d="M21.5,40.9V43h-0.3v-1.9h-0.5v-0.3H21.5z"/>
	</g>
	<g class="st2">
		<path class="st5" d="M22.6,42.7l0.2-0.2c0.1,0.2,0.3,0.3,0.4,0.3c0.2,0,0.4-0.1,0.4-0.4v-1.2h-0.8v-0.3h1.1v1.4
			c0,0.5-0.2,0.7-0.7,0.7C23,43,22.7,42.9,22.6,42.7z"/>
	</g>
	<g class="st2">
		<path class="st5" d="M25.8,42.5h-1.1L24.5,43h-0.3l1-2.1h0.3l1,2.1h-0.3L25.8,42.5z M25.7,42.2l-0.5-1l-0.5,1H25.7z"/>
		<path class="st5" d="M28.5,40.9V43h-0.2L27,41.4V43h-0.3v-2.1h0.2l1.3,1.6v-1.6H28.5z"/>
		<path class="st5" d="M30.5,40.9V43h-0.3v-1.9h-0.5v-0.3H30.5z"/>
	</g>
	<g class="st2">
		<path class="st5" d="M32.4,42.8V43h-1.5v-0.2l0.9-0.8c0.2-0.2,0.3-0.4,0.3-0.5c0-0.2-0.2-0.4-0.5-0.4c-0.2,0-0.4,0.1-0.5,0.2
			l-0.2-0.2c0.2-0.2,0.4-0.3,0.8-0.3c0.4,0,0.7,0.2,0.7,0.6c0,0.2-0.1,0.4-0.3,0.7l-0.6,0.6H32.4z"/>
	</g>
	<g class="st2">
		<path class="st5" d="M32.7,41.6c0-0.1,0.1-0.2,0.2-0.2c0.1,0,0.2,0.1,0.2,0.2s-0.1,0.2-0.2,0.2C32.8,41.8,32.7,41.7,32.7,41.6z
			 M32.7,42.8c0-0.1,0.1-0.2,0.2-0.2c0.1,0,0.2,0.1,0.2,0.2S33,43,32.9,43C32.8,43,32.7,42.9,32.7,42.8z"/>
		<path class="st5" d="M33.4,42c0-0.7,0.4-1.1,0.9-1.1c0.5,0,0.9,0.4,0.9,1.1S34.8,43,34.3,43C33.8,43,33.4,42.6,33.4,42z M34.9,42
			c0-0.5-0.2-0.8-0.6-0.8c-0.3,0-0.6,0.3-0.6,0.8c0,0.5,0.2,0.8,0.6,0.8C34.6,42.8,34.9,42.5,34.9,42z"/>
		<path class="st5" d="M35.5,42c0-0.7,0.4-1.1,0.9-1.1c0.5,0,0.9,0.4,0.9,1.1S36.8,43,36.3,43C35.8,43,35.5,42.6,35.5,42z M36.9,42
			c0-0.5-0.2-0.8-0.6-0.8c-0.3,0-0.6,0.3-0.6,0.8c0,0.5,0.2,0.8,0.6,0.8C36.7,42.8,36.9,42.5,36.9,42z"/>
	</g>
	<g class="st2">
		<path class="st6" d="M70,31.6c0,0.5-0.4,0.9-1.2,0.9c-0.4,0-0.8-0.1-1.1-0.3l0.3-0.5c0.2,0.2,0.5,0.3,0.8,0.3
			c0.3,0,0.5-0.1,0.5-0.4c0-0.2-0.2-0.3-0.5-0.3h-0.3v-0.4l0.6-0.7h-1.2v-0.5h2V30l-0.6,0.7C69.7,30.8,70,31.1,70,31.6z"/>
	</g>
	<g class="st2">
		<path class="st6" d="M72.4,31.5c0,0.5-0.4,0.9-1.2,0.9c-0.4,0-0.8-0.1-1.1-0.3l0.3-0.5c0.2,0.2,0.5,0.3,0.8,0.3
			c0.3,0,0.5-0.1,0.5-0.4c0-0.2-0.1-0.4-0.7-0.4h-0.7l0.1-1.6h1.7v0.5H71l0,0.5h0.2C72,30.7,72.4,31,72.4,31.5z"/>
	</g>
	<g class="st2">
		<path class="st6" d="M76.1,30.2l-0.9,2.2h-0.7l-0.9-2.2h0.7l0.6,1.5l0.6-1.5H76.1z"/>
	</g>
	<g class="st2">
		<path class="st6" d="M78.2,31.2v1.2h-0.6v-0.3c-0.1,0.2-0.3,0.3-0.7,0.3c-0.5,0-0.8-0.3-0.8-0.7c0-0.4,0.3-0.7,0.9-0.7h0.5
			c0-0.3-0.2-0.4-0.5-0.4c-0.2,0-0.5,0.1-0.6,0.2l-0.2-0.4c0.2-0.2,0.6-0.3,0.9-0.3C77.8,30.2,78.2,30.5,78.2,31.2z M77.6,31.7v-0.2
			h-0.4c-0.3,0-0.4,0.1-0.4,0.3c0,0.2,0.1,0.3,0.4,0.3C77.3,32,77.5,31.9,77.6,31.7z"/>
	</g>
	<g class="st2">
		<path class="st6" d="M81,30.2v1.8c0,0.8-0.4,1.2-1.2,1.2c-0.4,0-0.8-0.1-1.1-0.3l0.3-0.5c0.2,0.1,0.5,0.2,0.8,0.2
			c0.4,0,0.6-0.2,0.6-0.6V32c-0.2,0.2-0.4,0.3-0.7,0.3c-0.6,0-1.1-0.4-1.1-1.1s0.5-1.1,1.1-1.1c0.3,0,0.6,0.1,0.7,0.3v-0.3H81z
			 M80.4,31.3c0-0.3-0.2-0.5-0.6-0.5c-0.3,0-0.6,0.2-0.6,0.5s0.2,0.5,0.6,0.5C80.2,31.8,80.4,31.6,80.4,31.3z"/>
		<path class="st6" d="M83.6,31.2v1.2H83v-0.3c-0.1,0.2-0.3,0.3-0.7,0.3c-0.5,0-0.8-0.3-0.8-0.7c0-0.4,0.3-0.7,0.9-0.7h0.5
			c0-0.3-0.2-0.4-0.5-0.4c-0.2,0-0.5,0.1-0.6,0.2l-0.2-0.4c0.2-0.2,0.6-0.3,0.9-0.3C83.2,30.2,83.6,30.5,83.6,31.2z M82.9,31.7v-0.2
			h-0.4c-0.3,0-0.4,0.1-0.4,0.3c0,0.2,0.1,0.3,0.4,0.3C82.7,32,82.8,31.9,82.9,31.7z"/>
		<path class="st6" d="M83.9,32.2l0.2-0.5c0.2,0.1,0.5,0.2,0.8,0.2c0.3,0,0.4-0.1,0.4-0.2c0-0.4-1.3,0-1.3-0.9c0-0.4,0.4-0.7,1-0.7
			c0.3,0,0.6,0.1,0.8,0.2l-0.2,0.4c-0.2-0.1-0.4-0.2-0.6-0.2c-0.3,0-0.4,0.1-0.4,0.2c0,0.4,1.3,0,1.3,0.9c0,0.4-0.4,0.7-1,0.7
			C84.5,32.5,84.1,32.4,83.9,32.2z"/>
	</g>
	<g class="st2">
		<path class="st7" d="M21.4,32.1v0.4h-2.1v-2.8h2v0.4h-1.6v0.9h1.4v0.3h-1.4v0.9H21.4z"/>
	</g>
	<g class="st2">
		<path class="st7" d="M24.1,31.2v1.2h-0.4v-1.2c0-0.4-0.2-0.6-0.6-0.6c-0.4,0-0.7,0.2-0.7,0.7v1.1H22v-2.1h0.4v0.3
			c0.2-0.2,0.4-0.3,0.8-0.3C23.7,30.3,24.1,30.6,24.1,31.2z"/>
	</g>
	<g class="st2">
		<path class="st7" d="M26.9,30.3v1.9c0,0.8-0.4,1.1-1.1,1.1c-0.4,0-0.8-0.1-1-0.3l0.2-0.3c0.2,0.2,0.5,0.3,0.8,0.3
			c0.5,0,0.7-0.2,0.7-0.7V32c-0.2,0.2-0.5,0.3-0.8,0.3c-0.6,0-1.1-0.4-1.1-1c0-0.6,0.5-1,1.1-1c0.3,0,0.6,0.1,0.8,0.4v-0.3H26.9z
			 M26.5,31.3c0-0.4-0.3-0.7-0.7-0.7c-0.4,0-0.7,0.3-0.7,0.7c0,0.4,0.3,0.7,0.7,0.7C26.2,32,26.5,31.7,26.5,31.3z"/>
		<path class="st7" d="M29.5,31.5h-1.7c0,0.4,0.4,0.6,0.8,0.6c0.3,0,0.5-0.1,0.6-0.3l0.2,0.3c-0.2,0.2-0.5,0.3-0.8,0.3
			c-0.7,0-1.2-0.5-1.2-1.1c0-0.6,0.5-1.1,1.1-1.1s1.1,0.4,1.1,1.1C29.5,31.4,29.5,31.4,29.5,31.5z M27.8,31.2h1.4
			c0-0.4-0.3-0.6-0.7-0.6C28.1,30.6,27.8,30.8,27.8,31.2z"/>
		<path class="st7" d="M32.1,31.2v1.2h-0.4v-1.2c0-0.4-0.2-0.6-0.6-0.6c-0.4,0-0.7,0.2-0.7,0.7v1.1h-0.4v-2.1h0.4v0.3
			c0.2-0.2,0.4-0.3,0.8-0.3C31.7,30.3,32.1,30.6,32.1,31.2z"/>
		<path class="st7" d="M34.9,31.2v1.2h-0.4v-1.2c0-0.4-0.2-0.6-0.6-0.6c-0.4,0-0.7,0.2-0.7,0.7v1.1h-0.4v-3h0.4v1.2
			c0.2-0.2,0.4-0.3,0.8-0.3C34.5,30.3,34.9,30.6,34.9,31.2z"/>
		<path class="st7" d="M37.3,31.1v1.3h-0.4v-0.3c-0.1,0.2-0.4,0.3-0.7,0.3c-0.5,0-0.8-0.3-0.8-0.6c0-0.3,0.2-0.6,0.9-0.6h0.6v-0.1
			c0-0.3-0.2-0.5-0.6-0.5c-0.3,0-0.5,0.1-0.7,0.2l-0.2-0.3c0.2-0.2,0.5-0.3,0.9-0.3C37,30.3,37.3,30.5,37.3,31.1z M36.9,31.8v-0.3
			h-0.6c-0.4,0-0.5,0.1-0.5,0.3c0,0.2,0.2,0.3,0.5,0.3C36.6,32.1,36.8,32,36.9,31.8z"/>
	</g>
	<g class="st2">
		<path class="st7" d="M39.2,30.3v0.4c0,0-0.1,0-0.1,0c-0.4,0-0.7,0.3-0.7,0.7v1.1H38v-2.1h0.4v0.4C38.5,30.4,38.8,30.3,39.2,30.3z"
			/>
	</g>
	<g class="st2">
		<path class="st7" d="M39.6,29.6c0-0.1,0.1-0.3,0.3-0.3c0.1,0,0.3,0.1,0.3,0.2c0,0.1-0.1,0.3-0.3,0.3
			C39.7,29.9,39.6,29.8,39.6,29.6z M39.7,30.3H40v2.1h-0.4V30.3z"/>
		<path class="st7" d="M42.5,31.1v1.3h-0.4v-0.3c-0.1,0.2-0.4,0.3-0.7,0.3c-0.5,0-0.8-0.3-0.8-0.6c0-0.3,0.2-0.6,0.9-0.6h0.6v-0.1
			c0-0.3-0.2-0.5-0.6-0.5c-0.3,0-0.5,0.1-0.7,0.2l-0.2-0.3c0.2-0.2,0.5-0.3,0.9-0.3C42.2,30.3,42.5,30.5,42.5,31.1z M42.1,31.8v-0.3
			h-0.6c-0.4,0-0.5,0.1-0.5,0.3c0,0.2,0.2,0.3,0.5,0.3C41.8,32.1,42,32,42.1,31.8z"/>
	</g>
	<g class="st2">
		<path class="st7" d="M46.4,32.1v0.4h-2.1v-2.8h2v0.4h-1.6v0.9h1.4v0.3h-1.4v0.9H46.4z"/>
	</g>
	<g class="st2">
		<path class="st7" d="M46.8,31.3c0-0.6,0.5-1.1,1.1-1.1c0.6,0,1.1,0.5,1.1,1.1s-0.5,1.1-1.1,1.1C47.3,32.4,46.8,32,46.8,31.3z
			 M48.6,31.3c0-0.5-0.3-0.8-0.7-0.8c-0.4,0-0.7,0.3-0.7,0.8s0.3,0.8,0.7,0.8C48.3,32.1,48.6,31.8,48.6,31.3z M48.1,29.4h0.5L48,30
			h-0.4L48.1,29.4z"/>
		<path class="st7" d="M49.6,29.4h0.4v3h-0.4V29.4z"/>
		<path class="st7" d="M50.6,29.6c0-0.1,0.1-0.3,0.3-0.3s0.3,0.1,0.3,0.2c0,0.1-0.1,0.3-0.3,0.3C50.7,29.9,50.6,29.8,50.6,29.6z
			 M50.7,30.3h0.4v2.1h-0.4V30.3z"/>
		<path class="st7" d="M51.6,31.3c0-0.6,0.5-1.1,1.1-1.1c0.4,0,0.7,0.2,0.9,0.5l-0.3,0.2c-0.1-0.2-0.3-0.3-0.6-0.3
			c-0.4,0-0.7,0.3-0.7,0.8c0,0.5,0.3,0.8,0.7,0.8c0.2,0,0.4-0.1,0.6-0.3l0.3,0.2c-0.2,0.3-0.5,0.5-0.9,0.5
			C52.1,32.4,51.6,32,51.6,31.3z"/>
		<path class="st7" d="M55.8,31.1v1.3h-0.4v-0.3c-0.1,0.2-0.4,0.3-0.7,0.3c-0.5,0-0.8-0.3-0.8-0.6c0-0.3,0.2-0.6,0.9-0.6h0.6v-0.1
			c0-0.3-0.2-0.5-0.6-0.5c-0.3,0-0.5,0.1-0.7,0.2L54,30.5c0.2-0.2,0.5-0.3,0.9-0.3C55.5,30.3,55.8,30.5,55.8,31.1z M55.4,31.8v-0.3
			h-0.6c-0.4,0-0.5,0.1-0.5,0.3c0,0.2,0.2,0.3,0.5,0.3C55.1,32.1,55.3,32,55.4,31.8z"/>
	</g>
	<g>
		<g>
			<path class="st5" d="M85.5,41.9c-0.7,1-1.7,1.6-3,1.6s-2.3-0.6-3-1.6c0.7-1,1.8-1.6,3-1.6S84.8,41,85.5,41.9z"/>
		</g>
		<g>
			<path class="st1" d="M83.5,41.9c0,0.6-0.5,1-1,1s-1-0.5-1-1s0.5-1,1-1S83.5,41.4,83.5,41.9z"/>
		</g>
	</g>
	<g>
		<defs>
			<path id="SVGID_1_" d="M18.3,23.2H87c3.2,0,5.8,2.6,5.8,5.8v139.6c0,3.2-2.6,5.8-5.8,5.8H18.3c-3.2,0-5.8-2.6-5.8-5.8V29
				C12.6,25.8,15.1,23.2,18.3,23.2z"/>
		</defs>
		<clipPath id="SVGID_00000093857159222317024730000014624340221274485647_">
			<use xlink:href="#SVGID_1_"  style="overflow:visible;"/>
		</clipPath>
		<g style="clip-path:url(#SVGID_00000093857159222317024730000014624340221274485647_);">
			<g id="_9QrND">
				
					<image style="overflow:visible;enable-background:new    ;" width="360" height="270" id="_9QrND-2" xlink:href="2963C39435B3F00C.png"  transform="matrix(0.24 0 0 0.24 11.32 89.71)">
				</image>
			</g>
		</g>
	</g>
	<g>
		<g>
			<path class="st9" d="M45.5,167.4H23.1c-2.2,0-4.1-1.8-4.1-4.1l0,0c0-2.2,1.8-4.1,4.1-4.1h22.4c2.2,0,4.1,1.8,4.1,4.1l0,0
				C49.6,165.6,47.8,167.4,45.5,167.4L45.5,167.4z"/>
		</g>
		<g class="st2">
			<path class="st1" d="M26.5,164.2l0-1.1l-0.5,0.9h-0.2l-0.5-0.9v1h-0.4v-1.8h0.3l0.7,1.1l0.7-1.1h0.3l0,1.8H26.5z"/>
			<path class="st1" d="M28.6,163.7h-1c0,0.2,0.2,0.3,0.4,0.3c0.1,0,0.2,0,0.3-0.1l0.2,0.2c-0.1,0.1-0.3,0.2-0.6,0.2
				c-0.5,0-0.8-0.3-0.8-0.7c0-0.4,0.3-0.7,0.7-0.7c0.4,0,0.7,0.3,0.7,0.7C28.6,163.6,28.6,163.6,28.6,163.7z M27.6,163.4h0.7
				c0-0.2-0.2-0.3-0.3-0.3C27.7,163.2,27.6,163.3,27.6,163.4z"/>
			<path class="st1" d="M29.5,163.6c0-0.4,0.3-0.7,0.8-0.7c0.3,0,0.5,0.1,0.6,0.3l-0.3,0.2c-0.1-0.1-0.2-0.2-0.3-0.2
				c-0.2,0-0.4,0.1-0.4,0.4s0.2,0.4,0.4,0.4c0.1,0,0.2-0.1,0.3-0.2l0.3,0.2c-0.1,0.2-0.3,0.3-0.6,0.3
				C29.8,164.3,29.5,164,29.5,163.6z"/>
			<path class="st1" d="M32.3,163.5v0.8H32v-0.2c-0.1,0.1-0.2,0.2-0.4,0.2c-0.3,0-0.5-0.2-0.5-0.4c0-0.2,0.2-0.4,0.6-0.4h0.3
				c0-0.2-0.1-0.3-0.3-0.3c-0.1,0-0.3,0-0.4,0.1l-0.1-0.3c0.1-0.1,0.4-0.2,0.6-0.2C32.1,162.9,32.3,163.1,32.3,163.5z M31.9,163.8
				v-0.1h-0.3c-0.2,0-0.2,0.1-0.2,0.2c0,0.1,0.1,0.2,0.2,0.2C31.8,164,31.9,163.9,31.9,163.8z"/>
		</g>
		<g class="st2">
			<path class="st1" d="M34.1,163.5v0.8h-0.4v-0.7c0-0.2-0.1-0.3-0.3-0.3c-0.2,0-0.3,0.1-0.3,0.4v0.7h-0.4v-1.4h0.4v0.2
				c0.1-0.1,0.3-0.2,0.5-0.2C33.9,162.9,34.1,163.1,34.1,163.5z"/>
		</g>
		<g class="st2">
			<path class="st1" d="M35.9,162.4v1.9h-0.4v-0.2c-0.1,0.1-0.2,0.2-0.4,0.2c-0.4,0-0.7-0.3-0.7-0.7c0-0.4,0.3-0.7,0.7-0.7
				c0.2,0,0.3,0.1,0.4,0.2v-0.7H35.9z M35.5,163.6c0-0.2-0.2-0.4-0.3-0.4c-0.2,0-0.3,0.1-0.3,0.4c0,0.2,0.2,0.4,0.3,0.4
				C35.3,163.9,35.5,163.8,35.5,163.6z"/>
			<path class="st1" d="M36.2,162.5c0-0.1,0.1-0.2,0.2-0.2s0.2,0.1,0.2,0.2c0,0.1-0.1,0.2-0.2,0.2S36.2,162.6,36.2,162.5z
				 M36.2,162.9h0.4v1.4h-0.4V162.9z"/>
			<path class="st1" d="M38.4,162.4v1.9H38v-0.2c-0.1,0.1-0.2,0.2-0.4,0.2c-0.4,0-0.7-0.3-0.7-0.7c0-0.4,0.3-0.7,0.7-0.7
				c0.2,0,0.3,0.1,0.4,0.2v-0.7H38.4z M38,163.6c0-0.2-0.2-0.4-0.3-0.4c-0.2,0-0.3,0.1-0.3,0.4c0,0.2,0.2,0.4,0.3,0.4
				C37.8,163.9,38,163.8,38,163.6z"/>
			<path class="st1" d="M40,163.5v0.8h-0.4v-0.2c-0.1,0.1-0.2,0.2-0.4,0.2c-0.3,0-0.5-0.2-0.5-0.4c0-0.2,0.2-0.4,0.6-0.4h0.3
				c0-0.2-0.1-0.3-0.3-0.3c-0.1,0-0.3,0-0.4,0.1l-0.1-0.3c0.1-0.1,0.4-0.2,0.6-0.2C39.7,162.9,40,163.1,40,163.5z M39.6,163.8v-0.1
				h-0.3c-0.2,0-0.2,0.1-0.2,0.2c0,0.1,0.1,0.2,0.2,0.2C39.4,164,39.5,163.9,39.6,163.8z"/>
			<path class="st1" d="M41.2,164.2c-0.1,0.1-0.2,0.1-0.3,0.1c-0.3,0-0.5-0.2-0.5-0.5v-0.6h-0.2v-0.3h0.2v-0.3h0.4v0.3h0.3v0.3h-0.3
				v0.6c0,0.1,0.1,0.2,0.2,0.2c0.1,0,0.1,0,0.2-0.1L41.2,164.2z"/>
			<path class="st1" d="M42.6,163.5v0.8h-0.4v-0.2c-0.1,0.1-0.2,0.2-0.4,0.2c-0.3,0-0.5-0.2-0.5-0.4c0-0.2,0.2-0.4,0.6-0.4h0.3
				c0-0.2-0.1-0.3-0.3-0.3c-0.1,0-0.3,0-0.4,0.1l-0.1-0.3c0.1-0.1,0.4-0.2,0.6-0.2C42.4,162.9,42.6,163.1,42.6,163.5z M42.2,163.8
				v-0.1H42c-0.2,0-0.2,0.1-0.2,0.2c0,0.1,0.1,0.2,0.2,0.2C42.1,164,42.2,163.9,42.2,163.8z"/>
			<path class="st1" d="M43.8,162.9v0.4c0,0-0.1,0-0.1,0c-0.2,0-0.4,0.1-0.4,0.4v0.6H43v-1.4h0.4v0.2
				C43.5,162.9,43.6,162.9,43.8,162.9z"/>
		</g>
	</g>
	<g>
		<g>
			<path class="st10" d="M82.2,167.4H59.8c-2.2,0-4.1-1.8-4.1-4.1l0,0c0-2.2,1.8-4.1,4.1-4.1h22.4c2.2,0,4.1,1.8,4.1,4.1l0,0
				C86.3,165.6,84.4,167.4,82.2,167.4z"/>
		</g>
		<g class="st2">
			<path class="st9" d="M59.8,162.9l-0.6,1.4h-0.4l-0.6-1.4h0.4l0.4,0.9l0.4-0.9H59.8z"/>
		</g>
		<g class="st2">
			<path class="st9" d="M61.1,163.5v0.8h-0.4v-0.2c-0.1,0.1-0.2,0.2-0.4,0.2c-0.3,0-0.5-0.2-0.5-0.4c0-0.2,0.2-0.4,0.6-0.4h0.3
				c0-0.2-0.1-0.3-0.3-0.3c-0.1,0-0.3,0-0.4,0.1l-0.1-0.3c0.1-0.1,0.4-0.2,0.6-0.2C60.9,162.9,61.1,163.1,61.1,163.5z M60.7,163.8
				v-0.1h-0.3c-0.2,0-0.2,0.1-0.2,0.2c0,0.1,0.1,0.2,0.2,0.2C60.6,164,60.7,163.9,60.7,163.8z"/>
		</g>
		<g class="st2">
			<path class="st9" d="M62.9,162.9v1.1c0,0.5-0.3,0.7-0.8,0.7c-0.3,0-0.5-0.1-0.7-0.2l0.2-0.3c0.1,0.1,0.3,0.2,0.5,0.2
				c0.3,0,0.4-0.1,0.4-0.4V164c-0.1,0.1-0.3,0.2-0.4,0.2c-0.4,0-0.7-0.3-0.7-0.7s0.3-0.7,0.7-0.7c0.2,0,0.3,0.1,0.5,0.2v-0.2H62.9z
				 M62.5,163.5c0-0.2-0.1-0.3-0.4-0.3s-0.4,0.1-0.4,0.3s0.2,0.3,0.4,0.3S62.5,163.7,62.5,163.5z"/>
			<path class="st9" d="M64.5,163.5v0.8h-0.4v-0.2c-0.1,0.1-0.2,0.2-0.4,0.2c-0.3,0-0.5-0.2-0.5-0.4c0-0.2,0.2-0.4,0.6-0.4h0.3
				c0-0.2-0.1-0.3-0.3-0.3c-0.1,0-0.3,0-0.4,0.1l-0.1-0.3c0.1-0.1,0.4-0.2,0.6-0.2C64.3,162.9,64.5,163.1,64.5,163.5z M64.1,163.8
				v-0.1h-0.3c-0.2,0-0.2,0.1-0.2,0.2c0,0.1,0.1,0.2,0.2,0.2C63.9,164,64.1,163.9,64.1,163.8z"/>
			<path class="st9" d="M64.7,164.1l0.1-0.3c0.1,0.1,0.3,0.1,0.5,0.1c0.2,0,0.3,0,0.3-0.1c0-0.2-0.8,0-0.8-0.5
				c0-0.3,0.2-0.4,0.6-0.4c0.2,0,0.4,0,0.5,0.1l-0.1,0.3c-0.1-0.1-0.3-0.1-0.4-0.1c-0.2,0-0.3,0.1-0.3,0.1c0,0.2,0.8,0,0.8,0.5
				c0,0.3-0.2,0.4-0.6,0.4C65.1,164.3,64.9,164.2,64.7,164.1z"/>
		</g>
		<g class="st2">
			<path class="st9" d="M67.8,162.9v0.4c0,0-0.1,0-0.1,0c-0.2,0-0.4,0.1-0.4,0.4v0.6h-0.4v-1.4h0.4v0.2
				C67.4,162.9,67.6,162.9,67.8,162.9z"/>
		</g>
		<g class="st2">
			<path class="st9" d="M69.3,163.7h-1c0,0.2,0.2,0.3,0.4,0.3c0.1,0,0.2,0,0.3-0.1l0.2,0.2c-0.1,0.1-0.3,0.2-0.6,0.2
				c-0.5,0-0.8-0.3-0.8-0.7c0-0.4,0.3-0.7,0.7-0.7c0.4,0,0.7,0.3,0.7,0.7C69.3,163.6,69.3,163.6,69.3,163.7z M68.3,163.4H69
				c0-0.2-0.2-0.3-0.3-0.3C68.5,163.2,68.3,163.3,68.3,163.4z"/>
			<path class="st9" d="M69.6,162.4H70v1.9h-0.4V162.4z"/>
		</g>
		<g class="st2">
			<path class="st9" d="M71.6,163.5v0.8h-0.4v-0.2c-0.1,0.1-0.2,0.2-0.4,0.2c-0.3,0-0.5-0.2-0.5-0.4c0-0.2,0.2-0.4,0.6-0.4h0.3
				c0-0.2-0.1-0.3-0.3-0.3c-0.1,0-0.3,0-0.4,0.1l-0.1-0.3c0.1-0.1,0.4-0.2,0.6-0.2C71.3,162.9,71.6,163.1,71.6,163.5z M71.2,163.8
				v-0.1h-0.3c-0.2,0-0.2,0.1-0.2,0.2c0,0.1,0.1,0.2,0.2,0.2C71,164,71.1,163.9,71.2,163.8z"/>
		</g>
		<g class="st2">
			<path class="st9" d="M71.9,163.6c0-0.4,0.3-0.7,0.8-0.7c0.3,0,0.5,0.1,0.6,0.3l-0.3,0.2c-0.1-0.1-0.2-0.2-0.3-0.2
				c-0.2,0-0.4,0.1-0.4,0.4s0.2,0.4,0.4,0.4c0.1,0,0.2-0.1,0.3-0.2l0.3,0.2c-0.1,0.2-0.3,0.3-0.6,0.3
				C72.2,164.3,71.9,164,71.9,163.6z"/>
			<path class="st9" d="M73.4,162.5c0-0.1,0.1-0.2,0.2-0.2c0.1,0,0.2,0.1,0.2,0.2c0,0.1-0.1,0.2-0.2,0.2
				C73.5,162.7,73.4,162.6,73.4,162.5z M73.5,162.9h0.4v1.4h-0.4V162.9z"/>
			<path class="st9" d="M74.1,163.6c0-0.4,0.3-0.7,0.8-0.7c0.4,0,0.7,0.3,0.7,0.7s-0.3,0.7-0.7,0.7C74.4,164.3,74.1,164,74.1,163.6z
				 M75.2,163.6c0-0.2-0.1-0.4-0.3-0.4c-0.2,0-0.3,0.1-0.3,0.4c0,0.2,0.2,0.4,0.3,0.4C75.1,163.9,75.2,163.8,75.2,163.6z"/>
			<path class="st9" d="M77.3,163.5v0.8h-0.4v-0.7c0-0.2-0.1-0.3-0.3-0.3c-0.2,0-0.3,0.1-0.3,0.4v0.7h-0.4v-1.4h0.4v0.2
				c0.1-0.1,0.3-0.2,0.5-0.2C77,162.9,77.3,163.1,77.3,163.5z"/>
		</g>
		<g class="st2">
			<path class="st9" d="M78.9,163.5v0.8h-0.4v-0.2c-0.1,0.1-0.2,0.2-0.4,0.2c-0.3,0-0.5-0.2-0.5-0.4c0-0.2,0.2-0.4,0.6-0.4h0.3
				c0-0.2-0.1-0.3-0.3-0.3c-0.1,0-0.3,0-0.4,0.1l-0.1-0.3c0.1-0.1,0.4-0.2,0.6-0.2C78.6,162.9,78.9,163.1,78.9,163.5z M78.5,163.8
				v-0.1h-0.3c-0.2,0-0.2,0.1-0.2,0.2c0,0.1,0.1,0.2,0.2,0.2C78.3,164,78.4,163.9,78.5,163.8z"/>
		</g>
		<g class="st2">
			<path class="st9" d="M80.6,162.4v1.9h-0.4v-0.2c-0.1,0.1-0.2,0.2-0.4,0.2c-0.4,0-0.7-0.3-0.7-0.7c0-0.4,0.3-0.7,0.7-0.7
				c0.2,0,0.3,0.1,0.4,0.2v-0.7H80.6z M80.3,163.6c0-0.2-0.2-0.4-0.3-0.4c-0.2,0-0.3,0.1-0.3,0.4c0,0.2,0.2,0.4,0.3,0.4
				C80.1,163.9,80.3,163.8,80.3,163.6z"/>
			<path class="st9" d="M82.2,163.5v0.8h-0.4v-0.2c-0.1,0.1-0.2,0.2-0.4,0.2c-0.3,0-0.5-0.2-0.5-0.4c0-0.2,0.2-0.4,0.6-0.4h0.3
				c0-0.2-0.1-0.3-0.3-0.3c-0.1,0-0.3,0-0.4,0.1L81,163c0.1-0.1,0.4-0.2,0.6-0.2C82,162.9,82.2,163.1,82.2,163.5z M81.8,163.8v-0.1
				h-0.3c-0.2,0-0.2,0.1-0.2,0.2c0,0.1,0.1,0.2,0.2,0.2C81.7,164,81.8,163.9,81.8,163.8z"/>
			<path class="st9" d="M82.4,164.1l0.1-0.3c0.1,0.1,0.3,0.1,0.5,0.1c0.2,0,0.3,0,0.3-0.1c0-0.2-0.8,0-0.8-0.5
				c0-0.3,0.2-0.4,0.6-0.4c0.2,0,0.4,0,0.5,0.1l-0.1,0.3c-0.1-0.1-0.3-0.1-0.4-0.1c-0.2,0-0.3,0.1-0.3,0.1c0,0.2,0.8,0,0.8,0.5
				c0,0.3-0.2,0.4-0.6,0.4C82.8,164.3,82.6,164.2,82.4,164.1z"/>
		</g>
	</g>
</g>
</svg>
